%TF.GenerationSoftware,KiCad,Pcbnew,8.0.0*%
%TF.CreationDate,2024-03-15T11:04:31+11:00*%
%TF.ProjectId,PCAL6534EV-breakout,5043414c-3635-4333-9445-562d62726561,rev?*%
%TF.SameCoordinates,Original*%
%TF.FileFunction,Copper,L3,Inr*%
%TF.FilePolarity,Positive*%
%FSLAX46Y46*%
G04 Gerber Fmt 4.6, Leading zero omitted, Abs format (unit mm)*
G04 Created by KiCad (PCBNEW 8.0.0) date 2024-03-15 11:04:31*
%MOMM*%
%LPD*%
G01*
G04 APERTURE LIST*
%TA.AperFunction,ComponentPad*%
%ADD10R,1.700000X1.700000*%
%TD*%
%TA.AperFunction,ComponentPad*%
%ADD11O,1.700000X1.700000*%
%TD*%
%TA.AperFunction,ViaPad*%
%ADD12C,0.450000*%
%TD*%
%TA.AperFunction,ViaPad*%
%ADD13C,0.800000*%
%TD*%
%TA.AperFunction,Conductor*%
%ADD14C,0.090000*%
%TD*%
G04 APERTURE END LIST*
D10*
%TO.N,GND*%
%TO.C,J4*%
X153725000Y-124450000D03*
D11*
%TO.N,P2_0*%
X156265000Y-124450000D03*
%TO.N,P1_6*%
X153725000Y-126990000D03*
%TO.N,P2_2*%
X156265000Y-126990000D03*
%TO.N,P1_7*%
X153725000Y-129530000D03*
%TO.N,P2_1*%
X156265000Y-129530000D03*
%TO.N,P1_4*%
X153725000Y-132070000D03*
%TO.N,GND*%
X156265000Y-132070000D03*
%TD*%
D10*
%TO.N,GND*%
%TO.C,J3*%
X161350000Y-86350000D03*
D11*
%TO.N,+3V3*%
X161350000Y-88890000D03*
%TO.N,VIO*%
X161350000Y-91430000D03*
%TO.N,GND*%
X161350000Y-93970000D03*
%TO.N,/~{RESET}*%
X161350000Y-96510000D03*
%TO.N,GND*%
X161350000Y-99050000D03*
%TO.N,P4_1*%
X161350000Y-101590000D03*
%TO.N,P4_0*%
X161350000Y-104130000D03*
%TO.N,P3_7*%
X161350000Y-106670000D03*
%TO.N,P3_6*%
X161350000Y-109210000D03*
%TO.N,P3_5*%
X161350000Y-111750000D03*
%TO.N,P3_3*%
X161350000Y-114290000D03*
%TO.N,P3_2*%
X161350000Y-116830000D03*
%TO.N,P3_0*%
X161350000Y-119370000D03*
%TO.N,P2_7*%
X161350000Y-121910000D03*
%TO.N,P2_5*%
X161350000Y-124450000D03*
%TO.N,P2_6*%
X161350000Y-126990000D03*
%TO.N,P2_4*%
X161350000Y-129530000D03*
%TO.N,P2_3*%
X161350000Y-132070000D03*
%TO.N,GND*%
X161350000Y-134610000D03*
%TD*%
D10*
%TO.N,GND*%
%TO.C,J2*%
X148650000Y-86350000D03*
D11*
%TO.N,/SCL*%
X148650000Y-88890000D03*
%TO.N,/SDA*%
X148650000Y-91430000D03*
%TO.N,GND*%
X148650000Y-93970000D03*
%TO.N,/~{INT}*%
X148650000Y-96510000D03*
%TO.N,GND*%
X148650000Y-99050000D03*
%TO.N,P3_4*%
X148650000Y-101590000D03*
%TO.N,P0_2*%
X148650000Y-104130000D03*
%TO.N,P0_1*%
X148650000Y-106670000D03*
%TO.N,P0_5*%
X148650000Y-109210000D03*
%TO.N,P0_0*%
X148650000Y-111750000D03*
%TO.N,P0_4*%
X148650000Y-114290000D03*
%TO.N,P0_3*%
X148650000Y-116830000D03*
%TO.N,P0_7*%
X148650000Y-119370000D03*
%TO.N,P0_6*%
X148650000Y-121910000D03*
%TO.N,P1_2*%
X148650000Y-124450000D03*
%TO.N,P1_1*%
X148650000Y-126990000D03*
%TO.N,P1_5*%
X148650000Y-129530000D03*
%TO.N,P1_3*%
X148650000Y-132070000D03*
%TO.N,GND*%
X148650000Y-134610000D03*
%TD*%
D10*
%TO.N,+3V3*%
%TO.C,JP1*%
X156270000Y-93985000D03*
D11*
%TO.N,/V_{DD(P)}*%
X156270000Y-96525000D03*
%TO.N,VIO*%
X156270000Y-99065000D03*
%TD*%
D12*
%TO.N,GND*%
X156777996Y-109605002D03*
D13*
X152460000Y-133975000D03*
X153095000Y-134610000D03*
X153730000Y-133975000D03*
X154365000Y-134610000D03*
D12*
%TO.N,/SDA*%
X153603000Y-107305000D03*
%TO.N,GND*%
X157921002Y-101052000D03*
X157286000Y-95621000D03*
X157413000Y-92827000D03*
X153603000Y-108067000D03*
X151952000Y-109337000D03*
X151825000Y-104765000D03*
X155206978Y-105330000D03*
%TO.N,/ADDR*%
X155200000Y-105908000D03*
%TO.N,GND*%
X156695984Y-106371016D03*
%TO.N,/~{INT}*%
X152586998Y-109337000D03*
X152481000Y-104765000D03*
%TO.N,+3V3*%
X153607000Y-104765000D03*
X157413000Y-106289000D03*
%TO.N,/~{RESET}*%
X157413000Y-107305000D03*
%TO.N,GND*%
X156778000Y-107305000D03*
%TO.N,/V_{DD(P)}*%
X156143000Y-107305000D03*
%TO.N,GND*%
X154247629Y-106035686D03*
X154190000Y-107305000D03*
X151952000Y-107305000D03*
X151952000Y-106035000D03*
%TO.N,/SCL*%
X153602998Y-106035000D03*
%TO.N,Net-(JP4-A)*%
X152587000Y-107305000D03*
X152585883Y-106036117D03*
%TO.N,+3V3*%
X154000000Y-108600000D03*
%TO.N,GND*%
X156500030Y-91152030D03*
D13*
X157540000Y-133975000D03*
X156905000Y-134610000D03*
X156270000Y-133975000D03*
X155635000Y-134610000D03*
X155000000Y-133848000D03*
%TD*%
D14*
%TO.N,/~{RESET}*%
X157773000Y-101569000D02*
X157773000Y-107072000D01*
X157773000Y-107072000D02*
X157540000Y-107305000D01*
X157540000Y-101336000D02*
X157773000Y-101569000D01*
X157540000Y-100320000D02*
X157540000Y-101336000D01*
X161350000Y-96510000D02*
X157540000Y-100320000D01*
%TO.N,/~{INT}*%
X152989000Y-108934998D02*
X152586998Y-109337000D01*
X152481000Y-105422116D02*
X152989000Y-105930116D01*
X152989000Y-105930116D02*
X152989000Y-108934998D01*
X152481000Y-104765000D02*
X152481000Y-105422116D01*
X152481000Y-100341000D02*
X148650000Y-96510000D01*
X152481000Y-104765000D02*
X152481000Y-100341000D01*
%TO.N,/SDA*%
X153169000Y-106871000D02*
X153169000Y-105855558D01*
X152945000Y-95725000D02*
X148650000Y-91430000D01*
X153603000Y-107305000D02*
X153169000Y-106871000D01*
X152945000Y-105631558D02*
X152945000Y-95725000D01*
X153169000Y-105855558D02*
X152945000Y-105631558D01*
%TO.N,/SCL*%
X153125000Y-105557002D02*
X153602998Y-106035000D01*
X153125000Y-93365000D02*
X153125000Y-105557002D01*
X148650000Y-88890000D02*
X153125000Y-93365000D01*
%TO.N,Net-(JP4-A)*%
X152587000Y-106037234D02*
X152585883Y-106036117D01*
X152587000Y-107305000D02*
X152587000Y-106037234D01*
%TD*%
%TA.AperFunction,Conductor*%
%TO.N,GND*%
G36*
X162607113Y-133352887D02*
G01*
X162620000Y-133384000D01*
X162620000Y-135836000D01*
X162607113Y-135867113D01*
X162576000Y-135880000D01*
X147424000Y-135880000D01*
X147392887Y-135867113D01*
X147380000Y-135836000D01*
X147380000Y-133384000D01*
X147392887Y-133352887D01*
X147424000Y-133340000D01*
X162576000Y-133340000D01*
X162607113Y-133352887D01*
G37*
%TD.AperFunction*%
%TD*%
M02*
