%TF.GenerationSoftware,KiCad,Pcbnew,8.0.0*%
%TF.CreationDate,2024-03-15T11:04:31+11:00*%
%TF.ProjectId,PCAL6534EV-breakout,5043414c-3635-4333-9445-562d62726561,rev?*%
%TF.SameCoordinates,Original*%
%TF.FileFunction,Legend,Bot*%
%TF.FilePolarity,Positive*%
%FSLAX46Y46*%
G04 Gerber Fmt 4.6, Leading zero omitted, Abs format (unit mm)*
G04 Created by KiCad (PCBNEW 8.0.0) date 2024-03-15 11:04:31*
%MOMM*%
%LPD*%
G01*
G04 APERTURE LIST*
G04 Aperture macros list*
%AMFreePoly0*
4,1,19,0.500000,-0.750000,0.000000,-0.750000,0.000000,-0.744911,-0.071157,-0.744911,-0.207708,-0.704816,-0.327430,-0.627875,-0.420627,-0.520320,-0.479746,-0.390866,-0.500000,-0.250000,-0.500000,0.250000,-0.479746,0.390866,-0.420627,0.520320,-0.327430,0.627875,-0.207708,0.704816,-0.071157,0.744911,0.000000,0.744911,0.000000,0.750000,0.500000,0.750000,0.500000,-0.750000,0.500000,-0.750000,
$1*%
%AMFreePoly1*
4,1,19,0.000000,0.744911,0.071157,0.744911,0.207708,0.704816,0.327430,0.627875,0.420627,0.520320,0.479746,0.390866,0.500000,0.250000,0.500000,-0.250000,0.479746,-0.390866,0.420627,-0.520320,0.327430,-0.627875,0.207708,-0.704816,0.071157,-0.744911,0.000000,-0.744911,0.000000,-0.750000,-0.500000,-0.750000,-0.500000,0.750000,0.000000,0.750000,0.000000,0.744911,0.000000,0.744911,
$1*%
%AMFreePoly2*
4,1,19,0.000000,0.744911,0.071157,0.744911,0.207708,0.704816,0.327430,0.627875,0.420627,0.520320,0.479746,0.390866,0.500000,0.250000,0.500000,-0.250000,0.479746,-0.390866,0.420627,-0.520320,0.327430,-0.627875,0.207708,-0.704816,0.071157,-0.744911,0.000000,-0.744911,0.000000,-0.750000,-0.550000,-0.750000,-0.550000,0.750000,0.000000,0.750000,0.000000,0.744911,0.000000,0.744911,
$1*%
%AMFreePoly3*
4,1,19,0.550000,-0.750000,0.000000,-0.750000,0.000000,-0.744911,-0.071157,-0.744911,-0.207708,-0.704816,-0.327430,-0.627875,-0.420627,-0.520320,-0.479746,-0.390866,-0.500000,-0.250000,-0.500000,0.250000,-0.479746,0.390866,-0.420627,0.520320,-0.327430,0.627875,-0.207708,0.704816,-0.071157,0.744911,0.000000,0.744911,0.000000,0.750000,0.550000,0.750000,0.550000,-0.750000,0.550000,-0.750000,
$1*%
G04 Aperture macros list end*
%ADD10C,0.100000*%
%ADD11C,0.150000*%
%ADD12C,0.080000*%
%ADD13C,0.125000*%
%ADD14C,0.010000*%
%ADD15C,0.120000*%
%ADD16R,1.700000X1.700000*%
%ADD17O,1.700000X1.700000*%
%ADD18FreePoly0,90.000000*%
%ADD19FreePoly1,90.000000*%
%ADD20FreePoly2,270.000000*%
%ADD21R,1.500000X1.000000*%
%ADD22FreePoly3,270.000000*%
%ADD23FreePoly2,90.000000*%
%ADD24FreePoly3,90.000000*%
G04 APERTURE END LIST*
D10*
X157745388Y-90736931D02*
X157745388Y-90794074D01*
X157745388Y-90794074D02*
X157773959Y-90851217D01*
X157773959Y-90851217D02*
X157802531Y-90879789D01*
X157802531Y-90879789D02*
X157859674Y-90908360D01*
X157859674Y-90908360D02*
X157973959Y-90936931D01*
X157973959Y-90936931D02*
X158116817Y-90936931D01*
X158116817Y-90936931D02*
X158231102Y-90908360D01*
X158231102Y-90908360D02*
X158288245Y-90879789D01*
X158288245Y-90879789D02*
X158316817Y-90851217D01*
X158316817Y-90851217D02*
X158345388Y-90794074D01*
X158345388Y-90794074D02*
X158345388Y-90736931D01*
X158345388Y-90736931D02*
X158316817Y-90679789D01*
X158316817Y-90679789D02*
X158288245Y-90651217D01*
X158288245Y-90651217D02*
X158231102Y-90622646D01*
X158231102Y-90622646D02*
X158116817Y-90594074D01*
X158116817Y-90594074D02*
X157973959Y-90594074D01*
X157973959Y-90594074D02*
X157859674Y-90622646D01*
X157859674Y-90622646D02*
X157802531Y-90651217D01*
X157802531Y-90651217D02*
X157773959Y-90679789D01*
X157773959Y-90679789D02*
X157745388Y-90736931D01*
X158345388Y-91194075D02*
X157745388Y-91194075D01*
X157973959Y-91194075D02*
X157945388Y-91251218D01*
X157945388Y-91251218D02*
X157945388Y-91365503D01*
X157945388Y-91365503D02*
X157973959Y-91422646D01*
X157973959Y-91422646D02*
X158002531Y-91451218D01*
X158002531Y-91451218D02*
X158059674Y-91479789D01*
X158059674Y-91479789D02*
X158231102Y-91479789D01*
X158231102Y-91479789D02*
X158288245Y-91451218D01*
X158288245Y-91451218D02*
X158316817Y-91422646D01*
X158316817Y-91422646D02*
X158345388Y-91365503D01*
X158345388Y-91365503D02*
X158345388Y-91251218D01*
X158345388Y-91251218D02*
X158316817Y-91194075D01*
X157745388Y-91851217D02*
X157745388Y-91908360D01*
X157745388Y-91908360D02*
X157773959Y-91965503D01*
X157773959Y-91965503D02*
X157802531Y-91994075D01*
X157802531Y-91994075D02*
X157859674Y-92022646D01*
X157859674Y-92022646D02*
X157973959Y-92051217D01*
X157973959Y-92051217D02*
X158116817Y-92051217D01*
X158116817Y-92051217D02*
X158231102Y-92022646D01*
X158231102Y-92022646D02*
X158288245Y-91994075D01*
X158288245Y-91994075D02*
X158316817Y-91965503D01*
X158316817Y-91965503D02*
X158345388Y-91908360D01*
X158345388Y-91908360D02*
X158345388Y-91851217D01*
X158345388Y-91851217D02*
X158316817Y-91794075D01*
X158316817Y-91794075D02*
X158288245Y-91765503D01*
X158288245Y-91765503D02*
X158231102Y-91736932D01*
X158231102Y-91736932D02*
X158116817Y-91708360D01*
X158116817Y-91708360D02*
X157973959Y-91708360D01*
X157973959Y-91708360D02*
X157859674Y-91736932D01*
X157859674Y-91736932D02*
X157802531Y-91765503D01*
X157802531Y-91765503D02*
X157773959Y-91794075D01*
X157773959Y-91794075D02*
X157745388Y-91851217D01*
X158345388Y-92622646D02*
X158345388Y-92279789D01*
X158345388Y-92451218D02*
X157745388Y-92451218D01*
X157745388Y-92451218D02*
X157831102Y-92394075D01*
X157831102Y-92394075D02*
X157888245Y-92336932D01*
X157888245Y-92336932D02*
X157916817Y-92279789D01*
X157745388Y-92994075D02*
X157745388Y-93051218D01*
X157745388Y-93051218D02*
X157773959Y-93108361D01*
X157773959Y-93108361D02*
X157802531Y-93136933D01*
X157802531Y-93136933D02*
X157859674Y-93165504D01*
X157859674Y-93165504D02*
X157973959Y-93194075D01*
X157973959Y-93194075D02*
X158116817Y-93194075D01*
X158116817Y-93194075D02*
X158231102Y-93165504D01*
X158231102Y-93165504D02*
X158288245Y-93136933D01*
X158288245Y-93136933D02*
X158316817Y-93108361D01*
X158316817Y-93108361D02*
X158345388Y-93051218D01*
X158345388Y-93051218D02*
X158345388Y-92994075D01*
X158345388Y-92994075D02*
X158316817Y-92936933D01*
X158316817Y-92936933D02*
X158288245Y-92908361D01*
X158288245Y-92908361D02*
X158231102Y-92879790D01*
X158231102Y-92879790D02*
X158116817Y-92851218D01*
X158116817Y-92851218D02*
X157973959Y-92851218D01*
X157973959Y-92851218D02*
X157859674Y-92879790D01*
X157859674Y-92879790D02*
X157802531Y-92908361D01*
X157802531Y-92908361D02*
X157773959Y-92936933D01*
X157773959Y-92936933D02*
X157745388Y-92994075D01*
X157745388Y-93565504D02*
X157745388Y-93622647D01*
X157745388Y-93622647D02*
X157773959Y-93679790D01*
X157773959Y-93679790D02*
X157802531Y-93708362D01*
X157802531Y-93708362D02*
X157859674Y-93736933D01*
X157859674Y-93736933D02*
X157973959Y-93765504D01*
X157973959Y-93765504D02*
X158116817Y-93765504D01*
X158116817Y-93765504D02*
X158231102Y-93736933D01*
X158231102Y-93736933D02*
X158288245Y-93708362D01*
X158288245Y-93708362D02*
X158316817Y-93679790D01*
X158316817Y-93679790D02*
X158345388Y-93622647D01*
X158345388Y-93622647D02*
X158345388Y-93565504D01*
X158345388Y-93565504D02*
X158316817Y-93508362D01*
X158316817Y-93508362D02*
X158288245Y-93479790D01*
X158288245Y-93479790D02*
X158231102Y-93451219D01*
X158231102Y-93451219D02*
X158116817Y-93422647D01*
X158116817Y-93422647D02*
X157973959Y-93422647D01*
X157973959Y-93422647D02*
X157859674Y-93451219D01*
X157859674Y-93451219D02*
X157802531Y-93479790D01*
X157802531Y-93479790D02*
X157773959Y-93508362D01*
X157773959Y-93508362D02*
X157745388Y-93565504D01*
X157745388Y-94136933D02*
X157745388Y-94194076D01*
X157745388Y-94194076D02*
X157773959Y-94251219D01*
X157773959Y-94251219D02*
X157802531Y-94279791D01*
X157802531Y-94279791D02*
X157859674Y-94308362D01*
X157859674Y-94308362D02*
X157973959Y-94336933D01*
X157973959Y-94336933D02*
X158116817Y-94336933D01*
X158116817Y-94336933D02*
X158231102Y-94308362D01*
X158231102Y-94308362D02*
X158288245Y-94279791D01*
X158288245Y-94279791D02*
X158316817Y-94251219D01*
X158316817Y-94251219D02*
X158345388Y-94194076D01*
X158345388Y-94194076D02*
X158345388Y-94136933D01*
X158345388Y-94136933D02*
X158316817Y-94079791D01*
X158316817Y-94079791D02*
X158288245Y-94051219D01*
X158288245Y-94051219D02*
X158231102Y-94022648D01*
X158231102Y-94022648D02*
X158116817Y-93994076D01*
X158116817Y-93994076D02*
X157973959Y-93994076D01*
X157973959Y-93994076D02*
X157859674Y-94022648D01*
X157859674Y-94022648D02*
X157802531Y-94051219D01*
X157802531Y-94051219D02*
X157773959Y-94079791D01*
X157773959Y-94079791D02*
X157745388Y-94136933D01*
X157745388Y-94536934D02*
X158345388Y-94936934D01*
X157745388Y-94936934D02*
X158345388Y-94536934D01*
X158059674Y-95279791D02*
X158345388Y-95279791D01*
X157745388Y-95079791D02*
X158059674Y-95279791D01*
X158059674Y-95279791D02*
X157745388Y-95479791D01*
X159311354Y-90622646D02*
X158711354Y-90622646D01*
X158711354Y-90622646D02*
X158711354Y-90765503D01*
X158711354Y-90765503D02*
X158739925Y-90851217D01*
X158739925Y-90851217D02*
X158797068Y-90908360D01*
X158797068Y-90908360D02*
X158854211Y-90936931D01*
X158854211Y-90936931D02*
X158968497Y-90965503D01*
X158968497Y-90965503D02*
X159054211Y-90965503D01*
X159054211Y-90965503D02*
X159168497Y-90936931D01*
X159168497Y-90936931D02*
X159225640Y-90908360D01*
X159225640Y-90908360D02*
X159282783Y-90851217D01*
X159282783Y-90851217D02*
X159311354Y-90765503D01*
X159311354Y-90765503D02*
X159311354Y-90622646D01*
X159282783Y-91451217D02*
X159311354Y-91394074D01*
X159311354Y-91394074D02*
X159311354Y-91279789D01*
X159311354Y-91279789D02*
X159282783Y-91222646D01*
X159282783Y-91222646D02*
X159225640Y-91194074D01*
X159225640Y-91194074D02*
X158997068Y-91194074D01*
X158997068Y-91194074D02*
X158939925Y-91222646D01*
X158939925Y-91222646D02*
X158911354Y-91279789D01*
X158911354Y-91279789D02*
X158911354Y-91394074D01*
X158911354Y-91394074D02*
X158939925Y-91451217D01*
X158939925Y-91451217D02*
X158997068Y-91479789D01*
X158997068Y-91479789D02*
X159054211Y-91479789D01*
X159054211Y-91479789D02*
X159111354Y-91194074D01*
X158911354Y-91651217D02*
X158911354Y-91879789D01*
X159311354Y-91736932D02*
X158797068Y-91736932D01*
X158797068Y-91736932D02*
X158739925Y-91765503D01*
X158739925Y-91765503D02*
X158711354Y-91822646D01*
X158711354Y-91822646D02*
X158711354Y-91879789D01*
X159311354Y-92336932D02*
X158997068Y-92336932D01*
X158997068Y-92336932D02*
X158939925Y-92308360D01*
X158939925Y-92308360D02*
X158911354Y-92251217D01*
X158911354Y-92251217D02*
X158911354Y-92136932D01*
X158911354Y-92136932D02*
X158939925Y-92079789D01*
X159282783Y-92336932D02*
X159311354Y-92279789D01*
X159311354Y-92279789D02*
X159311354Y-92136932D01*
X159311354Y-92136932D02*
X159282783Y-92079789D01*
X159282783Y-92079789D02*
X159225640Y-92051217D01*
X159225640Y-92051217D02*
X159168497Y-92051217D01*
X159168497Y-92051217D02*
X159111354Y-92079789D01*
X159111354Y-92079789D02*
X159082783Y-92136932D01*
X159082783Y-92136932D02*
X159082783Y-92279789D01*
X159082783Y-92279789D02*
X159054211Y-92336932D01*
X158911354Y-92879789D02*
X159311354Y-92879789D01*
X158911354Y-92622646D02*
X159225640Y-92622646D01*
X159225640Y-92622646D02*
X159282783Y-92651217D01*
X159282783Y-92651217D02*
X159311354Y-92708360D01*
X159311354Y-92708360D02*
X159311354Y-92794074D01*
X159311354Y-92794074D02*
X159282783Y-92851217D01*
X159282783Y-92851217D02*
X159254211Y-92879789D01*
X159311354Y-93251217D02*
X159282783Y-93194074D01*
X159282783Y-93194074D02*
X159225640Y-93165503D01*
X159225640Y-93165503D02*
X158711354Y-93165503D01*
X158911354Y-93394074D02*
X158911354Y-93622646D01*
X158711354Y-93479789D02*
X159225640Y-93479789D01*
X159225640Y-93479789D02*
X159282783Y-93508360D01*
X159282783Y-93508360D02*
X159311354Y-93565503D01*
X159311354Y-93565503D02*
X159311354Y-93622646D01*
X159254211Y-93822646D02*
X159282783Y-93851217D01*
X159282783Y-93851217D02*
X159311354Y-93822646D01*
X159311354Y-93822646D02*
X159282783Y-93794074D01*
X159282783Y-93794074D02*
X159254211Y-93822646D01*
X159254211Y-93822646D02*
X159311354Y-93822646D01*
X158939925Y-93822646D02*
X158968497Y-93851217D01*
X158968497Y-93851217D02*
X158997068Y-93822646D01*
X158997068Y-93822646D02*
X158968497Y-93794074D01*
X158968497Y-93794074D02*
X158939925Y-93822646D01*
X158939925Y-93822646D02*
X158997068Y-93822646D01*
X158711354Y-94679788D02*
X158711354Y-94736931D01*
X158711354Y-94736931D02*
X158739925Y-94794074D01*
X158739925Y-94794074D02*
X158768497Y-94822646D01*
X158768497Y-94822646D02*
X158825640Y-94851217D01*
X158825640Y-94851217D02*
X158939925Y-94879788D01*
X158939925Y-94879788D02*
X159082783Y-94879788D01*
X159082783Y-94879788D02*
X159197068Y-94851217D01*
X159197068Y-94851217D02*
X159254211Y-94822646D01*
X159254211Y-94822646D02*
X159282783Y-94794074D01*
X159282783Y-94794074D02*
X159311354Y-94736931D01*
X159311354Y-94736931D02*
X159311354Y-94679788D01*
X159311354Y-94679788D02*
X159282783Y-94622646D01*
X159282783Y-94622646D02*
X159254211Y-94594074D01*
X159254211Y-94594074D02*
X159197068Y-94565503D01*
X159197068Y-94565503D02*
X159082783Y-94536931D01*
X159082783Y-94536931D02*
X158939925Y-94536931D01*
X158939925Y-94536931D02*
X158825640Y-94565503D01*
X158825640Y-94565503D02*
X158768497Y-94594074D01*
X158768497Y-94594074D02*
X158739925Y-94622646D01*
X158739925Y-94622646D02*
X158711354Y-94679788D01*
X159311354Y-95079789D02*
X158911354Y-95394075D01*
X158911354Y-95079789D02*
X159311354Y-95394075D01*
X158768497Y-95594074D02*
X158739925Y-95622646D01*
X158739925Y-95622646D02*
X158711354Y-95679789D01*
X158711354Y-95679789D02*
X158711354Y-95822646D01*
X158711354Y-95822646D02*
X158739925Y-95879789D01*
X158739925Y-95879789D02*
X158768497Y-95908360D01*
X158768497Y-95908360D02*
X158825640Y-95936931D01*
X158825640Y-95936931D02*
X158882783Y-95936931D01*
X158882783Y-95936931D02*
X158968497Y-95908360D01*
X158968497Y-95908360D02*
X159311354Y-95565503D01*
X159311354Y-95565503D02*
X159311354Y-95936931D01*
X158711354Y-96308360D02*
X158711354Y-96365503D01*
X158711354Y-96365503D02*
X158739925Y-96422646D01*
X158739925Y-96422646D02*
X158768497Y-96451218D01*
X158768497Y-96451218D02*
X158825640Y-96479789D01*
X158825640Y-96479789D02*
X158939925Y-96508360D01*
X158939925Y-96508360D02*
X159082783Y-96508360D01*
X159082783Y-96508360D02*
X159197068Y-96479789D01*
X159197068Y-96479789D02*
X159254211Y-96451218D01*
X159254211Y-96451218D02*
X159282783Y-96422646D01*
X159282783Y-96422646D02*
X159311354Y-96365503D01*
X159311354Y-96365503D02*
X159311354Y-96308360D01*
X159311354Y-96308360D02*
X159282783Y-96251218D01*
X159282783Y-96251218D02*
X159254211Y-96222646D01*
X159254211Y-96222646D02*
X159197068Y-96194075D01*
X159197068Y-96194075D02*
X159082783Y-96165503D01*
X159082783Y-96165503D02*
X158939925Y-96165503D01*
X158939925Y-96165503D02*
X158825640Y-96194075D01*
X158825640Y-96194075D02*
X158768497Y-96222646D01*
X158768497Y-96222646D02*
X158739925Y-96251218D01*
X158739925Y-96251218D02*
X158711354Y-96308360D01*
X153095000Y-90160000D02*
X159953000Y-90160000D01*
X159953000Y-106162000D01*
X153095000Y-106162000D01*
X153095000Y-90160000D01*
X150047000Y-90160000D02*
X153095000Y-90160000D01*
X153095000Y-106162000D01*
X150047000Y-106162000D01*
X150047000Y-90160000D01*
X154129371Y-90622646D02*
X153529371Y-90622646D01*
X153586514Y-90879788D02*
X153557942Y-90908360D01*
X153557942Y-90908360D02*
X153529371Y-90965503D01*
X153529371Y-90965503D02*
X153529371Y-91108360D01*
X153529371Y-91108360D02*
X153557942Y-91165503D01*
X153557942Y-91165503D02*
X153586514Y-91194074D01*
X153586514Y-91194074D02*
X153643657Y-91222645D01*
X153643657Y-91222645D02*
X153700800Y-91222645D01*
X153700800Y-91222645D02*
X153786514Y-91194074D01*
X153786514Y-91194074D02*
X154129371Y-90851217D01*
X154129371Y-90851217D02*
X154129371Y-91222645D01*
X154072228Y-91822646D02*
X154100800Y-91794074D01*
X154100800Y-91794074D02*
X154129371Y-91708360D01*
X154129371Y-91708360D02*
X154129371Y-91651217D01*
X154129371Y-91651217D02*
X154100800Y-91565503D01*
X154100800Y-91565503D02*
X154043657Y-91508360D01*
X154043657Y-91508360D02*
X153986514Y-91479789D01*
X153986514Y-91479789D02*
X153872228Y-91451217D01*
X153872228Y-91451217D02*
X153786514Y-91451217D01*
X153786514Y-91451217D02*
X153672228Y-91479789D01*
X153672228Y-91479789D02*
X153615085Y-91508360D01*
X153615085Y-91508360D02*
X153557942Y-91565503D01*
X153557942Y-91565503D02*
X153529371Y-91651217D01*
X153529371Y-91651217D02*
X153529371Y-91708360D01*
X153529371Y-91708360D02*
X153557942Y-91794074D01*
X153557942Y-91794074D02*
X153586514Y-91822646D01*
X153900800Y-92079789D02*
X153900800Y-92536932D01*
X154129371Y-92822646D02*
X153529371Y-92822646D01*
X153529371Y-92822646D02*
X153529371Y-92965503D01*
X153529371Y-92965503D02*
X153557942Y-93051217D01*
X153557942Y-93051217D02*
X153615085Y-93108360D01*
X153615085Y-93108360D02*
X153672228Y-93136931D01*
X153672228Y-93136931D02*
X153786514Y-93165503D01*
X153786514Y-93165503D02*
X153872228Y-93165503D01*
X153872228Y-93165503D02*
X153986514Y-93136931D01*
X153986514Y-93136931D02*
X154043657Y-93108360D01*
X154043657Y-93108360D02*
X154100800Y-93051217D01*
X154100800Y-93051217D02*
X154129371Y-92965503D01*
X154129371Y-92965503D02*
X154129371Y-92822646D01*
X153815085Y-93422646D02*
X153815085Y-93622646D01*
X154129371Y-93708360D02*
X154129371Y-93422646D01*
X154129371Y-93422646D02*
X153529371Y-93422646D01*
X153529371Y-93422646D02*
X153529371Y-93708360D01*
X153529371Y-93879788D02*
X154129371Y-94079788D01*
X154129371Y-94079788D02*
X153529371Y-94279788D01*
X154129371Y-94479789D02*
X153529371Y-94479789D01*
X154072228Y-95108360D02*
X154100800Y-95079788D01*
X154100800Y-95079788D02*
X154129371Y-94994074D01*
X154129371Y-94994074D02*
X154129371Y-94936931D01*
X154129371Y-94936931D02*
X154100800Y-94851217D01*
X154100800Y-94851217D02*
X154043657Y-94794074D01*
X154043657Y-94794074D02*
X153986514Y-94765503D01*
X153986514Y-94765503D02*
X153872228Y-94736931D01*
X153872228Y-94736931D02*
X153786514Y-94736931D01*
X153786514Y-94736931D02*
X153672228Y-94765503D01*
X153672228Y-94765503D02*
X153615085Y-94794074D01*
X153615085Y-94794074D02*
X153557942Y-94851217D01*
X153557942Y-94851217D02*
X153529371Y-94936931D01*
X153529371Y-94936931D02*
X153529371Y-94994074D01*
X153529371Y-94994074D02*
X153557942Y-95079788D01*
X153557942Y-95079788D02*
X153586514Y-95108360D01*
X153815085Y-95365503D02*
X153815085Y-95565503D01*
X154129371Y-95651217D02*
X154129371Y-95365503D01*
X154129371Y-95365503D02*
X153529371Y-95365503D01*
X153529371Y-95365503D02*
X153529371Y-95651217D01*
X153957942Y-96336931D02*
X153957942Y-96622646D01*
X154129371Y-96279788D02*
X153529371Y-96479788D01*
X153529371Y-96479788D02*
X154129371Y-96679788D01*
X154129371Y-96879789D02*
X153529371Y-96879789D01*
X153529371Y-96879789D02*
X153529371Y-97022646D01*
X153529371Y-97022646D02*
X153557942Y-97108360D01*
X153557942Y-97108360D02*
X153615085Y-97165503D01*
X153615085Y-97165503D02*
X153672228Y-97194074D01*
X153672228Y-97194074D02*
X153786514Y-97222646D01*
X153786514Y-97222646D02*
X153872228Y-97222646D01*
X153872228Y-97222646D02*
X153986514Y-97194074D01*
X153986514Y-97194074D02*
X154043657Y-97165503D01*
X154043657Y-97165503D02*
X154100800Y-97108360D01*
X154100800Y-97108360D02*
X154129371Y-97022646D01*
X154129371Y-97022646D02*
X154129371Y-96879789D01*
X154129371Y-97479789D02*
X153529371Y-97479789D01*
X153529371Y-97479789D02*
X153529371Y-97622646D01*
X153529371Y-97622646D02*
X153557942Y-97708360D01*
X153557942Y-97708360D02*
X153615085Y-97765503D01*
X153615085Y-97765503D02*
X153672228Y-97794074D01*
X153672228Y-97794074D02*
X153786514Y-97822646D01*
X153786514Y-97822646D02*
X153872228Y-97822646D01*
X153872228Y-97822646D02*
X153986514Y-97794074D01*
X153986514Y-97794074D02*
X154043657Y-97765503D01*
X154043657Y-97765503D02*
X154100800Y-97708360D01*
X154100800Y-97708360D02*
X154129371Y-97622646D01*
X154129371Y-97622646D02*
X154129371Y-97479789D01*
X154129371Y-98422646D02*
X153843657Y-98222646D01*
X154129371Y-98079789D02*
X153529371Y-98079789D01*
X153529371Y-98079789D02*
X153529371Y-98308360D01*
X153529371Y-98308360D02*
X153557942Y-98365503D01*
X153557942Y-98365503D02*
X153586514Y-98394074D01*
X153586514Y-98394074D02*
X153643657Y-98422646D01*
X153643657Y-98422646D02*
X153729371Y-98422646D01*
X153729371Y-98422646D02*
X153786514Y-98394074D01*
X153786514Y-98394074D02*
X153815085Y-98365503D01*
X153815085Y-98365503D02*
X153843657Y-98308360D01*
X153843657Y-98308360D02*
X153843657Y-98079789D01*
X153815085Y-98679789D02*
X153815085Y-98879789D01*
X154129371Y-98965503D02*
X154129371Y-98679789D01*
X154129371Y-98679789D02*
X153529371Y-98679789D01*
X153529371Y-98679789D02*
X153529371Y-98965503D01*
X154100800Y-99194074D02*
X154129371Y-99279789D01*
X154129371Y-99279789D02*
X154129371Y-99422646D01*
X154129371Y-99422646D02*
X154100800Y-99479789D01*
X154100800Y-99479789D02*
X154072228Y-99508360D01*
X154072228Y-99508360D02*
X154015085Y-99536931D01*
X154015085Y-99536931D02*
X153957942Y-99536931D01*
X153957942Y-99536931D02*
X153900800Y-99508360D01*
X153900800Y-99508360D02*
X153872228Y-99479789D01*
X153872228Y-99479789D02*
X153843657Y-99422646D01*
X153843657Y-99422646D02*
X153815085Y-99308360D01*
X153815085Y-99308360D02*
X153786514Y-99251217D01*
X153786514Y-99251217D02*
X153757942Y-99222646D01*
X153757942Y-99222646D02*
X153700800Y-99194074D01*
X153700800Y-99194074D02*
X153643657Y-99194074D01*
X153643657Y-99194074D02*
X153586514Y-99222646D01*
X153586514Y-99222646D02*
X153557942Y-99251217D01*
X153557942Y-99251217D02*
X153529371Y-99308360D01*
X153529371Y-99308360D02*
X153529371Y-99451217D01*
X153529371Y-99451217D02*
X153557942Y-99536931D01*
X154100800Y-99765503D02*
X154129371Y-99851218D01*
X154129371Y-99851218D02*
X154129371Y-99994075D01*
X154129371Y-99994075D02*
X154100800Y-100051218D01*
X154100800Y-100051218D02*
X154072228Y-100079789D01*
X154072228Y-100079789D02*
X154015085Y-100108360D01*
X154015085Y-100108360D02*
X153957942Y-100108360D01*
X153957942Y-100108360D02*
X153900800Y-100079789D01*
X153900800Y-100079789D02*
X153872228Y-100051218D01*
X153872228Y-100051218D02*
X153843657Y-99994075D01*
X153843657Y-99994075D02*
X153815085Y-99879789D01*
X153815085Y-99879789D02*
X153786514Y-99822646D01*
X153786514Y-99822646D02*
X153757942Y-99794075D01*
X153757942Y-99794075D02*
X153700800Y-99765503D01*
X153700800Y-99765503D02*
X153643657Y-99765503D01*
X153643657Y-99765503D02*
X153586514Y-99794075D01*
X153586514Y-99794075D02*
X153557942Y-99822646D01*
X153557942Y-99822646D02*
X153529371Y-99879789D01*
X153529371Y-99879789D02*
X153529371Y-100022646D01*
X153529371Y-100022646D02*
X153557942Y-100108360D01*
X151081371Y-90622646D02*
X150481371Y-90622646D01*
X150538514Y-90879788D02*
X150509942Y-90908360D01*
X150509942Y-90908360D02*
X150481371Y-90965503D01*
X150481371Y-90965503D02*
X150481371Y-91108360D01*
X150481371Y-91108360D02*
X150509942Y-91165503D01*
X150509942Y-91165503D02*
X150538514Y-91194074D01*
X150538514Y-91194074D02*
X150595657Y-91222645D01*
X150595657Y-91222645D02*
X150652800Y-91222645D01*
X150652800Y-91222645D02*
X150738514Y-91194074D01*
X150738514Y-91194074D02*
X151081371Y-90851217D01*
X151081371Y-90851217D02*
X151081371Y-91222645D01*
X151024228Y-91822646D02*
X151052800Y-91794074D01*
X151052800Y-91794074D02*
X151081371Y-91708360D01*
X151081371Y-91708360D02*
X151081371Y-91651217D01*
X151081371Y-91651217D02*
X151052800Y-91565503D01*
X151052800Y-91565503D02*
X150995657Y-91508360D01*
X150995657Y-91508360D02*
X150938514Y-91479789D01*
X150938514Y-91479789D02*
X150824228Y-91451217D01*
X150824228Y-91451217D02*
X150738514Y-91451217D01*
X150738514Y-91451217D02*
X150624228Y-91479789D01*
X150624228Y-91479789D02*
X150567085Y-91508360D01*
X150567085Y-91508360D02*
X150509942Y-91565503D01*
X150509942Y-91565503D02*
X150481371Y-91651217D01*
X150481371Y-91651217D02*
X150481371Y-91708360D01*
X150481371Y-91708360D02*
X150509942Y-91794074D01*
X150509942Y-91794074D02*
X150538514Y-91822646D01*
X150852800Y-92079789D02*
X150852800Y-92536932D01*
X151081371Y-92822646D02*
X150481371Y-92822646D01*
X150481371Y-92822646D02*
X150481371Y-93051217D01*
X150481371Y-93051217D02*
X150509942Y-93108360D01*
X150509942Y-93108360D02*
X150538514Y-93136931D01*
X150538514Y-93136931D02*
X150595657Y-93165503D01*
X150595657Y-93165503D02*
X150681371Y-93165503D01*
X150681371Y-93165503D02*
X150738514Y-93136931D01*
X150738514Y-93136931D02*
X150767085Y-93108360D01*
X150767085Y-93108360D02*
X150795657Y-93051217D01*
X150795657Y-93051217D02*
X150795657Y-92822646D01*
X150481371Y-93422646D02*
X150967085Y-93422646D01*
X150967085Y-93422646D02*
X151024228Y-93451217D01*
X151024228Y-93451217D02*
X151052800Y-93479789D01*
X151052800Y-93479789D02*
X151081371Y-93536931D01*
X151081371Y-93536931D02*
X151081371Y-93651217D01*
X151081371Y-93651217D02*
X151052800Y-93708360D01*
X151052800Y-93708360D02*
X151024228Y-93736931D01*
X151024228Y-93736931D02*
X150967085Y-93765503D01*
X150967085Y-93765503D02*
X150481371Y-93765503D01*
X151081371Y-94336931D02*
X151081371Y-94051217D01*
X151081371Y-94051217D02*
X150481371Y-94051217D01*
X151081371Y-94822645D02*
X151081371Y-94536931D01*
X151081371Y-94536931D02*
X150481371Y-94536931D01*
X150481371Y-95022645D02*
X150967085Y-95022645D01*
X150967085Y-95022645D02*
X151024228Y-95051216D01*
X151024228Y-95051216D02*
X151052800Y-95079788D01*
X151052800Y-95079788D02*
X151081371Y-95136930D01*
X151081371Y-95136930D02*
X151081371Y-95251216D01*
X151081371Y-95251216D02*
X151052800Y-95308359D01*
X151052800Y-95308359D02*
X151024228Y-95336930D01*
X151024228Y-95336930D02*
X150967085Y-95365502D01*
X150967085Y-95365502D02*
X150481371Y-95365502D01*
X151081371Y-95651216D02*
X150481371Y-95651216D01*
X150481371Y-95651216D02*
X150481371Y-95879787D01*
X150481371Y-95879787D02*
X150509942Y-95936930D01*
X150509942Y-95936930D02*
X150538514Y-95965501D01*
X150538514Y-95965501D02*
X150595657Y-95994073D01*
X150595657Y-95994073D02*
X150681371Y-95994073D01*
X150681371Y-95994073D02*
X150738514Y-95965501D01*
X150738514Y-95965501D02*
X150767085Y-95936930D01*
X150767085Y-95936930D02*
X150795657Y-95879787D01*
X150795657Y-95879787D02*
X150795657Y-95651216D01*
X151081371Y-96708359D02*
X150481371Y-96708359D01*
X150481371Y-96708359D02*
X150481371Y-96851216D01*
X150481371Y-96851216D02*
X150509942Y-96936930D01*
X150509942Y-96936930D02*
X150567085Y-96994073D01*
X150567085Y-96994073D02*
X150624228Y-97022644D01*
X150624228Y-97022644D02*
X150738514Y-97051216D01*
X150738514Y-97051216D02*
X150824228Y-97051216D01*
X150824228Y-97051216D02*
X150938514Y-97022644D01*
X150938514Y-97022644D02*
X150995657Y-96994073D01*
X150995657Y-96994073D02*
X151052800Y-96936930D01*
X151052800Y-96936930D02*
X151081371Y-96851216D01*
X151081371Y-96851216D02*
X151081371Y-96708359D01*
X151081371Y-97308359D02*
X150481371Y-97308359D01*
X151052800Y-97565501D02*
X151081371Y-97651216D01*
X151081371Y-97651216D02*
X151081371Y-97794073D01*
X151081371Y-97794073D02*
X151052800Y-97851216D01*
X151052800Y-97851216D02*
X151024228Y-97879787D01*
X151024228Y-97879787D02*
X150967085Y-97908358D01*
X150967085Y-97908358D02*
X150909942Y-97908358D01*
X150909942Y-97908358D02*
X150852800Y-97879787D01*
X150852800Y-97879787D02*
X150824228Y-97851216D01*
X150824228Y-97851216D02*
X150795657Y-97794073D01*
X150795657Y-97794073D02*
X150767085Y-97679787D01*
X150767085Y-97679787D02*
X150738514Y-97622644D01*
X150738514Y-97622644D02*
X150709942Y-97594073D01*
X150709942Y-97594073D02*
X150652800Y-97565501D01*
X150652800Y-97565501D02*
X150595657Y-97565501D01*
X150595657Y-97565501D02*
X150538514Y-97594073D01*
X150538514Y-97594073D02*
X150509942Y-97622644D01*
X150509942Y-97622644D02*
X150481371Y-97679787D01*
X150481371Y-97679787D02*
X150481371Y-97822644D01*
X150481371Y-97822644D02*
X150509942Y-97908358D01*
X150909942Y-98136930D02*
X150909942Y-98422645D01*
X151081371Y-98079787D02*
X150481371Y-98279787D01*
X150481371Y-98279787D02*
X151081371Y-98479787D01*
X150767085Y-98879788D02*
X150795657Y-98965502D01*
X150795657Y-98965502D02*
X150824228Y-98994073D01*
X150824228Y-98994073D02*
X150881371Y-99022645D01*
X150881371Y-99022645D02*
X150967085Y-99022645D01*
X150967085Y-99022645D02*
X151024228Y-98994073D01*
X151024228Y-98994073D02*
X151052800Y-98965502D01*
X151052800Y-98965502D02*
X151081371Y-98908359D01*
X151081371Y-98908359D02*
X151081371Y-98679788D01*
X151081371Y-98679788D02*
X150481371Y-98679788D01*
X150481371Y-98679788D02*
X150481371Y-98879788D01*
X150481371Y-98879788D02*
X150509942Y-98936931D01*
X150509942Y-98936931D02*
X150538514Y-98965502D01*
X150538514Y-98965502D02*
X150595657Y-98994073D01*
X150595657Y-98994073D02*
X150652800Y-98994073D01*
X150652800Y-98994073D02*
X150709942Y-98965502D01*
X150709942Y-98965502D02*
X150738514Y-98936931D01*
X150738514Y-98936931D02*
X150767085Y-98879788D01*
X150767085Y-98879788D02*
X150767085Y-98679788D01*
X151081371Y-99565502D02*
X151081371Y-99279788D01*
X151081371Y-99279788D02*
X150481371Y-99279788D01*
X150767085Y-99765502D02*
X150767085Y-99965502D01*
X151081371Y-100051216D02*
X151081371Y-99765502D01*
X151081371Y-99765502D02*
X150481371Y-99765502D01*
X150481371Y-99765502D02*
X150481371Y-100051216D01*
G36*
X150288300Y-86045200D02*
G01*
X155952500Y-86045200D01*
X155952500Y-88128000D01*
X150288300Y-88128000D01*
X150288300Y-86045200D01*
G37*
G36*
X159545223Y-87611423D02*
G01*
X159344868Y-87614091D01*
X159295121Y-87591693D01*
X159270484Y-87569733D01*
X159243322Y-87520513D01*
X159240878Y-87444002D01*
X159262630Y-87395688D01*
X159284590Y-87371053D01*
X159333570Y-87344023D01*
X159543793Y-87341224D01*
X159545223Y-87611423D01*
G37*
G36*
X157226846Y-86617873D02*
G01*
X157027156Y-86620029D01*
X157125688Y-86319406D01*
X157226846Y-86617873D01*
G37*
G36*
X158245223Y-86484463D02*
G01*
X158138941Y-86485878D01*
X158137692Y-86485004D01*
X158132227Y-86485968D01*
X158044868Y-86487131D01*
X157995121Y-86464733D01*
X157970484Y-86442773D01*
X157943322Y-86393553D01*
X157940878Y-86317042D01*
X157962630Y-86268728D01*
X157984590Y-86244093D01*
X158033570Y-86217063D01*
X158243793Y-86214264D01*
X158245223Y-86484463D01*
G37*
G36*
X159754655Y-88121891D02*
G01*
X155936239Y-88121891D01*
X155936239Y-88013247D01*
X158480683Y-88013247D01*
X158507743Y-88040307D01*
X158526877Y-88044113D01*
X158946011Y-88040307D01*
X158973071Y-88013247D01*
X158973071Y-87974979D01*
X158946011Y-87947919D01*
X158926877Y-87944113D01*
X158776619Y-87945477D01*
X158773966Y-87444221D01*
X158820503Y-87487737D01*
X158822438Y-87493540D01*
X158837850Y-87505501D01*
X158841033Y-87506934D01*
X158841076Y-87506974D01*
X158841122Y-87506974D01*
X158923333Y-87543987D01*
X158959637Y-87531886D01*
X158976751Y-87497658D01*
X158964650Y-87461353D01*
X158949238Y-87449392D01*
X158900493Y-87427446D01*
X159143544Y-87427446D01*
X159146573Y-87522279D01*
X159143670Y-87530990D01*
X159147272Y-87544143D01*
X159147350Y-87546580D01*
X159148161Y-87547391D01*
X159148823Y-87549806D01*
X159180683Y-87607541D01*
X159180683Y-87613248D01*
X159191522Y-87629469D01*
X159194004Y-87631681D01*
X159194117Y-87631886D01*
X159194303Y-87631948D01*
X159220929Y-87655681D01*
X159222438Y-87660206D01*
X159237850Y-87672167D01*
X159241033Y-87673600D01*
X159241078Y-87673640D01*
X159241122Y-87673640D01*
X159301670Y-87700901D01*
X159307743Y-87706974D01*
X159321027Y-87709616D01*
X159323332Y-87710654D01*
X159324420Y-87710291D01*
X159326877Y-87710780D01*
X159545733Y-87707865D01*
X159547350Y-88013247D01*
X159574410Y-88040307D01*
X159612678Y-88040307D01*
X159639738Y-88013247D01*
X159643544Y-87994113D01*
X159639738Y-87274979D01*
X159612678Y-87247919D01*
X159593544Y-87244113D01*
X159333350Y-87247577D01*
X159323333Y-87244239D01*
X159310004Y-87247888D01*
X159307743Y-87247919D01*
X159306931Y-87248730D01*
X159304516Y-87249392D01*
X159246782Y-87281252D01*
X159241076Y-87281252D01*
X159224855Y-87292091D01*
X159222642Y-87294573D01*
X159222438Y-87294686D01*
X159222375Y-87294872D01*
X159198641Y-87321498D01*
X159194117Y-87323007D01*
X159182156Y-87338419D01*
X159180723Y-87341600D01*
X159180683Y-87341646D01*
X159180683Y-87341690D01*
X159153422Y-87402239D01*
X159147350Y-87408312D01*
X159144707Y-87421596D01*
X159143670Y-87423901D01*
X159144032Y-87424989D01*
X159143544Y-87427446D01*
X158900493Y-87427446D01*
X158895160Y-87425045D01*
X158836861Y-87370532D01*
X158835146Y-87366378D01*
X158773090Y-87278587D01*
X158773071Y-87274979D01*
X158764435Y-87266343D01*
X158754699Y-87252569D01*
X158749651Y-87251559D01*
X158746011Y-87247919D01*
X158731449Y-87247919D01*
X158717174Y-87245064D01*
X158712891Y-87247919D01*
X158707743Y-87247919D01*
X158697446Y-87258215D01*
X158685333Y-87266291D01*
X158684323Y-87271338D01*
X158680683Y-87274979D01*
X158676877Y-87294113D01*
X158680328Y-87946351D01*
X158507743Y-87947919D01*
X158480683Y-87974979D01*
X158480683Y-88013247D01*
X155936239Y-88013247D01*
X155936239Y-87746580D01*
X157647350Y-87746580D01*
X157674410Y-87773640D01*
X157693544Y-87777446D01*
X158246011Y-87773640D01*
X158273071Y-87746580D01*
X158273071Y-87708312D01*
X158246011Y-87681252D01*
X158226877Y-87677446D01*
X157674410Y-87681252D01*
X157647350Y-87708312D01*
X157647350Y-87746580D01*
X155936239Y-87746580D01*
X155936239Y-86852955D01*
X156014017Y-86852955D01*
X156014019Y-86852957D01*
X156024856Y-86869175D01*
X156074410Y-86913347D01*
X156112678Y-86913347D01*
X156128899Y-86902508D01*
X156143358Y-86886287D01*
X156280684Y-86886287D01*
X156307744Y-86913347D01*
X156326878Y-86917153D01*
X156679345Y-86913347D01*
X156706405Y-86886287D01*
X156709506Y-86870697D01*
X156843670Y-86870697D01*
X156860784Y-86904926D01*
X156897088Y-86917027D01*
X156931317Y-86899913D01*
X156940978Y-86882964D01*
X156995448Y-86716772D01*
X157259400Y-86713922D01*
X157322438Y-86899913D01*
X157356667Y-86917027D01*
X157392971Y-86904926D01*
X157410085Y-86870698D01*
X157407645Y-86851342D01*
X157339738Y-86650983D01*
X157339738Y-86648019D01*
X157338217Y-86646498D01*
X157175753Y-86167153D01*
X157543544Y-86167153D01*
X157547350Y-86886287D01*
X157574410Y-86913347D01*
X157612678Y-86913347D01*
X157639738Y-86886287D01*
X157643544Y-86867153D01*
X157640545Y-86300486D01*
X157843544Y-86300486D01*
X157846573Y-86395319D01*
X157843670Y-86404030D01*
X157847272Y-86417183D01*
X157847350Y-86419620D01*
X157848161Y-86420431D01*
X157848823Y-86422846D01*
X157880683Y-86480581D01*
X157880683Y-86486288D01*
X157891522Y-86502509D01*
X157894004Y-86504721D01*
X157894117Y-86504926D01*
X157894303Y-86504988D01*
X157920929Y-86528721D01*
X157922438Y-86533246D01*
X157937850Y-86545207D01*
X157941033Y-86546640D01*
X157941078Y-86546680D01*
X157941122Y-86546680D01*
X158001670Y-86573941D01*
X158007743Y-86580014D01*
X158021027Y-86582656D01*
X158023332Y-86583694D01*
X158024420Y-86583331D01*
X158026877Y-86583820D01*
X158031931Y-86583752D01*
X157844728Y-86856338D01*
X157851378Y-86894024D01*
X157882729Y-86915969D01*
X157920415Y-86909319D01*
X157934506Y-86895826D01*
X158149907Y-86582181D01*
X158245733Y-86580905D01*
X158247350Y-86886287D01*
X158274410Y-86913347D01*
X158312678Y-86913347D01*
X158339738Y-86886287D01*
X158547350Y-86886287D01*
X158574410Y-86913347D01*
X158593544Y-86917153D01*
X158946011Y-86913347D01*
X158973071Y-86886287D01*
X158976877Y-86867153D01*
X158975819Y-86667153D01*
X159176877Y-86667153D01*
X159179640Y-86729452D01*
X159177003Y-86737365D01*
X159180569Y-86750386D01*
X159180683Y-86752954D01*
X159181494Y-86753765D01*
X159182156Y-86756181D01*
X159214017Y-86813915D01*
X159214017Y-86819620D01*
X159224855Y-86835841D01*
X159227338Y-86838054D01*
X159227451Y-86838259D01*
X159227637Y-86838321D01*
X159254264Y-86862056D01*
X159255772Y-86866580D01*
X159271184Y-86878541D01*
X159274361Y-86879971D01*
X159274409Y-86880014D01*
X159274456Y-86880014D01*
X159335003Y-86907273D01*
X159341077Y-86913347D01*
X159354363Y-86915989D01*
X159356667Y-86917027D01*
X159357754Y-86916664D01*
X159360211Y-86917153D01*
X159517155Y-86913938D01*
X159523333Y-86917027D01*
X159542688Y-86914587D01*
X159659637Y-86871593D01*
X159676751Y-86837364D01*
X159664650Y-86801060D01*
X159630421Y-86783946D01*
X159611066Y-86786386D01*
X159527200Y-86817217D01*
X159526877Y-86817153D01*
X159377636Y-86820210D01*
X159328453Y-86798067D01*
X159303818Y-86776106D01*
X159276561Y-86726716D01*
X159274614Y-86682814D01*
X159295964Y-86635394D01*
X159317923Y-86610759D01*
X159369168Y-86582481D01*
X159372338Y-86582327D01*
X159493046Y-86549012D01*
X159497088Y-86550360D01*
X159515904Y-86545207D01*
X159573639Y-86513347D01*
X159579345Y-86513347D01*
X159595566Y-86502508D01*
X159597777Y-86500026D01*
X159597984Y-86499913D01*
X159598046Y-86499725D01*
X159621779Y-86473100D01*
X159626304Y-86471592D01*
X159638265Y-86456180D01*
X159639696Y-86453000D01*
X159639738Y-86452954D01*
X159639738Y-86452908D01*
X159666997Y-86392360D01*
X159673071Y-86386287D01*
X159675713Y-86373000D01*
X159676751Y-86370697D01*
X159676388Y-86369609D01*
X159676877Y-86367153D01*
X159674113Y-86304854D01*
X159676751Y-86296942D01*
X159673184Y-86283919D01*
X159673071Y-86281352D01*
X159672259Y-86280540D01*
X159671598Y-86278125D01*
X159639738Y-86220390D01*
X159639738Y-86214687D01*
X159628900Y-86198465D01*
X159626416Y-86196251D01*
X159626304Y-86196047D01*
X159626117Y-86195984D01*
X159599492Y-86172250D01*
X159597984Y-86167726D01*
X159582572Y-86155765D01*
X159579392Y-86154333D01*
X159579346Y-86154292D01*
X159579300Y-86154292D01*
X159518750Y-86127031D01*
X159512678Y-86120959D01*
X159499391Y-86118316D01*
X159497088Y-86117279D01*
X159496000Y-86117641D01*
X159493544Y-86117153D01*
X159336598Y-86120367D01*
X159330421Y-86117279D01*
X159311066Y-86119719D01*
X159194117Y-86162713D01*
X159177003Y-86196942D01*
X159189104Y-86233246D01*
X159223333Y-86250360D01*
X159242688Y-86247920D01*
X159326553Y-86217088D01*
X159326877Y-86217153D01*
X159476119Y-86214095D01*
X159525300Y-86236238D01*
X159549936Y-86258199D01*
X159577192Y-86307589D01*
X159579139Y-86351492D01*
X159557790Y-86398912D01*
X159535833Y-86423544D01*
X159484586Y-86451824D01*
X159481417Y-86451979D01*
X159360708Y-86485293D01*
X159356667Y-86483946D01*
X159337851Y-86489098D01*
X159280116Y-86520959D01*
X159274410Y-86520959D01*
X159258189Y-86531798D01*
X159255976Y-86534280D01*
X159255772Y-86534393D01*
X159255709Y-86534579D01*
X159231976Y-86561204D01*
X159227451Y-86562713D01*
X159215490Y-86578125D01*
X159214057Y-86581306D01*
X159214017Y-86581352D01*
X159214017Y-86581396D01*
X159186755Y-86641946D01*
X159180683Y-86648019D01*
X159178040Y-86661303D01*
X159177003Y-86663608D01*
X159177365Y-86664696D01*
X159176877Y-86667153D01*
X158975819Y-86667153D01*
X158973071Y-86148019D01*
X158946011Y-86120959D01*
X158926877Y-86117153D01*
X158574410Y-86120959D01*
X158547350Y-86148019D01*
X158547350Y-86186287D01*
X158574410Y-86213347D01*
X158593544Y-86217153D01*
X158877125Y-86214090D01*
X158878380Y-86451217D01*
X158674410Y-86454292D01*
X158647350Y-86481352D01*
X158647350Y-86519620D01*
X158674410Y-86546680D01*
X158693544Y-86550486D01*
X158878890Y-86547691D01*
X158880319Y-86817655D01*
X158574410Y-86820959D01*
X158547350Y-86848019D01*
X158547350Y-86886287D01*
X158339738Y-86886287D01*
X158343544Y-86867153D01*
X158339738Y-86148019D01*
X158312678Y-86120959D01*
X158293544Y-86117153D01*
X158033350Y-86120617D01*
X158023333Y-86117279D01*
X158010004Y-86120928D01*
X158007743Y-86120959D01*
X158006931Y-86121770D01*
X158004516Y-86122432D01*
X157946782Y-86154292D01*
X157941076Y-86154292D01*
X157924855Y-86165131D01*
X157922642Y-86167613D01*
X157922438Y-86167726D01*
X157922375Y-86167912D01*
X157898641Y-86194538D01*
X157894117Y-86196047D01*
X157882156Y-86211459D01*
X157880723Y-86214640D01*
X157880683Y-86214686D01*
X157880683Y-86214730D01*
X157853422Y-86275279D01*
X157847350Y-86281352D01*
X157844707Y-86294636D01*
X157843670Y-86296941D01*
X157844032Y-86298029D01*
X157843544Y-86300486D01*
X157640545Y-86300486D01*
X157639738Y-86148019D01*
X157612678Y-86120959D01*
X157574410Y-86120959D01*
X157547350Y-86148019D01*
X157543544Y-86167153D01*
X157175753Y-86167153D01*
X157175670Y-86166907D01*
X157176752Y-86163609D01*
X157169925Y-86149956D01*
X157164651Y-86134393D01*
X157161308Y-86132722D01*
X157159638Y-86129380D01*
X157144598Y-86124366D01*
X157130422Y-86117279D01*
X157126878Y-86118460D01*
X157123334Y-86117279D01*
X157109157Y-86124366D01*
X157094118Y-86129380D01*
X157092447Y-86132722D01*
X157089105Y-86134393D01*
X157079444Y-86151342D01*
X156917940Y-86644095D01*
X156914017Y-86648019D01*
X156914017Y-86656065D01*
X156843670Y-86870697D01*
X156709506Y-86870697D01*
X156710211Y-86867153D01*
X156706405Y-86148019D01*
X156679345Y-86120959D01*
X156641077Y-86120959D01*
X156614017Y-86148019D01*
X156610211Y-86167153D01*
X156613653Y-86817655D01*
X156307744Y-86820959D01*
X156280684Y-86848019D01*
X156280684Y-86886287D01*
X156143358Y-86886287D01*
X156173062Y-86852963D01*
X156173071Y-86852955D01*
X156173071Y-86814687D01*
X156173071Y-86814686D01*
X156173068Y-86814683D01*
X156162233Y-86798465D01*
X156112679Y-86754292D01*
X156112678Y-86754292D01*
X156074409Y-86754292D01*
X156058188Y-86765131D01*
X156014017Y-86814686D01*
X156014017Y-86852955D01*
X155936239Y-86852955D01*
X155936239Y-86486287D01*
X156014017Y-86486287D01*
X156024856Y-86502508D01*
X156074410Y-86546680D01*
X156112678Y-86546680D01*
X156128899Y-86535841D01*
X156173071Y-86486287D01*
X156173071Y-86448019D01*
X156162232Y-86431798D01*
X156112678Y-86387626D01*
X156074410Y-86387626D01*
X156058189Y-86398465D01*
X156014017Y-86448019D01*
X156014017Y-86486287D01*
X155936239Y-86486287D01*
X155936239Y-86039375D01*
X159754655Y-86039375D01*
X159754655Y-88121891D01*
G37*
D11*
X152014239Y-110437350D02*
X151980905Y-110404017D01*
X151980905Y-110404017D02*
X151880905Y-110337350D01*
X151880905Y-110337350D02*
X151814239Y-110304017D01*
X151814239Y-110304017D02*
X151714239Y-110270684D01*
X151714239Y-110270684D02*
X151547572Y-110237350D01*
X151547572Y-110237350D02*
X151414239Y-110237350D01*
X151414239Y-110237350D02*
X151247572Y-110270684D01*
X151247572Y-110270684D02*
X151147572Y-110304017D01*
X151147572Y-110304017D02*
X151080905Y-110337350D01*
X151080905Y-110337350D02*
X150980905Y-110404017D01*
X150980905Y-110404017D02*
X150947572Y-110437350D01*
X151680905Y-111104017D02*
X151714239Y-111070684D01*
X151714239Y-111070684D02*
X151747572Y-110970684D01*
X151747572Y-110970684D02*
X151747572Y-110904017D01*
X151747572Y-110904017D02*
X151714239Y-110804017D01*
X151714239Y-110804017D02*
X151647572Y-110737351D01*
X151647572Y-110737351D02*
X151580905Y-110704017D01*
X151580905Y-110704017D02*
X151447572Y-110670684D01*
X151447572Y-110670684D02*
X151347572Y-110670684D01*
X151347572Y-110670684D02*
X151214239Y-110704017D01*
X151214239Y-110704017D02*
X151147572Y-110737351D01*
X151147572Y-110737351D02*
X151080905Y-110804017D01*
X151080905Y-110804017D02*
X151047572Y-110904017D01*
X151047572Y-110904017D02*
X151047572Y-110970684D01*
X151047572Y-110970684D02*
X151080905Y-111070684D01*
X151080905Y-111070684D02*
X151114239Y-111104017D01*
X152014239Y-111337351D02*
X151980905Y-111370684D01*
X151980905Y-111370684D02*
X151880905Y-111437351D01*
X151880905Y-111437351D02*
X151814239Y-111470684D01*
X151814239Y-111470684D02*
X151714239Y-111504017D01*
X151714239Y-111504017D02*
X151547572Y-111537351D01*
X151547572Y-111537351D02*
X151414239Y-111537351D01*
X151414239Y-111537351D02*
X151247572Y-111504017D01*
X151247572Y-111504017D02*
X151147572Y-111470684D01*
X151147572Y-111470684D02*
X151080905Y-111437351D01*
X151080905Y-111437351D02*
X150980905Y-111370684D01*
X150980905Y-111370684D02*
X150947572Y-111337351D01*
X151047572Y-112604017D02*
X151547572Y-112604017D01*
X151547572Y-112604017D02*
X151647572Y-112570684D01*
X151647572Y-112570684D02*
X151714239Y-112504017D01*
X151714239Y-112504017D02*
X151747572Y-112404017D01*
X151747572Y-112404017D02*
X151747572Y-112337351D01*
X151747572Y-113037350D02*
X151714239Y-112970684D01*
X151714239Y-112970684D02*
X151680905Y-112937350D01*
X151680905Y-112937350D02*
X151614239Y-112904017D01*
X151614239Y-112904017D02*
X151414239Y-112904017D01*
X151414239Y-112904017D02*
X151347572Y-112937350D01*
X151347572Y-112937350D02*
X151314239Y-112970684D01*
X151314239Y-112970684D02*
X151280905Y-113037350D01*
X151280905Y-113037350D02*
X151280905Y-113137350D01*
X151280905Y-113137350D02*
X151314239Y-113204017D01*
X151314239Y-113204017D02*
X151347572Y-113237350D01*
X151347572Y-113237350D02*
X151414239Y-113270684D01*
X151414239Y-113270684D02*
X151614239Y-113270684D01*
X151614239Y-113270684D02*
X151680905Y-113237350D01*
X151680905Y-113237350D02*
X151714239Y-113204017D01*
X151714239Y-113204017D02*
X151747572Y-113137350D01*
X151747572Y-113137350D02*
X151747572Y-113037350D01*
X151714239Y-113837350D02*
X151747572Y-113770683D01*
X151747572Y-113770683D02*
X151747572Y-113637350D01*
X151747572Y-113637350D02*
X151714239Y-113570683D01*
X151714239Y-113570683D02*
X151647572Y-113537350D01*
X151647572Y-113537350D02*
X151380905Y-113537350D01*
X151380905Y-113537350D02*
X151314239Y-113570683D01*
X151314239Y-113570683D02*
X151280905Y-113637350D01*
X151280905Y-113637350D02*
X151280905Y-113770683D01*
X151280905Y-113770683D02*
X151314239Y-113837350D01*
X151314239Y-113837350D02*
X151380905Y-113870683D01*
X151380905Y-113870683D02*
X151447572Y-113870683D01*
X151447572Y-113870683D02*
X151514239Y-113537350D01*
X151747572Y-114270683D02*
X151714239Y-114204017D01*
X151714239Y-114204017D02*
X151647572Y-114170683D01*
X151647572Y-114170683D02*
X151047572Y-114170683D01*
X151747572Y-115070683D02*
X151047572Y-115070683D01*
X151047572Y-115070683D02*
X151547572Y-115304017D01*
X151547572Y-115304017D02*
X151047572Y-115537350D01*
X151047572Y-115537350D02*
X151747572Y-115537350D01*
X151747572Y-115870683D02*
X151280905Y-115870683D01*
X151047572Y-115870683D02*
X151080905Y-115837350D01*
X151080905Y-115837350D02*
X151114239Y-115870683D01*
X151114239Y-115870683D02*
X151080905Y-115904017D01*
X151080905Y-115904017D02*
X151047572Y-115870683D01*
X151047572Y-115870683D02*
X151114239Y-115870683D01*
X151714239Y-116504016D02*
X151747572Y-116437350D01*
X151747572Y-116437350D02*
X151747572Y-116304016D01*
X151747572Y-116304016D02*
X151714239Y-116237350D01*
X151714239Y-116237350D02*
X151680905Y-116204016D01*
X151680905Y-116204016D02*
X151614239Y-116170683D01*
X151614239Y-116170683D02*
X151414239Y-116170683D01*
X151414239Y-116170683D02*
X151347572Y-116204016D01*
X151347572Y-116204016D02*
X151314239Y-116237350D01*
X151314239Y-116237350D02*
X151280905Y-116304016D01*
X151280905Y-116304016D02*
X151280905Y-116437350D01*
X151280905Y-116437350D02*
X151314239Y-116504016D01*
X151747572Y-116804016D02*
X151047572Y-116804016D01*
X151747572Y-117104016D02*
X151380905Y-117104016D01*
X151380905Y-117104016D02*
X151314239Y-117070683D01*
X151314239Y-117070683D02*
X151280905Y-117004016D01*
X151280905Y-117004016D02*
X151280905Y-116904016D01*
X151280905Y-116904016D02*
X151314239Y-116837350D01*
X151314239Y-116837350D02*
X151347572Y-116804016D01*
X151747572Y-117737349D02*
X151380905Y-117737349D01*
X151380905Y-117737349D02*
X151314239Y-117704016D01*
X151314239Y-117704016D02*
X151280905Y-117637349D01*
X151280905Y-117637349D02*
X151280905Y-117504016D01*
X151280905Y-117504016D02*
X151314239Y-117437349D01*
X151714239Y-117737349D02*
X151747572Y-117670683D01*
X151747572Y-117670683D02*
X151747572Y-117504016D01*
X151747572Y-117504016D02*
X151714239Y-117437349D01*
X151714239Y-117437349D02*
X151647572Y-117404016D01*
X151647572Y-117404016D02*
X151580905Y-117404016D01*
X151580905Y-117404016D02*
X151514239Y-117437349D01*
X151514239Y-117437349D02*
X151480905Y-117504016D01*
X151480905Y-117504016D02*
X151480905Y-117670683D01*
X151480905Y-117670683D02*
X151447572Y-117737349D01*
X151714239Y-118337349D02*
X151747572Y-118270682D01*
X151747572Y-118270682D02*
X151747572Y-118137349D01*
X151747572Y-118137349D02*
X151714239Y-118070682D01*
X151714239Y-118070682D02*
X151647572Y-118037349D01*
X151647572Y-118037349D02*
X151380905Y-118037349D01*
X151380905Y-118037349D02*
X151314239Y-118070682D01*
X151314239Y-118070682D02*
X151280905Y-118137349D01*
X151280905Y-118137349D02*
X151280905Y-118270682D01*
X151280905Y-118270682D02*
X151314239Y-118337349D01*
X151314239Y-118337349D02*
X151380905Y-118370682D01*
X151380905Y-118370682D02*
X151447572Y-118370682D01*
X151447572Y-118370682D02*
X151514239Y-118037349D01*
X151747572Y-118770682D02*
X151714239Y-118704016D01*
X151714239Y-118704016D02*
X151647572Y-118670682D01*
X151647572Y-118670682D02*
X151047572Y-118670682D01*
X151714239Y-119070683D02*
X151747572Y-119070683D01*
X151747572Y-119070683D02*
X151814239Y-119037349D01*
X151814239Y-119037349D02*
X151847572Y-119004016D01*
X151114239Y-119870682D02*
X151080905Y-119904015D01*
X151080905Y-119904015D02*
X151047572Y-119970682D01*
X151047572Y-119970682D02*
X151047572Y-120137349D01*
X151047572Y-120137349D02*
X151080905Y-120204015D01*
X151080905Y-120204015D02*
X151114239Y-120237349D01*
X151114239Y-120237349D02*
X151180905Y-120270682D01*
X151180905Y-120270682D02*
X151247572Y-120270682D01*
X151247572Y-120270682D02*
X151347572Y-120237349D01*
X151347572Y-120237349D02*
X151747572Y-119837349D01*
X151747572Y-119837349D02*
X151747572Y-120270682D01*
X151047572Y-120704016D02*
X151047572Y-120770682D01*
X151047572Y-120770682D02*
X151080905Y-120837349D01*
X151080905Y-120837349D02*
X151114239Y-120870682D01*
X151114239Y-120870682D02*
X151180905Y-120904016D01*
X151180905Y-120904016D02*
X151314239Y-120937349D01*
X151314239Y-120937349D02*
X151480905Y-120937349D01*
X151480905Y-120937349D02*
X151614239Y-120904016D01*
X151614239Y-120904016D02*
X151680905Y-120870682D01*
X151680905Y-120870682D02*
X151714239Y-120837349D01*
X151714239Y-120837349D02*
X151747572Y-120770682D01*
X151747572Y-120770682D02*
X151747572Y-120704016D01*
X151747572Y-120704016D02*
X151714239Y-120637349D01*
X151714239Y-120637349D02*
X151680905Y-120604016D01*
X151680905Y-120604016D02*
X151614239Y-120570682D01*
X151614239Y-120570682D02*
X151480905Y-120537349D01*
X151480905Y-120537349D02*
X151314239Y-120537349D01*
X151314239Y-120537349D02*
X151180905Y-120570682D01*
X151180905Y-120570682D02*
X151114239Y-120604016D01*
X151114239Y-120604016D02*
X151080905Y-120637349D01*
X151080905Y-120637349D02*
X151047572Y-120704016D01*
X151114239Y-121204016D02*
X151080905Y-121237349D01*
X151080905Y-121237349D02*
X151047572Y-121304016D01*
X151047572Y-121304016D02*
X151047572Y-121470683D01*
X151047572Y-121470683D02*
X151080905Y-121537349D01*
X151080905Y-121537349D02*
X151114239Y-121570683D01*
X151114239Y-121570683D02*
X151180905Y-121604016D01*
X151180905Y-121604016D02*
X151247572Y-121604016D01*
X151247572Y-121604016D02*
X151347572Y-121570683D01*
X151347572Y-121570683D02*
X151747572Y-121170683D01*
X151747572Y-121170683D02*
X151747572Y-121604016D01*
X151280905Y-122204016D02*
X151747572Y-122204016D01*
X151014239Y-122037350D02*
X151514239Y-121870683D01*
X151514239Y-121870683D02*
X151514239Y-122304016D01*
X152874533Y-110570684D02*
X152874533Y-110237350D01*
X152874533Y-110237350D02*
X152174533Y-110237350D01*
X152874533Y-110804017D02*
X152407866Y-110804017D01*
X152174533Y-110804017D02*
X152207866Y-110770684D01*
X152207866Y-110770684D02*
X152241200Y-110804017D01*
X152241200Y-110804017D02*
X152207866Y-110837351D01*
X152207866Y-110837351D02*
X152174533Y-110804017D01*
X152174533Y-110804017D02*
X152241200Y-110804017D01*
X152841200Y-111437350D02*
X152874533Y-111370684D01*
X152874533Y-111370684D02*
X152874533Y-111237350D01*
X152874533Y-111237350D02*
X152841200Y-111170684D01*
X152841200Y-111170684D02*
X152807866Y-111137350D01*
X152807866Y-111137350D02*
X152741200Y-111104017D01*
X152741200Y-111104017D02*
X152541200Y-111104017D01*
X152541200Y-111104017D02*
X152474533Y-111137350D01*
X152474533Y-111137350D02*
X152441200Y-111170684D01*
X152441200Y-111170684D02*
X152407866Y-111237350D01*
X152407866Y-111237350D02*
X152407866Y-111370684D01*
X152407866Y-111370684D02*
X152441200Y-111437350D01*
X152841200Y-112004017D02*
X152874533Y-111937350D01*
X152874533Y-111937350D02*
X152874533Y-111804017D01*
X152874533Y-111804017D02*
X152841200Y-111737350D01*
X152841200Y-111737350D02*
X152774533Y-111704017D01*
X152774533Y-111704017D02*
X152507866Y-111704017D01*
X152507866Y-111704017D02*
X152441200Y-111737350D01*
X152441200Y-111737350D02*
X152407866Y-111804017D01*
X152407866Y-111804017D02*
X152407866Y-111937350D01*
X152407866Y-111937350D02*
X152441200Y-112004017D01*
X152441200Y-112004017D02*
X152507866Y-112037350D01*
X152507866Y-112037350D02*
X152574533Y-112037350D01*
X152574533Y-112037350D02*
X152641200Y-111704017D01*
X152407866Y-112337350D02*
X152874533Y-112337350D01*
X152474533Y-112337350D02*
X152441200Y-112370684D01*
X152441200Y-112370684D02*
X152407866Y-112437350D01*
X152407866Y-112437350D02*
X152407866Y-112537350D01*
X152407866Y-112537350D02*
X152441200Y-112604017D01*
X152441200Y-112604017D02*
X152507866Y-112637350D01*
X152507866Y-112637350D02*
X152874533Y-112637350D01*
X152841200Y-112937350D02*
X152874533Y-113004017D01*
X152874533Y-113004017D02*
X152874533Y-113137350D01*
X152874533Y-113137350D02*
X152841200Y-113204017D01*
X152841200Y-113204017D02*
X152774533Y-113237350D01*
X152774533Y-113237350D02*
X152741200Y-113237350D01*
X152741200Y-113237350D02*
X152674533Y-113204017D01*
X152674533Y-113204017D02*
X152641200Y-113137350D01*
X152641200Y-113137350D02*
X152641200Y-113037350D01*
X152641200Y-113037350D02*
X152607866Y-112970683D01*
X152607866Y-112970683D02*
X152541200Y-112937350D01*
X152541200Y-112937350D02*
X152507866Y-112937350D01*
X152507866Y-112937350D02*
X152441200Y-112970683D01*
X152441200Y-112970683D02*
X152407866Y-113037350D01*
X152407866Y-113037350D02*
X152407866Y-113137350D01*
X152407866Y-113137350D02*
X152441200Y-113204017D01*
X152841200Y-113804017D02*
X152874533Y-113737350D01*
X152874533Y-113737350D02*
X152874533Y-113604017D01*
X152874533Y-113604017D02*
X152841200Y-113537350D01*
X152841200Y-113537350D02*
X152774533Y-113504017D01*
X152774533Y-113504017D02*
X152507866Y-113504017D01*
X152507866Y-113504017D02*
X152441200Y-113537350D01*
X152441200Y-113537350D02*
X152407866Y-113604017D01*
X152407866Y-113604017D02*
X152407866Y-113737350D01*
X152407866Y-113737350D02*
X152441200Y-113804017D01*
X152441200Y-113804017D02*
X152507866Y-113837350D01*
X152507866Y-113837350D02*
X152574533Y-113837350D01*
X152574533Y-113837350D02*
X152641200Y-113504017D01*
X152807866Y-114137350D02*
X152841200Y-114170684D01*
X152841200Y-114170684D02*
X152874533Y-114137350D01*
X152874533Y-114137350D02*
X152841200Y-114104017D01*
X152841200Y-114104017D02*
X152807866Y-114137350D01*
X152807866Y-114137350D02*
X152874533Y-114137350D01*
X152441200Y-114137350D02*
X152474533Y-114170684D01*
X152474533Y-114170684D02*
X152507866Y-114137350D01*
X152507866Y-114137350D02*
X152474533Y-114104017D01*
X152474533Y-114104017D02*
X152441200Y-114137350D01*
X152441200Y-114137350D02*
X152507866Y-114137350D01*
X152807866Y-115404016D02*
X152841200Y-115370683D01*
X152841200Y-115370683D02*
X152874533Y-115270683D01*
X152874533Y-115270683D02*
X152874533Y-115204016D01*
X152874533Y-115204016D02*
X152841200Y-115104016D01*
X152841200Y-115104016D02*
X152774533Y-115037350D01*
X152774533Y-115037350D02*
X152707866Y-115004016D01*
X152707866Y-115004016D02*
X152574533Y-114970683D01*
X152574533Y-114970683D02*
X152474533Y-114970683D01*
X152474533Y-114970683D02*
X152341200Y-115004016D01*
X152341200Y-115004016D02*
X152274533Y-115037350D01*
X152274533Y-115037350D02*
X152207866Y-115104016D01*
X152207866Y-115104016D02*
X152174533Y-115204016D01*
X152174533Y-115204016D02*
X152174533Y-115270683D01*
X152174533Y-115270683D02*
X152207866Y-115370683D01*
X152207866Y-115370683D02*
X152241200Y-115404016D01*
X152507866Y-115704016D02*
X152507866Y-115937350D01*
X152874533Y-116037350D02*
X152874533Y-115704016D01*
X152874533Y-115704016D02*
X152174533Y-115704016D01*
X152174533Y-115704016D02*
X152174533Y-116037350D01*
X152874533Y-116737349D02*
X152541200Y-116504016D01*
X152874533Y-116337349D02*
X152174533Y-116337349D01*
X152174533Y-116337349D02*
X152174533Y-116604016D01*
X152174533Y-116604016D02*
X152207866Y-116670683D01*
X152207866Y-116670683D02*
X152241200Y-116704016D01*
X152241200Y-116704016D02*
X152307866Y-116737349D01*
X152307866Y-116737349D02*
X152407866Y-116737349D01*
X152407866Y-116737349D02*
X152474533Y-116704016D01*
X152474533Y-116704016D02*
X152507866Y-116670683D01*
X152507866Y-116670683D02*
X152541200Y-116604016D01*
X152541200Y-116604016D02*
X152541200Y-116337349D01*
X152874533Y-117037349D02*
X152174533Y-117037349D01*
X152174533Y-117037349D02*
X152874533Y-117437349D01*
X152874533Y-117437349D02*
X152174533Y-117437349D01*
X152607866Y-117770682D02*
X152607866Y-118304016D01*
X152174533Y-118770683D02*
X152174533Y-118904016D01*
X152174533Y-118904016D02*
X152207866Y-118970683D01*
X152207866Y-118970683D02*
X152274533Y-119037349D01*
X152274533Y-119037349D02*
X152407866Y-119070683D01*
X152407866Y-119070683D02*
X152641200Y-119070683D01*
X152641200Y-119070683D02*
X152774533Y-119037349D01*
X152774533Y-119037349D02*
X152841200Y-118970683D01*
X152841200Y-118970683D02*
X152874533Y-118904016D01*
X152874533Y-118904016D02*
X152874533Y-118770683D01*
X152874533Y-118770683D02*
X152841200Y-118704016D01*
X152841200Y-118704016D02*
X152774533Y-118637349D01*
X152774533Y-118637349D02*
X152641200Y-118604016D01*
X152641200Y-118604016D02*
X152407866Y-118604016D01*
X152407866Y-118604016D02*
X152274533Y-118637349D01*
X152274533Y-118637349D02*
X152207866Y-118704016D01*
X152207866Y-118704016D02*
X152174533Y-118770683D01*
X152874533Y-119370682D02*
X152174533Y-119370682D01*
X152507866Y-119370682D02*
X152507866Y-119770682D01*
X152874533Y-119770682D02*
X152174533Y-119770682D01*
X152874533Y-120437349D02*
X152874533Y-120104015D01*
X152874533Y-120104015D02*
X152174533Y-120104015D01*
X152607866Y-120670682D02*
X152607866Y-121204016D01*
X152174533Y-121470683D02*
X152874533Y-121637349D01*
X152874533Y-121637349D02*
X152374533Y-121770683D01*
X152374533Y-121770683D02*
X152874533Y-121904016D01*
X152874533Y-121904016D02*
X152174533Y-122070683D01*
D10*
X151571000Y-102225000D02*
X152079000Y-102225000D01*
X152079000Y-102479000D01*
X151571000Y-102479000D01*
X151571000Y-102225000D01*
G36*
X151571000Y-102225000D02*
G01*
X152079000Y-102225000D01*
X152079000Y-102479000D01*
X151571000Y-102479000D01*
X151571000Y-102225000D01*
G37*
X154746000Y-102860000D02*
X155254000Y-102860000D01*
X155254000Y-103114000D01*
X154746000Y-103114000D01*
X154746000Y-102860000D01*
G36*
X154746000Y-102860000D02*
G01*
X155254000Y-102860000D01*
X155254000Y-103114000D01*
X154746000Y-103114000D01*
X154746000Y-102860000D01*
G37*
D12*
X161550000Y-83693411D02*
X161550000Y-84121982D01*
X161550000Y-84121982D02*
X161578571Y-84207697D01*
X161578571Y-84207697D02*
X161635714Y-84264840D01*
X161635714Y-84264840D02*
X161721428Y-84293411D01*
X161721428Y-84293411D02*
X161778571Y-84293411D01*
X161321428Y-83693411D02*
X160950000Y-83693411D01*
X160950000Y-83693411D02*
X161150000Y-83921982D01*
X161150000Y-83921982D02*
X161064285Y-83921982D01*
X161064285Y-83921982D02*
X161007143Y-83950554D01*
X161007143Y-83950554D02*
X160978571Y-83979125D01*
X160978571Y-83979125D02*
X160950000Y-84036268D01*
X160950000Y-84036268D02*
X160950000Y-84179125D01*
X160950000Y-84179125D02*
X160978571Y-84236268D01*
X160978571Y-84236268D02*
X161007143Y-84264840D01*
X161007143Y-84264840D02*
X161064285Y-84293411D01*
X161064285Y-84293411D02*
X161235714Y-84293411D01*
X161235714Y-84293411D02*
X161292857Y-84264840D01*
X161292857Y-84264840D02*
X161321428Y-84236268D01*
X148850000Y-83693411D02*
X148850000Y-84121982D01*
X148850000Y-84121982D02*
X148878571Y-84207697D01*
X148878571Y-84207697D02*
X148935714Y-84264840D01*
X148935714Y-84264840D02*
X149021428Y-84293411D01*
X149021428Y-84293411D02*
X149078571Y-84293411D01*
X148592857Y-83750554D02*
X148564285Y-83721982D01*
X148564285Y-83721982D02*
X148507143Y-83693411D01*
X148507143Y-83693411D02*
X148364285Y-83693411D01*
X148364285Y-83693411D02*
X148307143Y-83721982D01*
X148307143Y-83721982D02*
X148278571Y-83750554D01*
X148278571Y-83750554D02*
X148250000Y-83807697D01*
X148250000Y-83807697D02*
X148250000Y-83864840D01*
X148250000Y-83864840D02*
X148278571Y-83950554D01*
X148278571Y-83950554D02*
X148621428Y-84293411D01*
X148621428Y-84293411D02*
X148250000Y-84293411D01*
X150101411Y-101851999D02*
X150529982Y-101851999D01*
X150529982Y-101851999D02*
X150615697Y-101823428D01*
X150615697Y-101823428D02*
X150672840Y-101766285D01*
X150672840Y-101766285D02*
X150701411Y-101680571D01*
X150701411Y-101680571D02*
X150701411Y-101623428D01*
X150701411Y-102137714D02*
X150101411Y-102137714D01*
X150101411Y-102137714D02*
X150101411Y-102366285D01*
X150101411Y-102366285D02*
X150129982Y-102423428D01*
X150129982Y-102423428D02*
X150158554Y-102451999D01*
X150158554Y-102451999D02*
X150215697Y-102480571D01*
X150215697Y-102480571D02*
X150301411Y-102480571D01*
X150301411Y-102480571D02*
X150358554Y-102451999D01*
X150358554Y-102451999D02*
X150387125Y-102423428D01*
X150387125Y-102423428D02*
X150415697Y-102366285D01*
X150415697Y-102366285D02*
X150415697Y-102137714D01*
X150301411Y-102994857D02*
X150701411Y-102994857D01*
X150072840Y-102851999D02*
X150501411Y-102709142D01*
X150501411Y-102709142D02*
X150501411Y-103080571D01*
X159150411Y-101851999D02*
X159578982Y-101851999D01*
X159578982Y-101851999D02*
X159664697Y-101823428D01*
X159664697Y-101823428D02*
X159721840Y-101766285D01*
X159721840Y-101766285D02*
X159750411Y-101680571D01*
X159750411Y-101680571D02*
X159750411Y-101623428D01*
X159750411Y-102137714D02*
X159150411Y-102137714D01*
X159150411Y-102137714D02*
X159150411Y-102366285D01*
X159150411Y-102366285D02*
X159178982Y-102423428D01*
X159178982Y-102423428D02*
X159207554Y-102451999D01*
X159207554Y-102451999D02*
X159264697Y-102480571D01*
X159264697Y-102480571D02*
X159350411Y-102480571D01*
X159350411Y-102480571D02*
X159407554Y-102451999D01*
X159407554Y-102451999D02*
X159436125Y-102423428D01*
X159436125Y-102423428D02*
X159464697Y-102366285D01*
X159464697Y-102366285D02*
X159464697Y-102137714D01*
X159150411Y-102680571D02*
X159150411Y-103051999D01*
X159150411Y-103051999D02*
X159378982Y-102851999D01*
X159378982Y-102851999D02*
X159378982Y-102937714D01*
X159378982Y-102937714D02*
X159407554Y-102994857D01*
X159407554Y-102994857D02*
X159436125Y-103023428D01*
X159436125Y-103023428D02*
X159493268Y-103051999D01*
X159493268Y-103051999D02*
X159636125Y-103051999D01*
X159636125Y-103051999D02*
X159693268Y-103023428D01*
X159693268Y-103023428D02*
X159721840Y-102994857D01*
X159721840Y-102994857D02*
X159750411Y-102937714D01*
X159750411Y-102937714D02*
X159750411Y-102766285D01*
X159750411Y-102766285D02*
X159721840Y-102709142D01*
X159721840Y-102709142D02*
X159693268Y-102680571D01*
D13*
X158192071Y-104941378D02*
X158192071Y-104598521D01*
X158192071Y-104769950D02*
X157592071Y-104769950D01*
X157592071Y-104769950D02*
X157677785Y-104712807D01*
X157677785Y-104712807D02*
X157734928Y-104655664D01*
X157734928Y-104655664D02*
X157763500Y-104598521D01*
X158192071Y-105512807D02*
X158192071Y-105169950D01*
X158192071Y-105341379D02*
X157592071Y-105341379D01*
X157592071Y-105341379D02*
X157677785Y-105284236D01*
X157677785Y-105284236D02*
X157734928Y-105227093D01*
X157734928Y-105227093D02*
X157763500Y-105169950D01*
X158192071Y-99534048D02*
X158192071Y-99191191D01*
X158192071Y-99362620D02*
X157592071Y-99362620D01*
X157592071Y-99362620D02*
X157677785Y-99305477D01*
X157677785Y-99305477D02*
X157734928Y-99248334D01*
X157734928Y-99248334D02*
X157763500Y-99191191D01*
X157592071Y-99905477D02*
X157592071Y-99962620D01*
X157592071Y-99962620D02*
X157620642Y-100019763D01*
X157620642Y-100019763D02*
X157649214Y-100048335D01*
X157649214Y-100048335D02*
X157706357Y-100076906D01*
X157706357Y-100076906D02*
X157820642Y-100105477D01*
X157820642Y-100105477D02*
X157963500Y-100105477D01*
X157963500Y-100105477D02*
X158077785Y-100076906D01*
X158077785Y-100076906D02*
X158134928Y-100048335D01*
X158134928Y-100048335D02*
X158163500Y-100019763D01*
X158163500Y-100019763D02*
X158192071Y-99962620D01*
X158192071Y-99962620D02*
X158192071Y-99905477D01*
X158192071Y-99905477D02*
X158163500Y-99848335D01*
X158163500Y-99848335D02*
X158134928Y-99819763D01*
X158134928Y-99819763D02*
X158077785Y-99791192D01*
X158077785Y-99791192D02*
X157963500Y-99762620D01*
X157963500Y-99762620D02*
X157820642Y-99762620D01*
X157820642Y-99762620D02*
X157706357Y-99791192D01*
X157706357Y-99791192D02*
X157649214Y-99819763D01*
X157649214Y-99819763D02*
X157620642Y-99848335D01*
X157620642Y-99848335D02*
X157592071Y-99905477D01*
D12*
X153241411Y-101851999D02*
X153669982Y-101851999D01*
X153669982Y-101851999D02*
X153755697Y-101823428D01*
X153755697Y-101823428D02*
X153812840Y-101766285D01*
X153812840Y-101766285D02*
X153841411Y-101680571D01*
X153841411Y-101680571D02*
X153841411Y-101623428D01*
X153841411Y-102137714D02*
X153241411Y-102137714D01*
X153241411Y-102137714D02*
X153241411Y-102366285D01*
X153241411Y-102366285D02*
X153269982Y-102423428D01*
X153269982Y-102423428D02*
X153298554Y-102451999D01*
X153298554Y-102451999D02*
X153355697Y-102480571D01*
X153355697Y-102480571D02*
X153441411Y-102480571D01*
X153441411Y-102480571D02*
X153498554Y-102451999D01*
X153498554Y-102451999D02*
X153527125Y-102423428D01*
X153527125Y-102423428D02*
X153555697Y-102366285D01*
X153555697Y-102366285D02*
X153555697Y-102137714D01*
X153298554Y-102709142D02*
X153269982Y-102737714D01*
X153269982Y-102737714D02*
X153241411Y-102794857D01*
X153241411Y-102794857D02*
X153241411Y-102937714D01*
X153241411Y-102937714D02*
X153269982Y-102994857D01*
X153269982Y-102994857D02*
X153298554Y-103023428D01*
X153298554Y-103023428D02*
X153355697Y-103051999D01*
X153355697Y-103051999D02*
X153412840Y-103051999D01*
X153412840Y-103051999D02*
X153498554Y-103023428D01*
X153498554Y-103023428D02*
X153841411Y-102680571D01*
X153841411Y-102680571D02*
X153841411Y-103051999D01*
D13*
X154371071Y-104741378D02*
X154371071Y-104798521D01*
X154371071Y-104798521D02*
X154399642Y-104855664D01*
X154399642Y-104855664D02*
X154428214Y-104884236D01*
X154428214Y-104884236D02*
X154485357Y-104912807D01*
X154485357Y-104912807D02*
X154599642Y-104941378D01*
X154599642Y-104941378D02*
X154742500Y-104941378D01*
X154742500Y-104941378D02*
X154856785Y-104912807D01*
X154856785Y-104912807D02*
X154913928Y-104884236D01*
X154913928Y-104884236D02*
X154942500Y-104855664D01*
X154942500Y-104855664D02*
X154971071Y-104798521D01*
X154971071Y-104798521D02*
X154971071Y-104741378D01*
X154971071Y-104741378D02*
X154942500Y-104684236D01*
X154942500Y-104684236D02*
X154913928Y-104655664D01*
X154913928Y-104655664D02*
X154856785Y-104627093D01*
X154856785Y-104627093D02*
X154742500Y-104598521D01*
X154742500Y-104598521D02*
X154599642Y-104598521D01*
X154599642Y-104598521D02*
X154485357Y-104627093D01*
X154485357Y-104627093D02*
X154428214Y-104655664D01*
X154428214Y-104655664D02*
X154399642Y-104684236D01*
X154399642Y-104684236D02*
X154371071Y-104741378D01*
X154371071Y-105312807D02*
X154371071Y-105369950D01*
X154371071Y-105369950D02*
X154399642Y-105427093D01*
X154399642Y-105427093D02*
X154428214Y-105455665D01*
X154428214Y-105455665D02*
X154485357Y-105484236D01*
X154485357Y-105484236D02*
X154599642Y-105512807D01*
X154599642Y-105512807D02*
X154742500Y-105512807D01*
X154742500Y-105512807D02*
X154856785Y-105484236D01*
X154856785Y-105484236D02*
X154913928Y-105455665D01*
X154913928Y-105455665D02*
X154942500Y-105427093D01*
X154942500Y-105427093D02*
X154971071Y-105369950D01*
X154971071Y-105369950D02*
X154971071Y-105312807D01*
X154971071Y-105312807D02*
X154942500Y-105255665D01*
X154942500Y-105255665D02*
X154913928Y-105227093D01*
X154913928Y-105227093D02*
X154856785Y-105198522D01*
X154856785Y-105198522D02*
X154742500Y-105169950D01*
X154742500Y-105169950D02*
X154599642Y-105169950D01*
X154599642Y-105169950D02*
X154485357Y-105198522D01*
X154485357Y-105198522D02*
X154428214Y-105227093D01*
X154428214Y-105227093D02*
X154399642Y-105255665D01*
X154399642Y-105255665D02*
X154371071Y-105312807D01*
X154671071Y-99334048D02*
X154671071Y-99391191D01*
X154671071Y-99391191D02*
X154699642Y-99448334D01*
X154699642Y-99448334D02*
X154728214Y-99476906D01*
X154728214Y-99476906D02*
X154785357Y-99505477D01*
X154785357Y-99505477D02*
X154899642Y-99534048D01*
X154899642Y-99534048D02*
X155042500Y-99534048D01*
X155042500Y-99534048D02*
X155156785Y-99505477D01*
X155156785Y-99505477D02*
X155213928Y-99476906D01*
X155213928Y-99476906D02*
X155242500Y-99448334D01*
X155242500Y-99448334D02*
X155271071Y-99391191D01*
X155271071Y-99391191D02*
X155271071Y-99334048D01*
X155271071Y-99334048D02*
X155242500Y-99276906D01*
X155242500Y-99276906D02*
X155213928Y-99248334D01*
X155213928Y-99248334D02*
X155156785Y-99219763D01*
X155156785Y-99219763D02*
X155042500Y-99191191D01*
X155042500Y-99191191D02*
X154899642Y-99191191D01*
X154899642Y-99191191D02*
X154785357Y-99219763D01*
X154785357Y-99219763D02*
X154728214Y-99248334D01*
X154728214Y-99248334D02*
X154699642Y-99276906D01*
X154699642Y-99276906D02*
X154671071Y-99334048D01*
X155271071Y-100105477D02*
X155271071Y-99762620D01*
X155271071Y-99934049D02*
X154671071Y-99934049D01*
X154671071Y-99934049D02*
X154756785Y-99876906D01*
X154756785Y-99876906D02*
X154813928Y-99819763D01*
X154813928Y-99819763D02*
X154842500Y-99762620D01*
D14*
%TO.C,REF\u002A\u002A*%
X159251264Y-120440873D02*
X159268739Y-120472233D01*
X159269575Y-120508034D01*
X159249082Y-120539472D01*
X159244416Y-120543348D01*
X159234949Y-120548814D01*
X159221267Y-120553021D01*
X159200748Y-120556133D01*
X159170768Y-120558313D01*
X159128704Y-120559724D01*
X159071932Y-120560529D01*
X158997830Y-120560893D01*
X158903773Y-120560978D01*
X158582227Y-120560978D01*
X158560647Y-120534327D01*
X158545877Y-120510614D01*
X158539067Y-120487600D01*
X158544949Y-120466594D01*
X158560647Y-120440873D01*
X158582227Y-120414222D01*
X159229684Y-120414222D01*
X159251264Y-120440873D01*
G36*
X159251264Y-120440873D02*
G01*
X159268739Y-120472233D01*
X159269575Y-120508034D01*
X159249082Y-120539472D01*
X159244416Y-120543348D01*
X159234949Y-120548814D01*
X159221267Y-120553021D01*
X159200748Y-120556133D01*
X159170768Y-120558313D01*
X159128704Y-120559724D01*
X159071932Y-120560529D01*
X158997830Y-120560893D01*
X158903773Y-120560978D01*
X158582227Y-120560978D01*
X158560647Y-120534327D01*
X158545877Y-120510614D01*
X158539067Y-120487600D01*
X158544949Y-120466594D01*
X158560647Y-120440873D01*
X158582227Y-120414222D01*
X159229684Y-120414222D01*
X159251264Y-120440873D01*
G37*
X158991567Y-113274041D02*
X159065789Y-113274299D01*
X159122541Y-113274970D01*
X159164512Y-113276248D01*
X159194389Y-113278327D01*
X159214861Y-113281401D01*
X159228614Y-113285666D01*
X159238337Y-113291316D01*
X159246717Y-113298545D01*
X159268181Y-113330009D01*
X159269947Y-113365174D01*
X159250267Y-113398178D01*
X159244398Y-113403484D01*
X159235314Y-113408934D01*
X159221973Y-113413100D01*
X159201757Y-113416154D01*
X159172049Y-113418268D01*
X159130232Y-113419614D01*
X159073689Y-113420362D01*
X158999802Y-113420686D01*
X158905956Y-113420755D01*
X158830294Y-113420716D01*
X158752385Y-113420461D01*
X158692375Y-113419817D01*
X158647648Y-113418613D01*
X158615585Y-113416676D01*
X158593571Y-113413836D01*
X158578987Y-113409921D01*
X158569218Y-113404758D01*
X158561645Y-113398178D01*
X158542623Y-113368994D01*
X158543463Y-113335863D01*
X158566776Y-113301709D01*
X158594485Y-113274000D01*
X158907537Y-113274000D01*
X158991567Y-113274041D01*
G36*
X158991567Y-113274041D02*
G01*
X159065789Y-113274299D01*
X159122541Y-113274970D01*
X159164512Y-113276248D01*
X159194389Y-113278327D01*
X159214861Y-113281401D01*
X159228614Y-113285666D01*
X159238337Y-113291316D01*
X159246717Y-113298545D01*
X159268181Y-113330009D01*
X159269947Y-113365174D01*
X159250267Y-113398178D01*
X159244398Y-113403484D01*
X159235314Y-113408934D01*
X159221973Y-113413100D01*
X159201757Y-113416154D01*
X159172049Y-113418268D01*
X159130232Y-113419614D01*
X159073689Y-113420362D01*
X158999802Y-113420686D01*
X158905956Y-113420755D01*
X158830294Y-113420716D01*
X158752385Y-113420461D01*
X158692375Y-113419817D01*
X158647648Y-113418613D01*
X158615585Y-113416676D01*
X158593571Y-113413836D01*
X158578987Y-113409921D01*
X158569218Y-113404758D01*
X158561645Y-113398178D01*
X158542623Y-113368994D01*
X158543463Y-113335863D01*
X158566776Y-113301709D01*
X158594485Y-113274000D01*
X158907537Y-113274000D01*
X158991567Y-113274041D01*
G37*
X153804307Y-113517331D02*
X153845450Y-113519540D01*
X153877582Y-113525106D01*
X153908122Y-113535414D01*
X153944489Y-113551852D01*
X153971728Y-113565800D01*
X154057429Y-113624335D01*
X154126617Y-113696381D01*
X154177741Y-113780053D01*
X154209250Y-113873469D01*
X154216225Y-113906566D01*
X154223094Y-113947040D01*
X154224919Y-113980001D01*
X154221947Y-114014302D01*
X154214426Y-114058800D01*
X154202002Y-114110066D01*
X154164112Y-114200566D01*
X154109836Y-114279655D01*
X154041770Y-114345472D01*
X153962511Y-114396160D01*
X153874654Y-114429860D01*
X153780795Y-114444714D01*
X153683530Y-114438864D01*
X153587220Y-114412601D01*
X153498494Y-114367582D01*
X153423419Y-114306627D01*
X153363641Y-114231816D01*
X153320809Y-114145232D01*
X153296571Y-114048957D01*
X153292576Y-113945072D01*
X153302850Y-113867438D01*
X153330053Y-113784687D01*
X153375484Y-113709594D01*
X153441302Y-113637702D01*
X153485567Y-113599154D01*
X153543961Y-113559744D01*
X153604586Y-113534554D01*
X153673865Y-113521139D01*
X153758222Y-113517052D01*
X153804307Y-113517331D01*
G36*
X153804307Y-113517331D02*
G01*
X153845450Y-113519540D01*
X153877582Y-113525106D01*
X153908122Y-113535414D01*
X153944489Y-113551852D01*
X153971728Y-113565800D01*
X154057429Y-113624335D01*
X154126617Y-113696381D01*
X154177741Y-113780053D01*
X154209250Y-113873469D01*
X154216225Y-113906566D01*
X154223094Y-113947040D01*
X154224919Y-113980001D01*
X154221947Y-114014302D01*
X154214426Y-114058800D01*
X154202002Y-114110066D01*
X154164112Y-114200566D01*
X154109836Y-114279655D01*
X154041770Y-114345472D01*
X153962511Y-114396160D01*
X153874654Y-114429860D01*
X153780795Y-114444714D01*
X153683530Y-114438864D01*
X153587220Y-114412601D01*
X153498494Y-114367582D01*
X153423419Y-114306627D01*
X153363641Y-114231816D01*
X153320809Y-114145232D01*
X153296571Y-114048957D01*
X153292576Y-113945072D01*
X153302850Y-113867438D01*
X153330053Y-113784687D01*
X153375484Y-113709594D01*
X153441302Y-113637702D01*
X153485567Y-113599154D01*
X153543961Y-113559744D01*
X153604586Y-113534554D01*
X153673865Y-113521139D01*
X153758222Y-113517052D01*
X153804307Y-113517331D01*
G37*
X158665178Y-120811083D02*
X158666631Y-120812443D01*
X158674992Y-120823646D01*
X158680547Y-120840748D01*
X158683840Y-120867918D01*
X158685418Y-120909322D01*
X158685822Y-120969127D01*
X158685822Y-121108489D01*
X158949589Y-121108489D01*
X159025417Y-121108564D01*
X159092083Y-121108972D01*
X159141867Y-121109954D01*
X159177784Y-121111750D01*
X159202850Y-121114601D01*
X159220081Y-121118747D01*
X159232492Y-121124429D01*
X159243100Y-121131886D01*
X159245906Y-121134176D01*
X159268548Y-121165354D01*
X159270112Y-121199734D01*
X159250267Y-121232666D01*
X159242191Y-121239645D01*
X159231593Y-121245117D01*
X159215749Y-121249137D01*
X159191773Y-121251928D01*
X159156774Y-121253712D01*
X159107864Y-121254711D01*
X159042154Y-121255148D01*
X158956756Y-121255244D01*
X158685822Y-121255244D01*
X158685822Y-121401180D01*
X158685821Y-121412280D01*
X158685596Y-121468798D01*
X158684457Y-121507642D01*
X158681657Y-121533035D01*
X158676450Y-121549196D01*
X158668089Y-121560348D01*
X158655826Y-121570711D01*
X158625138Y-121586559D01*
X158591358Y-121583457D01*
X158558822Y-121557813D01*
X158555105Y-121552871D01*
X158550269Y-121542662D01*
X158546506Y-121527236D01*
X158543683Y-121504114D01*
X158541670Y-121470817D01*
X158540333Y-121424863D01*
X158539542Y-121363772D01*
X158539163Y-121285065D01*
X158539067Y-121186260D01*
X158539068Y-121166233D01*
X158539158Y-121072110D01*
X158539498Y-120997595D01*
X158540239Y-120940189D01*
X158541535Y-120897389D01*
X158543537Y-120866696D01*
X158546396Y-120845609D01*
X158550266Y-120831627D01*
X158555298Y-120822250D01*
X158561645Y-120814978D01*
X158594362Y-120796172D01*
X158631939Y-120794725D01*
X158665178Y-120811083D01*
G36*
X158665178Y-120811083D02*
G01*
X158666631Y-120812443D01*
X158674992Y-120823646D01*
X158680547Y-120840748D01*
X158683840Y-120867918D01*
X158685418Y-120909322D01*
X158685822Y-120969127D01*
X158685822Y-121108489D01*
X158949589Y-121108489D01*
X159025417Y-121108564D01*
X159092083Y-121108972D01*
X159141867Y-121109954D01*
X159177784Y-121111750D01*
X159202850Y-121114601D01*
X159220081Y-121118747D01*
X159232492Y-121124429D01*
X159243100Y-121131886D01*
X159245906Y-121134176D01*
X159268548Y-121165354D01*
X159270112Y-121199734D01*
X159250267Y-121232666D01*
X159242191Y-121239645D01*
X159231593Y-121245117D01*
X159215749Y-121249137D01*
X159191773Y-121251928D01*
X159156774Y-121253712D01*
X159107864Y-121254711D01*
X159042154Y-121255148D01*
X158956756Y-121255244D01*
X158685822Y-121255244D01*
X158685822Y-121401180D01*
X158685821Y-121412280D01*
X158685596Y-121468798D01*
X158684457Y-121507642D01*
X158681657Y-121533035D01*
X158676450Y-121549196D01*
X158668089Y-121560348D01*
X158655826Y-121570711D01*
X158625138Y-121586559D01*
X158591358Y-121583457D01*
X158558822Y-121557813D01*
X158555105Y-121552871D01*
X158550269Y-121542662D01*
X158546506Y-121527236D01*
X158543683Y-121504114D01*
X158541670Y-121470817D01*
X158540333Y-121424863D01*
X158539542Y-121363772D01*
X158539163Y-121285065D01*
X158539067Y-121186260D01*
X158539068Y-121166233D01*
X158539158Y-121072110D01*
X158539498Y-120997595D01*
X158540239Y-120940189D01*
X158541535Y-120897389D01*
X158543537Y-120866696D01*
X158546396Y-120845609D01*
X158550266Y-120831627D01*
X158555298Y-120822250D01*
X158561645Y-120814978D01*
X158594362Y-120796172D01*
X158631939Y-120794725D01*
X158665178Y-120811083D01*
G37*
X158947631Y-121818891D02*
X159064000Y-121819375D01*
X159078175Y-121819443D01*
X159139937Y-121820029D01*
X159183620Y-121821352D01*
X159213001Y-121823897D01*
X159231855Y-121828152D01*
X159243959Y-121834604D01*
X159253089Y-121843738D01*
X159270506Y-121877196D01*
X159267604Y-121912144D01*
X159243100Y-121943047D01*
X159229897Y-121952056D01*
X159211361Y-121959508D01*
X159185333Y-121963876D01*
X159146787Y-121965931D01*
X159090700Y-121966444D01*
X158968045Y-121966444D01*
X158968045Y-122463155D01*
X159102871Y-122463155D01*
X159138662Y-122463228D01*
X159184992Y-122463991D01*
X159215526Y-122466167D01*
X159234557Y-122470464D01*
X159246374Y-122477588D01*
X159255271Y-122488245D01*
X159270341Y-122520496D01*
X159267673Y-122555783D01*
X159243100Y-122586514D01*
X159236845Y-122591169D01*
X159226321Y-122597105D01*
X159212391Y-122601636D01*
X159192317Y-122604952D01*
X159163360Y-122607241D01*
X159122780Y-122608692D01*
X159067840Y-122609495D01*
X158995799Y-122609838D01*
X158903920Y-122609911D01*
X158594485Y-122609911D01*
X158566776Y-122582202D01*
X158544533Y-122550823D01*
X158541844Y-122517594D01*
X158561645Y-122485733D01*
X158571415Y-122477447D01*
X158587307Y-122470035D01*
X158611275Y-122465698D01*
X158648148Y-122463662D01*
X158702756Y-122463155D01*
X158821289Y-122463155D01*
X158821289Y-121966444D01*
X158705776Y-121966444D01*
X158654078Y-121966006D01*
X158619554Y-121964042D01*
X158596978Y-121959526D01*
X158581126Y-121951433D01*
X158566776Y-121938735D01*
X158544533Y-121907357D01*
X158541844Y-121874128D01*
X158561645Y-121842266D01*
X158567835Y-121836634D01*
X158576041Y-121831544D01*
X158587817Y-121827457D01*
X158605276Y-121824279D01*
X158630530Y-121821913D01*
X158665690Y-121820262D01*
X158712869Y-121819231D01*
X158774177Y-121818723D01*
X158851727Y-121818641D01*
X158947631Y-121818891D01*
G36*
X158947631Y-121818891D02*
G01*
X159064000Y-121819375D01*
X159078175Y-121819443D01*
X159139937Y-121820029D01*
X159183620Y-121821352D01*
X159213001Y-121823897D01*
X159231855Y-121828152D01*
X159243959Y-121834604D01*
X159253089Y-121843738D01*
X159270506Y-121877196D01*
X159267604Y-121912144D01*
X159243100Y-121943047D01*
X159229897Y-121952056D01*
X159211361Y-121959508D01*
X159185333Y-121963876D01*
X159146787Y-121965931D01*
X159090700Y-121966444D01*
X158968045Y-121966444D01*
X158968045Y-122463155D01*
X159102871Y-122463155D01*
X159138662Y-122463228D01*
X159184992Y-122463991D01*
X159215526Y-122466167D01*
X159234557Y-122470464D01*
X159246374Y-122477588D01*
X159255271Y-122488245D01*
X159270341Y-122520496D01*
X159267673Y-122555783D01*
X159243100Y-122586514D01*
X159236845Y-122591169D01*
X159226321Y-122597105D01*
X159212391Y-122601636D01*
X159192317Y-122604952D01*
X159163360Y-122607241D01*
X159122780Y-122608692D01*
X159067840Y-122609495D01*
X158995799Y-122609838D01*
X158903920Y-122609911D01*
X158594485Y-122609911D01*
X158566776Y-122582202D01*
X158544533Y-122550823D01*
X158541844Y-122517594D01*
X158561645Y-122485733D01*
X158571415Y-122477447D01*
X158587307Y-122470035D01*
X158611275Y-122465698D01*
X158648148Y-122463662D01*
X158702756Y-122463155D01*
X158821289Y-122463155D01*
X158821289Y-121966444D01*
X158705776Y-121966444D01*
X158654078Y-121966006D01*
X158619554Y-121964042D01*
X158596978Y-121959526D01*
X158581126Y-121951433D01*
X158566776Y-121938735D01*
X158544533Y-121907357D01*
X158541844Y-121874128D01*
X158561645Y-121842266D01*
X158567835Y-121836634D01*
X158576041Y-121831544D01*
X158587817Y-121827457D01*
X158605276Y-121824279D01*
X158630530Y-121821913D01*
X158665690Y-121820262D01*
X158712869Y-121819231D01*
X158774177Y-121818723D01*
X158851727Y-121818641D01*
X158947631Y-121818891D01*
G37*
X158965526Y-117134825D02*
X159044311Y-117135050D01*
X159105021Y-117135668D01*
X159126089Y-117136225D01*
X159150396Y-117136867D01*
X159183175Y-117138837D01*
X159206095Y-117141765D01*
X159221897Y-117145842D01*
X159233319Y-117151257D01*
X159243100Y-117158197D01*
X159272845Y-117181594D01*
X159272251Y-117347286D01*
X159271953Y-117382082D01*
X159268522Y-117480565D01*
X159260839Y-117561527D01*
X159248282Y-117628621D01*
X159230227Y-117685504D01*
X159206052Y-117735831D01*
X159204135Y-117739190D01*
X159167417Y-117797002D01*
X159130451Y-117839356D01*
X159086966Y-117872172D01*
X159030689Y-117901372D01*
X159021073Y-117905654D01*
X158957887Y-117928231D01*
X158902509Y-117935203D01*
X158847483Y-117926601D01*
X158785351Y-117902459D01*
X158783658Y-117901663D01*
X158714236Y-117861212D01*
X158657638Y-117810527D01*
X158613070Y-117747802D01*
X158579741Y-117671226D01*
X158556861Y-117578991D01*
X158543636Y-117469288D01*
X158539275Y-117340309D01*
X158539270Y-117336737D01*
X158539372Y-117292844D01*
X158685822Y-117292844D01*
X158686270Y-117380333D01*
X158688746Y-117447253D01*
X158699998Y-117539651D01*
X158719537Y-117618966D01*
X158746511Y-117680940D01*
X158767240Y-117711880D01*
X158797006Y-117740000D01*
X158839434Y-117763340D01*
X158855400Y-117770467D01*
X158887902Y-117782291D01*
X158912333Y-117784721D01*
X158937061Y-117779108D01*
X158952939Y-117773382D01*
X159012847Y-117740452D01*
X159058600Y-117693114D01*
X159091736Y-117629348D01*
X159113790Y-117547139D01*
X159114292Y-117544345D01*
X159120255Y-117498060D01*
X159124483Y-117441664D01*
X159126089Y-117386726D01*
X159126089Y-117292844D01*
X158685822Y-117292844D01*
X158539372Y-117292844D01*
X158539410Y-117276717D01*
X158540446Y-117234786D01*
X158543040Y-117206672D01*
X158547853Y-117188103D01*
X158555544Y-117174806D01*
X158566776Y-117162509D01*
X158594485Y-117134800D01*
X158903920Y-117134800D01*
X158965526Y-117134825D01*
G36*
X158965526Y-117134825D02*
G01*
X159044311Y-117135050D01*
X159105021Y-117135668D01*
X159126089Y-117136225D01*
X159150396Y-117136867D01*
X159183175Y-117138837D01*
X159206095Y-117141765D01*
X159221897Y-117145842D01*
X159233319Y-117151257D01*
X159243100Y-117158197D01*
X159272845Y-117181594D01*
X159272251Y-117347286D01*
X159271953Y-117382082D01*
X159268522Y-117480565D01*
X159260839Y-117561527D01*
X159248282Y-117628621D01*
X159230227Y-117685504D01*
X159206052Y-117735831D01*
X159204135Y-117739190D01*
X159167417Y-117797002D01*
X159130451Y-117839356D01*
X159086966Y-117872172D01*
X159030689Y-117901372D01*
X159021073Y-117905654D01*
X158957887Y-117928231D01*
X158902509Y-117935203D01*
X158847483Y-117926601D01*
X158785351Y-117902459D01*
X158783658Y-117901663D01*
X158714236Y-117861212D01*
X158657638Y-117810527D01*
X158613070Y-117747802D01*
X158579741Y-117671226D01*
X158556861Y-117578991D01*
X158543636Y-117469288D01*
X158539275Y-117340309D01*
X158539270Y-117336737D01*
X158539372Y-117292844D01*
X158685822Y-117292844D01*
X158686270Y-117380333D01*
X158688746Y-117447253D01*
X158699998Y-117539651D01*
X158719537Y-117618966D01*
X158746511Y-117680940D01*
X158767240Y-117711880D01*
X158797006Y-117740000D01*
X158839434Y-117763340D01*
X158855400Y-117770467D01*
X158887902Y-117782291D01*
X158912333Y-117784721D01*
X158937061Y-117779108D01*
X158952939Y-117773382D01*
X159012847Y-117740452D01*
X159058600Y-117693114D01*
X159091736Y-117629348D01*
X159113790Y-117547139D01*
X159114292Y-117544345D01*
X159120255Y-117498060D01*
X159124483Y-117441664D01*
X159126089Y-117386726D01*
X159126089Y-117292844D01*
X158685822Y-117292844D01*
X158539372Y-117292844D01*
X158539410Y-117276717D01*
X158540446Y-117234786D01*
X158543040Y-117206672D01*
X158547853Y-117188103D01*
X158555544Y-117174806D01*
X158566776Y-117162509D01*
X158594485Y-117134800D01*
X158903920Y-117134800D01*
X158965526Y-117134825D01*
G37*
X158905956Y-110045378D02*
X158981617Y-110045417D01*
X159059526Y-110045672D01*
X159119536Y-110046316D01*
X159164264Y-110047520D01*
X159196326Y-110049457D01*
X159218340Y-110052297D01*
X159232924Y-110056212D01*
X159242694Y-110061374D01*
X159250267Y-110067955D01*
X159256501Y-110074923D01*
X159263801Y-110087921D01*
X159268554Y-110107069D01*
X159271292Y-110136472D01*
X159272545Y-110180238D01*
X159272845Y-110242472D01*
X159272469Y-110291418D01*
X159268041Y-110398278D01*
X159257953Y-110487506D01*
X159241365Y-110562304D01*
X159217435Y-110625875D01*
X159185321Y-110681421D01*
X159144182Y-110732146D01*
X159138330Y-110738134D01*
X159089821Y-110775001D01*
X159029013Y-110806101D01*
X158964769Y-110827583D01*
X158905956Y-110835600D01*
X158884739Y-110834321D01*
X158827323Y-110822009D01*
X158767413Y-110799480D01*
X158713363Y-110770250D01*
X158673532Y-110737833D01*
X158656510Y-110718292D01*
X158617322Y-110663580D01*
X158587193Y-110603277D01*
X158565232Y-110534081D01*
X158550550Y-110452689D01*
X158542259Y-110355800D01*
X158540148Y-110268333D01*
X158685808Y-110268333D01*
X158685817Y-110271361D01*
X158687782Y-110322481D01*
X158692507Y-110382584D01*
X158699035Y-110439292D01*
X158708331Y-110489250D01*
X158734600Y-110564002D01*
X158773899Y-110621511D01*
X158826933Y-110663012D01*
X158878200Y-110684229D01*
X158926026Y-110685647D01*
X158976961Y-110667365D01*
X159022878Y-110637695D01*
X159065287Y-110590998D01*
X159095090Y-110529608D01*
X159114226Y-110450462D01*
X159114464Y-110448972D01*
X159120256Y-110400001D01*
X159124396Y-110341307D01*
X159126004Y-110285266D01*
X159126089Y-110192133D01*
X158685822Y-110192133D01*
X158685808Y-110268333D01*
X158540148Y-110268333D01*
X158539467Y-110240111D01*
X158539066Y-110200629D01*
X158538653Y-110154918D01*
X158540457Y-110119117D01*
X158546739Y-110092026D01*
X158559759Y-110072444D01*
X158581778Y-110059170D01*
X158615055Y-110051002D01*
X158661851Y-110046740D01*
X158685822Y-110046143D01*
X158724427Y-110045183D01*
X158805041Y-110045130D01*
X158905956Y-110045378D01*
G36*
X158905956Y-110045378D02*
G01*
X158981617Y-110045417D01*
X159059526Y-110045672D01*
X159119536Y-110046316D01*
X159164264Y-110047520D01*
X159196326Y-110049457D01*
X159218340Y-110052297D01*
X159232924Y-110056212D01*
X159242694Y-110061374D01*
X159250267Y-110067955D01*
X159256501Y-110074923D01*
X159263801Y-110087921D01*
X159268554Y-110107069D01*
X159271292Y-110136472D01*
X159272545Y-110180238D01*
X159272845Y-110242472D01*
X159272469Y-110291418D01*
X159268041Y-110398278D01*
X159257953Y-110487506D01*
X159241365Y-110562304D01*
X159217435Y-110625875D01*
X159185321Y-110681421D01*
X159144182Y-110732146D01*
X159138330Y-110738134D01*
X159089821Y-110775001D01*
X159029013Y-110806101D01*
X158964769Y-110827583D01*
X158905956Y-110835600D01*
X158884739Y-110834321D01*
X158827323Y-110822009D01*
X158767413Y-110799480D01*
X158713363Y-110770250D01*
X158673532Y-110737833D01*
X158656510Y-110718292D01*
X158617322Y-110663580D01*
X158587193Y-110603277D01*
X158565232Y-110534081D01*
X158550550Y-110452689D01*
X158542259Y-110355800D01*
X158540148Y-110268333D01*
X158685808Y-110268333D01*
X158685817Y-110271361D01*
X158687782Y-110322481D01*
X158692507Y-110382584D01*
X158699035Y-110439292D01*
X158708331Y-110489250D01*
X158734600Y-110564002D01*
X158773899Y-110621511D01*
X158826933Y-110663012D01*
X158878200Y-110684229D01*
X158926026Y-110685647D01*
X158976961Y-110667365D01*
X159022878Y-110637695D01*
X159065287Y-110590998D01*
X159095090Y-110529608D01*
X159114226Y-110450462D01*
X159114464Y-110448972D01*
X159120256Y-110400001D01*
X159124396Y-110341307D01*
X159126004Y-110285266D01*
X159126089Y-110192133D01*
X158685822Y-110192133D01*
X158685808Y-110268333D01*
X158540148Y-110268333D01*
X158539467Y-110240111D01*
X158539066Y-110200629D01*
X158538653Y-110154918D01*
X158540457Y-110119117D01*
X158546739Y-110092026D01*
X158559759Y-110072444D01*
X158581778Y-110059170D01*
X158615055Y-110051002D01*
X158661851Y-110046740D01*
X158685822Y-110046143D01*
X158724427Y-110045183D01*
X158805041Y-110045130D01*
X158905956Y-110045378D01*
G37*
X158964486Y-114933489D02*
X159043573Y-114933708D01*
X159104516Y-114934317D01*
X159150062Y-114935508D01*
X159182963Y-114937471D01*
X159205968Y-114940397D01*
X159221826Y-114944477D01*
X159233286Y-114949903D01*
X159243100Y-114956864D01*
X159267493Y-114987292D01*
X159270372Y-115022235D01*
X159251282Y-115059216D01*
X159247807Y-115063400D01*
X159239279Y-115071576D01*
X159227728Y-115077636D01*
X159209896Y-115082019D01*
X159182524Y-115085161D01*
X159142354Y-115087498D01*
X159086128Y-115089469D01*
X159010589Y-115091511D01*
X158791458Y-115097155D01*
X159032099Y-115362444D01*
X159098875Y-115436278D01*
X159156991Y-115501458D01*
X159201949Y-115553652D01*
X159234871Y-115594727D01*
X159256879Y-115626545D01*
X159269094Y-115650974D01*
X159272639Y-115669876D01*
X159268636Y-115685117D01*
X159258207Y-115698561D01*
X159242474Y-115712073D01*
X159233991Y-115718318D01*
X159223413Y-115723950D01*
X159209255Y-115728161D01*
X159188803Y-115731113D01*
X159159342Y-115732968D01*
X159118161Y-115733887D01*
X159062544Y-115734032D01*
X158989779Y-115733565D01*
X158897151Y-115732648D01*
X158582199Y-115729333D01*
X158560633Y-115702682D01*
X158544441Y-115676617D01*
X158541670Y-115643759D01*
X158560623Y-115609228D01*
X158564208Y-115604916D01*
X158572737Y-115596784D01*
X158584329Y-115590755D01*
X158602235Y-115586394D01*
X158629706Y-115583266D01*
X158669994Y-115580937D01*
X158726351Y-115578971D01*
X158802029Y-115576933D01*
X159021878Y-115571289D01*
X158858084Y-115390666D01*
X158779451Y-115303928D01*
X158711058Y-115228157D01*
X158655708Y-115166020D01*
X158612338Y-115115922D01*
X158579881Y-115076265D01*
X158557273Y-115045452D01*
X158543448Y-115021886D01*
X158537343Y-115003970D01*
X158537892Y-114990107D01*
X158544029Y-114978699D01*
X158554691Y-114968150D01*
X158568811Y-114956864D01*
X158574772Y-114952411D01*
X158585268Y-114946412D01*
X158599093Y-114941833D01*
X158618998Y-114938481D01*
X158647732Y-114936167D01*
X158688045Y-114934699D01*
X158742687Y-114933887D01*
X158814407Y-114933540D01*
X158905956Y-114933466D01*
X158964486Y-114933489D01*
G36*
X158964486Y-114933489D02*
G01*
X159043573Y-114933708D01*
X159104516Y-114934317D01*
X159150062Y-114935508D01*
X159182963Y-114937471D01*
X159205968Y-114940397D01*
X159221826Y-114944477D01*
X159233286Y-114949903D01*
X159243100Y-114956864D01*
X159267493Y-114987292D01*
X159270372Y-115022235D01*
X159251282Y-115059216D01*
X159247807Y-115063400D01*
X159239279Y-115071576D01*
X159227728Y-115077636D01*
X159209896Y-115082019D01*
X159182524Y-115085161D01*
X159142354Y-115087498D01*
X159086128Y-115089469D01*
X159010589Y-115091511D01*
X158791458Y-115097155D01*
X159032099Y-115362444D01*
X159098875Y-115436278D01*
X159156991Y-115501458D01*
X159201949Y-115553652D01*
X159234871Y-115594727D01*
X159256879Y-115626545D01*
X159269094Y-115650974D01*
X159272639Y-115669876D01*
X159268636Y-115685117D01*
X159258207Y-115698561D01*
X159242474Y-115712073D01*
X159233991Y-115718318D01*
X159223413Y-115723950D01*
X159209255Y-115728161D01*
X159188803Y-115731113D01*
X159159342Y-115732968D01*
X159118161Y-115733887D01*
X159062544Y-115734032D01*
X158989779Y-115733565D01*
X158897151Y-115732648D01*
X158582199Y-115729333D01*
X158560633Y-115702682D01*
X158544441Y-115676617D01*
X158541670Y-115643759D01*
X158560623Y-115609228D01*
X158564208Y-115604916D01*
X158572737Y-115596784D01*
X158584329Y-115590755D01*
X158602235Y-115586394D01*
X158629706Y-115583266D01*
X158669994Y-115580937D01*
X158726351Y-115578971D01*
X158802029Y-115576933D01*
X159021878Y-115571289D01*
X158858084Y-115390666D01*
X158779451Y-115303928D01*
X158711058Y-115228157D01*
X158655708Y-115166020D01*
X158612338Y-115115922D01*
X158579881Y-115076265D01*
X158557273Y-115045452D01*
X158543448Y-115021886D01*
X158537343Y-115003970D01*
X158537892Y-114990107D01*
X158544029Y-114978699D01*
X158554691Y-114968150D01*
X158568811Y-114956864D01*
X158574772Y-114952411D01*
X158585268Y-114946412D01*
X158599093Y-114941833D01*
X158618998Y-114938481D01*
X158647732Y-114936167D01*
X158688045Y-114934699D01*
X158742687Y-114933887D01*
X158814407Y-114933540D01*
X158905956Y-114933466D01*
X158964486Y-114933489D01*
G37*
X158924259Y-113749702D02*
X158975592Y-113762643D01*
X159032118Y-113785806D01*
X159086035Y-113815698D01*
X159129539Y-113848827D01*
X159139887Y-113859023D01*
X159191662Y-113926108D01*
X159231554Y-114006234D01*
X159255956Y-114092444D01*
X159264068Y-114147408D01*
X159270673Y-114240861D01*
X159268586Y-114330642D01*
X159258340Y-114413131D01*
X159240470Y-114484714D01*
X159215508Y-114541772D01*
X159183988Y-114580689D01*
X159182012Y-114582064D01*
X159156786Y-114589152D01*
X159109535Y-114593391D01*
X159040071Y-114594800D01*
X158977838Y-114593940D01*
X158930456Y-114589220D01*
X158898353Y-114577530D01*
X158878800Y-114555761D01*
X158869070Y-114520802D01*
X158866433Y-114469544D01*
X158868161Y-114398877D01*
X158871173Y-114350257D01*
X158879366Y-114300061D01*
X158893419Y-114267567D01*
X158914654Y-114250108D01*
X158944394Y-114245017D01*
X158948936Y-114245123D01*
X158983730Y-114253825D01*
X159007147Y-114277835D01*
X159020347Y-114319100D01*
X159024489Y-114379569D01*
X159024489Y-114448044D01*
X159062841Y-114448044D01*
X159071976Y-114447994D01*
X159089227Y-114445773D01*
X159099521Y-114436506D01*
X159106459Y-114415125D01*
X159113641Y-114376564D01*
X159114575Y-114371090D01*
X159124478Y-114274140D01*
X159121559Y-114184148D01*
X159106829Y-114103240D01*
X159081299Y-114033541D01*
X159045978Y-113977176D01*
X159001879Y-113936271D01*
X158950012Y-113912949D01*
X158891388Y-113909337D01*
X158862494Y-113914855D01*
X158806604Y-113941539D01*
X158760945Y-113987727D01*
X158726108Y-114052709D01*
X158702690Y-114135771D01*
X158698241Y-114160445D01*
X158687742Y-114249774D01*
X158688971Y-114329581D01*
X158701906Y-114407674D01*
X158708696Y-114442817D01*
X158709713Y-114488255D01*
X158697182Y-114519570D01*
X158670395Y-114539723D01*
X158642148Y-114546107D01*
X158610924Y-114536621D01*
X158597499Y-114527292D01*
X158573967Y-114493057D01*
X158556095Y-114440435D01*
X158544599Y-114371919D01*
X158540192Y-114290000D01*
X158544179Y-114192850D01*
X158560494Y-114086843D01*
X158588545Y-113993031D01*
X158627452Y-113914235D01*
X158676334Y-113853281D01*
X158709195Y-113827211D01*
X158758394Y-113797703D01*
X158812252Y-113772432D01*
X158863419Y-113754782D01*
X158904544Y-113748142D01*
X158924259Y-113749702D01*
G36*
X158924259Y-113749702D02*
G01*
X158975592Y-113762643D01*
X159032118Y-113785806D01*
X159086035Y-113815698D01*
X159129539Y-113848827D01*
X159139887Y-113859023D01*
X159191662Y-113926108D01*
X159231554Y-114006234D01*
X159255956Y-114092444D01*
X159264068Y-114147408D01*
X159270673Y-114240861D01*
X159268586Y-114330642D01*
X159258340Y-114413131D01*
X159240470Y-114484714D01*
X159215508Y-114541772D01*
X159183988Y-114580689D01*
X159182012Y-114582064D01*
X159156786Y-114589152D01*
X159109535Y-114593391D01*
X159040071Y-114594800D01*
X158977838Y-114593940D01*
X158930456Y-114589220D01*
X158898353Y-114577530D01*
X158878800Y-114555761D01*
X158869070Y-114520802D01*
X158866433Y-114469544D01*
X158868161Y-114398877D01*
X158871173Y-114350257D01*
X158879366Y-114300061D01*
X158893419Y-114267567D01*
X158914654Y-114250108D01*
X158944394Y-114245017D01*
X158948936Y-114245123D01*
X158983730Y-114253825D01*
X159007147Y-114277835D01*
X159020347Y-114319100D01*
X159024489Y-114379569D01*
X159024489Y-114448044D01*
X159062841Y-114448044D01*
X159071976Y-114447994D01*
X159089227Y-114445773D01*
X159099521Y-114436506D01*
X159106459Y-114415125D01*
X159113641Y-114376564D01*
X159114575Y-114371090D01*
X159124478Y-114274140D01*
X159121559Y-114184148D01*
X159106829Y-114103240D01*
X159081299Y-114033541D01*
X159045978Y-113977176D01*
X159001879Y-113936271D01*
X158950012Y-113912949D01*
X158891388Y-113909337D01*
X158862494Y-113914855D01*
X158806604Y-113941539D01*
X158760945Y-113987727D01*
X158726108Y-114052709D01*
X158702690Y-114135771D01*
X158698241Y-114160445D01*
X158687742Y-114249774D01*
X158688971Y-114329581D01*
X158701906Y-114407674D01*
X158708696Y-114442817D01*
X158709713Y-114488255D01*
X158697182Y-114519570D01*
X158670395Y-114539723D01*
X158642148Y-114546107D01*
X158610924Y-114536621D01*
X158597499Y-114527292D01*
X158573967Y-114493057D01*
X158556095Y-114440435D01*
X158544599Y-114371919D01*
X158540192Y-114290000D01*
X158544179Y-114192850D01*
X158560494Y-114086843D01*
X158588545Y-113993031D01*
X158627452Y-113914235D01*
X158676334Y-113853281D01*
X158709195Y-113827211D01*
X158758394Y-113797703D01*
X158812252Y-113772432D01*
X158863419Y-113754782D01*
X158904544Y-113748142D01*
X158924259Y-113749702D01*
G37*
X158976911Y-116118829D02*
X159055228Y-116119061D01*
X159115496Y-116119681D01*
X159160393Y-116120874D01*
X159192602Y-116122821D01*
X159214800Y-116125706D01*
X159229669Y-116129712D01*
X159239889Y-116135021D01*
X159248138Y-116141817D01*
X159252795Y-116146332D01*
X159259282Y-116154562D01*
X159264194Y-116165922D01*
X159267749Y-116183190D01*
X159270167Y-116209145D01*
X159271667Y-116246564D01*
X159272467Y-116298227D01*
X159272787Y-116366911D01*
X159272845Y-116455394D01*
X159272838Y-116475069D01*
X159272572Y-116562094D01*
X159271806Y-116629746D01*
X159270392Y-116680701D01*
X159268180Y-116717633D01*
X159265022Y-116743217D01*
X159260769Y-116760129D01*
X159255271Y-116771043D01*
X159245285Y-116781536D01*
X159214168Y-116794797D01*
X159178280Y-116793614D01*
X159146733Y-116777450D01*
X159144457Y-116775261D01*
X159138189Y-116766573D01*
X159133523Y-116753231D01*
X159130227Y-116732248D01*
X159128068Y-116700637D01*
X159126814Y-116655410D01*
X159126231Y-116593580D01*
X159126089Y-116512161D01*
X159126089Y-116265555D01*
X158968045Y-116265555D01*
X158968045Y-116427994D01*
X158967964Y-116463662D01*
X158967167Y-116519432D01*
X158965162Y-116558570D01*
X158961521Y-116585024D01*
X158955812Y-116602741D01*
X158947607Y-116615671D01*
X158944423Y-116619314D01*
X158913448Y-116637722D01*
X158877112Y-116638356D01*
X158843493Y-116620817D01*
X158843424Y-116620755D01*
X158834798Y-116611084D01*
X158828742Y-116597791D01*
X158824811Y-116577083D01*
X158822556Y-116545172D01*
X158821531Y-116498266D01*
X158821289Y-116432576D01*
X158821289Y-116264429D01*
X158756378Y-116267814D01*
X158691467Y-116271200D01*
X158688414Y-116513277D01*
X158688086Y-116538293D01*
X158686606Y-116619913D01*
X158684222Y-116682232D01*
X158680227Y-116727846D01*
X158673913Y-116759348D01*
X158664574Y-116779333D01*
X158651503Y-116790396D01*
X158633992Y-116795131D01*
X158611335Y-116796133D01*
X158608970Y-116796127D01*
X158588939Y-116794973D01*
X158573146Y-116790176D01*
X158561090Y-116779368D01*
X158552267Y-116760183D01*
X158546175Y-116730255D01*
X158542311Y-116687217D01*
X158540174Y-116628701D01*
X158539260Y-116552343D01*
X158539067Y-116455774D01*
X158539067Y-116165594D01*
X158568811Y-116142197D01*
X158575495Y-116137248D01*
X158586066Y-116131404D01*
X158600153Y-116126943D01*
X158620478Y-116123679D01*
X158649765Y-116121426D01*
X158690737Y-116119998D01*
X158746117Y-116119208D01*
X158818628Y-116118871D01*
X158910994Y-116118800D01*
X158976911Y-116118829D01*
G36*
X158976911Y-116118829D02*
G01*
X159055228Y-116119061D01*
X159115496Y-116119681D01*
X159160393Y-116120874D01*
X159192602Y-116122821D01*
X159214800Y-116125706D01*
X159229669Y-116129712D01*
X159239889Y-116135021D01*
X159248138Y-116141817D01*
X159252795Y-116146332D01*
X159259282Y-116154562D01*
X159264194Y-116165922D01*
X159267749Y-116183190D01*
X159270167Y-116209145D01*
X159271667Y-116246564D01*
X159272467Y-116298227D01*
X159272787Y-116366911D01*
X159272845Y-116455394D01*
X159272838Y-116475069D01*
X159272572Y-116562094D01*
X159271806Y-116629746D01*
X159270392Y-116680701D01*
X159268180Y-116717633D01*
X159265022Y-116743217D01*
X159260769Y-116760129D01*
X159255271Y-116771043D01*
X159245285Y-116781536D01*
X159214168Y-116794797D01*
X159178280Y-116793614D01*
X159146733Y-116777450D01*
X159144457Y-116775261D01*
X159138189Y-116766573D01*
X159133523Y-116753231D01*
X159130227Y-116732248D01*
X159128068Y-116700637D01*
X159126814Y-116655410D01*
X159126231Y-116593580D01*
X159126089Y-116512161D01*
X159126089Y-116265555D01*
X158968045Y-116265555D01*
X158968045Y-116427994D01*
X158967964Y-116463662D01*
X158967167Y-116519432D01*
X158965162Y-116558570D01*
X158961521Y-116585024D01*
X158955812Y-116602741D01*
X158947607Y-116615671D01*
X158944423Y-116619314D01*
X158913448Y-116637722D01*
X158877112Y-116638356D01*
X158843493Y-116620817D01*
X158843424Y-116620755D01*
X158834798Y-116611084D01*
X158828742Y-116597791D01*
X158824811Y-116577083D01*
X158822556Y-116545172D01*
X158821531Y-116498266D01*
X158821289Y-116432576D01*
X158821289Y-116264429D01*
X158756378Y-116267814D01*
X158691467Y-116271200D01*
X158688414Y-116513277D01*
X158688086Y-116538293D01*
X158686606Y-116619913D01*
X158684222Y-116682232D01*
X158680227Y-116727846D01*
X158673913Y-116759348D01*
X158664574Y-116779333D01*
X158651503Y-116790396D01*
X158633992Y-116795131D01*
X158611335Y-116796133D01*
X158608970Y-116796127D01*
X158588939Y-116794973D01*
X158573146Y-116790176D01*
X158561090Y-116779368D01*
X158552267Y-116760183D01*
X158546175Y-116730255D01*
X158542311Y-116687217D01*
X158540174Y-116628701D01*
X158539260Y-116552343D01*
X158539067Y-116455774D01*
X158539067Y-116165594D01*
X158568811Y-116142197D01*
X158575495Y-116137248D01*
X158586066Y-116131404D01*
X158600153Y-116126943D01*
X158620478Y-116123679D01*
X158649765Y-116121426D01*
X158690737Y-116119998D01*
X158746117Y-116119208D01*
X158818628Y-116118871D01*
X158910994Y-116118800D01*
X158976911Y-116118829D01*
G37*
X158980713Y-111174303D02*
X159058889Y-111174552D01*
X159119103Y-111175188D01*
X159163982Y-111176385D01*
X159196152Y-111178316D01*
X159218239Y-111181154D01*
X159232870Y-111185073D01*
X159242670Y-111190245D01*
X159250267Y-111196844D01*
X159253444Y-111200178D01*
X159259554Y-111208700D01*
X159264229Y-111220702D01*
X159267659Y-111238913D01*
X159270036Y-111266060D01*
X159271552Y-111304871D01*
X159272398Y-111358076D01*
X159272765Y-111428402D01*
X159272845Y-111518578D01*
X159272833Y-111560686D01*
X159272651Y-111641833D01*
X159272098Y-111704325D01*
X159270982Y-111750891D01*
X159269113Y-111784259D01*
X159266298Y-111807156D01*
X159262346Y-111822312D01*
X159257066Y-111832454D01*
X159250267Y-111840311D01*
X159228667Y-111855037D01*
X159199467Y-111862889D01*
X159175560Y-111857390D01*
X159148667Y-111840311D01*
X159144059Y-111835332D01*
X159137772Y-111825557D01*
X159133146Y-111811441D01*
X159129930Y-111789946D01*
X159127870Y-111758032D01*
X159126712Y-111712658D01*
X159126202Y-111650787D01*
X159126089Y-111569378D01*
X159126089Y-111321022D01*
X158968045Y-111321022D01*
X158968045Y-111482199D01*
X158967899Y-111518017D01*
X158966176Y-111583641D01*
X158961741Y-111630882D01*
X158953637Y-111662617D01*
X158940906Y-111681723D01*
X158922592Y-111691077D01*
X158897738Y-111693555D01*
X158877482Y-111692758D01*
X158855656Y-111687506D01*
X158840304Y-111674712D01*
X158830309Y-111651372D01*
X158824553Y-111614483D01*
X158821919Y-111561041D01*
X158821289Y-111488042D01*
X158821289Y-111319895D01*
X158756378Y-111323281D01*
X158691467Y-111326666D01*
X158688418Y-111574383D01*
X158687539Y-111636974D01*
X158686095Y-111705435D01*
X158684164Y-111756339D01*
X158681514Y-111792592D01*
X158677910Y-111817099D01*
X158673121Y-111832765D01*
X158666913Y-111842494D01*
X158660510Y-111848509D01*
X158628828Y-111861518D01*
X158593142Y-111857957D01*
X158562084Y-111838182D01*
X158559161Y-111834931D01*
X158552810Y-111825951D01*
X158547957Y-111813847D01*
X158544403Y-111795841D01*
X158541946Y-111769153D01*
X158540385Y-111731003D01*
X158539518Y-111678614D01*
X158539146Y-111609206D01*
X158539067Y-111519999D01*
X158539083Y-111465266D01*
X158539275Y-111388169D01*
X158539860Y-111329223D01*
X158541051Y-111285636D01*
X158543064Y-111254617D01*
X158546112Y-111233375D01*
X158550409Y-111219118D01*
X158556172Y-111209055D01*
X158563612Y-111200394D01*
X158565293Y-111198609D01*
X158572832Y-111191365D01*
X158581850Y-111185723D01*
X158594984Y-111181483D01*
X158614872Y-111178444D01*
X158644151Y-111176406D01*
X158685458Y-111175170D01*
X158741431Y-111174535D01*
X158814707Y-111174300D01*
X158907923Y-111174266D01*
X158980713Y-111174303D01*
G36*
X158980713Y-111174303D02*
G01*
X159058889Y-111174552D01*
X159119103Y-111175188D01*
X159163982Y-111176385D01*
X159196152Y-111178316D01*
X159218239Y-111181154D01*
X159232870Y-111185073D01*
X159242670Y-111190245D01*
X159250267Y-111196844D01*
X159253444Y-111200178D01*
X159259554Y-111208700D01*
X159264229Y-111220702D01*
X159267659Y-111238913D01*
X159270036Y-111266060D01*
X159271552Y-111304871D01*
X159272398Y-111358076D01*
X159272765Y-111428402D01*
X159272845Y-111518578D01*
X159272833Y-111560686D01*
X159272651Y-111641833D01*
X159272098Y-111704325D01*
X159270982Y-111750891D01*
X159269113Y-111784259D01*
X159266298Y-111807156D01*
X159262346Y-111822312D01*
X159257066Y-111832454D01*
X159250267Y-111840311D01*
X159228667Y-111855037D01*
X159199467Y-111862889D01*
X159175560Y-111857390D01*
X159148667Y-111840311D01*
X159144059Y-111835332D01*
X159137772Y-111825557D01*
X159133146Y-111811441D01*
X159129930Y-111789946D01*
X159127870Y-111758032D01*
X159126712Y-111712658D01*
X159126202Y-111650787D01*
X159126089Y-111569378D01*
X159126089Y-111321022D01*
X158968045Y-111321022D01*
X158968045Y-111482199D01*
X158967899Y-111518017D01*
X158966176Y-111583641D01*
X158961741Y-111630882D01*
X158953637Y-111662617D01*
X158940906Y-111681723D01*
X158922592Y-111691077D01*
X158897738Y-111693555D01*
X158877482Y-111692758D01*
X158855656Y-111687506D01*
X158840304Y-111674712D01*
X158830309Y-111651372D01*
X158824553Y-111614483D01*
X158821919Y-111561041D01*
X158821289Y-111488042D01*
X158821289Y-111319895D01*
X158756378Y-111323281D01*
X158691467Y-111326666D01*
X158688418Y-111574383D01*
X158687539Y-111636974D01*
X158686095Y-111705435D01*
X158684164Y-111756339D01*
X158681514Y-111792592D01*
X158677910Y-111817099D01*
X158673121Y-111832765D01*
X158666913Y-111842494D01*
X158660510Y-111848509D01*
X158628828Y-111861518D01*
X158593142Y-111857957D01*
X158562084Y-111838182D01*
X158559161Y-111834931D01*
X158552810Y-111825951D01*
X158547957Y-111813847D01*
X158544403Y-111795841D01*
X158541946Y-111769153D01*
X158540385Y-111731003D01*
X158539518Y-111678614D01*
X158539146Y-111609206D01*
X158539067Y-111519999D01*
X158539083Y-111465266D01*
X158539275Y-111388169D01*
X158539860Y-111329223D01*
X158541051Y-111285636D01*
X158543064Y-111254617D01*
X158546112Y-111233375D01*
X158550409Y-111219118D01*
X158556172Y-111209055D01*
X158563612Y-111200394D01*
X158565293Y-111198609D01*
X158572832Y-111191365D01*
X158581850Y-111185723D01*
X158594984Y-111181483D01*
X158614872Y-111178444D01*
X158644151Y-111176406D01*
X158685458Y-111175170D01*
X158741431Y-111174535D01*
X158814707Y-111174300D01*
X158907923Y-111174266D01*
X158980713Y-111174303D01*
G37*
X158621915Y-119026772D02*
X158656481Y-119039636D01*
X158704826Y-119059395D01*
X158763825Y-119084619D01*
X158830355Y-119113881D01*
X158901291Y-119145750D01*
X158973507Y-119178799D01*
X159043880Y-119211599D01*
X159109285Y-119242720D01*
X159166597Y-119270735D01*
X159212692Y-119294214D01*
X159244446Y-119311728D01*
X159258733Y-119321849D01*
X159272102Y-119356257D01*
X159265741Y-119397954D01*
X159261044Y-119403319D01*
X159238893Y-119419148D01*
X159202132Y-119441350D01*
X159154415Y-119467767D01*
X159099393Y-119496240D01*
X158940150Y-119576014D01*
X159086742Y-119649201D01*
X159106032Y-119658897D01*
X159158380Y-119685875D01*
X159203170Y-119709904D01*
X159236154Y-119728668D01*
X159253089Y-119739854D01*
X159254332Y-119741000D01*
X159269619Y-119769121D01*
X159271302Y-119804183D01*
X159258733Y-119835224D01*
X159255884Y-119837650D01*
X159235259Y-119849910D01*
X159197708Y-119869648D01*
X159145880Y-119895552D01*
X159082423Y-119926315D01*
X159009985Y-119960625D01*
X158931216Y-119997175D01*
X158887093Y-120017415D01*
X158806365Y-120054188D01*
X158742687Y-120082645D01*
X158693752Y-120103669D01*
X158657257Y-120118146D01*
X158630895Y-120126961D01*
X158612361Y-120130996D01*
X158599352Y-120131138D01*
X158589561Y-120128270D01*
X158568678Y-120113613D01*
X158548377Y-120087010D01*
X158548035Y-120086255D01*
X158541034Y-120066665D01*
X158540504Y-120049210D01*
X158548478Y-120032298D01*
X158566989Y-120014337D01*
X158598071Y-119993737D01*
X158643756Y-119968905D01*
X158706078Y-119938250D01*
X158787071Y-119900180D01*
X158818454Y-119885546D01*
X158881638Y-119855797D01*
X158936244Y-119829703D01*
X158979290Y-119808708D01*
X159007793Y-119794261D01*
X159018770Y-119787809D01*
X159018189Y-119786450D01*
X159004242Y-119776458D01*
X158974704Y-119759167D01*
X158933087Y-119736570D01*
X158882903Y-119710662D01*
X158851414Y-119694689D01*
X158796061Y-119665739D01*
X158757044Y-119643251D01*
X158731566Y-119625035D01*
X158716831Y-119608904D01*
X158710042Y-119592670D01*
X158708400Y-119574143D01*
X158708875Y-119563640D01*
X158713082Y-119547524D01*
X158723946Y-119532210D01*
X158744219Y-119515612D01*
X158776654Y-119495643D01*
X158824004Y-119470217D01*
X158889022Y-119437248D01*
X158908277Y-119427515D01*
X158954946Y-119403057D01*
X158991109Y-119382822D01*
X159013497Y-119368689D01*
X159018845Y-119362540D01*
X159015573Y-119361173D01*
X158994664Y-119351798D01*
X158957725Y-119334938D01*
X158907874Y-119312021D01*
X158848226Y-119284480D01*
X158781898Y-119253745D01*
X158724677Y-119227030D01*
X158662688Y-119197407D01*
X158616949Y-119174336D01*
X158584908Y-119156357D01*
X158564014Y-119142010D01*
X158551718Y-119129834D01*
X158545466Y-119118368D01*
X158542574Y-119108958D01*
X158542425Y-119083853D01*
X158557768Y-119056710D01*
X158558753Y-119055410D01*
X158581388Y-119033326D01*
X158603613Y-119022277D01*
X158604253Y-119022231D01*
X158621915Y-119026772D01*
G36*
X158621915Y-119026772D02*
G01*
X158656481Y-119039636D01*
X158704826Y-119059395D01*
X158763825Y-119084619D01*
X158830355Y-119113881D01*
X158901291Y-119145750D01*
X158973507Y-119178799D01*
X159043880Y-119211599D01*
X159109285Y-119242720D01*
X159166597Y-119270735D01*
X159212692Y-119294214D01*
X159244446Y-119311728D01*
X159258733Y-119321849D01*
X159272102Y-119356257D01*
X159265741Y-119397954D01*
X159261044Y-119403319D01*
X159238893Y-119419148D01*
X159202132Y-119441350D01*
X159154415Y-119467767D01*
X159099393Y-119496240D01*
X158940150Y-119576014D01*
X159086742Y-119649201D01*
X159106032Y-119658897D01*
X159158380Y-119685875D01*
X159203170Y-119709904D01*
X159236154Y-119728668D01*
X159253089Y-119739854D01*
X159254332Y-119741000D01*
X159269619Y-119769121D01*
X159271302Y-119804183D01*
X159258733Y-119835224D01*
X159255884Y-119837650D01*
X159235259Y-119849910D01*
X159197708Y-119869648D01*
X159145880Y-119895552D01*
X159082423Y-119926315D01*
X159009985Y-119960625D01*
X158931216Y-119997175D01*
X158887093Y-120017415D01*
X158806365Y-120054188D01*
X158742687Y-120082645D01*
X158693752Y-120103669D01*
X158657257Y-120118146D01*
X158630895Y-120126961D01*
X158612361Y-120130996D01*
X158599352Y-120131138D01*
X158589561Y-120128270D01*
X158568678Y-120113613D01*
X158548377Y-120087010D01*
X158548035Y-120086255D01*
X158541034Y-120066665D01*
X158540504Y-120049210D01*
X158548478Y-120032298D01*
X158566989Y-120014337D01*
X158598071Y-119993737D01*
X158643756Y-119968905D01*
X158706078Y-119938250D01*
X158787071Y-119900180D01*
X158818454Y-119885546D01*
X158881638Y-119855797D01*
X158936244Y-119829703D01*
X158979290Y-119808708D01*
X159007793Y-119794261D01*
X159018770Y-119787809D01*
X159018189Y-119786450D01*
X159004242Y-119776458D01*
X158974704Y-119759167D01*
X158933087Y-119736570D01*
X158882903Y-119710662D01*
X158851414Y-119694689D01*
X158796061Y-119665739D01*
X158757044Y-119643251D01*
X158731566Y-119625035D01*
X158716831Y-119608904D01*
X158710042Y-119592670D01*
X158708400Y-119574143D01*
X158708875Y-119563640D01*
X158713082Y-119547524D01*
X158723946Y-119532210D01*
X158744219Y-119515612D01*
X158776654Y-119495643D01*
X158824004Y-119470217D01*
X158889022Y-119437248D01*
X158908277Y-119427515D01*
X158954946Y-119403057D01*
X158991109Y-119382822D01*
X159013497Y-119368689D01*
X159018845Y-119362540D01*
X159015573Y-119361173D01*
X158994664Y-119351798D01*
X158957725Y-119334938D01*
X158907874Y-119312021D01*
X158848226Y-119284480D01*
X158781898Y-119253745D01*
X158724677Y-119227030D01*
X158662688Y-119197407D01*
X158616949Y-119174336D01*
X158584908Y-119156357D01*
X158564014Y-119142010D01*
X158551718Y-119129834D01*
X158545466Y-119118368D01*
X158542574Y-119108958D01*
X158542425Y-119083853D01*
X158557768Y-119056710D01*
X158558753Y-119055410D01*
X158581388Y-119033326D01*
X158603613Y-119022277D01*
X158604253Y-119022231D01*
X158621915Y-119026772D01*
G37*
X158790232Y-112146048D02*
X158815029Y-112151840D01*
X158836699Y-112166647D01*
X158864049Y-112194620D01*
X158871378Y-112202598D01*
X158892281Y-112226308D01*
X158909251Y-112248702D01*
X158923205Y-112272735D01*
X158935056Y-112301363D01*
X158945720Y-112337540D01*
X158956111Y-112384220D01*
X158967146Y-112444359D01*
X158979738Y-112520910D01*
X158994804Y-112616829D01*
X158997838Y-112635192D01*
X159011458Y-112697522D01*
X159027192Y-112742740D01*
X159044263Y-112769024D01*
X159061897Y-112774553D01*
X159066168Y-112771932D01*
X159081233Y-112754000D01*
X159097867Y-112725874D01*
X159103857Y-112713074D01*
X159111050Y-112691776D01*
X159115827Y-112665390D01*
X159118646Y-112629546D01*
X159119964Y-112579872D01*
X159120237Y-112512000D01*
X159120164Y-112494215D01*
X159119053Y-112426594D01*
X159116828Y-112361655D01*
X159113762Y-112306030D01*
X159110127Y-112266349D01*
X159106059Y-112230838D01*
X159105276Y-112201585D01*
X159109876Y-112182685D01*
X159120551Y-112167571D01*
X159124144Y-112163915D01*
X159155918Y-112147573D01*
X159191572Y-112148893D01*
X159222190Y-112167850D01*
X159233796Y-112188220D01*
X159246491Y-112224204D01*
X159256541Y-112266628D01*
X159257140Y-112270078D01*
X159262356Y-112312748D01*
X159266730Y-112370134D01*
X159269818Y-112435151D01*
X159271177Y-112500711D01*
X159271218Y-112516943D01*
X159268741Y-112615256D01*
X159260735Y-112695308D01*
X159246203Y-112760487D01*
X159224149Y-112814183D01*
X159193576Y-112859784D01*
X159153486Y-112900677D01*
X159127259Y-112920798D01*
X159097712Y-112932424D01*
X159057995Y-112935333D01*
X159046026Y-112935192D01*
X159013345Y-112931319D01*
X158986819Y-112918935D01*
X158955971Y-112893770D01*
X158933831Y-112872558D01*
X158911285Y-112846162D01*
X158892917Y-112816445D01*
X158877661Y-112780215D01*
X158864449Y-112734283D01*
X158852214Y-112675456D01*
X158839889Y-112600544D01*
X158826406Y-112506355D01*
X158819396Y-112461043D01*
X158804837Y-112393089D01*
X158788337Y-112343953D01*
X158770439Y-112314386D01*
X158751685Y-112305136D01*
X158732615Y-112316952D01*
X158713771Y-112350584D01*
X158712557Y-112353630D01*
X158700479Y-112399989D01*
X158692279Y-112462639D01*
X158688119Y-112536073D01*
X158688161Y-112614783D01*
X158692569Y-112693261D01*
X158701505Y-112766000D01*
X158702154Y-112769927D01*
X158709861Y-112818743D01*
X158713473Y-112850995D01*
X158712876Y-112871992D01*
X158707954Y-112887046D01*
X158698596Y-112901466D01*
X158697725Y-112902636D01*
X158667351Y-112927153D01*
X158631850Y-112931946D01*
X158597269Y-112916140D01*
X158592813Y-112911594D01*
X158577673Y-112881980D01*
X158564550Y-112834998D01*
X158553750Y-112774694D01*
X158545581Y-112705112D01*
X158540351Y-112630297D01*
X158538367Y-112554294D01*
X158539936Y-112481147D01*
X158545366Y-112414900D01*
X158554964Y-112359600D01*
X158569825Y-112308717D01*
X158602958Y-112237405D01*
X158645640Y-112186248D01*
X158697705Y-112155425D01*
X158758983Y-112145111D01*
X158790232Y-112146048D01*
G36*
X158790232Y-112146048D02*
G01*
X158815029Y-112151840D01*
X158836699Y-112166647D01*
X158864049Y-112194620D01*
X158871378Y-112202598D01*
X158892281Y-112226308D01*
X158909251Y-112248702D01*
X158923205Y-112272735D01*
X158935056Y-112301363D01*
X158945720Y-112337540D01*
X158956111Y-112384220D01*
X158967146Y-112444359D01*
X158979738Y-112520910D01*
X158994804Y-112616829D01*
X158997838Y-112635192D01*
X159011458Y-112697522D01*
X159027192Y-112742740D01*
X159044263Y-112769024D01*
X159061897Y-112774553D01*
X159066168Y-112771932D01*
X159081233Y-112754000D01*
X159097867Y-112725874D01*
X159103857Y-112713074D01*
X159111050Y-112691776D01*
X159115827Y-112665390D01*
X159118646Y-112629546D01*
X159119964Y-112579872D01*
X159120237Y-112512000D01*
X159120164Y-112494215D01*
X159119053Y-112426594D01*
X159116828Y-112361655D01*
X159113762Y-112306030D01*
X159110127Y-112266349D01*
X159106059Y-112230838D01*
X159105276Y-112201585D01*
X159109876Y-112182685D01*
X159120551Y-112167571D01*
X159124144Y-112163915D01*
X159155918Y-112147573D01*
X159191572Y-112148893D01*
X159222190Y-112167850D01*
X159233796Y-112188220D01*
X159246491Y-112224204D01*
X159256541Y-112266628D01*
X159257140Y-112270078D01*
X159262356Y-112312748D01*
X159266730Y-112370134D01*
X159269818Y-112435151D01*
X159271177Y-112500711D01*
X159271218Y-112516943D01*
X159268741Y-112615256D01*
X159260735Y-112695308D01*
X159246203Y-112760487D01*
X159224149Y-112814183D01*
X159193576Y-112859784D01*
X159153486Y-112900677D01*
X159127259Y-112920798D01*
X159097712Y-112932424D01*
X159057995Y-112935333D01*
X159046026Y-112935192D01*
X159013345Y-112931319D01*
X158986819Y-112918935D01*
X158955971Y-112893770D01*
X158933831Y-112872558D01*
X158911285Y-112846162D01*
X158892917Y-112816445D01*
X158877661Y-112780215D01*
X158864449Y-112734283D01*
X158852214Y-112675456D01*
X158839889Y-112600544D01*
X158826406Y-112506355D01*
X158819396Y-112461043D01*
X158804837Y-112393089D01*
X158788337Y-112343953D01*
X158770439Y-112314386D01*
X158751685Y-112305136D01*
X158732615Y-112316952D01*
X158713771Y-112350584D01*
X158712557Y-112353630D01*
X158700479Y-112399989D01*
X158692279Y-112462639D01*
X158688119Y-112536073D01*
X158688161Y-112614783D01*
X158692569Y-112693261D01*
X158701505Y-112766000D01*
X158702154Y-112769927D01*
X158709861Y-112818743D01*
X158713473Y-112850995D01*
X158712876Y-112871992D01*
X158707954Y-112887046D01*
X158698596Y-112901466D01*
X158697725Y-112902636D01*
X158667351Y-112927153D01*
X158631850Y-112931946D01*
X158597269Y-112916140D01*
X158592813Y-112911594D01*
X158577673Y-112881980D01*
X158564550Y-112834998D01*
X158553750Y-112774694D01*
X158545581Y-112705112D01*
X158540351Y-112630297D01*
X158538367Y-112554294D01*
X158539936Y-112481147D01*
X158545366Y-112414900D01*
X158554964Y-112359600D01*
X158569825Y-112308717D01*
X158602958Y-112237405D01*
X158645640Y-112186248D01*
X158697705Y-112155425D01*
X158758983Y-112145111D01*
X158790232Y-112146048D01*
G37*
X156091325Y-115004449D02*
X156292581Y-115021209D01*
X156487128Y-115054708D01*
X156670756Y-115104956D01*
X156788053Y-115148810D01*
X156950951Y-115226652D01*
X157104866Y-115320172D01*
X157246671Y-115427178D01*
X157373239Y-115545481D01*
X157481441Y-115672889D01*
X157534120Y-115750394D01*
X157603750Y-115877275D01*
X157662468Y-116014757D01*
X157707587Y-116156284D01*
X157736422Y-116295298D01*
X157738106Y-116309403D01*
X157741434Y-116352847D01*
X157744275Y-116410277D01*
X157746373Y-116475878D01*
X157747468Y-116543833D01*
X157745140Y-116670622D01*
X157732136Y-116818327D01*
X157707133Y-116956221D01*
X157669318Y-117089986D01*
X157660889Y-117113438D01*
X157641408Y-117161388D01*
X157616473Y-117217860D01*
X157587722Y-117279621D01*
X157556790Y-117343437D01*
X157525315Y-117406074D01*
X157494934Y-117464297D01*
X157467283Y-117514873D01*
X157443999Y-117554567D01*
X157426718Y-117580146D01*
X157417079Y-117588375D01*
X157413984Y-117586924D01*
X157394079Y-117575750D01*
X157358420Y-117554866D01*
X157309459Y-117525735D01*
X157249646Y-117489819D01*
X157181433Y-117448580D01*
X157107271Y-117403483D01*
X156810008Y-117222215D01*
X156854539Y-117175685D01*
X156932865Y-117084277D01*
X157007439Y-116970666D01*
X157061474Y-116852878D01*
X157094290Y-116732441D01*
X157105211Y-116610883D01*
X157103868Y-116569415D01*
X157085612Y-116451920D01*
X157046617Y-116341911D01*
X156987670Y-116240570D01*
X156909557Y-116149079D01*
X156813064Y-116068620D01*
X156698978Y-116000373D01*
X156664724Y-115984092D01*
X156541240Y-115938018D01*
X156402918Y-115902894D01*
X156253561Y-115878803D01*
X156096973Y-115865827D01*
X155936956Y-115864051D01*
X155777314Y-115873557D01*
X155621850Y-115894428D01*
X155474366Y-115926748D01*
X155338667Y-115970601D01*
X155252076Y-116008018D01*
X155138688Y-116072815D01*
X155045070Y-116148228D01*
X154970959Y-116234582D01*
X154916094Y-116332205D01*
X154880212Y-116441423D01*
X154863051Y-116562561D01*
X154861880Y-116631962D01*
X154876141Y-116754832D01*
X154911241Y-116870336D01*
X154966682Y-116977047D01*
X155041964Y-117073536D01*
X155056440Y-117089280D01*
X155082962Y-117119850D01*
X155100138Y-117142191D01*
X155104787Y-117152309D01*
X155102597Y-117154294D01*
X155083721Y-117168759D01*
X155050397Y-117192600D01*
X155005380Y-117223971D01*
X154951425Y-117261026D01*
X154891285Y-117301917D01*
X154827718Y-117344798D01*
X154763476Y-117387822D01*
X154701315Y-117429143D01*
X154643991Y-117466914D01*
X154594257Y-117499288D01*
X154554868Y-117524418D01*
X154528580Y-117540458D01*
X154518147Y-117545561D01*
X154513941Y-117540950D01*
X154508933Y-117521733D01*
X154506386Y-117512162D01*
X154495249Y-117484191D01*
X154476802Y-117442552D01*
X154452725Y-117391005D01*
X154424699Y-117333310D01*
X154419154Y-117322043D01*
X154339889Y-117144313D01*
X154280385Y-116974510D01*
X154240245Y-116810570D01*
X154219071Y-116650429D01*
X154216466Y-116492023D01*
X154232033Y-116333289D01*
X154249523Y-116237732D01*
X154294564Y-116073442D01*
X154357656Y-115919411D01*
X154439915Y-115773491D01*
X154542457Y-115633534D01*
X154666399Y-115497392D01*
X154711661Y-115453527D01*
X154843865Y-115341242D01*
X154981832Y-115248028D01*
X155129750Y-115171281D01*
X155291803Y-115108397D01*
X155303391Y-115104580D01*
X155489392Y-115054493D01*
X155685521Y-115021101D01*
X155887568Y-115004416D01*
X156091325Y-115004449D01*
G36*
X156091325Y-115004449D02*
G01*
X156292581Y-115021209D01*
X156487128Y-115054708D01*
X156670756Y-115104956D01*
X156788053Y-115148810D01*
X156950951Y-115226652D01*
X157104866Y-115320172D01*
X157246671Y-115427178D01*
X157373239Y-115545481D01*
X157481441Y-115672889D01*
X157534120Y-115750394D01*
X157603750Y-115877275D01*
X157662468Y-116014757D01*
X157707587Y-116156284D01*
X157736422Y-116295298D01*
X157738106Y-116309403D01*
X157741434Y-116352847D01*
X157744275Y-116410277D01*
X157746373Y-116475878D01*
X157747468Y-116543833D01*
X157745140Y-116670622D01*
X157732136Y-116818327D01*
X157707133Y-116956221D01*
X157669318Y-117089986D01*
X157660889Y-117113438D01*
X157641408Y-117161388D01*
X157616473Y-117217860D01*
X157587722Y-117279621D01*
X157556790Y-117343437D01*
X157525315Y-117406074D01*
X157494934Y-117464297D01*
X157467283Y-117514873D01*
X157443999Y-117554567D01*
X157426718Y-117580146D01*
X157417079Y-117588375D01*
X157413984Y-117586924D01*
X157394079Y-117575750D01*
X157358420Y-117554866D01*
X157309459Y-117525735D01*
X157249646Y-117489819D01*
X157181433Y-117448580D01*
X157107271Y-117403483D01*
X156810008Y-117222215D01*
X156854539Y-117175685D01*
X156932865Y-117084277D01*
X157007439Y-116970666D01*
X157061474Y-116852878D01*
X157094290Y-116732441D01*
X157105211Y-116610883D01*
X157103868Y-116569415D01*
X157085612Y-116451920D01*
X157046617Y-116341911D01*
X156987670Y-116240570D01*
X156909557Y-116149079D01*
X156813064Y-116068620D01*
X156698978Y-116000373D01*
X156664724Y-115984092D01*
X156541240Y-115938018D01*
X156402918Y-115902894D01*
X156253561Y-115878803D01*
X156096973Y-115865827D01*
X155936956Y-115864051D01*
X155777314Y-115873557D01*
X155621850Y-115894428D01*
X155474366Y-115926748D01*
X155338667Y-115970601D01*
X155252076Y-116008018D01*
X155138688Y-116072815D01*
X155045070Y-116148228D01*
X154970959Y-116234582D01*
X154916094Y-116332205D01*
X154880212Y-116441423D01*
X154863051Y-116562561D01*
X154861880Y-116631962D01*
X154876141Y-116754832D01*
X154911241Y-116870336D01*
X154966682Y-116977047D01*
X155041964Y-117073536D01*
X155056440Y-117089280D01*
X155082962Y-117119850D01*
X155100138Y-117142191D01*
X155104787Y-117152309D01*
X155102597Y-117154294D01*
X155083721Y-117168759D01*
X155050397Y-117192600D01*
X155005380Y-117223971D01*
X154951425Y-117261026D01*
X154891285Y-117301917D01*
X154827718Y-117344798D01*
X154763476Y-117387822D01*
X154701315Y-117429143D01*
X154643991Y-117466914D01*
X154594257Y-117499288D01*
X154554868Y-117524418D01*
X154528580Y-117540458D01*
X154518147Y-117545561D01*
X154513941Y-117540950D01*
X154508933Y-117521733D01*
X154506386Y-117512162D01*
X154495249Y-117484191D01*
X154476802Y-117442552D01*
X154452725Y-117391005D01*
X154424699Y-117333310D01*
X154419154Y-117322043D01*
X154339889Y-117144313D01*
X154280385Y-116974510D01*
X154240245Y-116810570D01*
X154219071Y-116650429D01*
X154216466Y-116492023D01*
X154232033Y-116333289D01*
X154249523Y-116237732D01*
X154294564Y-116073442D01*
X154357656Y-115919411D01*
X154439915Y-115773491D01*
X154542457Y-115633534D01*
X154666399Y-115497392D01*
X154711661Y-115453527D01*
X154843865Y-115341242D01*
X154981832Y-115248028D01*
X155129750Y-115171281D01*
X155291803Y-115108397D01*
X155303391Y-115104580D01*
X155489392Y-115054493D01*
X155685521Y-115021101D01*
X155887568Y-115004416D01*
X156091325Y-115004449D01*
G37*
X156590158Y-120136732D02*
X156741594Y-120145311D01*
X156878283Y-120164167D01*
X157004276Y-120194163D01*
X157123625Y-120236164D01*
X157240381Y-120291031D01*
X157351179Y-120357833D01*
X157464739Y-120448637D01*
X157560211Y-120552292D01*
X157637073Y-120668113D01*
X157694797Y-120795414D01*
X157732858Y-120933511D01*
X157738666Y-120971207D01*
X157744396Y-121050248D01*
X157744583Y-121138371D01*
X157739539Y-121227764D01*
X157729578Y-121310616D01*
X157715012Y-121379113D01*
X157705364Y-121409965D01*
X157675123Y-121487270D01*
X157637617Y-121564321D01*
X157596614Y-121633800D01*
X157555879Y-121688385D01*
X157536505Y-121711084D01*
X157518662Y-121733799D01*
X157511778Y-121745221D01*
X157513424Y-121746463D01*
X157531205Y-121749272D01*
X157564370Y-121751224D01*
X157607733Y-121751955D01*
X157703689Y-121751955D01*
X157703689Y-122610104D01*
X157642974Y-122575839D01*
X157633868Y-122570645D01*
X157619249Y-122562285D01*
X157605173Y-122554712D01*
X157590540Y-122547888D01*
X157574249Y-122541773D01*
X157555198Y-122536327D01*
X157532286Y-122531513D01*
X157504413Y-122527292D01*
X157470478Y-122523623D01*
X157429379Y-122520469D01*
X157380015Y-122517789D01*
X157321286Y-122515546D01*
X157252090Y-122513701D01*
X157171326Y-122512213D01*
X157077894Y-122511045D01*
X156970692Y-122510156D01*
X156848620Y-122509509D01*
X156710576Y-122509064D01*
X156555459Y-122508782D01*
X156382168Y-122508625D01*
X156189603Y-122508552D01*
X155976662Y-122508526D01*
X155742245Y-122508507D01*
X154057378Y-122508311D01*
X154057378Y-121602983D01*
X154094067Y-121627415D01*
X154103647Y-121633682D01*
X154149981Y-121659792D01*
X154197102Y-121677531D01*
X154252251Y-121689092D01*
X154322667Y-121696669D01*
X154329650Y-121697161D01*
X154367641Y-121698938D01*
X154421576Y-121700556D01*
X154488703Y-121702001D01*
X154566271Y-121703260D01*
X154651528Y-121704320D01*
X154741724Y-121705171D01*
X154834107Y-121705797D01*
X154925925Y-121706188D01*
X155014427Y-121706330D01*
X155096862Y-121706210D01*
X155170479Y-121705817D01*
X155232526Y-121705138D01*
X155280251Y-121704159D01*
X155310904Y-121702868D01*
X155321733Y-121701253D01*
X155317333Y-121693043D01*
X155302362Y-121671353D01*
X155280448Y-121641986D01*
X155246236Y-121593121D01*
X155199714Y-121504875D01*
X155166046Y-121406084D01*
X155163231Y-121391557D01*
X155717465Y-121391557D01*
X155729389Y-121476681D01*
X155756040Y-121560867D01*
X155796962Y-121639392D01*
X155840530Y-121706800D01*
X156990721Y-121706800D01*
X157037089Y-121636244D01*
X157060791Y-121595583D01*
X157086639Y-121541454D01*
X157104829Y-121492311D01*
X157120551Y-121428835D01*
X157131541Y-121332669D01*
X157123365Y-121248100D01*
X157095805Y-121174781D01*
X157048642Y-121112363D01*
X156981658Y-121060498D01*
X156894633Y-121018840D01*
X156787350Y-120987038D01*
X156775009Y-120984455D01*
X156713772Y-120976000D01*
X156636692Y-120970337D01*
X156549002Y-120967424D01*
X156455934Y-120967217D01*
X156362720Y-120969670D01*
X156274594Y-120974739D01*
X156196788Y-120982381D01*
X156134533Y-120992552D01*
X156128666Y-120993833D01*
X156018121Y-121022874D01*
X155927575Y-121057390D01*
X155854953Y-121098544D01*
X155798181Y-121147501D01*
X155755184Y-121205426D01*
X155739615Y-121237380D01*
X155720722Y-121310216D01*
X155717465Y-121391557D01*
X155163231Y-121391557D01*
X155144231Y-121293490D01*
X155133265Y-121163836D01*
X155132219Y-121071330D01*
X155142014Y-120949989D01*
X155166174Y-120839901D01*
X155205785Y-120736611D01*
X155261932Y-120635662D01*
X155292883Y-120590497D01*
X155384115Y-120485089D01*
X155493106Y-120393462D01*
X155619726Y-120315668D01*
X155763845Y-120251759D01*
X155925332Y-120201786D01*
X156104059Y-120165802D01*
X156299895Y-120143857D01*
X156455934Y-120138100D01*
X156512711Y-120136006D01*
X156590158Y-120136732D01*
G36*
X156590158Y-120136732D02*
G01*
X156741594Y-120145311D01*
X156878283Y-120164167D01*
X157004276Y-120194163D01*
X157123625Y-120236164D01*
X157240381Y-120291031D01*
X157351179Y-120357833D01*
X157464739Y-120448637D01*
X157560211Y-120552292D01*
X157637073Y-120668113D01*
X157694797Y-120795414D01*
X157732858Y-120933511D01*
X157738666Y-120971207D01*
X157744396Y-121050248D01*
X157744583Y-121138371D01*
X157739539Y-121227764D01*
X157729578Y-121310616D01*
X157715012Y-121379113D01*
X157705364Y-121409965D01*
X157675123Y-121487270D01*
X157637617Y-121564321D01*
X157596614Y-121633800D01*
X157555879Y-121688385D01*
X157536505Y-121711084D01*
X157518662Y-121733799D01*
X157511778Y-121745221D01*
X157513424Y-121746463D01*
X157531205Y-121749272D01*
X157564370Y-121751224D01*
X157607733Y-121751955D01*
X157703689Y-121751955D01*
X157703689Y-122610104D01*
X157642974Y-122575839D01*
X157633868Y-122570645D01*
X157619249Y-122562285D01*
X157605173Y-122554712D01*
X157590540Y-122547888D01*
X157574249Y-122541773D01*
X157555198Y-122536327D01*
X157532286Y-122531513D01*
X157504413Y-122527292D01*
X157470478Y-122523623D01*
X157429379Y-122520469D01*
X157380015Y-122517789D01*
X157321286Y-122515546D01*
X157252090Y-122513701D01*
X157171326Y-122512213D01*
X157077894Y-122511045D01*
X156970692Y-122510156D01*
X156848620Y-122509509D01*
X156710576Y-122509064D01*
X156555459Y-122508782D01*
X156382168Y-122508625D01*
X156189603Y-122508552D01*
X155976662Y-122508526D01*
X155742245Y-122508507D01*
X154057378Y-122508311D01*
X154057378Y-121602983D01*
X154094067Y-121627415D01*
X154103647Y-121633682D01*
X154149981Y-121659792D01*
X154197102Y-121677531D01*
X154252251Y-121689092D01*
X154322667Y-121696669D01*
X154329650Y-121697161D01*
X154367641Y-121698938D01*
X154421576Y-121700556D01*
X154488703Y-121702001D01*
X154566271Y-121703260D01*
X154651528Y-121704320D01*
X154741724Y-121705171D01*
X154834107Y-121705797D01*
X154925925Y-121706188D01*
X155014427Y-121706330D01*
X155096862Y-121706210D01*
X155170479Y-121705817D01*
X155232526Y-121705138D01*
X155280251Y-121704159D01*
X155310904Y-121702868D01*
X155321733Y-121701253D01*
X155317333Y-121693043D01*
X155302362Y-121671353D01*
X155280448Y-121641986D01*
X155246236Y-121593121D01*
X155199714Y-121504875D01*
X155166046Y-121406084D01*
X155163231Y-121391557D01*
X155717465Y-121391557D01*
X155729389Y-121476681D01*
X155756040Y-121560867D01*
X155796962Y-121639392D01*
X155840530Y-121706800D01*
X156990721Y-121706800D01*
X157037089Y-121636244D01*
X157060791Y-121595583D01*
X157086639Y-121541454D01*
X157104829Y-121492311D01*
X157120551Y-121428835D01*
X157131541Y-121332669D01*
X157123365Y-121248100D01*
X157095805Y-121174781D01*
X157048642Y-121112363D01*
X156981658Y-121060498D01*
X156894633Y-121018840D01*
X156787350Y-120987038D01*
X156775009Y-120984455D01*
X156713772Y-120976000D01*
X156636692Y-120970337D01*
X156549002Y-120967424D01*
X156455934Y-120967217D01*
X156362720Y-120969670D01*
X156274594Y-120974739D01*
X156196788Y-120982381D01*
X156134533Y-120992552D01*
X156128666Y-120993833D01*
X156018121Y-121022874D01*
X155927575Y-121057390D01*
X155854953Y-121098544D01*
X155798181Y-121147501D01*
X155755184Y-121205426D01*
X155739615Y-121237380D01*
X155720722Y-121310216D01*
X155717465Y-121391557D01*
X155163231Y-121391557D01*
X155144231Y-121293490D01*
X155133265Y-121163836D01*
X155132219Y-121071330D01*
X155142014Y-120949989D01*
X155166174Y-120839901D01*
X155205785Y-120736611D01*
X155261932Y-120635662D01*
X155292883Y-120590497D01*
X155384115Y-120485089D01*
X155493106Y-120393462D01*
X155619726Y-120315668D01*
X155763845Y-120251759D01*
X155925332Y-120201786D01*
X156104059Y-120165802D01*
X156299895Y-120143857D01*
X156455934Y-120138100D01*
X156512711Y-120136006D01*
X156590158Y-120136732D01*
G37*
X156947363Y-117594739D02*
X157022202Y-117598368D01*
X157084401Y-117605978D01*
X157140984Y-117618312D01*
X157267076Y-117662687D01*
X157381679Y-117725600D01*
X157482568Y-117805762D01*
X157568924Y-117902260D01*
X157639932Y-118014178D01*
X157694776Y-118140603D01*
X157732638Y-118280622D01*
X157738351Y-118316851D01*
X157744313Y-118395845D01*
X157744646Y-118484159D01*
X157739659Y-118573925D01*
X157729666Y-118657278D01*
X157714978Y-118726349D01*
X157684749Y-118812813D01*
X157630057Y-118922714D01*
X157562543Y-119020044D01*
X157511556Y-119082133D01*
X157607622Y-119085395D01*
X157703689Y-119088657D01*
X157703689Y-119511550D01*
X157703686Y-119522457D01*
X157703380Y-119616944D01*
X157702616Y-119703669D01*
X157701451Y-119780163D01*
X157699942Y-119843957D01*
X157698147Y-119892582D01*
X157696121Y-119923567D01*
X157693922Y-119934444D01*
X157693463Y-119934422D01*
X157677910Y-119927386D01*
X157655071Y-119911566D01*
X157649638Y-119907266D01*
X157635606Y-119896223D01*
X157622186Y-119886689D01*
X157607722Y-119878539D01*
X157590556Y-119871648D01*
X157569034Y-119865889D01*
X157541498Y-119861138D01*
X157506292Y-119857269D01*
X157461760Y-119854156D01*
X157406246Y-119851675D01*
X157338093Y-119849700D01*
X157255645Y-119848106D01*
X157157246Y-119846766D01*
X157041239Y-119845556D01*
X156905968Y-119844351D01*
X156749778Y-119843025D01*
X156607012Y-119841772D01*
X156461942Y-119840349D01*
X156336027Y-119838824D01*
X156227436Y-119837067D01*
X156134334Y-119834949D01*
X156054891Y-119832340D01*
X155987273Y-119829110D01*
X155929649Y-119825131D01*
X155880185Y-119820272D01*
X155837050Y-119814403D01*
X155798410Y-119807396D01*
X155762434Y-119799120D01*
X155727289Y-119789446D01*
X155691142Y-119778244D01*
X155652161Y-119765384D01*
X155609091Y-119749910D01*
X155516871Y-119707006D01*
X155437099Y-119653265D01*
X155362965Y-119584424D01*
X155299405Y-119506815D01*
X155237725Y-119402239D01*
X155190202Y-119282756D01*
X155156567Y-119147492D01*
X155136552Y-118995574D01*
X155129889Y-118826128D01*
X155130287Y-118768110D01*
X155132335Y-118702602D01*
X155136704Y-118641307D01*
X155144035Y-118579903D01*
X155154969Y-118514068D01*
X155170147Y-118439480D01*
X155190209Y-118351816D01*
X155215797Y-118246755D01*
X155222820Y-118218194D01*
X155240776Y-118142946D01*
X155256820Y-118072612D01*
X155270028Y-118011433D01*
X155279474Y-117963646D01*
X155284231Y-117933489D01*
X155287910Y-117905217D01*
X155293187Y-117878940D01*
X155297942Y-117868941D01*
X155306781Y-117872048D01*
X155334072Y-117882806D01*
X155376906Y-117900136D01*
X155432425Y-117922874D01*
X155497772Y-117949853D01*
X155570089Y-117979910D01*
X155585879Y-117986507D01*
X155676484Y-118025093D01*
X155746217Y-118056232D01*
X155795405Y-118080083D01*
X155824374Y-118096802D01*
X155833452Y-118106546D01*
X155831405Y-118114234D01*
X155821760Y-118140585D01*
X155806190Y-118179018D01*
X155786815Y-118224178D01*
X155748814Y-118318707D01*
X155707780Y-118455520D01*
X155682612Y-118596711D01*
X155678611Y-118634686D01*
X155676447Y-118737941D01*
X155689622Y-118825048D01*
X155718756Y-118896871D01*
X155764466Y-118954269D01*
X155827372Y-118998104D01*
X155908092Y-119029238D01*
X156007245Y-119048530D01*
X156066224Y-119055950D01*
X156059445Y-118894064D01*
X156059110Y-118868106D01*
X156581842Y-118868106D01*
X156581857Y-118876993D01*
X156582655Y-118932340D01*
X156584488Y-118979264D01*
X156587111Y-119013047D01*
X156590274Y-119028972D01*
X156596741Y-119033057D01*
X156618875Y-119037428D01*
X156657988Y-119040396D01*
X156715939Y-119042086D01*
X156794586Y-119042622D01*
X156990462Y-119042622D01*
X157046973Y-118997952D01*
X157062212Y-118985215D01*
X157104844Y-118938396D01*
X157140672Y-118877745D01*
X157145850Y-118867103D01*
X157162745Y-118828324D01*
X157172909Y-118793308D01*
X157178325Y-118753278D01*
X157180978Y-118699459D01*
X157181383Y-118681352D01*
X157178540Y-118605989D01*
X157166620Y-118545257D01*
X157144037Y-118493548D01*
X157109211Y-118445254D01*
X157104798Y-118440197D01*
X157049160Y-118391728D01*
X156985333Y-118363541D01*
X156910282Y-118354248D01*
X156838693Y-118361480D01*
X156775645Y-118386204D01*
X156717758Y-118430751D01*
X156670808Y-118485681D01*
X156630961Y-118558106D01*
X156603263Y-118644660D01*
X156587096Y-118747330D01*
X156581842Y-118868106D01*
X156059110Y-118868106D01*
X156057813Y-118767505D01*
X156064194Y-118616049D01*
X156078777Y-118467604D01*
X156100882Y-118331422D01*
X156115821Y-118266755D01*
X156158741Y-118134510D01*
X156215340Y-118012238D01*
X156284017Y-117902315D01*
X156363170Y-117807117D01*
X156451196Y-117729020D01*
X156546493Y-117670401D01*
X156598864Y-117646405D01*
X156669590Y-117620768D01*
X156740812Y-117604522D01*
X156819712Y-117596178D01*
X156910282Y-117594310D01*
X156913467Y-117594245D01*
X156947363Y-117594739D01*
G36*
X156947363Y-117594739D02*
G01*
X157022202Y-117598368D01*
X157084401Y-117605978D01*
X157140984Y-117618312D01*
X157267076Y-117662687D01*
X157381679Y-117725600D01*
X157482568Y-117805762D01*
X157568924Y-117902260D01*
X157639932Y-118014178D01*
X157694776Y-118140603D01*
X157732638Y-118280622D01*
X157738351Y-118316851D01*
X157744313Y-118395845D01*
X157744646Y-118484159D01*
X157739659Y-118573925D01*
X157729666Y-118657278D01*
X157714978Y-118726349D01*
X157684749Y-118812813D01*
X157630057Y-118922714D01*
X157562543Y-119020044D01*
X157511556Y-119082133D01*
X157607622Y-119085395D01*
X157703689Y-119088657D01*
X157703689Y-119511550D01*
X157703686Y-119522457D01*
X157703380Y-119616944D01*
X157702616Y-119703669D01*
X157701451Y-119780163D01*
X157699942Y-119843957D01*
X157698147Y-119892582D01*
X157696121Y-119923567D01*
X157693922Y-119934444D01*
X157693463Y-119934422D01*
X157677910Y-119927386D01*
X157655071Y-119911566D01*
X157649638Y-119907266D01*
X157635606Y-119896223D01*
X157622186Y-119886689D01*
X157607722Y-119878539D01*
X157590556Y-119871648D01*
X157569034Y-119865889D01*
X157541498Y-119861138D01*
X157506292Y-119857269D01*
X157461760Y-119854156D01*
X157406246Y-119851675D01*
X157338093Y-119849700D01*
X157255645Y-119848106D01*
X157157246Y-119846766D01*
X157041239Y-119845556D01*
X156905968Y-119844351D01*
X156749778Y-119843025D01*
X156607012Y-119841772D01*
X156461942Y-119840349D01*
X156336027Y-119838824D01*
X156227436Y-119837067D01*
X156134334Y-119834949D01*
X156054891Y-119832340D01*
X155987273Y-119829110D01*
X155929649Y-119825131D01*
X155880185Y-119820272D01*
X155837050Y-119814403D01*
X155798410Y-119807396D01*
X155762434Y-119799120D01*
X155727289Y-119789446D01*
X155691142Y-119778244D01*
X155652161Y-119765384D01*
X155609091Y-119749910D01*
X155516871Y-119707006D01*
X155437099Y-119653265D01*
X155362965Y-119584424D01*
X155299405Y-119506815D01*
X155237725Y-119402239D01*
X155190202Y-119282756D01*
X155156567Y-119147492D01*
X155136552Y-118995574D01*
X155129889Y-118826128D01*
X155130287Y-118768110D01*
X155132335Y-118702602D01*
X155136704Y-118641307D01*
X155144035Y-118579903D01*
X155154969Y-118514068D01*
X155170147Y-118439480D01*
X155190209Y-118351816D01*
X155215797Y-118246755D01*
X155222820Y-118218194D01*
X155240776Y-118142946D01*
X155256820Y-118072612D01*
X155270028Y-118011433D01*
X155279474Y-117963646D01*
X155284231Y-117933489D01*
X155287910Y-117905217D01*
X155293187Y-117878940D01*
X155297942Y-117868941D01*
X155306781Y-117872048D01*
X155334072Y-117882806D01*
X155376906Y-117900136D01*
X155432425Y-117922874D01*
X155497772Y-117949853D01*
X155570089Y-117979910D01*
X155585879Y-117986507D01*
X155676484Y-118025093D01*
X155746217Y-118056232D01*
X155795405Y-118080083D01*
X155824374Y-118096802D01*
X155833452Y-118106546D01*
X155831405Y-118114234D01*
X155821760Y-118140585D01*
X155806190Y-118179018D01*
X155786815Y-118224178D01*
X155748814Y-118318707D01*
X155707780Y-118455520D01*
X155682612Y-118596711D01*
X155678611Y-118634686D01*
X155676447Y-118737941D01*
X155689622Y-118825048D01*
X155718756Y-118896871D01*
X155764466Y-118954269D01*
X155827372Y-118998104D01*
X155908092Y-119029238D01*
X156007245Y-119048530D01*
X156066224Y-119055950D01*
X156059445Y-118894064D01*
X156059110Y-118868106D01*
X156581842Y-118868106D01*
X156581857Y-118876993D01*
X156582655Y-118932340D01*
X156584488Y-118979264D01*
X156587111Y-119013047D01*
X156590274Y-119028972D01*
X156596741Y-119033057D01*
X156618875Y-119037428D01*
X156657988Y-119040396D01*
X156715939Y-119042086D01*
X156794586Y-119042622D01*
X156990462Y-119042622D01*
X157046973Y-118997952D01*
X157062212Y-118985215D01*
X157104844Y-118938396D01*
X157140672Y-118877745D01*
X157145850Y-118867103D01*
X157162745Y-118828324D01*
X157172909Y-118793308D01*
X157178325Y-118753278D01*
X157180978Y-118699459D01*
X157181383Y-118681352D01*
X157178540Y-118605989D01*
X157166620Y-118545257D01*
X157144037Y-118493548D01*
X157109211Y-118445254D01*
X157104798Y-118440197D01*
X157049160Y-118391728D01*
X156985333Y-118363541D01*
X156910282Y-118354248D01*
X156838693Y-118361480D01*
X156775645Y-118386204D01*
X156717758Y-118430751D01*
X156670808Y-118485681D01*
X156630961Y-118558106D01*
X156603263Y-118644660D01*
X156587096Y-118747330D01*
X156581842Y-118868106D01*
X156059110Y-118868106D01*
X156057813Y-118767505D01*
X156064194Y-118616049D01*
X156078777Y-118467604D01*
X156100882Y-118331422D01*
X156115821Y-118266755D01*
X156158741Y-118134510D01*
X156215340Y-118012238D01*
X156284017Y-117902315D01*
X156363170Y-117807117D01*
X156451196Y-117729020D01*
X156546493Y-117670401D01*
X156598864Y-117646405D01*
X156669590Y-117620768D01*
X156740812Y-117604522D01*
X156819712Y-117596178D01*
X156910282Y-117594310D01*
X156913467Y-117594245D01*
X156947363Y-117594739D01*
G37*
X156891295Y-110045313D02*
X157071535Y-110045407D01*
X157234015Y-110045605D01*
X157379670Y-110045937D01*
X157509434Y-110046431D01*
X157624243Y-110047117D01*
X157725030Y-110048024D01*
X157812730Y-110049183D01*
X157888279Y-110050622D01*
X157952611Y-110052371D01*
X158006661Y-110054460D01*
X158051363Y-110056917D01*
X158087652Y-110059773D01*
X158116463Y-110063057D01*
X158138731Y-110066798D01*
X158155390Y-110071026D01*
X158167375Y-110075771D01*
X158175621Y-110081061D01*
X158181062Y-110086927D01*
X158184634Y-110093398D01*
X158187270Y-110100503D01*
X158189906Y-110108272D01*
X158193477Y-110116734D01*
X158195145Y-110121092D01*
X158197111Y-110129605D01*
X158198911Y-110142306D01*
X158200555Y-110160115D01*
X158202047Y-110183951D01*
X158203397Y-110214734D01*
X158204611Y-110253383D01*
X158205697Y-110300818D01*
X158206661Y-110357957D01*
X158207511Y-110425721D01*
X158208253Y-110505029D01*
X158208897Y-110596801D01*
X158209447Y-110701956D01*
X158209913Y-110821413D01*
X158210300Y-110956092D01*
X158210616Y-111106912D01*
X158210869Y-111274794D01*
X158211066Y-111460655D01*
X158211213Y-111665417D01*
X158211318Y-111889998D01*
X158211389Y-112135318D01*
X158211432Y-112402296D01*
X158211437Y-112440679D01*
X158211480Y-112706078D01*
X158211525Y-112949950D01*
X158211548Y-113173217D01*
X158211524Y-113376804D01*
X158211430Y-113561633D01*
X158211243Y-113728627D01*
X158210939Y-113878710D01*
X158210494Y-114012804D01*
X158209885Y-114131834D01*
X158209089Y-114236721D01*
X158208080Y-114328390D01*
X158206837Y-114407763D01*
X158205335Y-114475763D01*
X158203551Y-114533314D01*
X158201461Y-114581338D01*
X158199042Y-114620760D01*
X158196270Y-114652501D01*
X158193121Y-114677486D01*
X158189572Y-114696636D01*
X158185598Y-114710877D01*
X158181178Y-114721129D01*
X158176286Y-114728318D01*
X158170900Y-114733365D01*
X158164996Y-114737195D01*
X158158549Y-114740729D01*
X158151537Y-114744892D01*
X158149687Y-114745975D01*
X158144180Y-114748187D01*
X158135868Y-114750214D01*
X158123809Y-114752062D01*
X158107063Y-114753739D01*
X158084687Y-114755255D01*
X158055740Y-114756617D01*
X158019280Y-114757833D01*
X157974367Y-114758911D01*
X157920057Y-114759860D01*
X157855410Y-114760688D01*
X157779484Y-114761403D01*
X157691338Y-114762013D01*
X157590029Y-114762526D01*
X157474617Y-114762950D01*
X157344160Y-114763294D01*
X157197716Y-114763566D01*
X157034344Y-114763773D01*
X156853101Y-114763924D01*
X156653048Y-114764028D01*
X156433241Y-114764092D01*
X156192739Y-114764124D01*
X155930602Y-114764133D01*
X153739031Y-114764133D01*
X153700649Y-114725751D01*
X153676911Y-114698645D01*
X153665111Y-114671747D01*
X153662267Y-114635440D01*
X153662267Y-114583511D01*
X153750206Y-114583511D01*
X153800102Y-114581573D01*
X153910523Y-114562801D01*
X154011987Y-114525783D01*
X154103152Y-114472631D01*
X154182673Y-114405454D01*
X154204249Y-114379805D01*
X155174978Y-114379805D01*
X156351845Y-114382880D01*
X157528711Y-114385955D01*
X157587622Y-114412593D01*
X157612183Y-114424515D01*
X157642434Y-114441754D01*
X157659560Y-114454926D01*
X157667591Y-114462924D01*
X157682493Y-114470622D01*
X157683765Y-114466740D01*
X157685791Y-114443480D01*
X157687626Y-114401126D01*
X157689227Y-114341868D01*
X157690549Y-114267893D01*
X157691548Y-114181390D01*
X157692180Y-114084548D01*
X157692400Y-113979555D01*
X157692349Y-113910644D01*
X157692091Y-113812393D01*
X157691637Y-113722970D01*
X157691010Y-113644667D01*
X157690235Y-113579777D01*
X157689335Y-113530589D01*
X157688334Y-113499396D01*
X157687257Y-113488489D01*
X157684037Y-113489678D01*
X157666452Y-113499824D01*
X157640158Y-113516960D01*
X157627691Y-113525460D01*
X157613622Y-113534671D01*
X157599351Y-113542767D01*
X157583479Y-113549815D01*
X157564609Y-113555883D01*
X157541341Y-113561039D01*
X157512278Y-113565349D01*
X157476021Y-113568881D01*
X157431170Y-113571703D01*
X157376328Y-113573882D01*
X157310097Y-113575486D01*
X157231077Y-113576581D01*
X157137871Y-113577235D01*
X157029079Y-113577516D01*
X156903303Y-113577491D01*
X156759145Y-113577228D01*
X156595207Y-113576794D01*
X156410089Y-113576255D01*
X156231232Y-113575721D01*
X156072374Y-113575195D01*
X155933316Y-113574650D01*
X155812665Y-113574055D01*
X155709028Y-113573381D01*
X155621011Y-113572597D01*
X155547223Y-113571674D01*
X155486269Y-113570581D01*
X155436757Y-113569288D01*
X155397293Y-113567765D01*
X155366484Y-113565981D01*
X155342938Y-113563908D01*
X155325260Y-113561514D01*
X155312059Y-113558770D01*
X155301940Y-113555644D01*
X155293511Y-113552108D01*
X155285375Y-113548209D01*
X155248544Y-113528562D01*
X155218391Y-113509775D01*
X155216908Y-113508728D01*
X155194659Y-113494398D01*
X155181702Y-113488489D01*
X155181249Y-113489496D01*
X155179803Y-113506695D01*
X155178480Y-113543344D01*
X155177316Y-113597038D01*
X155176347Y-113665370D01*
X155175611Y-113745936D01*
X155175142Y-113836330D01*
X155174978Y-113934147D01*
X155174978Y-114379805D01*
X154204249Y-114379805D01*
X154249205Y-114326362D01*
X154301406Y-114237466D01*
X154337930Y-114140875D01*
X154357434Y-114038700D01*
X154358573Y-113933050D01*
X154340005Y-113826036D01*
X154300384Y-113719768D01*
X154242516Y-113622781D01*
X154167684Y-113537707D01*
X154079615Y-113468985D01*
X153980616Y-113418082D01*
X153872993Y-113386465D01*
X153759054Y-113375600D01*
X153662267Y-113375600D01*
X153662267Y-111755247D01*
X153662280Y-111544103D01*
X153662330Y-111339980D01*
X153662430Y-111156314D01*
X153662592Y-110992009D01*
X153662829Y-110845971D01*
X153663153Y-110717106D01*
X153663575Y-110604317D01*
X153664109Y-110506512D01*
X153664767Y-110422596D01*
X153665561Y-110351473D01*
X153665588Y-110349803D01*
X154271867Y-110349803D01*
X154271867Y-111409686D01*
X154334966Y-111371689D01*
X154360005Y-111357007D01*
X154387586Y-111342469D01*
X154415700Y-111330373D01*
X154446551Y-111320468D01*
X154482344Y-111312506D01*
X154525283Y-111306239D01*
X154577574Y-111301418D01*
X154641419Y-111297794D01*
X154719025Y-111295119D01*
X154812594Y-111293143D01*
X154924333Y-111291618D01*
X155056445Y-111290296D01*
X155176434Y-111289387D01*
X155293063Y-111288980D01*
X155388531Y-111289233D01*
X155462556Y-111290143D01*
X155514855Y-111291707D01*
X155545149Y-111293921D01*
X155553156Y-111296780D01*
X155549858Y-111299839D01*
X155528408Y-111317994D01*
X155491889Y-111347725D01*
X155442442Y-111387361D01*
X155382207Y-111435229D01*
X155313327Y-111489657D01*
X155237943Y-111548973D01*
X155158196Y-111611505D01*
X155076228Y-111675579D01*
X154994180Y-111739525D01*
X154914194Y-111801669D01*
X154838411Y-111860339D01*
X154768973Y-111913863D01*
X154708021Y-111960570D01*
X154657696Y-111998786D01*
X154620140Y-112026839D01*
X154597495Y-112043057D01*
X154525212Y-112088365D01*
X154445463Y-112128339D01*
X154377188Y-112149870D01*
X154319844Y-112153173D01*
X154271867Y-112147884D01*
X154272117Y-113279644D01*
X154302722Y-113240133D01*
X154310089Y-113230752D01*
X154364438Y-113167817D01*
X154432259Y-113099003D01*
X154515516Y-113022404D01*
X154616178Y-112936112D01*
X154636847Y-112918948D01*
X154686409Y-112878167D01*
X154747326Y-112828412D01*
X154817898Y-112771045D01*
X154896424Y-112707431D01*
X154981204Y-112638931D01*
X155070537Y-112566910D01*
X155162722Y-112492730D01*
X155181702Y-112477483D01*
X155256060Y-112417754D01*
X155348848Y-112343347D01*
X155439388Y-112270869D01*
X155525978Y-112201686D01*
X155606918Y-112137159D01*
X155680506Y-112078653D01*
X155745044Y-112027530D01*
X155798829Y-111985153D01*
X155840162Y-111952885D01*
X155867342Y-111932090D01*
X155878668Y-111924131D01*
X155882771Y-111925889D01*
X155903334Y-111938770D01*
X155939561Y-111963115D01*
X155989824Y-111997753D01*
X156052492Y-112041514D01*
X156125936Y-112093225D01*
X156208527Y-112151716D01*
X156298636Y-112215816D01*
X156394631Y-112284354D01*
X156494885Y-112356157D01*
X156597768Y-112430056D01*
X156701650Y-112504879D01*
X156804901Y-112579455D01*
X156905892Y-112652613D01*
X157002994Y-112723181D01*
X157094577Y-112789989D01*
X157179011Y-112851865D01*
X157254667Y-112907639D01*
X157319916Y-112956138D01*
X157373128Y-112996193D01*
X157412673Y-113026631D01*
X157438026Y-113047056D01*
X157492295Y-113093101D01*
X157548775Y-113143388D01*
X157598669Y-113190185D01*
X157692400Y-113281349D01*
X157692400Y-112126910D01*
X157616200Y-112127544D01*
X157574160Y-112126426D01*
X157538334Y-112120696D01*
X157500772Y-112108110D01*
X157452577Y-112086432D01*
X157445897Y-112083211D01*
X157396359Y-112057812D01*
X157348369Y-112031004D01*
X157311466Y-112008083D01*
X157304834Y-112003515D01*
X157273593Y-111981484D01*
X157228654Y-111949307D01*
X157172147Y-111908543D01*
X157106204Y-111860755D01*
X157032957Y-111807502D01*
X156954536Y-111750345D01*
X156873072Y-111690845D01*
X156790698Y-111630563D01*
X156709544Y-111571060D01*
X156631742Y-111513895D01*
X156559423Y-111460630D01*
X156494718Y-111412826D01*
X156439759Y-111372043D01*
X156396676Y-111339842D01*
X156367602Y-111317784D01*
X156354667Y-111307429D01*
X156350351Y-111302956D01*
X156348312Y-111298764D01*
X156350926Y-111295357D01*
X156359986Y-111292675D01*
X156377285Y-111290659D01*
X156404614Y-111289252D01*
X156443765Y-111288395D01*
X156496533Y-111288030D01*
X156564707Y-111288097D01*
X156650082Y-111288540D01*
X156754449Y-111289298D01*
X156879600Y-111290315D01*
X156924300Y-111290692D01*
X157045395Y-111291831D01*
X157146688Y-111293028D01*
X157230262Y-111294364D01*
X157298204Y-111295923D01*
X157352599Y-111297785D01*
X157395532Y-111300034D01*
X157429089Y-111302752D01*
X157455355Y-111306021D01*
X157476416Y-111309922D01*
X157494357Y-111314539D01*
X157520770Y-111322808D01*
X157582772Y-111346417D01*
X157635573Y-111372315D01*
X157672645Y-111397465D01*
X157674075Y-111398661D01*
X157678424Y-111400832D01*
X157682026Y-111398672D01*
X157684951Y-111390356D01*
X157687269Y-111374060D01*
X157689051Y-111347959D01*
X157690367Y-111310229D01*
X157691286Y-111259044D01*
X157691878Y-111192580D01*
X157692215Y-111109013D01*
X157692365Y-111006517D01*
X157692400Y-110883268D01*
X157692400Y-110351704D01*
X157634783Y-110390477D01*
X157625893Y-110396568D01*
X157611069Y-110407024D01*
X157597422Y-110416421D01*
X157583765Y-110424817D01*
X157568911Y-110432267D01*
X157551670Y-110438827D01*
X157530855Y-110444554D01*
X157505280Y-110449505D01*
X157473755Y-110453734D01*
X157435093Y-110457299D01*
X157388107Y-110460256D01*
X157331608Y-110462660D01*
X157264409Y-110464569D01*
X157185322Y-110466038D01*
X157093160Y-110467124D01*
X156986734Y-110467882D01*
X156864857Y-110468370D01*
X156726341Y-110468642D01*
X156569999Y-110468757D01*
X156394642Y-110468769D01*
X156199082Y-110468735D01*
X155982133Y-110468711D01*
X155859513Y-110468720D01*
X155654447Y-110468757D01*
X155470116Y-110468773D01*
X155305334Y-110468712D01*
X155158916Y-110468516D01*
X155029674Y-110468130D01*
X154916422Y-110467495D01*
X154817975Y-110466556D01*
X154733144Y-110465255D01*
X154660744Y-110463536D01*
X154599589Y-110461341D01*
X154548492Y-110458615D01*
X154506267Y-110455299D01*
X154471727Y-110451338D01*
X154443686Y-110446675D01*
X154420958Y-110441253D01*
X154402356Y-110435014D01*
X154386693Y-110427903D01*
X154372784Y-110419862D01*
X154359441Y-110410834D01*
X154345479Y-110400764D01*
X154329711Y-110389593D01*
X154271867Y-110349803D01*
X153665588Y-110349803D01*
X153666504Y-110292050D01*
X153667608Y-110243232D01*
X153668884Y-110203923D01*
X153670347Y-110173031D01*
X153672007Y-110149459D01*
X153673878Y-110132114D01*
X153675972Y-110119901D01*
X153678300Y-110111725D01*
X153680876Y-110106492D01*
X153684445Y-110100496D01*
X153687978Y-110093721D01*
X153691488Y-110087522D01*
X153695918Y-110081874D01*
X153702208Y-110076753D01*
X153711301Y-110072131D01*
X153724139Y-110067985D01*
X153741662Y-110064287D01*
X153764813Y-110061013D01*
X153794534Y-110058137D01*
X153831765Y-110055633D01*
X153877449Y-110053476D01*
X153932527Y-110051640D01*
X153997941Y-110050100D01*
X154074633Y-110048830D01*
X154163544Y-110047805D01*
X154265617Y-110046999D01*
X154271867Y-110046966D01*
X154381792Y-110046386D01*
X154513011Y-110045941D01*
X154660216Y-110045638D01*
X154824349Y-110045452D01*
X155006352Y-110045358D01*
X155207165Y-110045329D01*
X155427732Y-110045339D01*
X155668992Y-110045364D01*
X155931889Y-110045378D01*
X155974040Y-110045378D01*
X156234668Y-110045354D01*
X156473796Y-110045315D01*
X156692360Y-110045292D01*
X156891295Y-110045313D01*
G36*
X156891295Y-110045313D02*
G01*
X157071535Y-110045407D01*
X157234015Y-110045605D01*
X157379670Y-110045937D01*
X157509434Y-110046431D01*
X157624243Y-110047117D01*
X157725030Y-110048024D01*
X157812730Y-110049183D01*
X157888279Y-110050622D01*
X157952611Y-110052371D01*
X158006661Y-110054460D01*
X158051363Y-110056917D01*
X158087652Y-110059773D01*
X158116463Y-110063057D01*
X158138731Y-110066798D01*
X158155390Y-110071026D01*
X158167375Y-110075771D01*
X158175621Y-110081061D01*
X158181062Y-110086927D01*
X158184634Y-110093398D01*
X158187270Y-110100503D01*
X158189906Y-110108272D01*
X158193477Y-110116734D01*
X158195145Y-110121092D01*
X158197111Y-110129605D01*
X158198911Y-110142306D01*
X158200555Y-110160115D01*
X158202047Y-110183951D01*
X158203397Y-110214734D01*
X158204611Y-110253383D01*
X158205697Y-110300818D01*
X158206661Y-110357957D01*
X158207511Y-110425721D01*
X158208253Y-110505029D01*
X158208897Y-110596801D01*
X158209447Y-110701956D01*
X158209913Y-110821413D01*
X158210300Y-110956092D01*
X158210616Y-111106912D01*
X158210869Y-111274794D01*
X158211066Y-111460655D01*
X158211213Y-111665417D01*
X158211318Y-111889998D01*
X158211389Y-112135318D01*
X158211432Y-112402296D01*
X158211437Y-112440679D01*
X158211480Y-112706078D01*
X158211525Y-112949950D01*
X158211548Y-113173217D01*
X158211524Y-113376804D01*
X158211430Y-113561633D01*
X158211243Y-113728627D01*
X158210939Y-113878710D01*
X158210494Y-114012804D01*
X158209885Y-114131834D01*
X158209089Y-114236721D01*
X158208080Y-114328390D01*
X158206837Y-114407763D01*
X158205335Y-114475763D01*
X158203551Y-114533314D01*
X158201461Y-114581338D01*
X158199042Y-114620760D01*
X158196270Y-114652501D01*
X158193121Y-114677486D01*
X158189572Y-114696636D01*
X158185598Y-114710877D01*
X158181178Y-114721129D01*
X158176286Y-114728318D01*
X158170900Y-114733365D01*
X158164996Y-114737195D01*
X158158549Y-114740729D01*
X158151537Y-114744892D01*
X158149687Y-114745975D01*
X158144180Y-114748187D01*
X158135868Y-114750214D01*
X158123809Y-114752062D01*
X158107063Y-114753739D01*
X158084687Y-114755255D01*
X158055740Y-114756617D01*
X158019280Y-114757833D01*
X157974367Y-114758911D01*
X157920057Y-114759860D01*
X157855410Y-114760688D01*
X157779484Y-114761403D01*
X157691338Y-114762013D01*
X157590029Y-114762526D01*
X157474617Y-114762950D01*
X157344160Y-114763294D01*
X157197716Y-114763566D01*
X157034344Y-114763773D01*
X156853101Y-114763924D01*
X156653048Y-114764028D01*
X156433241Y-114764092D01*
X156192739Y-114764124D01*
X155930602Y-114764133D01*
X153739031Y-114764133D01*
X153700649Y-114725751D01*
X153676911Y-114698645D01*
X153665111Y-114671747D01*
X153662267Y-114635440D01*
X153662267Y-114583511D01*
X153750206Y-114583511D01*
X153800102Y-114581573D01*
X153910523Y-114562801D01*
X154011987Y-114525783D01*
X154103152Y-114472631D01*
X154182673Y-114405454D01*
X154204249Y-114379805D01*
X155174978Y-114379805D01*
X156351845Y-114382880D01*
X157528711Y-114385955D01*
X157587622Y-114412593D01*
X157612183Y-114424515D01*
X157642434Y-114441754D01*
X157659560Y-114454926D01*
X157667591Y-114462924D01*
X157682493Y-114470622D01*
X157683765Y-114466740D01*
X157685791Y-114443480D01*
X157687626Y-114401126D01*
X157689227Y-114341868D01*
X157690549Y-114267893D01*
X157691548Y-114181390D01*
X157692180Y-114084548D01*
X157692400Y-113979555D01*
X157692349Y-113910644D01*
X157692091Y-113812393D01*
X157691637Y-113722970D01*
X157691010Y-113644667D01*
X157690235Y-113579777D01*
X157689335Y-113530589D01*
X157688334Y-113499396D01*
X157687257Y-113488489D01*
X157684037Y-113489678D01*
X157666452Y-113499824D01*
X157640158Y-113516960D01*
X157627691Y-113525460D01*
X157613622Y-113534671D01*
X157599351Y-113542767D01*
X157583479Y-113549815D01*
X157564609Y-113555883D01*
X157541341Y-113561039D01*
X157512278Y-113565349D01*
X157476021Y-113568881D01*
X157431170Y-113571703D01*
X157376328Y-113573882D01*
X157310097Y-113575486D01*
X157231077Y-113576581D01*
X157137871Y-113577235D01*
X157029079Y-113577516D01*
X156903303Y-113577491D01*
X156759145Y-113577228D01*
X156595207Y-113576794D01*
X156410089Y-113576255D01*
X156231232Y-113575721D01*
X156072374Y-113575195D01*
X155933316Y-113574650D01*
X155812665Y-113574055D01*
X155709028Y-113573381D01*
X155621011Y-113572597D01*
X155547223Y-113571674D01*
X155486269Y-113570581D01*
X155436757Y-113569288D01*
X155397293Y-113567765D01*
X155366484Y-113565981D01*
X155342938Y-113563908D01*
X155325260Y-113561514D01*
X155312059Y-113558770D01*
X155301940Y-113555644D01*
X155293511Y-113552108D01*
X155285375Y-113548209D01*
X155248544Y-113528562D01*
X155218391Y-113509775D01*
X155216908Y-113508728D01*
X155194659Y-113494398D01*
X155181702Y-113488489D01*
X155181249Y-113489496D01*
X155179803Y-113506695D01*
X155178480Y-113543344D01*
X155177316Y-113597038D01*
X155176347Y-113665370D01*
X155175611Y-113745936D01*
X155175142Y-113836330D01*
X155174978Y-113934147D01*
X155174978Y-114379805D01*
X154204249Y-114379805D01*
X154249205Y-114326362D01*
X154301406Y-114237466D01*
X154337930Y-114140875D01*
X154357434Y-114038700D01*
X154358573Y-113933050D01*
X154340005Y-113826036D01*
X154300384Y-113719768D01*
X154242516Y-113622781D01*
X154167684Y-113537707D01*
X154079615Y-113468985D01*
X153980616Y-113418082D01*
X153872993Y-113386465D01*
X153759054Y-113375600D01*
X153662267Y-113375600D01*
X153662267Y-111755247D01*
X153662280Y-111544103D01*
X153662330Y-111339980D01*
X153662430Y-111156314D01*
X153662592Y-110992009D01*
X153662829Y-110845971D01*
X153663153Y-110717106D01*
X153663575Y-110604317D01*
X153664109Y-110506512D01*
X153664767Y-110422596D01*
X153665561Y-110351473D01*
X153665588Y-110349803D01*
X154271867Y-110349803D01*
X154271867Y-111409686D01*
X154334966Y-111371689D01*
X154360005Y-111357007D01*
X154387586Y-111342469D01*
X154415700Y-111330373D01*
X154446551Y-111320468D01*
X154482344Y-111312506D01*
X154525283Y-111306239D01*
X154577574Y-111301418D01*
X154641419Y-111297794D01*
X154719025Y-111295119D01*
X154812594Y-111293143D01*
X154924333Y-111291618D01*
X155056445Y-111290296D01*
X155176434Y-111289387D01*
X155293063Y-111288980D01*
X155388531Y-111289233D01*
X155462556Y-111290143D01*
X155514855Y-111291707D01*
X155545149Y-111293921D01*
X155553156Y-111296780D01*
X155549858Y-111299839D01*
X155528408Y-111317994D01*
X155491889Y-111347725D01*
X155442442Y-111387361D01*
X155382207Y-111435229D01*
X155313327Y-111489657D01*
X155237943Y-111548973D01*
X155158196Y-111611505D01*
X155076228Y-111675579D01*
X154994180Y-111739525D01*
X154914194Y-111801669D01*
X154838411Y-111860339D01*
X154768973Y-111913863D01*
X154708021Y-111960570D01*
X154657696Y-111998786D01*
X154620140Y-112026839D01*
X154597495Y-112043057D01*
X154525212Y-112088365D01*
X154445463Y-112128339D01*
X154377188Y-112149870D01*
X154319844Y-112153173D01*
X154271867Y-112147884D01*
X154272117Y-113279644D01*
X154302722Y-113240133D01*
X154310089Y-113230752D01*
X154364438Y-113167817D01*
X154432259Y-113099003D01*
X154515516Y-113022404D01*
X154616178Y-112936112D01*
X154636847Y-112918948D01*
X154686409Y-112878167D01*
X154747326Y-112828412D01*
X154817898Y-112771045D01*
X154896424Y-112707431D01*
X154981204Y-112638931D01*
X155070537Y-112566910D01*
X155162722Y-112492730D01*
X155181702Y-112477483D01*
X155256060Y-112417754D01*
X155348848Y-112343347D01*
X155439388Y-112270869D01*
X155525978Y-112201686D01*
X155606918Y-112137159D01*
X155680506Y-112078653D01*
X155745044Y-112027530D01*
X155798829Y-111985153D01*
X155840162Y-111952885D01*
X155867342Y-111932090D01*
X155878668Y-111924131D01*
X155882771Y-111925889D01*
X155903334Y-111938770D01*
X155939561Y-111963115D01*
X155989824Y-111997753D01*
X156052492Y-112041514D01*
X156125936Y-112093225D01*
X156208527Y-112151716D01*
X156298636Y-112215816D01*
X156394631Y-112284354D01*
X156494885Y-112356157D01*
X156597768Y-112430056D01*
X156701650Y-112504879D01*
X156804901Y-112579455D01*
X156905892Y-112652613D01*
X157002994Y-112723181D01*
X157094577Y-112789989D01*
X157179011Y-112851865D01*
X157254667Y-112907639D01*
X157319916Y-112956138D01*
X157373128Y-112996193D01*
X157412673Y-113026631D01*
X157438026Y-113047056D01*
X157492295Y-113093101D01*
X157548775Y-113143388D01*
X157598669Y-113190185D01*
X157692400Y-113281349D01*
X157692400Y-112126910D01*
X157616200Y-112127544D01*
X157574160Y-112126426D01*
X157538334Y-112120696D01*
X157500772Y-112108110D01*
X157452577Y-112086432D01*
X157445897Y-112083211D01*
X157396359Y-112057812D01*
X157348369Y-112031004D01*
X157311466Y-112008083D01*
X157304834Y-112003515D01*
X157273593Y-111981484D01*
X157228654Y-111949307D01*
X157172147Y-111908543D01*
X157106204Y-111860755D01*
X157032957Y-111807502D01*
X156954536Y-111750345D01*
X156873072Y-111690845D01*
X156790698Y-111630563D01*
X156709544Y-111571060D01*
X156631742Y-111513895D01*
X156559423Y-111460630D01*
X156494718Y-111412826D01*
X156439759Y-111372043D01*
X156396676Y-111339842D01*
X156367602Y-111317784D01*
X156354667Y-111307429D01*
X156350351Y-111302956D01*
X156348312Y-111298764D01*
X156350926Y-111295357D01*
X156359986Y-111292675D01*
X156377285Y-111290659D01*
X156404614Y-111289252D01*
X156443765Y-111288395D01*
X156496533Y-111288030D01*
X156564707Y-111288097D01*
X156650082Y-111288540D01*
X156754449Y-111289298D01*
X156879600Y-111290315D01*
X156924300Y-111290692D01*
X157045395Y-111291831D01*
X157146688Y-111293028D01*
X157230262Y-111294364D01*
X157298204Y-111295923D01*
X157352599Y-111297785D01*
X157395532Y-111300034D01*
X157429089Y-111302752D01*
X157455355Y-111306021D01*
X157476416Y-111309922D01*
X157494357Y-111314539D01*
X157520770Y-111322808D01*
X157582772Y-111346417D01*
X157635573Y-111372315D01*
X157672645Y-111397465D01*
X157674075Y-111398661D01*
X157678424Y-111400832D01*
X157682026Y-111398672D01*
X157684951Y-111390356D01*
X157687269Y-111374060D01*
X157689051Y-111347959D01*
X157690367Y-111310229D01*
X157691286Y-111259044D01*
X157691878Y-111192580D01*
X157692215Y-111109013D01*
X157692365Y-111006517D01*
X157692400Y-110883268D01*
X157692400Y-110351704D01*
X157634783Y-110390477D01*
X157625893Y-110396568D01*
X157611069Y-110407024D01*
X157597422Y-110416421D01*
X157583765Y-110424817D01*
X157568911Y-110432267D01*
X157551670Y-110438827D01*
X157530855Y-110444554D01*
X157505280Y-110449505D01*
X157473755Y-110453734D01*
X157435093Y-110457299D01*
X157388107Y-110460256D01*
X157331608Y-110462660D01*
X157264409Y-110464569D01*
X157185322Y-110466038D01*
X157093160Y-110467124D01*
X156986734Y-110467882D01*
X156864857Y-110468370D01*
X156726341Y-110468642D01*
X156569999Y-110468757D01*
X156394642Y-110468769D01*
X156199082Y-110468735D01*
X155982133Y-110468711D01*
X155859513Y-110468720D01*
X155654447Y-110468757D01*
X155470116Y-110468773D01*
X155305334Y-110468712D01*
X155158916Y-110468516D01*
X155029674Y-110468130D01*
X154916422Y-110467495D01*
X154817975Y-110466556D01*
X154733144Y-110465255D01*
X154660744Y-110463536D01*
X154599589Y-110461341D01*
X154548492Y-110458615D01*
X154506267Y-110455299D01*
X154471727Y-110451338D01*
X154443686Y-110446675D01*
X154420958Y-110441253D01*
X154402356Y-110435014D01*
X154386693Y-110427903D01*
X154372784Y-110419862D01*
X154359441Y-110410834D01*
X154345479Y-110400764D01*
X154329711Y-110389593D01*
X154271867Y-110349803D01*
X153665588Y-110349803D01*
X153666504Y-110292050D01*
X153667608Y-110243232D01*
X153668884Y-110203923D01*
X153670347Y-110173031D01*
X153672007Y-110149459D01*
X153673878Y-110132114D01*
X153675972Y-110119901D01*
X153678300Y-110111725D01*
X153680876Y-110106492D01*
X153684445Y-110100496D01*
X153687978Y-110093721D01*
X153691488Y-110087522D01*
X153695918Y-110081874D01*
X153702208Y-110076753D01*
X153711301Y-110072131D01*
X153724139Y-110067985D01*
X153741662Y-110064287D01*
X153764813Y-110061013D01*
X153794534Y-110058137D01*
X153831765Y-110055633D01*
X153877449Y-110053476D01*
X153932527Y-110051640D01*
X153997941Y-110050100D01*
X154074633Y-110048830D01*
X154163544Y-110047805D01*
X154265617Y-110046999D01*
X154271867Y-110046966D01*
X154381792Y-110046386D01*
X154513011Y-110045941D01*
X154660216Y-110045638D01*
X154824349Y-110045452D01*
X155006352Y-110045358D01*
X155207165Y-110045329D01*
X155427732Y-110045339D01*
X155668992Y-110045364D01*
X155931889Y-110045378D01*
X155974040Y-110045378D01*
X156234668Y-110045354D01*
X156473796Y-110045315D01*
X156692360Y-110045292D01*
X156891295Y-110045313D01*
G37*
D15*
%TO.C,J3*%
X161350000Y-85020000D02*
X162680000Y-85020000D01*
X162680000Y-85020000D02*
X162680000Y-86350000D01*
X162680000Y-135940000D02*
X162680000Y-87620000D01*
X160020000Y-87620000D02*
X162680000Y-87620000D01*
X160020000Y-135940000D02*
X162680000Y-135940000D01*
X160020000Y-135940000D02*
X160020000Y-87620000D01*
%TO.C,J2*%
X148650000Y-85020000D02*
X149980000Y-85020000D01*
X149980000Y-85020000D02*
X149980000Y-86350000D01*
X149980000Y-135940000D02*
X149980000Y-87620000D01*
X147320000Y-87620000D02*
X149980000Y-87620000D01*
X147320000Y-135940000D02*
X149980000Y-135940000D01*
X147320000Y-135940000D02*
X147320000Y-87620000D01*
%TO.C,JP4*%
X152125000Y-103752000D02*
X151525000Y-103752000D01*
X152825000Y-101652000D02*
X152825000Y-103052000D01*
X150825000Y-103052000D02*
X150825000Y-101652000D01*
X151525000Y-100952000D02*
X152125000Y-100952000D01*
X152825000Y-103052000D02*
G75*
G02*
X152125000Y-103752000I-699999J-1D01*
G01*
X151525000Y-103752000D02*
G75*
G02*
X150825000Y-103052000I-1J699999D01*
G01*
X152125000Y-100952000D02*
G75*
G02*
X152825000Y-101652000I0J-700000D01*
G01*
X150825000Y-101652000D02*
G75*
G02*
X151525000Y-100952000I700000J0D01*
G01*
%TO.C,JP3*%
X158921000Y-103702000D02*
G75*
G02*
X158221000Y-104402000I-700000J0D01*
G01*
X157621000Y-104402000D02*
G75*
G02*
X156921000Y-103702000I0J700000D01*
G01*
X158221000Y-100302000D02*
G75*
G02*
X158921000Y-101002000I1J-699999D01*
G01*
X156921000Y-101002000D02*
G75*
G02*
X157621000Y-100302000I699999J1D01*
G01*
X158221000Y-104402000D02*
X157621000Y-104402000D01*
X158921000Y-100952000D02*
X158921000Y-103752000D01*
X156921000Y-103752000D02*
X156921000Y-100952000D01*
X157621000Y-100302000D02*
X158221000Y-100302000D01*
%TO.C,JP2*%
X154000000Y-101002000D02*
G75*
G02*
X154700000Y-100302000I700000J0D01*
G01*
X155300000Y-100302000D02*
G75*
G02*
X156000000Y-101002000I0J-700000D01*
G01*
X154700000Y-104402000D02*
G75*
G02*
X154000000Y-103702000I-1J699999D01*
G01*
X156000000Y-103702000D02*
G75*
G02*
X155300000Y-104402000I-699999J-1D01*
G01*
X154700000Y-100302000D02*
X155300000Y-100302000D01*
X154000000Y-103752000D02*
X154000000Y-100952000D01*
X156000000Y-100952000D02*
X156000000Y-103752000D01*
X155300000Y-104402000D02*
X154700000Y-104402000D01*
%TD*%
%LPC*%
D16*
%TO.C,J4*%
X153725000Y-124450000D03*
D17*
X156265000Y-124450000D03*
X153725000Y-126990000D03*
X156265000Y-126990000D03*
X153725000Y-129530000D03*
X156265000Y-129530000D03*
X153725000Y-132070000D03*
X156265000Y-132070000D03*
%TD*%
D16*
%TO.C,J3*%
X161350000Y-86350000D03*
D17*
X161350000Y-88890000D03*
X161350000Y-91430000D03*
X161350000Y-93970000D03*
X161350000Y-96510000D03*
X161350000Y-99050000D03*
X161350000Y-101590000D03*
X161350000Y-104130000D03*
X161350000Y-106670000D03*
X161350000Y-109210000D03*
X161350000Y-111750000D03*
X161350000Y-114290000D03*
X161350000Y-116830000D03*
X161350000Y-119370000D03*
X161350000Y-121910000D03*
X161350000Y-124450000D03*
X161350000Y-126990000D03*
X161350000Y-129530000D03*
X161350000Y-132070000D03*
X161350000Y-134610000D03*
%TD*%
D16*
%TO.C,J2*%
X148650000Y-86350000D03*
D17*
X148650000Y-88890000D03*
X148650000Y-91430000D03*
X148650000Y-93970000D03*
X148650000Y-96510000D03*
X148650000Y-99050000D03*
X148650000Y-101590000D03*
X148650000Y-104130000D03*
X148650000Y-106670000D03*
X148650000Y-109210000D03*
X148650000Y-111750000D03*
X148650000Y-114290000D03*
X148650000Y-116830000D03*
X148650000Y-119370000D03*
X148650000Y-121910000D03*
X148650000Y-124450000D03*
X148650000Y-126990000D03*
X148650000Y-129530000D03*
X148650000Y-132070000D03*
X148650000Y-134610000D03*
%TD*%
D18*
%TO.C,JP4*%
X151825000Y-103002000D03*
D19*
X151825000Y-101702000D03*
%TD*%
D20*
%TO.C,JP3*%
X157921000Y-103652000D03*
D21*
X157921000Y-102352000D03*
D22*
X157921000Y-101052000D03*
%TD*%
D23*
%TO.C,JP2*%
X155000000Y-101052000D03*
D21*
X155000000Y-102352000D03*
D24*
X155000000Y-103652000D03*
%TD*%
D16*
%TO.C,JP1*%
X156270000Y-93985000D03*
D17*
X156270000Y-96525000D03*
X156270000Y-99065000D03*
%TD*%
G36*
X158162113Y-133352887D02*
G01*
X158175000Y-133384000D01*
X158175000Y-135836000D01*
X158162113Y-135867113D01*
X158131000Y-135880000D01*
X151869000Y-135880000D01*
X151837887Y-135867113D01*
X151825000Y-135836000D01*
X151825000Y-133384000D01*
X151837887Y-133352887D01*
X151869000Y-133340000D01*
X158131000Y-133340000D01*
X158162113Y-133352887D01*
G37*
%LPD*%
M02*
