%TF.GenerationSoftware,KiCad,Pcbnew,8.0.0*%
%TF.CreationDate,2024-03-15T22:26:02+11:00*%
%TF.ProjectId,PCAL6534EV-breakout,5043414c-3635-4333-9445-562d62726561,rev?*%
%TF.SameCoordinates,Original*%
%TF.FileFunction,Drillmap*%
%TF.FilePolarity,Positive*%
%FSLAX45Y45*%
G04 Gerber Fmt 4.5, Leading zero omitted, Abs format (unit mm)*
G04 Created by KiCad (PCBNEW 8.0.0) date 2024-03-15 22:26:02*
%MOMM*%
%LPD*%
G01*
G04 APERTURE LIST*
%ADD10C,0.050000*%
%ADD11C,0.200000*%
%ADD12C,0.100000*%
G04 APERTURE END LIST*
D10*
X14738000Y-8508000D02*
X16262000Y-8508000D01*
X16262000Y-13588000D01*
X14738000Y-13588000D01*
X14738000Y-8508000D01*
D11*
D12*
X15450000Y-11815880D02*
X15550000Y-11915880D01*
X15550000Y-11815880D02*
X15450000Y-11915880D01*
D11*
X14996277Y-13901984D02*
X14996277Y-13701984D01*
X14996277Y-13701984D02*
X15043896Y-13701984D01*
X15043896Y-13701984D02*
X15072467Y-13711508D01*
X15072467Y-13711508D02*
X15091515Y-13730555D01*
X15091515Y-13730555D02*
X15101039Y-13749603D01*
X15101039Y-13749603D02*
X15110562Y-13787698D01*
X15110562Y-13787698D02*
X15110562Y-13816269D01*
X15110562Y-13816269D02*
X15101039Y-13854365D01*
X15101039Y-13854365D02*
X15091515Y-13873412D01*
X15091515Y-13873412D02*
X15072467Y-13892460D01*
X15072467Y-13892460D02*
X15043896Y-13901984D01*
X15043896Y-13901984D02*
X14996277Y-13901984D01*
X15196277Y-13901984D02*
X15196277Y-13768650D01*
X15196277Y-13806746D02*
X15205801Y-13787698D01*
X15205801Y-13787698D02*
X15215324Y-13778174D01*
X15215324Y-13778174D02*
X15234372Y-13768650D01*
X15234372Y-13768650D02*
X15253420Y-13768650D01*
X15320086Y-13901984D02*
X15320086Y-13768650D01*
X15320086Y-13701984D02*
X15310562Y-13711508D01*
X15310562Y-13711508D02*
X15320086Y-13721031D01*
X15320086Y-13721031D02*
X15329610Y-13711508D01*
X15329610Y-13711508D02*
X15320086Y-13701984D01*
X15320086Y-13701984D02*
X15320086Y-13721031D01*
X15443896Y-13901984D02*
X15424848Y-13892460D01*
X15424848Y-13892460D02*
X15415324Y-13873412D01*
X15415324Y-13873412D02*
X15415324Y-13701984D01*
X15548658Y-13901984D02*
X15529610Y-13892460D01*
X15529610Y-13892460D02*
X15520086Y-13873412D01*
X15520086Y-13873412D02*
X15520086Y-13701984D01*
X15777229Y-13901984D02*
X15777229Y-13701984D01*
X15777229Y-13701984D02*
X15843896Y-13844841D01*
X15843896Y-13844841D02*
X15910562Y-13701984D01*
X15910562Y-13701984D02*
X15910562Y-13901984D01*
X16091515Y-13901984D02*
X16091515Y-13797222D01*
X16091515Y-13797222D02*
X16081991Y-13778174D01*
X16081991Y-13778174D02*
X16062943Y-13768650D01*
X16062943Y-13768650D02*
X16024848Y-13768650D01*
X16024848Y-13768650D02*
X16005801Y-13778174D01*
X16091515Y-13892460D02*
X16072467Y-13901984D01*
X16072467Y-13901984D02*
X16024848Y-13901984D01*
X16024848Y-13901984D02*
X16005801Y-13892460D01*
X16005801Y-13892460D02*
X15996277Y-13873412D01*
X15996277Y-13873412D02*
X15996277Y-13854365D01*
X15996277Y-13854365D02*
X16005801Y-13835317D01*
X16005801Y-13835317D02*
X16024848Y-13825793D01*
X16024848Y-13825793D02*
X16072467Y-13825793D01*
X16072467Y-13825793D02*
X16091515Y-13816269D01*
X16186753Y-13768650D02*
X16186753Y-13968650D01*
X16186753Y-13778174D02*
X16205801Y-13768650D01*
X16205801Y-13768650D02*
X16243896Y-13768650D01*
X16243896Y-13768650D02*
X16262943Y-13778174D01*
X16262943Y-13778174D02*
X16272467Y-13787698D01*
X16272467Y-13787698D02*
X16281991Y-13806746D01*
X16281991Y-13806746D02*
X16281991Y-13863888D01*
X16281991Y-13863888D02*
X16272467Y-13882936D01*
X16272467Y-13882936D02*
X16262943Y-13892460D01*
X16262943Y-13892460D02*
X16243896Y-13901984D01*
X16243896Y-13901984D02*
X16205801Y-13901984D01*
X16205801Y-13901984D02*
X16186753Y-13892460D01*
X16367705Y-13882936D02*
X16377229Y-13892460D01*
X16377229Y-13892460D02*
X16367705Y-13901984D01*
X16367705Y-13901984D02*
X16358182Y-13892460D01*
X16358182Y-13892460D02*
X16367705Y-13882936D01*
X16367705Y-13882936D02*
X16367705Y-13901984D01*
X16367705Y-13778174D02*
X16377229Y-13787698D01*
X16377229Y-13787698D02*
X16367705Y-13797222D01*
X16367705Y-13797222D02*
X16358182Y-13787698D01*
X16358182Y-13787698D02*
X16367705Y-13778174D01*
X16367705Y-13778174D02*
X16367705Y-13797222D01*
D12*
X14635500Y-14180500D02*
X14735500Y-14280500D01*
X14735500Y-14180500D02*
X14635500Y-14280500D01*
D11*
X15101039Y-14321984D02*
X14986753Y-14321984D01*
X15043896Y-14321984D02*
X15043896Y-14121984D01*
X15043896Y-14121984D02*
X15024848Y-14150555D01*
X15024848Y-14150555D02*
X15005801Y-14169603D01*
X15005801Y-14169603D02*
X14986753Y-14179127D01*
X15186753Y-14302936D02*
X15196277Y-14312460D01*
X15196277Y-14312460D02*
X15186753Y-14321984D01*
X15186753Y-14321984D02*
X15177229Y-14312460D01*
X15177229Y-14312460D02*
X15186753Y-14302936D01*
X15186753Y-14302936D02*
X15186753Y-14321984D01*
X15320086Y-14121984D02*
X15339134Y-14121984D01*
X15339134Y-14121984D02*
X15358182Y-14131508D01*
X15358182Y-14131508D02*
X15367705Y-14141031D01*
X15367705Y-14141031D02*
X15377229Y-14160079D01*
X15377229Y-14160079D02*
X15386753Y-14198174D01*
X15386753Y-14198174D02*
X15386753Y-14245793D01*
X15386753Y-14245793D02*
X15377229Y-14283888D01*
X15377229Y-14283888D02*
X15367705Y-14302936D01*
X15367705Y-14302936D02*
X15358182Y-14312460D01*
X15358182Y-14312460D02*
X15339134Y-14321984D01*
X15339134Y-14321984D02*
X15320086Y-14321984D01*
X15320086Y-14321984D02*
X15301039Y-14312460D01*
X15301039Y-14312460D02*
X15291515Y-14302936D01*
X15291515Y-14302936D02*
X15281991Y-14283888D01*
X15281991Y-14283888D02*
X15272467Y-14245793D01*
X15272467Y-14245793D02*
X15272467Y-14198174D01*
X15272467Y-14198174D02*
X15281991Y-14160079D01*
X15281991Y-14160079D02*
X15291515Y-14141031D01*
X15291515Y-14141031D02*
X15301039Y-14131508D01*
X15301039Y-14131508D02*
X15320086Y-14121984D01*
X15510562Y-14121984D02*
X15529610Y-14121984D01*
X15529610Y-14121984D02*
X15548658Y-14131508D01*
X15548658Y-14131508D02*
X15558182Y-14141031D01*
X15558182Y-14141031D02*
X15567705Y-14160079D01*
X15567705Y-14160079D02*
X15577229Y-14198174D01*
X15577229Y-14198174D02*
X15577229Y-14245793D01*
X15577229Y-14245793D02*
X15567705Y-14283888D01*
X15567705Y-14283888D02*
X15558182Y-14302936D01*
X15558182Y-14302936D02*
X15548658Y-14312460D01*
X15548658Y-14312460D02*
X15529610Y-14321984D01*
X15529610Y-14321984D02*
X15510562Y-14321984D01*
X15510562Y-14321984D02*
X15491515Y-14312460D01*
X15491515Y-14312460D02*
X15481991Y-14302936D01*
X15481991Y-14302936D02*
X15472467Y-14283888D01*
X15472467Y-14283888D02*
X15462943Y-14245793D01*
X15462943Y-14245793D02*
X15462943Y-14198174D01*
X15462943Y-14198174D02*
X15472467Y-14160079D01*
X15472467Y-14160079D02*
X15481991Y-14141031D01*
X15481991Y-14141031D02*
X15491515Y-14131508D01*
X15491515Y-14131508D02*
X15510562Y-14121984D01*
X15701039Y-14121984D02*
X15720086Y-14121984D01*
X15720086Y-14121984D02*
X15739134Y-14131508D01*
X15739134Y-14131508D02*
X15748658Y-14141031D01*
X15748658Y-14141031D02*
X15758182Y-14160079D01*
X15758182Y-14160079D02*
X15767705Y-14198174D01*
X15767705Y-14198174D02*
X15767705Y-14245793D01*
X15767705Y-14245793D02*
X15758182Y-14283888D01*
X15758182Y-14283888D02*
X15748658Y-14302936D01*
X15748658Y-14302936D02*
X15739134Y-14312460D01*
X15739134Y-14312460D02*
X15720086Y-14321984D01*
X15720086Y-14321984D02*
X15701039Y-14321984D01*
X15701039Y-14321984D02*
X15681991Y-14312460D01*
X15681991Y-14312460D02*
X15672467Y-14302936D01*
X15672467Y-14302936D02*
X15662943Y-14283888D01*
X15662943Y-14283888D02*
X15653420Y-14245793D01*
X15653420Y-14245793D02*
X15653420Y-14198174D01*
X15653420Y-14198174D02*
X15662943Y-14160079D01*
X15662943Y-14160079D02*
X15672467Y-14141031D01*
X15672467Y-14141031D02*
X15681991Y-14131508D01*
X15681991Y-14131508D02*
X15701039Y-14121984D01*
X15853420Y-14321984D02*
X15853420Y-14188650D01*
X15853420Y-14207698D02*
X15862943Y-14198174D01*
X15862943Y-14198174D02*
X15881991Y-14188650D01*
X15881991Y-14188650D02*
X15910563Y-14188650D01*
X15910563Y-14188650D02*
X15929610Y-14198174D01*
X15929610Y-14198174D02*
X15939134Y-14217222D01*
X15939134Y-14217222D02*
X15939134Y-14321984D01*
X15939134Y-14217222D02*
X15948658Y-14198174D01*
X15948658Y-14198174D02*
X15967705Y-14188650D01*
X15967705Y-14188650D02*
X15996277Y-14188650D01*
X15996277Y-14188650D02*
X16015324Y-14198174D01*
X16015324Y-14198174D02*
X16024848Y-14217222D01*
X16024848Y-14217222D02*
X16024848Y-14321984D01*
X16120086Y-14321984D02*
X16120086Y-14188650D01*
X16120086Y-14207698D02*
X16129610Y-14198174D01*
X16129610Y-14198174D02*
X16148658Y-14188650D01*
X16148658Y-14188650D02*
X16177229Y-14188650D01*
X16177229Y-14188650D02*
X16196277Y-14198174D01*
X16196277Y-14198174D02*
X16205801Y-14217222D01*
X16205801Y-14217222D02*
X16205801Y-14321984D01*
X16205801Y-14217222D02*
X16215324Y-14198174D01*
X16215324Y-14198174D02*
X16234372Y-14188650D01*
X16234372Y-14188650D02*
X16262943Y-14188650D01*
X16262943Y-14188650D02*
X16281991Y-14198174D01*
X16281991Y-14198174D02*
X16291515Y-14217222D01*
X16291515Y-14217222D02*
X16291515Y-14321984D01*
X16681991Y-14112460D02*
X16510563Y-14369603D01*
X16939134Y-14121984D02*
X16958182Y-14121984D01*
X16958182Y-14121984D02*
X16977229Y-14131508D01*
X16977229Y-14131508D02*
X16986753Y-14141031D01*
X16986753Y-14141031D02*
X16996277Y-14160079D01*
X16996277Y-14160079D02*
X17005801Y-14198174D01*
X17005801Y-14198174D02*
X17005801Y-14245793D01*
X17005801Y-14245793D02*
X16996277Y-14283888D01*
X16996277Y-14283888D02*
X16986753Y-14302936D01*
X16986753Y-14302936D02*
X16977229Y-14312460D01*
X16977229Y-14312460D02*
X16958182Y-14321984D01*
X16958182Y-14321984D02*
X16939134Y-14321984D01*
X16939134Y-14321984D02*
X16920087Y-14312460D01*
X16920087Y-14312460D02*
X16910563Y-14302936D01*
X16910563Y-14302936D02*
X16901039Y-14283888D01*
X16901039Y-14283888D02*
X16891515Y-14245793D01*
X16891515Y-14245793D02*
X16891515Y-14198174D01*
X16891515Y-14198174D02*
X16901039Y-14160079D01*
X16901039Y-14160079D02*
X16910563Y-14141031D01*
X16910563Y-14141031D02*
X16920087Y-14131508D01*
X16920087Y-14131508D02*
X16939134Y-14121984D01*
X17091515Y-14302936D02*
X17101039Y-14312460D01*
X17101039Y-14312460D02*
X17091515Y-14321984D01*
X17091515Y-14321984D02*
X17081991Y-14312460D01*
X17081991Y-14312460D02*
X17091515Y-14302936D01*
X17091515Y-14302936D02*
X17091515Y-14321984D01*
X17224848Y-14121984D02*
X17243896Y-14121984D01*
X17243896Y-14121984D02*
X17262944Y-14131508D01*
X17262944Y-14131508D02*
X17272468Y-14141031D01*
X17272468Y-14141031D02*
X17281991Y-14160079D01*
X17281991Y-14160079D02*
X17291515Y-14198174D01*
X17291515Y-14198174D02*
X17291515Y-14245793D01*
X17291515Y-14245793D02*
X17281991Y-14283888D01*
X17281991Y-14283888D02*
X17272468Y-14302936D01*
X17272468Y-14302936D02*
X17262944Y-14312460D01*
X17262944Y-14312460D02*
X17243896Y-14321984D01*
X17243896Y-14321984D02*
X17224848Y-14321984D01*
X17224848Y-14321984D02*
X17205801Y-14312460D01*
X17205801Y-14312460D02*
X17196277Y-14302936D01*
X17196277Y-14302936D02*
X17186753Y-14283888D01*
X17186753Y-14283888D02*
X17177229Y-14245793D01*
X17177229Y-14245793D02*
X17177229Y-14198174D01*
X17177229Y-14198174D02*
X17186753Y-14160079D01*
X17186753Y-14160079D02*
X17196277Y-14141031D01*
X17196277Y-14141031D02*
X17205801Y-14131508D01*
X17205801Y-14131508D02*
X17224848Y-14121984D01*
X17358182Y-14121984D02*
X17481991Y-14121984D01*
X17481991Y-14121984D02*
X17415325Y-14198174D01*
X17415325Y-14198174D02*
X17443896Y-14198174D01*
X17443896Y-14198174D02*
X17462944Y-14207698D01*
X17462944Y-14207698D02*
X17472468Y-14217222D01*
X17472468Y-14217222D02*
X17481991Y-14236269D01*
X17481991Y-14236269D02*
X17481991Y-14283888D01*
X17481991Y-14283888D02*
X17472468Y-14302936D01*
X17472468Y-14302936D02*
X17462944Y-14312460D01*
X17462944Y-14312460D02*
X17443896Y-14321984D01*
X17443896Y-14321984D02*
X17386753Y-14321984D01*
X17386753Y-14321984D02*
X17367706Y-14312460D01*
X17367706Y-14312460D02*
X17358182Y-14302936D01*
X17577229Y-14321984D02*
X17615325Y-14321984D01*
X17615325Y-14321984D02*
X17634372Y-14312460D01*
X17634372Y-14312460D02*
X17643896Y-14302936D01*
X17643896Y-14302936D02*
X17662944Y-14274365D01*
X17662944Y-14274365D02*
X17672468Y-14236269D01*
X17672468Y-14236269D02*
X17672468Y-14160079D01*
X17672468Y-14160079D02*
X17662944Y-14141031D01*
X17662944Y-14141031D02*
X17653420Y-14131508D01*
X17653420Y-14131508D02*
X17634372Y-14121984D01*
X17634372Y-14121984D02*
X17596277Y-14121984D01*
X17596277Y-14121984D02*
X17577229Y-14131508D01*
X17577229Y-14131508D02*
X17567706Y-14141031D01*
X17567706Y-14141031D02*
X17558182Y-14160079D01*
X17558182Y-14160079D02*
X17558182Y-14207698D01*
X17558182Y-14207698D02*
X17567706Y-14226746D01*
X17567706Y-14226746D02*
X17577229Y-14236269D01*
X17577229Y-14236269D02*
X17596277Y-14245793D01*
X17596277Y-14245793D02*
X17634372Y-14245793D01*
X17634372Y-14245793D02*
X17653420Y-14236269D01*
X17653420Y-14236269D02*
X17662944Y-14226746D01*
X17662944Y-14226746D02*
X17672468Y-14207698D01*
X17843896Y-14188650D02*
X17843896Y-14321984D01*
X17796277Y-14112460D02*
X17748658Y-14255317D01*
X17748658Y-14255317D02*
X17872468Y-14255317D01*
X17939134Y-14121984D02*
X17939134Y-14160079D01*
X18015325Y-14121984D02*
X18015325Y-14160079D01*
X18310563Y-14398174D02*
X18301039Y-14388650D01*
X18301039Y-14388650D02*
X18281991Y-14360079D01*
X18281991Y-14360079D02*
X18272468Y-14341031D01*
X18272468Y-14341031D02*
X18262944Y-14312460D01*
X18262944Y-14312460D02*
X18253420Y-14264841D01*
X18253420Y-14264841D02*
X18253420Y-14226746D01*
X18253420Y-14226746D02*
X18262944Y-14179127D01*
X18262944Y-14179127D02*
X18272468Y-14150555D01*
X18272468Y-14150555D02*
X18281991Y-14131508D01*
X18281991Y-14131508D02*
X18301039Y-14102936D01*
X18301039Y-14102936D02*
X18310563Y-14093412D01*
X18491515Y-14321984D02*
X18377230Y-14321984D01*
X18434372Y-14321984D02*
X18434372Y-14121984D01*
X18434372Y-14121984D02*
X18415325Y-14150555D01*
X18415325Y-14150555D02*
X18396277Y-14169603D01*
X18396277Y-14169603D02*
X18377230Y-14179127D01*
X18729611Y-14321984D02*
X18729611Y-14121984D01*
X18815325Y-14321984D02*
X18815325Y-14217222D01*
X18815325Y-14217222D02*
X18805801Y-14198174D01*
X18805801Y-14198174D02*
X18786753Y-14188650D01*
X18786753Y-14188650D02*
X18758182Y-14188650D01*
X18758182Y-14188650D02*
X18739134Y-14198174D01*
X18739134Y-14198174D02*
X18729611Y-14207698D01*
X18939134Y-14321984D02*
X18920087Y-14312460D01*
X18920087Y-14312460D02*
X18910563Y-14302936D01*
X18910563Y-14302936D02*
X18901039Y-14283888D01*
X18901039Y-14283888D02*
X18901039Y-14226746D01*
X18901039Y-14226746D02*
X18910563Y-14207698D01*
X18910563Y-14207698D02*
X18920087Y-14198174D01*
X18920087Y-14198174D02*
X18939134Y-14188650D01*
X18939134Y-14188650D02*
X18967706Y-14188650D01*
X18967706Y-14188650D02*
X18986753Y-14198174D01*
X18986753Y-14198174D02*
X18996277Y-14207698D01*
X18996277Y-14207698D02*
X19005801Y-14226746D01*
X19005801Y-14226746D02*
X19005801Y-14283888D01*
X19005801Y-14283888D02*
X18996277Y-14302936D01*
X18996277Y-14302936D02*
X18986753Y-14312460D01*
X18986753Y-14312460D02*
X18967706Y-14321984D01*
X18967706Y-14321984D02*
X18939134Y-14321984D01*
X19120087Y-14321984D02*
X19101039Y-14312460D01*
X19101039Y-14312460D02*
X19091515Y-14293412D01*
X19091515Y-14293412D02*
X19091515Y-14121984D01*
X19272468Y-14312460D02*
X19253420Y-14321984D01*
X19253420Y-14321984D02*
X19215325Y-14321984D01*
X19215325Y-14321984D02*
X19196277Y-14312460D01*
X19196277Y-14312460D02*
X19186753Y-14293412D01*
X19186753Y-14293412D02*
X19186753Y-14217222D01*
X19186753Y-14217222D02*
X19196277Y-14198174D01*
X19196277Y-14198174D02*
X19215325Y-14188650D01*
X19215325Y-14188650D02*
X19253420Y-14188650D01*
X19253420Y-14188650D02*
X19272468Y-14198174D01*
X19272468Y-14198174D02*
X19281992Y-14217222D01*
X19281992Y-14217222D02*
X19281992Y-14236269D01*
X19281992Y-14236269D02*
X19186753Y-14255317D01*
X19348658Y-14398174D02*
X19358182Y-14388650D01*
X19358182Y-14388650D02*
X19377230Y-14360079D01*
X19377230Y-14360079D02*
X19386753Y-14341031D01*
X19386753Y-14341031D02*
X19396277Y-14312460D01*
X19396277Y-14312460D02*
X19405801Y-14264841D01*
X19405801Y-14264841D02*
X19405801Y-14226746D01*
X19405801Y-14226746D02*
X19396277Y-14179127D01*
X19396277Y-14179127D02*
X19386753Y-14150555D01*
X19386753Y-14150555D02*
X19377230Y-14131508D01*
X19377230Y-14131508D02*
X19358182Y-14102936D01*
X19358182Y-14102936D02*
X19348658Y-14093412D01*
X19710563Y-14398174D02*
X19701039Y-14388650D01*
X19701039Y-14388650D02*
X19681992Y-14360079D01*
X19681992Y-14360079D02*
X19672468Y-14341031D01*
X19672468Y-14341031D02*
X19662944Y-14312460D01*
X19662944Y-14312460D02*
X19653420Y-14264841D01*
X19653420Y-14264841D02*
X19653420Y-14226746D01*
X19653420Y-14226746D02*
X19662944Y-14179127D01*
X19662944Y-14179127D02*
X19672468Y-14150555D01*
X19672468Y-14150555D02*
X19681992Y-14131508D01*
X19681992Y-14131508D02*
X19701039Y-14102936D01*
X19701039Y-14102936D02*
X19710563Y-14093412D01*
X19786753Y-14188650D02*
X19786753Y-14321984D01*
X19786753Y-14207698D02*
X19796277Y-14198174D01*
X19796277Y-14198174D02*
X19815325Y-14188650D01*
X19815325Y-14188650D02*
X19843896Y-14188650D01*
X19843896Y-14188650D02*
X19862944Y-14198174D01*
X19862944Y-14198174D02*
X19872468Y-14217222D01*
X19872468Y-14217222D02*
X19872468Y-14321984D01*
X19996277Y-14321984D02*
X19977230Y-14312460D01*
X19977230Y-14312460D02*
X19967706Y-14302936D01*
X19967706Y-14302936D02*
X19958182Y-14283888D01*
X19958182Y-14283888D02*
X19958182Y-14226746D01*
X19958182Y-14226746D02*
X19967706Y-14207698D01*
X19967706Y-14207698D02*
X19977230Y-14198174D01*
X19977230Y-14198174D02*
X19996277Y-14188650D01*
X19996277Y-14188650D02*
X20024849Y-14188650D01*
X20024849Y-14188650D02*
X20043896Y-14198174D01*
X20043896Y-14198174D02*
X20053420Y-14207698D01*
X20053420Y-14207698D02*
X20062944Y-14226746D01*
X20062944Y-14226746D02*
X20062944Y-14283888D01*
X20062944Y-14283888D02*
X20053420Y-14302936D01*
X20053420Y-14302936D02*
X20043896Y-14312460D01*
X20043896Y-14312460D02*
X20024849Y-14321984D01*
X20024849Y-14321984D02*
X19996277Y-14321984D01*
X20120087Y-14188650D02*
X20196277Y-14188650D01*
X20148658Y-14121984D02*
X20148658Y-14293412D01*
X20148658Y-14293412D02*
X20158182Y-14312460D01*
X20158182Y-14312460D02*
X20177230Y-14321984D01*
X20177230Y-14321984D02*
X20196277Y-14321984D01*
X20415325Y-14188650D02*
X20415325Y-14388650D01*
X20415325Y-14198174D02*
X20434373Y-14188650D01*
X20434373Y-14188650D02*
X20472468Y-14188650D01*
X20472468Y-14188650D02*
X20491515Y-14198174D01*
X20491515Y-14198174D02*
X20501039Y-14207698D01*
X20501039Y-14207698D02*
X20510563Y-14226746D01*
X20510563Y-14226746D02*
X20510563Y-14283888D01*
X20510563Y-14283888D02*
X20501039Y-14302936D01*
X20501039Y-14302936D02*
X20491515Y-14312460D01*
X20491515Y-14312460D02*
X20472468Y-14321984D01*
X20472468Y-14321984D02*
X20434373Y-14321984D01*
X20434373Y-14321984D02*
X20415325Y-14312460D01*
X20624849Y-14321984D02*
X20605801Y-14312460D01*
X20605801Y-14312460D02*
X20596277Y-14293412D01*
X20596277Y-14293412D02*
X20596277Y-14121984D01*
X20786754Y-14321984D02*
X20786754Y-14217222D01*
X20786754Y-14217222D02*
X20777230Y-14198174D01*
X20777230Y-14198174D02*
X20758182Y-14188650D01*
X20758182Y-14188650D02*
X20720087Y-14188650D01*
X20720087Y-14188650D02*
X20701039Y-14198174D01*
X20786754Y-14312460D02*
X20767706Y-14321984D01*
X20767706Y-14321984D02*
X20720087Y-14321984D01*
X20720087Y-14321984D02*
X20701039Y-14312460D01*
X20701039Y-14312460D02*
X20691515Y-14293412D01*
X20691515Y-14293412D02*
X20691515Y-14274365D01*
X20691515Y-14274365D02*
X20701039Y-14255317D01*
X20701039Y-14255317D02*
X20720087Y-14245793D01*
X20720087Y-14245793D02*
X20767706Y-14245793D01*
X20767706Y-14245793D02*
X20786754Y-14236269D01*
X20853420Y-14188650D02*
X20929611Y-14188650D01*
X20881992Y-14121984D02*
X20881992Y-14293412D01*
X20881992Y-14293412D02*
X20891515Y-14312460D01*
X20891515Y-14312460D02*
X20910563Y-14321984D01*
X20910563Y-14321984D02*
X20929611Y-14321984D01*
X21072468Y-14312460D02*
X21053420Y-14321984D01*
X21053420Y-14321984D02*
X21015325Y-14321984D01*
X21015325Y-14321984D02*
X20996277Y-14312460D01*
X20996277Y-14312460D02*
X20986754Y-14293412D01*
X20986754Y-14293412D02*
X20986754Y-14217222D01*
X20986754Y-14217222D02*
X20996277Y-14198174D01*
X20996277Y-14198174D02*
X21015325Y-14188650D01*
X21015325Y-14188650D02*
X21053420Y-14188650D01*
X21053420Y-14188650D02*
X21072468Y-14198174D01*
X21072468Y-14198174D02*
X21081992Y-14217222D01*
X21081992Y-14217222D02*
X21081992Y-14236269D01*
X21081992Y-14236269D02*
X20986754Y-14255317D01*
X21253420Y-14321984D02*
X21253420Y-14121984D01*
X21253420Y-14312460D02*
X21234373Y-14321984D01*
X21234373Y-14321984D02*
X21196277Y-14321984D01*
X21196277Y-14321984D02*
X21177230Y-14312460D01*
X21177230Y-14312460D02*
X21167706Y-14302936D01*
X21167706Y-14302936D02*
X21158182Y-14283888D01*
X21158182Y-14283888D02*
X21158182Y-14226746D01*
X21158182Y-14226746D02*
X21167706Y-14207698D01*
X21167706Y-14207698D02*
X21177230Y-14198174D01*
X21177230Y-14198174D02*
X21196277Y-14188650D01*
X21196277Y-14188650D02*
X21234373Y-14188650D01*
X21234373Y-14188650D02*
X21253420Y-14198174D01*
X21329611Y-14398174D02*
X21339135Y-14388650D01*
X21339135Y-14388650D02*
X21358182Y-14360079D01*
X21358182Y-14360079D02*
X21367706Y-14341031D01*
X21367706Y-14341031D02*
X21377230Y-14312460D01*
X21377230Y-14312460D02*
X21386754Y-14264841D01*
X21386754Y-14264841D02*
X21386754Y-14226746D01*
X21386754Y-14226746D02*
X21377230Y-14179127D01*
X21377230Y-14179127D02*
X21367706Y-14150555D01*
X21367706Y-14150555D02*
X21358182Y-14131508D01*
X21358182Y-14131508D02*
X21339135Y-14102936D01*
X21339135Y-14102936D02*
X21329611Y-14093412D01*
M02*
