%TF.GenerationSoftware,KiCad,Pcbnew,8.0.0*%
%TF.CreationDate,2024-03-15T10:52:10+11:00*%
%TF.ProjectId,PCAL6534EV-breakout,5043414c-3635-4333-9445-562d62726561,rev?*%
%TF.SameCoordinates,Original*%
%TF.FileFunction,Legend,Top*%
%TF.FilePolarity,Positive*%
%FSLAX46Y46*%
G04 Gerber Fmt 4.6, Leading zero omitted, Abs format (unit mm)*
G04 Created by KiCad (PCBNEW 8.0.0) date 2024-03-15 10:52:10*
%MOMM*%
%LPD*%
G01*
G04 APERTURE LIST*
G04 Aperture macros list*
%AMRoundRect*
0 Rectangle with rounded corners*
0 $1 Rounding radius*
0 $2 $3 $4 $5 $6 $7 $8 $9 X,Y pos of 4 corners*
0 Add a 4 corners polygon primitive as box body*
4,1,4,$2,$3,$4,$5,$6,$7,$8,$9,$2,$3,0*
0 Add four circle primitives for the rounded corners*
1,1,$1+$1,$2,$3*
1,1,$1+$1,$4,$5*
1,1,$1+$1,$6,$7*
1,1,$1+$1,$8,$9*
0 Add four rect primitives between the rounded corners*
20,1,$1+$1,$2,$3,$4,$5,0*
20,1,$1+$1,$4,$5,$6,$7,0*
20,1,$1+$1,$6,$7,$8,$9,0*
20,1,$1+$1,$8,$9,$2,$3,0*%
G04 Aperture macros list end*
%ADD10C,0.200000*%
%ADD11C,0.100000*%
%ADD12C,0.150000*%
%ADD13C,0.080000*%
%ADD14C,0.010000*%
%ADD15C,0.120000*%
%ADD16R,1.700000X1.700000*%
%ADD17O,1.700000X1.700000*%
%ADD18O,0.320000X0.260000*%
%ADD19O,0.260000X0.320000*%
%ADD20C,0.320000*%
%ADD21RoundRect,0.135000X-0.135000X-0.185000X0.135000X-0.185000X0.135000X0.185000X-0.135000X0.185000X0*%
%ADD22RoundRect,0.135000X0.185000X-0.135000X0.185000X0.135000X-0.185000X0.135000X-0.185000X-0.135000X0*%
%ADD23RoundRect,0.140000X0.170000X-0.140000X0.170000X0.140000X-0.170000X0.140000X-0.170000X-0.140000X0*%
%ADD24RoundRect,0.150000X0.150000X0.625000X-0.150000X0.625000X-0.150000X-0.625000X0.150000X-0.625000X0*%
%ADD25RoundRect,0.250000X0.350000X0.650000X-0.350000X0.650000X-0.350000X-0.650000X0.350000X-0.650000X0*%
G04 APERTURE END LIST*
D10*
X151895238Y-103219695D02*
X151628571Y-102838742D01*
X151438095Y-103219695D02*
X151438095Y-102419695D01*
X151438095Y-102419695D02*
X151742857Y-102419695D01*
X151742857Y-102419695D02*
X151819047Y-102457790D01*
X151819047Y-102457790D02*
X151857142Y-102495885D01*
X151857142Y-102495885D02*
X151895238Y-102572076D01*
X151895238Y-102572076D02*
X151895238Y-102686361D01*
X151895238Y-102686361D02*
X151857142Y-102762552D01*
X151857142Y-102762552D02*
X151819047Y-102800647D01*
X151819047Y-102800647D02*
X151742857Y-102838742D01*
X151742857Y-102838742D02*
X151438095Y-102838742D01*
X152542857Y-103181600D02*
X152466666Y-103219695D01*
X152466666Y-103219695D02*
X152314285Y-103219695D01*
X152314285Y-103219695D02*
X152238095Y-103181600D01*
X152238095Y-103181600D02*
X152199999Y-103105409D01*
X152199999Y-103105409D02*
X152199999Y-102800647D01*
X152199999Y-102800647D02*
X152238095Y-102724457D01*
X152238095Y-102724457D02*
X152314285Y-102686361D01*
X152314285Y-102686361D02*
X152466666Y-102686361D01*
X152466666Y-102686361D02*
X152542857Y-102724457D01*
X152542857Y-102724457D02*
X152580952Y-102800647D01*
X152580952Y-102800647D02*
X152580952Y-102876838D01*
X152580952Y-102876838D02*
X152199999Y-102953028D01*
X152847618Y-102686361D02*
X153038094Y-103219695D01*
X153038094Y-103219695D02*
X153228571Y-102686361D01*
X153533333Y-103219695D02*
X153533333Y-102686361D01*
X153533333Y-102419695D02*
X153495237Y-102457790D01*
X153495237Y-102457790D02*
X153533333Y-102495885D01*
X153533333Y-102495885D02*
X153571428Y-102457790D01*
X153571428Y-102457790D02*
X153533333Y-102419695D01*
X153533333Y-102419695D02*
X153533333Y-102495885D01*
X153876189Y-103181600D02*
X153952380Y-103219695D01*
X153952380Y-103219695D02*
X154104761Y-103219695D01*
X154104761Y-103219695D02*
X154180951Y-103181600D01*
X154180951Y-103181600D02*
X154219047Y-103105409D01*
X154219047Y-103105409D02*
X154219047Y-103067314D01*
X154219047Y-103067314D02*
X154180951Y-102991123D01*
X154180951Y-102991123D02*
X154104761Y-102953028D01*
X154104761Y-102953028D02*
X153990475Y-102953028D01*
X153990475Y-102953028D02*
X153914285Y-102914933D01*
X153914285Y-102914933D02*
X153876189Y-102838742D01*
X153876189Y-102838742D02*
X153876189Y-102800647D01*
X153876189Y-102800647D02*
X153914285Y-102724457D01*
X153914285Y-102724457D02*
X153990475Y-102686361D01*
X153990475Y-102686361D02*
X154104761Y-102686361D01*
X154104761Y-102686361D02*
X154180951Y-102724457D01*
X154561904Y-103219695D02*
X154561904Y-102686361D01*
X154561904Y-102419695D02*
X154523808Y-102457790D01*
X154523808Y-102457790D02*
X154561904Y-102495885D01*
X154561904Y-102495885D02*
X154599999Y-102457790D01*
X154599999Y-102457790D02*
X154561904Y-102419695D01*
X154561904Y-102419695D02*
X154561904Y-102495885D01*
X155057141Y-103219695D02*
X154980951Y-103181600D01*
X154980951Y-103181600D02*
X154942856Y-103143504D01*
X154942856Y-103143504D02*
X154904760Y-103067314D01*
X154904760Y-103067314D02*
X154904760Y-102838742D01*
X154904760Y-102838742D02*
X154942856Y-102762552D01*
X154942856Y-102762552D02*
X154980951Y-102724457D01*
X154980951Y-102724457D02*
X155057141Y-102686361D01*
X155057141Y-102686361D02*
X155171427Y-102686361D01*
X155171427Y-102686361D02*
X155247618Y-102724457D01*
X155247618Y-102724457D02*
X155285713Y-102762552D01*
X155285713Y-102762552D02*
X155323808Y-102838742D01*
X155323808Y-102838742D02*
X155323808Y-103067314D01*
X155323808Y-103067314D02*
X155285713Y-103143504D01*
X155285713Y-103143504D02*
X155247618Y-103181600D01*
X155247618Y-103181600D02*
X155171427Y-103219695D01*
X155171427Y-103219695D02*
X155057141Y-103219695D01*
X155666666Y-102686361D02*
X155666666Y-103219695D01*
X155666666Y-102762552D02*
X155704761Y-102724457D01*
X155704761Y-102724457D02*
X155780951Y-102686361D01*
X155780951Y-102686361D02*
X155895237Y-102686361D01*
X155895237Y-102686361D02*
X155971428Y-102724457D01*
X155971428Y-102724457D02*
X156009523Y-102800647D01*
X156009523Y-102800647D02*
X156009523Y-103219695D01*
X156390476Y-103143504D02*
X156428571Y-103181600D01*
X156428571Y-103181600D02*
X156390476Y-103219695D01*
X156390476Y-103219695D02*
X156352380Y-103181600D01*
X156352380Y-103181600D02*
X156390476Y-103143504D01*
X156390476Y-103143504D02*
X156390476Y-103219695D01*
X156390476Y-102724457D02*
X156428571Y-102762552D01*
X156428571Y-102762552D02*
X156390476Y-102800647D01*
X156390476Y-102800647D02*
X156352380Y-102762552D01*
X156352380Y-102762552D02*
X156390476Y-102724457D01*
X156390476Y-102724457D02*
X156390476Y-102800647D01*
X157380952Y-103219695D02*
X157380952Y-102419695D01*
X157380952Y-102419695D02*
X157685714Y-102419695D01*
X157685714Y-102419695D02*
X157761904Y-102457790D01*
X157761904Y-102457790D02*
X157799999Y-102495885D01*
X157799999Y-102495885D02*
X157838095Y-102572076D01*
X157838095Y-102572076D02*
X157838095Y-102686361D01*
X157838095Y-102686361D02*
X157799999Y-102762552D01*
X157799999Y-102762552D02*
X157761904Y-102800647D01*
X157761904Y-102800647D02*
X157685714Y-102838742D01*
X157685714Y-102838742D02*
X157380952Y-102838742D01*
X158599999Y-103219695D02*
X158142856Y-103219695D01*
X158371428Y-103219695D02*
X158371428Y-102419695D01*
X158371428Y-102419695D02*
X158295237Y-102533980D01*
X158295237Y-102533980D02*
X158219047Y-102610171D01*
X158219047Y-102610171D02*
X158142856Y-102648266D01*
X151404283Y-114101695D02*
X151404283Y-113301695D01*
X151404283Y-113301695D02*
X151709045Y-113301695D01*
X151709045Y-113301695D02*
X151785235Y-113339790D01*
X151785235Y-113339790D02*
X151823330Y-113377885D01*
X151823330Y-113377885D02*
X151861426Y-113454076D01*
X151861426Y-113454076D02*
X151861426Y-113568361D01*
X151861426Y-113568361D02*
X151823330Y-113644552D01*
X151823330Y-113644552D02*
X151785235Y-113682647D01*
X151785235Y-113682647D02*
X151709045Y-113720742D01*
X151709045Y-113720742D02*
X151404283Y-113720742D01*
X152661426Y-114025504D02*
X152623330Y-114063600D01*
X152623330Y-114063600D02*
X152509045Y-114101695D01*
X152509045Y-114101695D02*
X152432854Y-114101695D01*
X152432854Y-114101695D02*
X152318568Y-114063600D01*
X152318568Y-114063600D02*
X152242378Y-113987409D01*
X152242378Y-113987409D02*
X152204283Y-113911219D01*
X152204283Y-113911219D02*
X152166187Y-113758838D01*
X152166187Y-113758838D02*
X152166187Y-113644552D01*
X152166187Y-113644552D02*
X152204283Y-113492171D01*
X152204283Y-113492171D02*
X152242378Y-113415980D01*
X152242378Y-113415980D02*
X152318568Y-113339790D01*
X152318568Y-113339790D02*
X152432854Y-113301695D01*
X152432854Y-113301695D02*
X152509045Y-113301695D01*
X152509045Y-113301695D02*
X152623330Y-113339790D01*
X152623330Y-113339790D02*
X152661426Y-113377885D01*
X152966187Y-113873123D02*
X153347140Y-113873123D01*
X152889997Y-114101695D02*
X153156664Y-113301695D01*
X153156664Y-113301695D02*
X153423330Y-114101695D01*
X154070949Y-114101695D02*
X153689997Y-114101695D01*
X153689997Y-114101695D02*
X153689997Y-113301695D01*
X154680473Y-113301695D02*
X154528092Y-113301695D01*
X154528092Y-113301695D02*
X154451901Y-113339790D01*
X154451901Y-113339790D02*
X154413806Y-113377885D01*
X154413806Y-113377885D02*
X154337616Y-113492171D01*
X154337616Y-113492171D02*
X154299520Y-113644552D01*
X154299520Y-113644552D02*
X154299520Y-113949314D01*
X154299520Y-113949314D02*
X154337616Y-114025504D01*
X154337616Y-114025504D02*
X154375711Y-114063600D01*
X154375711Y-114063600D02*
X154451901Y-114101695D01*
X154451901Y-114101695D02*
X154604282Y-114101695D01*
X154604282Y-114101695D02*
X154680473Y-114063600D01*
X154680473Y-114063600D02*
X154718568Y-114025504D01*
X154718568Y-114025504D02*
X154756663Y-113949314D01*
X154756663Y-113949314D02*
X154756663Y-113758838D01*
X154756663Y-113758838D02*
X154718568Y-113682647D01*
X154718568Y-113682647D02*
X154680473Y-113644552D01*
X154680473Y-113644552D02*
X154604282Y-113606457D01*
X154604282Y-113606457D02*
X154451901Y-113606457D01*
X154451901Y-113606457D02*
X154375711Y-113644552D01*
X154375711Y-113644552D02*
X154337616Y-113682647D01*
X154337616Y-113682647D02*
X154299520Y-113758838D01*
X155480473Y-113301695D02*
X155099521Y-113301695D01*
X155099521Y-113301695D02*
X155061425Y-113682647D01*
X155061425Y-113682647D02*
X155099521Y-113644552D01*
X155099521Y-113644552D02*
X155175711Y-113606457D01*
X155175711Y-113606457D02*
X155366187Y-113606457D01*
X155366187Y-113606457D02*
X155442378Y-113644552D01*
X155442378Y-113644552D02*
X155480473Y-113682647D01*
X155480473Y-113682647D02*
X155518568Y-113758838D01*
X155518568Y-113758838D02*
X155518568Y-113949314D01*
X155518568Y-113949314D02*
X155480473Y-114025504D01*
X155480473Y-114025504D02*
X155442378Y-114063600D01*
X155442378Y-114063600D02*
X155366187Y-114101695D01*
X155366187Y-114101695D02*
X155175711Y-114101695D01*
X155175711Y-114101695D02*
X155099521Y-114063600D01*
X155099521Y-114063600D02*
X155061425Y-114025504D01*
X155785235Y-113301695D02*
X156280473Y-113301695D01*
X156280473Y-113301695D02*
X156013807Y-113606457D01*
X156013807Y-113606457D02*
X156128092Y-113606457D01*
X156128092Y-113606457D02*
X156204283Y-113644552D01*
X156204283Y-113644552D02*
X156242378Y-113682647D01*
X156242378Y-113682647D02*
X156280473Y-113758838D01*
X156280473Y-113758838D02*
X156280473Y-113949314D01*
X156280473Y-113949314D02*
X156242378Y-114025504D01*
X156242378Y-114025504D02*
X156204283Y-114063600D01*
X156204283Y-114063600D02*
X156128092Y-114101695D01*
X156128092Y-114101695D02*
X155899521Y-114101695D01*
X155899521Y-114101695D02*
X155823330Y-114063600D01*
X155823330Y-114063600D02*
X155785235Y-114025504D01*
X156966188Y-113568361D02*
X156966188Y-114101695D01*
X156775712Y-113263600D02*
X156585235Y-113835028D01*
X156585235Y-113835028D02*
X157080474Y-113835028D01*
X157385236Y-113682647D02*
X157651902Y-113682647D01*
X157766188Y-114101695D02*
X157385236Y-114101695D01*
X157385236Y-114101695D02*
X157385236Y-113301695D01*
X157385236Y-113301695D02*
X157766188Y-113301695D01*
X157994760Y-113301695D02*
X158261427Y-114101695D01*
X158261427Y-114101695D02*
X158528093Y-113301695D01*
X152318568Y-114970602D02*
X152432854Y-115008697D01*
X152432854Y-115008697D02*
X152470949Y-115046793D01*
X152470949Y-115046793D02*
X152509045Y-115122983D01*
X152509045Y-115122983D02*
X152509045Y-115237269D01*
X152509045Y-115237269D02*
X152470949Y-115313459D01*
X152470949Y-115313459D02*
X152432854Y-115351555D01*
X152432854Y-115351555D02*
X152356664Y-115389650D01*
X152356664Y-115389650D02*
X152051902Y-115389650D01*
X152051902Y-115389650D02*
X152051902Y-114589650D01*
X152051902Y-114589650D02*
X152318568Y-114589650D01*
X152318568Y-114589650D02*
X152394759Y-114627745D01*
X152394759Y-114627745D02*
X152432854Y-114665840D01*
X152432854Y-114665840D02*
X152470949Y-114742031D01*
X152470949Y-114742031D02*
X152470949Y-114818221D01*
X152470949Y-114818221D02*
X152432854Y-114894412D01*
X152432854Y-114894412D02*
X152394759Y-114932507D01*
X152394759Y-114932507D02*
X152318568Y-114970602D01*
X152318568Y-114970602D02*
X152051902Y-114970602D01*
X153309045Y-115389650D02*
X153042378Y-115008697D01*
X152851902Y-115389650D02*
X152851902Y-114589650D01*
X152851902Y-114589650D02*
X153156664Y-114589650D01*
X153156664Y-114589650D02*
X153232854Y-114627745D01*
X153232854Y-114627745D02*
X153270949Y-114665840D01*
X153270949Y-114665840D02*
X153309045Y-114742031D01*
X153309045Y-114742031D02*
X153309045Y-114856316D01*
X153309045Y-114856316D02*
X153270949Y-114932507D01*
X153270949Y-114932507D02*
X153232854Y-114970602D01*
X153232854Y-114970602D02*
X153156664Y-115008697D01*
X153156664Y-115008697D02*
X152851902Y-115008697D01*
X153651902Y-114970602D02*
X153918568Y-114970602D01*
X154032854Y-115389650D02*
X153651902Y-115389650D01*
X153651902Y-115389650D02*
X153651902Y-114589650D01*
X153651902Y-114589650D02*
X154032854Y-114589650D01*
X154337616Y-115161078D02*
X154718569Y-115161078D01*
X154261426Y-115389650D02*
X154528093Y-114589650D01*
X154528093Y-114589650D02*
X154794759Y-115389650D01*
X155061426Y-115389650D02*
X155061426Y-114589650D01*
X155518569Y-115389650D02*
X155175711Y-114932507D01*
X155518569Y-114589650D02*
X155061426Y-115046793D01*
X156013807Y-114589650D02*
X156166188Y-114589650D01*
X156166188Y-114589650D02*
X156242378Y-114627745D01*
X156242378Y-114627745D02*
X156318569Y-114703935D01*
X156318569Y-114703935D02*
X156356664Y-114856316D01*
X156356664Y-114856316D02*
X156356664Y-115122983D01*
X156356664Y-115122983D02*
X156318569Y-115275364D01*
X156318569Y-115275364D02*
X156242378Y-115351555D01*
X156242378Y-115351555D02*
X156166188Y-115389650D01*
X156166188Y-115389650D02*
X156013807Y-115389650D01*
X156013807Y-115389650D02*
X155937616Y-115351555D01*
X155937616Y-115351555D02*
X155861426Y-115275364D01*
X155861426Y-115275364D02*
X155823330Y-115122983D01*
X155823330Y-115122983D02*
X155823330Y-114856316D01*
X155823330Y-114856316D02*
X155861426Y-114703935D01*
X155861426Y-114703935D02*
X155937616Y-114627745D01*
X155937616Y-114627745D02*
X156013807Y-114589650D01*
X156699521Y-114589650D02*
X156699521Y-115237269D01*
X156699521Y-115237269D02*
X156737616Y-115313459D01*
X156737616Y-115313459D02*
X156775711Y-115351555D01*
X156775711Y-115351555D02*
X156851902Y-115389650D01*
X156851902Y-115389650D02*
X157004283Y-115389650D01*
X157004283Y-115389650D02*
X157080473Y-115351555D01*
X157080473Y-115351555D02*
X157118568Y-115313459D01*
X157118568Y-115313459D02*
X157156664Y-115237269D01*
X157156664Y-115237269D02*
X157156664Y-114589650D01*
X157423330Y-114589650D02*
X157880473Y-114589650D01*
X157651901Y-115389650D02*
X157651901Y-114589650D01*
D11*
X159064000Y-123180000D02*
X159064000Y-133340000D01*
D12*
X160075133Y-101223333D02*
X159608466Y-101223333D01*
X160341800Y-101056667D02*
X159841800Y-100890000D01*
X159841800Y-100890000D02*
X159841800Y-101323333D01*
X159675133Y-101590000D02*
X159641800Y-101623334D01*
X159641800Y-101623334D02*
X159608466Y-101590000D01*
X159608466Y-101590000D02*
X159641800Y-101556667D01*
X159641800Y-101556667D02*
X159675133Y-101590000D01*
X159675133Y-101590000D02*
X159608466Y-101590000D01*
X159608466Y-102290000D02*
X159608466Y-101890000D01*
X159608466Y-102090000D02*
X160308466Y-102090000D01*
X160308466Y-102090000D02*
X160208466Y-102023333D01*
X160208466Y-102023333D02*
X160141800Y-101956667D01*
X160141800Y-101956667D02*
X160108466Y-101890000D01*
X160075133Y-103763333D02*
X159608466Y-103763333D01*
X160341800Y-103596667D02*
X159841800Y-103430000D01*
X159841800Y-103430000D02*
X159841800Y-103863333D01*
X159675133Y-104130000D02*
X159641800Y-104163334D01*
X159641800Y-104163334D02*
X159608466Y-104130000D01*
X159608466Y-104130000D02*
X159641800Y-104096667D01*
X159641800Y-104096667D02*
X159675133Y-104130000D01*
X159675133Y-104130000D02*
X159608466Y-104130000D01*
X160308466Y-104596667D02*
X160308466Y-104663333D01*
X160308466Y-104663333D02*
X160275133Y-104730000D01*
X160275133Y-104730000D02*
X160241800Y-104763333D01*
X160241800Y-104763333D02*
X160175133Y-104796667D01*
X160175133Y-104796667D02*
X160041800Y-104830000D01*
X160041800Y-104830000D02*
X159875133Y-104830000D01*
X159875133Y-104830000D02*
X159741800Y-104796667D01*
X159741800Y-104796667D02*
X159675133Y-104763333D01*
X159675133Y-104763333D02*
X159641800Y-104730000D01*
X159641800Y-104730000D02*
X159608466Y-104663333D01*
X159608466Y-104663333D02*
X159608466Y-104596667D01*
X159608466Y-104596667D02*
X159641800Y-104530000D01*
X159641800Y-104530000D02*
X159675133Y-104496667D01*
X159675133Y-104496667D02*
X159741800Y-104463333D01*
X159741800Y-104463333D02*
X159875133Y-104430000D01*
X159875133Y-104430000D02*
X160041800Y-104430000D01*
X160041800Y-104430000D02*
X160175133Y-104463333D01*
X160175133Y-104463333D02*
X160241800Y-104496667D01*
X160241800Y-104496667D02*
X160275133Y-104530000D01*
X160275133Y-104530000D02*
X160308466Y-104596667D01*
X160308466Y-105936667D02*
X160308466Y-106370000D01*
X160308466Y-106370000D02*
X160041800Y-106136667D01*
X160041800Y-106136667D02*
X160041800Y-106236667D01*
X160041800Y-106236667D02*
X160008466Y-106303333D01*
X160008466Y-106303333D02*
X159975133Y-106336667D01*
X159975133Y-106336667D02*
X159908466Y-106370000D01*
X159908466Y-106370000D02*
X159741800Y-106370000D01*
X159741800Y-106370000D02*
X159675133Y-106336667D01*
X159675133Y-106336667D02*
X159641800Y-106303333D01*
X159641800Y-106303333D02*
X159608466Y-106236667D01*
X159608466Y-106236667D02*
X159608466Y-106036667D01*
X159608466Y-106036667D02*
X159641800Y-105970000D01*
X159641800Y-105970000D02*
X159675133Y-105936667D01*
X159675133Y-106670000D02*
X159641800Y-106703334D01*
X159641800Y-106703334D02*
X159608466Y-106670000D01*
X159608466Y-106670000D02*
X159641800Y-106636667D01*
X159641800Y-106636667D02*
X159675133Y-106670000D01*
X159675133Y-106670000D02*
X159608466Y-106670000D01*
X160308466Y-106936667D02*
X160308466Y-107403333D01*
X160308466Y-107403333D02*
X159608466Y-107103333D01*
X160308466Y-108476667D02*
X160308466Y-108910000D01*
X160308466Y-108910000D02*
X160041800Y-108676667D01*
X160041800Y-108676667D02*
X160041800Y-108776667D01*
X160041800Y-108776667D02*
X160008466Y-108843333D01*
X160008466Y-108843333D02*
X159975133Y-108876667D01*
X159975133Y-108876667D02*
X159908466Y-108910000D01*
X159908466Y-108910000D02*
X159741800Y-108910000D01*
X159741800Y-108910000D02*
X159675133Y-108876667D01*
X159675133Y-108876667D02*
X159641800Y-108843333D01*
X159641800Y-108843333D02*
X159608466Y-108776667D01*
X159608466Y-108776667D02*
X159608466Y-108576667D01*
X159608466Y-108576667D02*
X159641800Y-108510000D01*
X159641800Y-108510000D02*
X159675133Y-108476667D01*
X159675133Y-109210000D02*
X159641800Y-109243334D01*
X159641800Y-109243334D02*
X159608466Y-109210000D01*
X159608466Y-109210000D02*
X159641800Y-109176667D01*
X159641800Y-109176667D02*
X159675133Y-109210000D01*
X159675133Y-109210000D02*
X159608466Y-109210000D01*
X160308466Y-109843333D02*
X160308466Y-109710000D01*
X160308466Y-109710000D02*
X160275133Y-109643333D01*
X160275133Y-109643333D02*
X160241800Y-109610000D01*
X160241800Y-109610000D02*
X160141800Y-109543333D01*
X160141800Y-109543333D02*
X160008466Y-109510000D01*
X160008466Y-109510000D02*
X159741800Y-109510000D01*
X159741800Y-109510000D02*
X159675133Y-109543333D01*
X159675133Y-109543333D02*
X159641800Y-109576667D01*
X159641800Y-109576667D02*
X159608466Y-109643333D01*
X159608466Y-109643333D02*
X159608466Y-109776667D01*
X159608466Y-109776667D02*
X159641800Y-109843333D01*
X159641800Y-109843333D02*
X159675133Y-109876667D01*
X159675133Y-109876667D02*
X159741800Y-109910000D01*
X159741800Y-109910000D02*
X159908466Y-109910000D01*
X159908466Y-109910000D02*
X159975133Y-109876667D01*
X159975133Y-109876667D02*
X160008466Y-109843333D01*
X160008466Y-109843333D02*
X160041800Y-109776667D01*
X160041800Y-109776667D02*
X160041800Y-109643333D01*
X160041800Y-109643333D02*
X160008466Y-109576667D01*
X160008466Y-109576667D02*
X159975133Y-109543333D01*
X159975133Y-109543333D02*
X159908466Y-109510000D01*
X160308466Y-111016667D02*
X160308466Y-111450000D01*
X160308466Y-111450000D02*
X160041800Y-111216667D01*
X160041800Y-111216667D02*
X160041800Y-111316667D01*
X160041800Y-111316667D02*
X160008466Y-111383333D01*
X160008466Y-111383333D02*
X159975133Y-111416667D01*
X159975133Y-111416667D02*
X159908466Y-111450000D01*
X159908466Y-111450000D02*
X159741800Y-111450000D01*
X159741800Y-111450000D02*
X159675133Y-111416667D01*
X159675133Y-111416667D02*
X159641800Y-111383333D01*
X159641800Y-111383333D02*
X159608466Y-111316667D01*
X159608466Y-111316667D02*
X159608466Y-111116667D01*
X159608466Y-111116667D02*
X159641800Y-111050000D01*
X159641800Y-111050000D02*
X159675133Y-111016667D01*
X159675133Y-111750000D02*
X159641800Y-111783334D01*
X159641800Y-111783334D02*
X159608466Y-111750000D01*
X159608466Y-111750000D02*
X159641800Y-111716667D01*
X159641800Y-111716667D02*
X159675133Y-111750000D01*
X159675133Y-111750000D02*
X159608466Y-111750000D01*
X160308466Y-112416667D02*
X160308466Y-112083333D01*
X160308466Y-112083333D02*
X159975133Y-112050000D01*
X159975133Y-112050000D02*
X160008466Y-112083333D01*
X160008466Y-112083333D02*
X160041800Y-112150000D01*
X160041800Y-112150000D02*
X160041800Y-112316667D01*
X160041800Y-112316667D02*
X160008466Y-112383333D01*
X160008466Y-112383333D02*
X159975133Y-112416667D01*
X159975133Y-112416667D02*
X159908466Y-112450000D01*
X159908466Y-112450000D02*
X159741800Y-112450000D01*
X159741800Y-112450000D02*
X159675133Y-112416667D01*
X159675133Y-112416667D02*
X159641800Y-112383333D01*
X159641800Y-112383333D02*
X159608466Y-112316667D01*
X159608466Y-112316667D02*
X159608466Y-112150000D01*
X159608466Y-112150000D02*
X159641800Y-112083333D01*
X159641800Y-112083333D02*
X159675133Y-112050000D01*
X160308466Y-113556667D02*
X160308466Y-113990000D01*
X160308466Y-113990000D02*
X160041800Y-113756667D01*
X160041800Y-113756667D02*
X160041800Y-113856667D01*
X160041800Y-113856667D02*
X160008466Y-113923333D01*
X160008466Y-113923333D02*
X159975133Y-113956667D01*
X159975133Y-113956667D02*
X159908466Y-113990000D01*
X159908466Y-113990000D02*
X159741800Y-113990000D01*
X159741800Y-113990000D02*
X159675133Y-113956667D01*
X159675133Y-113956667D02*
X159641800Y-113923333D01*
X159641800Y-113923333D02*
X159608466Y-113856667D01*
X159608466Y-113856667D02*
X159608466Y-113656667D01*
X159608466Y-113656667D02*
X159641800Y-113590000D01*
X159641800Y-113590000D02*
X159675133Y-113556667D01*
X159675133Y-114290000D02*
X159641800Y-114323334D01*
X159641800Y-114323334D02*
X159608466Y-114290000D01*
X159608466Y-114290000D02*
X159641800Y-114256667D01*
X159641800Y-114256667D02*
X159675133Y-114290000D01*
X159675133Y-114290000D02*
X159608466Y-114290000D01*
X160308466Y-114556667D02*
X160308466Y-114990000D01*
X160308466Y-114990000D02*
X160041800Y-114756667D01*
X160041800Y-114756667D02*
X160041800Y-114856667D01*
X160041800Y-114856667D02*
X160008466Y-114923333D01*
X160008466Y-114923333D02*
X159975133Y-114956667D01*
X159975133Y-114956667D02*
X159908466Y-114990000D01*
X159908466Y-114990000D02*
X159741800Y-114990000D01*
X159741800Y-114990000D02*
X159675133Y-114956667D01*
X159675133Y-114956667D02*
X159641800Y-114923333D01*
X159641800Y-114923333D02*
X159608466Y-114856667D01*
X159608466Y-114856667D02*
X159608466Y-114656667D01*
X159608466Y-114656667D02*
X159641800Y-114590000D01*
X159641800Y-114590000D02*
X159675133Y-114556667D01*
X160308466Y-116096667D02*
X160308466Y-116530000D01*
X160308466Y-116530000D02*
X160041800Y-116296667D01*
X160041800Y-116296667D02*
X160041800Y-116396667D01*
X160041800Y-116396667D02*
X160008466Y-116463333D01*
X160008466Y-116463333D02*
X159975133Y-116496667D01*
X159975133Y-116496667D02*
X159908466Y-116530000D01*
X159908466Y-116530000D02*
X159741800Y-116530000D01*
X159741800Y-116530000D02*
X159675133Y-116496667D01*
X159675133Y-116496667D02*
X159641800Y-116463333D01*
X159641800Y-116463333D02*
X159608466Y-116396667D01*
X159608466Y-116396667D02*
X159608466Y-116196667D01*
X159608466Y-116196667D02*
X159641800Y-116130000D01*
X159641800Y-116130000D02*
X159675133Y-116096667D01*
X159675133Y-116830000D02*
X159641800Y-116863334D01*
X159641800Y-116863334D02*
X159608466Y-116830000D01*
X159608466Y-116830000D02*
X159641800Y-116796667D01*
X159641800Y-116796667D02*
X159675133Y-116830000D01*
X159675133Y-116830000D02*
X159608466Y-116830000D01*
X160241800Y-117130000D02*
X160275133Y-117163333D01*
X160275133Y-117163333D02*
X160308466Y-117230000D01*
X160308466Y-117230000D02*
X160308466Y-117396667D01*
X160308466Y-117396667D02*
X160275133Y-117463333D01*
X160275133Y-117463333D02*
X160241800Y-117496667D01*
X160241800Y-117496667D02*
X160175133Y-117530000D01*
X160175133Y-117530000D02*
X160108466Y-117530000D01*
X160108466Y-117530000D02*
X160008466Y-117496667D01*
X160008466Y-117496667D02*
X159608466Y-117096667D01*
X159608466Y-117096667D02*
X159608466Y-117530000D01*
X160308466Y-118636667D02*
X160308466Y-119070000D01*
X160308466Y-119070000D02*
X160041800Y-118836667D01*
X160041800Y-118836667D02*
X160041800Y-118936667D01*
X160041800Y-118936667D02*
X160008466Y-119003333D01*
X160008466Y-119003333D02*
X159975133Y-119036667D01*
X159975133Y-119036667D02*
X159908466Y-119070000D01*
X159908466Y-119070000D02*
X159741800Y-119070000D01*
X159741800Y-119070000D02*
X159675133Y-119036667D01*
X159675133Y-119036667D02*
X159641800Y-119003333D01*
X159641800Y-119003333D02*
X159608466Y-118936667D01*
X159608466Y-118936667D02*
X159608466Y-118736667D01*
X159608466Y-118736667D02*
X159641800Y-118670000D01*
X159641800Y-118670000D02*
X159675133Y-118636667D01*
X159675133Y-119370000D02*
X159641800Y-119403334D01*
X159641800Y-119403334D02*
X159608466Y-119370000D01*
X159608466Y-119370000D02*
X159641800Y-119336667D01*
X159641800Y-119336667D02*
X159675133Y-119370000D01*
X159675133Y-119370000D02*
X159608466Y-119370000D01*
X160308466Y-119836667D02*
X160308466Y-119903333D01*
X160308466Y-119903333D02*
X160275133Y-119970000D01*
X160275133Y-119970000D02*
X160241800Y-120003333D01*
X160241800Y-120003333D02*
X160175133Y-120036667D01*
X160175133Y-120036667D02*
X160041800Y-120070000D01*
X160041800Y-120070000D02*
X159875133Y-120070000D01*
X159875133Y-120070000D02*
X159741800Y-120036667D01*
X159741800Y-120036667D02*
X159675133Y-120003333D01*
X159675133Y-120003333D02*
X159641800Y-119970000D01*
X159641800Y-119970000D02*
X159608466Y-119903333D01*
X159608466Y-119903333D02*
X159608466Y-119836667D01*
X159608466Y-119836667D02*
X159641800Y-119770000D01*
X159641800Y-119770000D02*
X159675133Y-119736667D01*
X159675133Y-119736667D02*
X159741800Y-119703333D01*
X159741800Y-119703333D02*
X159875133Y-119670000D01*
X159875133Y-119670000D02*
X160041800Y-119670000D01*
X160041800Y-119670000D02*
X160175133Y-119703333D01*
X160175133Y-119703333D02*
X160241800Y-119736667D01*
X160241800Y-119736667D02*
X160275133Y-119770000D01*
X160275133Y-119770000D02*
X160308466Y-119836667D01*
X160241800Y-121210000D02*
X160275133Y-121243333D01*
X160275133Y-121243333D02*
X160308466Y-121310000D01*
X160308466Y-121310000D02*
X160308466Y-121476667D01*
X160308466Y-121476667D02*
X160275133Y-121543333D01*
X160275133Y-121543333D02*
X160241800Y-121576667D01*
X160241800Y-121576667D02*
X160175133Y-121610000D01*
X160175133Y-121610000D02*
X160108466Y-121610000D01*
X160108466Y-121610000D02*
X160008466Y-121576667D01*
X160008466Y-121576667D02*
X159608466Y-121176667D01*
X159608466Y-121176667D02*
X159608466Y-121610000D01*
X159675133Y-121910000D02*
X159641800Y-121943334D01*
X159641800Y-121943334D02*
X159608466Y-121910000D01*
X159608466Y-121910000D02*
X159641800Y-121876667D01*
X159641800Y-121876667D02*
X159675133Y-121910000D01*
X159675133Y-121910000D02*
X159608466Y-121910000D01*
X160308466Y-122176667D02*
X160308466Y-122643333D01*
X160308466Y-122643333D02*
X159608466Y-122343333D01*
X160241800Y-123750000D02*
X160275133Y-123783333D01*
X160275133Y-123783333D02*
X160308466Y-123850000D01*
X160308466Y-123850000D02*
X160308466Y-124016667D01*
X160308466Y-124016667D02*
X160275133Y-124083333D01*
X160275133Y-124083333D02*
X160241800Y-124116667D01*
X160241800Y-124116667D02*
X160175133Y-124150000D01*
X160175133Y-124150000D02*
X160108466Y-124150000D01*
X160108466Y-124150000D02*
X160008466Y-124116667D01*
X160008466Y-124116667D02*
X159608466Y-123716667D01*
X159608466Y-123716667D02*
X159608466Y-124150000D01*
X159675133Y-124450000D02*
X159641800Y-124483334D01*
X159641800Y-124483334D02*
X159608466Y-124450000D01*
X159608466Y-124450000D02*
X159641800Y-124416667D01*
X159641800Y-124416667D02*
X159675133Y-124450000D01*
X159675133Y-124450000D02*
X159608466Y-124450000D01*
X160308466Y-125116667D02*
X160308466Y-124783333D01*
X160308466Y-124783333D02*
X159975133Y-124750000D01*
X159975133Y-124750000D02*
X160008466Y-124783333D01*
X160008466Y-124783333D02*
X160041800Y-124850000D01*
X160041800Y-124850000D02*
X160041800Y-125016667D01*
X160041800Y-125016667D02*
X160008466Y-125083333D01*
X160008466Y-125083333D02*
X159975133Y-125116667D01*
X159975133Y-125116667D02*
X159908466Y-125150000D01*
X159908466Y-125150000D02*
X159741800Y-125150000D01*
X159741800Y-125150000D02*
X159675133Y-125116667D01*
X159675133Y-125116667D02*
X159641800Y-125083333D01*
X159641800Y-125083333D02*
X159608466Y-125016667D01*
X159608466Y-125016667D02*
X159608466Y-124850000D01*
X159608466Y-124850000D02*
X159641800Y-124783333D01*
X159641800Y-124783333D02*
X159675133Y-124750000D01*
X158520800Y-123750000D02*
X158554133Y-123783333D01*
X158554133Y-123783333D02*
X158587466Y-123850000D01*
X158587466Y-123850000D02*
X158587466Y-124016667D01*
X158587466Y-124016667D02*
X158554133Y-124083333D01*
X158554133Y-124083333D02*
X158520800Y-124116667D01*
X158520800Y-124116667D02*
X158454133Y-124150000D01*
X158454133Y-124150000D02*
X158387466Y-124150000D01*
X158387466Y-124150000D02*
X158287466Y-124116667D01*
X158287466Y-124116667D02*
X157887466Y-123716667D01*
X157887466Y-123716667D02*
X157887466Y-124150000D01*
X157954133Y-124450000D02*
X157920800Y-124483334D01*
X157920800Y-124483334D02*
X157887466Y-124450000D01*
X157887466Y-124450000D02*
X157920800Y-124416667D01*
X157920800Y-124416667D02*
X157954133Y-124450000D01*
X157954133Y-124450000D02*
X157887466Y-124450000D01*
X158587466Y-124916667D02*
X158587466Y-124983333D01*
X158587466Y-124983333D02*
X158554133Y-125050000D01*
X158554133Y-125050000D02*
X158520800Y-125083333D01*
X158520800Y-125083333D02*
X158454133Y-125116667D01*
X158454133Y-125116667D02*
X158320800Y-125150000D01*
X158320800Y-125150000D02*
X158154133Y-125150000D01*
X158154133Y-125150000D02*
X158020800Y-125116667D01*
X158020800Y-125116667D02*
X157954133Y-125083333D01*
X157954133Y-125083333D02*
X157920800Y-125050000D01*
X157920800Y-125050000D02*
X157887466Y-124983333D01*
X157887466Y-124983333D02*
X157887466Y-124916667D01*
X157887466Y-124916667D02*
X157920800Y-124850000D01*
X157920800Y-124850000D02*
X157954133Y-124816667D01*
X157954133Y-124816667D02*
X158020800Y-124783333D01*
X158020800Y-124783333D02*
X158154133Y-124750000D01*
X158154133Y-124750000D02*
X158320800Y-124750000D01*
X158320800Y-124750000D02*
X158454133Y-124783333D01*
X158454133Y-124783333D02*
X158520800Y-124816667D01*
X158520800Y-124816667D02*
X158554133Y-124850000D01*
X158554133Y-124850000D02*
X158587466Y-124916667D01*
X160241800Y-126290000D02*
X160275133Y-126323333D01*
X160275133Y-126323333D02*
X160308466Y-126390000D01*
X160308466Y-126390000D02*
X160308466Y-126556667D01*
X160308466Y-126556667D02*
X160275133Y-126623333D01*
X160275133Y-126623333D02*
X160241800Y-126656667D01*
X160241800Y-126656667D02*
X160175133Y-126690000D01*
X160175133Y-126690000D02*
X160108466Y-126690000D01*
X160108466Y-126690000D02*
X160008466Y-126656667D01*
X160008466Y-126656667D02*
X159608466Y-126256667D01*
X159608466Y-126256667D02*
X159608466Y-126690000D01*
X159675133Y-126990000D02*
X159641800Y-127023334D01*
X159641800Y-127023334D02*
X159608466Y-126990000D01*
X159608466Y-126990000D02*
X159641800Y-126956667D01*
X159641800Y-126956667D02*
X159675133Y-126990000D01*
X159675133Y-126990000D02*
X159608466Y-126990000D01*
X160308466Y-127623333D02*
X160308466Y-127490000D01*
X160308466Y-127490000D02*
X160275133Y-127423333D01*
X160275133Y-127423333D02*
X160241800Y-127390000D01*
X160241800Y-127390000D02*
X160141800Y-127323333D01*
X160141800Y-127323333D02*
X160008466Y-127290000D01*
X160008466Y-127290000D02*
X159741800Y-127290000D01*
X159741800Y-127290000D02*
X159675133Y-127323333D01*
X159675133Y-127323333D02*
X159641800Y-127356667D01*
X159641800Y-127356667D02*
X159608466Y-127423333D01*
X159608466Y-127423333D02*
X159608466Y-127556667D01*
X159608466Y-127556667D02*
X159641800Y-127623333D01*
X159641800Y-127623333D02*
X159675133Y-127656667D01*
X159675133Y-127656667D02*
X159741800Y-127690000D01*
X159741800Y-127690000D02*
X159908466Y-127690000D01*
X159908466Y-127690000D02*
X159975133Y-127656667D01*
X159975133Y-127656667D02*
X160008466Y-127623333D01*
X160008466Y-127623333D02*
X160041800Y-127556667D01*
X160041800Y-127556667D02*
X160041800Y-127423333D01*
X160041800Y-127423333D02*
X160008466Y-127356667D01*
X160008466Y-127356667D02*
X159975133Y-127323333D01*
X159975133Y-127323333D02*
X159908466Y-127290000D01*
X158520800Y-126290000D02*
X158554133Y-126323333D01*
X158554133Y-126323333D02*
X158587466Y-126390000D01*
X158587466Y-126390000D02*
X158587466Y-126556667D01*
X158587466Y-126556667D02*
X158554133Y-126623333D01*
X158554133Y-126623333D02*
X158520800Y-126656667D01*
X158520800Y-126656667D02*
X158454133Y-126690000D01*
X158454133Y-126690000D02*
X158387466Y-126690000D01*
X158387466Y-126690000D02*
X158287466Y-126656667D01*
X158287466Y-126656667D02*
X157887466Y-126256667D01*
X157887466Y-126256667D02*
X157887466Y-126690000D01*
X157954133Y-126990000D02*
X157920800Y-127023334D01*
X157920800Y-127023334D02*
X157887466Y-126990000D01*
X157887466Y-126990000D02*
X157920800Y-126956667D01*
X157920800Y-126956667D02*
X157954133Y-126990000D01*
X157954133Y-126990000D02*
X157887466Y-126990000D01*
X158520800Y-127290000D02*
X158554133Y-127323333D01*
X158554133Y-127323333D02*
X158587466Y-127390000D01*
X158587466Y-127390000D02*
X158587466Y-127556667D01*
X158587466Y-127556667D02*
X158554133Y-127623333D01*
X158554133Y-127623333D02*
X158520800Y-127656667D01*
X158520800Y-127656667D02*
X158454133Y-127690000D01*
X158454133Y-127690000D02*
X158387466Y-127690000D01*
X158387466Y-127690000D02*
X158287466Y-127656667D01*
X158287466Y-127656667D02*
X157887466Y-127256667D01*
X157887466Y-127256667D02*
X157887466Y-127690000D01*
X160241800Y-128830000D02*
X160275133Y-128863333D01*
X160275133Y-128863333D02*
X160308466Y-128930000D01*
X160308466Y-128930000D02*
X160308466Y-129096667D01*
X160308466Y-129096667D02*
X160275133Y-129163333D01*
X160275133Y-129163333D02*
X160241800Y-129196667D01*
X160241800Y-129196667D02*
X160175133Y-129230000D01*
X160175133Y-129230000D02*
X160108466Y-129230000D01*
X160108466Y-129230000D02*
X160008466Y-129196667D01*
X160008466Y-129196667D02*
X159608466Y-128796667D01*
X159608466Y-128796667D02*
X159608466Y-129230000D01*
X159675133Y-129530000D02*
X159641800Y-129563334D01*
X159641800Y-129563334D02*
X159608466Y-129530000D01*
X159608466Y-129530000D02*
X159641800Y-129496667D01*
X159641800Y-129496667D02*
X159675133Y-129530000D01*
X159675133Y-129530000D02*
X159608466Y-129530000D01*
X160075133Y-130163333D02*
X159608466Y-130163333D01*
X160341800Y-129996667D02*
X159841800Y-129830000D01*
X159841800Y-129830000D02*
X159841800Y-130263333D01*
X158520800Y-128830000D02*
X158554133Y-128863333D01*
X158554133Y-128863333D02*
X158587466Y-128930000D01*
X158587466Y-128930000D02*
X158587466Y-129096667D01*
X158587466Y-129096667D02*
X158554133Y-129163333D01*
X158554133Y-129163333D02*
X158520800Y-129196667D01*
X158520800Y-129196667D02*
X158454133Y-129230000D01*
X158454133Y-129230000D02*
X158387466Y-129230000D01*
X158387466Y-129230000D02*
X158287466Y-129196667D01*
X158287466Y-129196667D02*
X157887466Y-128796667D01*
X157887466Y-128796667D02*
X157887466Y-129230000D01*
X157954133Y-129530000D02*
X157920800Y-129563334D01*
X157920800Y-129563334D02*
X157887466Y-129530000D01*
X157887466Y-129530000D02*
X157920800Y-129496667D01*
X157920800Y-129496667D02*
X157954133Y-129530000D01*
X157954133Y-129530000D02*
X157887466Y-129530000D01*
X157887466Y-130230000D02*
X157887466Y-129830000D01*
X157887466Y-130030000D02*
X158587466Y-130030000D01*
X158587466Y-130030000D02*
X158487466Y-129963333D01*
X158487466Y-129963333D02*
X158420800Y-129896667D01*
X158420800Y-129896667D02*
X158387466Y-129830000D01*
X160241800Y-131370000D02*
X160275133Y-131403333D01*
X160275133Y-131403333D02*
X160308466Y-131470000D01*
X160308466Y-131470000D02*
X160308466Y-131636667D01*
X160308466Y-131636667D02*
X160275133Y-131703333D01*
X160275133Y-131703333D02*
X160241800Y-131736667D01*
X160241800Y-131736667D02*
X160175133Y-131770000D01*
X160175133Y-131770000D02*
X160108466Y-131770000D01*
X160108466Y-131770000D02*
X160008466Y-131736667D01*
X160008466Y-131736667D02*
X159608466Y-131336667D01*
X159608466Y-131336667D02*
X159608466Y-131770000D01*
X159675133Y-132070000D02*
X159641800Y-132103334D01*
X159641800Y-132103334D02*
X159608466Y-132070000D01*
X159608466Y-132070000D02*
X159641800Y-132036667D01*
X159641800Y-132036667D02*
X159675133Y-132070000D01*
X159675133Y-132070000D02*
X159608466Y-132070000D01*
X160308466Y-132336667D02*
X160308466Y-132770000D01*
X160308466Y-132770000D02*
X160041800Y-132536667D01*
X160041800Y-132536667D02*
X160041800Y-132636667D01*
X160041800Y-132636667D02*
X160008466Y-132703333D01*
X160008466Y-132703333D02*
X159975133Y-132736667D01*
X159975133Y-132736667D02*
X159908466Y-132770000D01*
X159908466Y-132770000D02*
X159741800Y-132770000D01*
X159741800Y-132770000D02*
X159675133Y-132736667D01*
X159675133Y-132736667D02*
X159641800Y-132703333D01*
X159641800Y-132703333D02*
X159608466Y-132636667D01*
X159608466Y-132636667D02*
X159608466Y-132436667D01*
X159608466Y-132436667D02*
X159641800Y-132370000D01*
X159641800Y-132370000D02*
X159675133Y-132336667D01*
X158554133Y-131536667D02*
X158587466Y-131470000D01*
X158587466Y-131470000D02*
X158587466Y-131370000D01*
X158587466Y-131370000D02*
X158554133Y-131270000D01*
X158554133Y-131270000D02*
X158487466Y-131203334D01*
X158487466Y-131203334D02*
X158420800Y-131170000D01*
X158420800Y-131170000D02*
X158287466Y-131136667D01*
X158287466Y-131136667D02*
X158187466Y-131136667D01*
X158187466Y-131136667D02*
X158054133Y-131170000D01*
X158054133Y-131170000D02*
X157987466Y-131203334D01*
X157987466Y-131203334D02*
X157920800Y-131270000D01*
X157920800Y-131270000D02*
X157887466Y-131370000D01*
X157887466Y-131370000D02*
X157887466Y-131436667D01*
X157887466Y-131436667D02*
X157920800Y-131536667D01*
X157920800Y-131536667D02*
X157954133Y-131570000D01*
X157954133Y-131570000D02*
X158187466Y-131570000D01*
X158187466Y-131570000D02*
X158187466Y-131436667D01*
X157887466Y-131870000D02*
X158587466Y-131870000D01*
X158587466Y-131870000D02*
X157887466Y-132270000D01*
X157887466Y-132270000D02*
X158587466Y-132270000D01*
X157887466Y-132603333D02*
X158587466Y-132603333D01*
X158587466Y-132603333D02*
X158587466Y-132770000D01*
X158587466Y-132770000D02*
X158554133Y-132870000D01*
X158554133Y-132870000D02*
X158487466Y-132936667D01*
X158487466Y-132936667D02*
X158420800Y-132970000D01*
X158420800Y-132970000D02*
X158287466Y-133003333D01*
X158287466Y-133003333D02*
X158187466Y-133003333D01*
X158187466Y-133003333D02*
X158054133Y-132970000D01*
X158054133Y-132970000D02*
X157987466Y-132936667D01*
X157987466Y-132936667D02*
X157920800Y-132870000D01*
X157920800Y-132870000D02*
X157887466Y-132770000D01*
X157887466Y-132770000D02*
X157887466Y-132603333D01*
D11*
X150936000Y-133340000D02*
X150936000Y-123180000D01*
D12*
X151445866Y-124983332D02*
X151412533Y-125049999D01*
X151412533Y-125049999D02*
X151412533Y-125149999D01*
X151412533Y-125149999D02*
X151445866Y-125249999D01*
X151445866Y-125249999D02*
X151512533Y-125316666D01*
X151512533Y-125316666D02*
X151579200Y-125349999D01*
X151579200Y-125349999D02*
X151712533Y-125383332D01*
X151712533Y-125383332D02*
X151812533Y-125383332D01*
X151812533Y-125383332D02*
X151945866Y-125349999D01*
X151945866Y-125349999D02*
X152012533Y-125316666D01*
X152012533Y-125316666D02*
X152079200Y-125249999D01*
X152079200Y-125249999D02*
X152112533Y-125149999D01*
X152112533Y-125149999D02*
X152112533Y-125083332D01*
X152112533Y-125083332D02*
X152079200Y-124983332D01*
X152079200Y-124983332D02*
X152045866Y-124949999D01*
X152045866Y-124949999D02*
X151812533Y-124949999D01*
X151812533Y-124949999D02*
X151812533Y-125083332D01*
X152112533Y-124649999D02*
X151412533Y-124649999D01*
X151412533Y-124649999D02*
X152112533Y-124249999D01*
X152112533Y-124249999D02*
X151412533Y-124249999D01*
X152112533Y-123916666D02*
X151412533Y-123916666D01*
X151412533Y-123916666D02*
X151412533Y-123749999D01*
X151412533Y-123749999D02*
X151445866Y-123649999D01*
X151445866Y-123649999D02*
X151512533Y-123583333D01*
X151512533Y-123583333D02*
X151579200Y-123549999D01*
X151579200Y-123549999D02*
X151712533Y-123516666D01*
X151712533Y-123516666D02*
X151812533Y-123516666D01*
X151812533Y-123516666D02*
X151945866Y-123549999D01*
X151945866Y-123549999D02*
X152012533Y-123583333D01*
X152012533Y-123583333D02*
X152079200Y-123649999D01*
X152079200Y-123649999D02*
X152112533Y-123749999D01*
X152112533Y-123749999D02*
X152112533Y-123916666D01*
X152112533Y-132369999D02*
X152112533Y-132769999D01*
X152112533Y-132569999D02*
X151412533Y-132569999D01*
X151412533Y-132569999D02*
X151512533Y-132636666D01*
X151512533Y-132636666D02*
X151579200Y-132703333D01*
X151579200Y-132703333D02*
X151612533Y-132769999D01*
X152045866Y-132069999D02*
X152079200Y-132036666D01*
X152079200Y-132036666D02*
X152112533Y-132069999D01*
X152112533Y-132069999D02*
X152079200Y-132103332D01*
X152079200Y-132103332D02*
X152045866Y-132069999D01*
X152045866Y-132069999D02*
X152112533Y-132069999D01*
X151645866Y-131436666D02*
X152112533Y-131436666D01*
X151379200Y-131603333D02*
X151879200Y-131769999D01*
X151879200Y-131769999D02*
X151879200Y-131336666D01*
X152112533Y-129829999D02*
X152112533Y-130229999D01*
X152112533Y-130029999D02*
X151412533Y-130029999D01*
X151412533Y-130029999D02*
X151512533Y-130096666D01*
X151512533Y-130096666D02*
X151579200Y-130163333D01*
X151579200Y-130163333D02*
X151612533Y-130229999D01*
X152045866Y-129529999D02*
X152079200Y-129496666D01*
X152079200Y-129496666D02*
X152112533Y-129529999D01*
X152112533Y-129529999D02*
X152079200Y-129563332D01*
X152079200Y-129563332D02*
X152045866Y-129529999D01*
X152045866Y-129529999D02*
X152112533Y-129529999D01*
X151412533Y-129263333D02*
X151412533Y-128796666D01*
X151412533Y-128796666D02*
X152112533Y-129096666D01*
X152112533Y-127289999D02*
X152112533Y-127689999D01*
X152112533Y-127489999D02*
X151412533Y-127489999D01*
X151412533Y-127489999D02*
X151512533Y-127556666D01*
X151512533Y-127556666D02*
X151579200Y-127623333D01*
X151579200Y-127623333D02*
X151612533Y-127689999D01*
X152045866Y-126989999D02*
X152079200Y-126956666D01*
X152079200Y-126956666D02*
X152112533Y-126989999D01*
X152112533Y-126989999D02*
X152079200Y-127023332D01*
X152079200Y-127023332D02*
X152045866Y-126989999D01*
X152045866Y-126989999D02*
X152112533Y-126989999D01*
X151412533Y-126356666D02*
X151412533Y-126489999D01*
X151412533Y-126489999D02*
X151445866Y-126556666D01*
X151445866Y-126556666D02*
X151479200Y-126589999D01*
X151479200Y-126589999D02*
X151579200Y-126656666D01*
X151579200Y-126656666D02*
X151712533Y-126689999D01*
X151712533Y-126689999D02*
X151979200Y-126689999D01*
X151979200Y-126689999D02*
X152045866Y-126656666D01*
X152045866Y-126656666D02*
X152079200Y-126623333D01*
X152079200Y-126623333D02*
X152112533Y-126556666D01*
X152112533Y-126556666D02*
X152112533Y-126423333D01*
X152112533Y-126423333D02*
X152079200Y-126356666D01*
X152079200Y-126356666D02*
X152045866Y-126323333D01*
X152045866Y-126323333D02*
X151979200Y-126289999D01*
X151979200Y-126289999D02*
X151812533Y-126289999D01*
X151812533Y-126289999D02*
X151745866Y-126323333D01*
X151745866Y-126323333D02*
X151712533Y-126356666D01*
X151712533Y-126356666D02*
X151679200Y-126423333D01*
X151679200Y-126423333D02*
X151679200Y-126556666D01*
X151679200Y-126556666D02*
X151712533Y-126623333D01*
X151712533Y-126623333D02*
X151745866Y-126656666D01*
X151745866Y-126656666D02*
X151812533Y-126689999D01*
X149691533Y-102323333D02*
X149691533Y-101889999D01*
X149691533Y-101889999D02*
X149958200Y-102123333D01*
X149958200Y-102123333D02*
X149958200Y-102023333D01*
X149958200Y-102023333D02*
X149991533Y-101956666D01*
X149991533Y-101956666D02*
X150024866Y-101923333D01*
X150024866Y-101923333D02*
X150091533Y-101889999D01*
X150091533Y-101889999D02*
X150258200Y-101889999D01*
X150258200Y-101889999D02*
X150324866Y-101923333D01*
X150324866Y-101923333D02*
X150358200Y-101956666D01*
X150358200Y-101956666D02*
X150391533Y-102023333D01*
X150391533Y-102023333D02*
X150391533Y-102223333D01*
X150391533Y-102223333D02*
X150358200Y-102289999D01*
X150358200Y-102289999D02*
X150324866Y-102323333D01*
X150324866Y-101589999D02*
X150358200Y-101556666D01*
X150358200Y-101556666D02*
X150391533Y-101589999D01*
X150391533Y-101589999D02*
X150358200Y-101623332D01*
X150358200Y-101623332D02*
X150324866Y-101589999D01*
X150324866Y-101589999D02*
X150391533Y-101589999D01*
X149924866Y-100956666D02*
X150391533Y-100956666D01*
X149658200Y-101123333D02*
X150158200Y-101289999D01*
X150158200Y-101289999D02*
X150158200Y-100856666D01*
X149691533Y-104663333D02*
X149691533Y-104596666D01*
X149691533Y-104596666D02*
X149724866Y-104529999D01*
X149724866Y-104529999D02*
X149758200Y-104496666D01*
X149758200Y-104496666D02*
X149824866Y-104463333D01*
X149824866Y-104463333D02*
X149958200Y-104429999D01*
X149958200Y-104429999D02*
X150124866Y-104429999D01*
X150124866Y-104429999D02*
X150258200Y-104463333D01*
X150258200Y-104463333D02*
X150324866Y-104496666D01*
X150324866Y-104496666D02*
X150358200Y-104529999D01*
X150358200Y-104529999D02*
X150391533Y-104596666D01*
X150391533Y-104596666D02*
X150391533Y-104663333D01*
X150391533Y-104663333D02*
X150358200Y-104729999D01*
X150358200Y-104729999D02*
X150324866Y-104763333D01*
X150324866Y-104763333D02*
X150258200Y-104796666D01*
X150258200Y-104796666D02*
X150124866Y-104829999D01*
X150124866Y-104829999D02*
X149958200Y-104829999D01*
X149958200Y-104829999D02*
X149824866Y-104796666D01*
X149824866Y-104796666D02*
X149758200Y-104763333D01*
X149758200Y-104763333D02*
X149724866Y-104729999D01*
X149724866Y-104729999D02*
X149691533Y-104663333D01*
X150324866Y-104129999D02*
X150358200Y-104096666D01*
X150358200Y-104096666D02*
X150391533Y-104129999D01*
X150391533Y-104129999D02*
X150358200Y-104163332D01*
X150358200Y-104163332D02*
X150324866Y-104129999D01*
X150324866Y-104129999D02*
X150391533Y-104129999D01*
X149758200Y-103829999D02*
X149724866Y-103796666D01*
X149724866Y-103796666D02*
X149691533Y-103729999D01*
X149691533Y-103729999D02*
X149691533Y-103563333D01*
X149691533Y-103563333D02*
X149724866Y-103496666D01*
X149724866Y-103496666D02*
X149758200Y-103463333D01*
X149758200Y-103463333D02*
X149824866Y-103429999D01*
X149824866Y-103429999D02*
X149891533Y-103429999D01*
X149891533Y-103429999D02*
X149991533Y-103463333D01*
X149991533Y-103463333D02*
X150391533Y-103863333D01*
X150391533Y-103863333D02*
X150391533Y-103429999D01*
X149691533Y-107203333D02*
X149691533Y-107136666D01*
X149691533Y-107136666D02*
X149724866Y-107069999D01*
X149724866Y-107069999D02*
X149758200Y-107036666D01*
X149758200Y-107036666D02*
X149824866Y-107003333D01*
X149824866Y-107003333D02*
X149958200Y-106969999D01*
X149958200Y-106969999D02*
X150124866Y-106969999D01*
X150124866Y-106969999D02*
X150258200Y-107003333D01*
X150258200Y-107003333D02*
X150324866Y-107036666D01*
X150324866Y-107036666D02*
X150358200Y-107069999D01*
X150358200Y-107069999D02*
X150391533Y-107136666D01*
X150391533Y-107136666D02*
X150391533Y-107203333D01*
X150391533Y-107203333D02*
X150358200Y-107269999D01*
X150358200Y-107269999D02*
X150324866Y-107303333D01*
X150324866Y-107303333D02*
X150258200Y-107336666D01*
X150258200Y-107336666D02*
X150124866Y-107369999D01*
X150124866Y-107369999D02*
X149958200Y-107369999D01*
X149958200Y-107369999D02*
X149824866Y-107336666D01*
X149824866Y-107336666D02*
X149758200Y-107303333D01*
X149758200Y-107303333D02*
X149724866Y-107269999D01*
X149724866Y-107269999D02*
X149691533Y-107203333D01*
X150324866Y-106669999D02*
X150358200Y-106636666D01*
X150358200Y-106636666D02*
X150391533Y-106669999D01*
X150391533Y-106669999D02*
X150358200Y-106703332D01*
X150358200Y-106703332D02*
X150324866Y-106669999D01*
X150324866Y-106669999D02*
X150391533Y-106669999D01*
X150391533Y-105969999D02*
X150391533Y-106369999D01*
X150391533Y-106169999D02*
X149691533Y-106169999D01*
X149691533Y-106169999D02*
X149791533Y-106236666D01*
X149791533Y-106236666D02*
X149858200Y-106303333D01*
X149858200Y-106303333D02*
X149891533Y-106369999D01*
X149691533Y-109743333D02*
X149691533Y-109676666D01*
X149691533Y-109676666D02*
X149724866Y-109609999D01*
X149724866Y-109609999D02*
X149758200Y-109576666D01*
X149758200Y-109576666D02*
X149824866Y-109543333D01*
X149824866Y-109543333D02*
X149958200Y-109509999D01*
X149958200Y-109509999D02*
X150124866Y-109509999D01*
X150124866Y-109509999D02*
X150258200Y-109543333D01*
X150258200Y-109543333D02*
X150324866Y-109576666D01*
X150324866Y-109576666D02*
X150358200Y-109609999D01*
X150358200Y-109609999D02*
X150391533Y-109676666D01*
X150391533Y-109676666D02*
X150391533Y-109743333D01*
X150391533Y-109743333D02*
X150358200Y-109809999D01*
X150358200Y-109809999D02*
X150324866Y-109843333D01*
X150324866Y-109843333D02*
X150258200Y-109876666D01*
X150258200Y-109876666D02*
X150124866Y-109909999D01*
X150124866Y-109909999D02*
X149958200Y-109909999D01*
X149958200Y-109909999D02*
X149824866Y-109876666D01*
X149824866Y-109876666D02*
X149758200Y-109843333D01*
X149758200Y-109843333D02*
X149724866Y-109809999D01*
X149724866Y-109809999D02*
X149691533Y-109743333D01*
X150324866Y-109209999D02*
X150358200Y-109176666D01*
X150358200Y-109176666D02*
X150391533Y-109209999D01*
X150391533Y-109209999D02*
X150358200Y-109243332D01*
X150358200Y-109243332D02*
X150324866Y-109209999D01*
X150324866Y-109209999D02*
X150391533Y-109209999D01*
X149691533Y-108543333D02*
X149691533Y-108876666D01*
X149691533Y-108876666D02*
X150024866Y-108909999D01*
X150024866Y-108909999D02*
X149991533Y-108876666D01*
X149991533Y-108876666D02*
X149958200Y-108809999D01*
X149958200Y-108809999D02*
X149958200Y-108643333D01*
X149958200Y-108643333D02*
X149991533Y-108576666D01*
X149991533Y-108576666D02*
X150024866Y-108543333D01*
X150024866Y-108543333D02*
X150091533Y-108509999D01*
X150091533Y-108509999D02*
X150258200Y-108509999D01*
X150258200Y-108509999D02*
X150324866Y-108543333D01*
X150324866Y-108543333D02*
X150358200Y-108576666D01*
X150358200Y-108576666D02*
X150391533Y-108643333D01*
X150391533Y-108643333D02*
X150391533Y-108809999D01*
X150391533Y-108809999D02*
X150358200Y-108876666D01*
X150358200Y-108876666D02*
X150324866Y-108909999D01*
X149691533Y-112283333D02*
X149691533Y-112216666D01*
X149691533Y-112216666D02*
X149724866Y-112149999D01*
X149724866Y-112149999D02*
X149758200Y-112116666D01*
X149758200Y-112116666D02*
X149824866Y-112083333D01*
X149824866Y-112083333D02*
X149958200Y-112049999D01*
X149958200Y-112049999D02*
X150124866Y-112049999D01*
X150124866Y-112049999D02*
X150258200Y-112083333D01*
X150258200Y-112083333D02*
X150324866Y-112116666D01*
X150324866Y-112116666D02*
X150358200Y-112149999D01*
X150358200Y-112149999D02*
X150391533Y-112216666D01*
X150391533Y-112216666D02*
X150391533Y-112283333D01*
X150391533Y-112283333D02*
X150358200Y-112349999D01*
X150358200Y-112349999D02*
X150324866Y-112383333D01*
X150324866Y-112383333D02*
X150258200Y-112416666D01*
X150258200Y-112416666D02*
X150124866Y-112449999D01*
X150124866Y-112449999D02*
X149958200Y-112449999D01*
X149958200Y-112449999D02*
X149824866Y-112416666D01*
X149824866Y-112416666D02*
X149758200Y-112383333D01*
X149758200Y-112383333D02*
X149724866Y-112349999D01*
X149724866Y-112349999D02*
X149691533Y-112283333D01*
X150324866Y-111749999D02*
X150358200Y-111716666D01*
X150358200Y-111716666D02*
X150391533Y-111749999D01*
X150391533Y-111749999D02*
X150358200Y-111783332D01*
X150358200Y-111783332D02*
X150324866Y-111749999D01*
X150324866Y-111749999D02*
X150391533Y-111749999D01*
X149691533Y-111283333D02*
X149691533Y-111216666D01*
X149691533Y-111216666D02*
X149724866Y-111149999D01*
X149724866Y-111149999D02*
X149758200Y-111116666D01*
X149758200Y-111116666D02*
X149824866Y-111083333D01*
X149824866Y-111083333D02*
X149958200Y-111049999D01*
X149958200Y-111049999D02*
X150124866Y-111049999D01*
X150124866Y-111049999D02*
X150258200Y-111083333D01*
X150258200Y-111083333D02*
X150324866Y-111116666D01*
X150324866Y-111116666D02*
X150358200Y-111149999D01*
X150358200Y-111149999D02*
X150391533Y-111216666D01*
X150391533Y-111216666D02*
X150391533Y-111283333D01*
X150391533Y-111283333D02*
X150358200Y-111349999D01*
X150358200Y-111349999D02*
X150324866Y-111383333D01*
X150324866Y-111383333D02*
X150258200Y-111416666D01*
X150258200Y-111416666D02*
X150124866Y-111449999D01*
X150124866Y-111449999D02*
X149958200Y-111449999D01*
X149958200Y-111449999D02*
X149824866Y-111416666D01*
X149824866Y-111416666D02*
X149758200Y-111383333D01*
X149758200Y-111383333D02*
X149724866Y-111349999D01*
X149724866Y-111349999D02*
X149691533Y-111283333D01*
X149691533Y-114823333D02*
X149691533Y-114756666D01*
X149691533Y-114756666D02*
X149724866Y-114689999D01*
X149724866Y-114689999D02*
X149758200Y-114656666D01*
X149758200Y-114656666D02*
X149824866Y-114623333D01*
X149824866Y-114623333D02*
X149958200Y-114589999D01*
X149958200Y-114589999D02*
X150124866Y-114589999D01*
X150124866Y-114589999D02*
X150258200Y-114623333D01*
X150258200Y-114623333D02*
X150324866Y-114656666D01*
X150324866Y-114656666D02*
X150358200Y-114689999D01*
X150358200Y-114689999D02*
X150391533Y-114756666D01*
X150391533Y-114756666D02*
X150391533Y-114823333D01*
X150391533Y-114823333D02*
X150358200Y-114889999D01*
X150358200Y-114889999D02*
X150324866Y-114923333D01*
X150324866Y-114923333D02*
X150258200Y-114956666D01*
X150258200Y-114956666D02*
X150124866Y-114989999D01*
X150124866Y-114989999D02*
X149958200Y-114989999D01*
X149958200Y-114989999D02*
X149824866Y-114956666D01*
X149824866Y-114956666D02*
X149758200Y-114923333D01*
X149758200Y-114923333D02*
X149724866Y-114889999D01*
X149724866Y-114889999D02*
X149691533Y-114823333D01*
X150324866Y-114289999D02*
X150358200Y-114256666D01*
X150358200Y-114256666D02*
X150391533Y-114289999D01*
X150391533Y-114289999D02*
X150358200Y-114323332D01*
X150358200Y-114323332D02*
X150324866Y-114289999D01*
X150324866Y-114289999D02*
X150391533Y-114289999D01*
X149924866Y-113656666D02*
X150391533Y-113656666D01*
X149658200Y-113823333D02*
X150158200Y-113989999D01*
X150158200Y-113989999D02*
X150158200Y-113556666D01*
X149691533Y-117363333D02*
X149691533Y-117296666D01*
X149691533Y-117296666D02*
X149724866Y-117229999D01*
X149724866Y-117229999D02*
X149758200Y-117196666D01*
X149758200Y-117196666D02*
X149824866Y-117163333D01*
X149824866Y-117163333D02*
X149958200Y-117129999D01*
X149958200Y-117129999D02*
X150124866Y-117129999D01*
X150124866Y-117129999D02*
X150258200Y-117163333D01*
X150258200Y-117163333D02*
X150324866Y-117196666D01*
X150324866Y-117196666D02*
X150358200Y-117229999D01*
X150358200Y-117229999D02*
X150391533Y-117296666D01*
X150391533Y-117296666D02*
X150391533Y-117363333D01*
X150391533Y-117363333D02*
X150358200Y-117429999D01*
X150358200Y-117429999D02*
X150324866Y-117463333D01*
X150324866Y-117463333D02*
X150258200Y-117496666D01*
X150258200Y-117496666D02*
X150124866Y-117529999D01*
X150124866Y-117529999D02*
X149958200Y-117529999D01*
X149958200Y-117529999D02*
X149824866Y-117496666D01*
X149824866Y-117496666D02*
X149758200Y-117463333D01*
X149758200Y-117463333D02*
X149724866Y-117429999D01*
X149724866Y-117429999D02*
X149691533Y-117363333D01*
X150324866Y-116829999D02*
X150358200Y-116796666D01*
X150358200Y-116796666D02*
X150391533Y-116829999D01*
X150391533Y-116829999D02*
X150358200Y-116863332D01*
X150358200Y-116863332D02*
X150324866Y-116829999D01*
X150324866Y-116829999D02*
X150391533Y-116829999D01*
X149691533Y-116563333D02*
X149691533Y-116129999D01*
X149691533Y-116129999D02*
X149958200Y-116363333D01*
X149958200Y-116363333D02*
X149958200Y-116263333D01*
X149958200Y-116263333D02*
X149991533Y-116196666D01*
X149991533Y-116196666D02*
X150024866Y-116163333D01*
X150024866Y-116163333D02*
X150091533Y-116129999D01*
X150091533Y-116129999D02*
X150258200Y-116129999D01*
X150258200Y-116129999D02*
X150324866Y-116163333D01*
X150324866Y-116163333D02*
X150358200Y-116196666D01*
X150358200Y-116196666D02*
X150391533Y-116263333D01*
X150391533Y-116263333D02*
X150391533Y-116463333D01*
X150391533Y-116463333D02*
X150358200Y-116529999D01*
X150358200Y-116529999D02*
X150324866Y-116563333D01*
X149691533Y-119903333D02*
X149691533Y-119836666D01*
X149691533Y-119836666D02*
X149724866Y-119769999D01*
X149724866Y-119769999D02*
X149758200Y-119736666D01*
X149758200Y-119736666D02*
X149824866Y-119703333D01*
X149824866Y-119703333D02*
X149958200Y-119669999D01*
X149958200Y-119669999D02*
X150124866Y-119669999D01*
X150124866Y-119669999D02*
X150258200Y-119703333D01*
X150258200Y-119703333D02*
X150324866Y-119736666D01*
X150324866Y-119736666D02*
X150358200Y-119769999D01*
X150358200Y-119769999D02*
X150391533Y-119836666D01*
X150391533Y-119836666D02*
X150391533Y-119903333D01*
X150391533Y-119903333D02*
X150358200Y-119969999D01*
X150358200Y-119969999D02*
X150324866Y-120003333D01*
X150324866Y-120003333D02*
X150258200Y-120036666D01*
X150258200Y-120036666D02*
X150124866Y-120069999D01*
X150124866Y-120069999D02*
X149958200Y-120069999D01*
X149958200Y-120069999D02*
X149824866Y-120036666D01*
X149824866Y-120036666D02*
X149758200Y-120003333D01*
X149758200Y-120003333D02*
X149724866Y-119969999D01*
X149724866Y-119969999D02*
X149691533Y-119903333D01*
X150324866Y-119369999D02*
X150358200Y-119336666D01*
X150358200Y-119336666D02*
X150391533Y-119369999D01*
X150391533Y-119369999D02*
X150358200Y-119403332D01*
X150358200Y-119403332D02*
X150324866Y-119369999D01*
X150324866Y-119369999D02*
X150391533Y-119369999D01*
X149691533Y-119103333D02*
X149691533Y-118636666D01*
X149691533Y-118636666D02*
X150391533Y-118936666D01*
X149691533Y-122443333D02*
X149691533Y-122376666D01*
X149691533Y-122376666D02*
X149724866Y-122309999D01*
X149724866Y-122309999D02*
X149758200Y-122276666D01*
X149758200Y-122276666D02*
X149824866Y-122243333D01*
X149824866Y-122243333D02*
X149958200Y-122209999D01*
X149958200Y-122209999D02*
X150124866Y-122209999D01*
X150124866Y-122209999D02*
X150258200Y-122243333D01*
X150258200Y-122243333D02*
X150324866Y-122276666D01*
X150324866Y-122276666D02*
X150358200Y-122309999D01*
X150358200Y-122309999D02*
X150391533Y-122376666D01*
X150391533Y-122376666D02*
X150391533Y-122443333D01*
X150391533Y-122443333D02*
X150358200Y-122509999D01*
X150358200Y-122509999D02*
X150324866Y-122543333D01*
X150324866Y-122543333D02*
X150258200Y-122576666D01*
X150258200Y-122576666D02*
X150124866Y-122609999D01*
X150124866Y-122609999D02*
X149958200Y-122609999D01*
X149958200Y-122609999D02*
X149824866Y-122576666D01*
X149824866Y-122576666D02*
X149758200Y-122543333D01*
X149758200Y-122543333D02*
X149724866Y-122509999D01*
X149724866Y-122509999D02*
X149691533Y-122443333D01*
X150324866Y-121909999D02*
X150358200Y-121876666D01*
X150358200Y-121876666D02*
X150391533Y-121909999D01*
X150391533Y-121909999D02*
X150358200Y-121943332D01*
X150358200Y-121943332D02*
X150324866Y-121909999D01*
X150324866Y-121909999D02*
X150391533Y-121909999D01*
X149691533Y-121276666D02*
X149691533Y-121409999D01*
X149691533Y-121409999D02*
X149724866Y-121476666D01*
X149724866Y-121476666D02*
X149758200Y-121509999D01*
X149758200Y-121509999D02*
X149858200Y-121576666D01*
X149858200Y-121576666D02*
X149991533Y-121609999D01*
X149991533Y-121609999D02*
X150258200Y-121609999D01*
X150258200Y-121609999D02*
X150324866Y-121576666D01*
X150324866Y-121576666D02*
X150358200Y-121543333D01*
X150358200Y-121543333D02*
X150391533Y-121476666D01*
X150391533Y-121476666D02*
X150391533Y-121343333D01*
X150391533Y-121343333D02*
X150358200Y-121276666D01*
X150358200Y-121276666D02*
X150324866Y-121243333D01*
X150324866Y-121243333D02*
X150258200Y-121209999D01*
X150258200Y-121209999D02*
X150091533Y-121209999D01*
X150091533Y-121209999D02*
X150024866Y-121243333D01*
X150024866Y-121243333D02*
X149991533Y-121276666D01*
X149991533Y-121276666D02*
X149958200Y-121343333D01*
X149958200Y-121343333D02*
X149958200Y-121476666D01*
X149958200Y-121476666D02*
X149991533Y-121543333D01*
X149991533Y-121543333D02*
X150024866Y-121576666D01*
X150024866Y-121576666D02*
X150091533Y-121609999D01*
X150391533Y-124749999D02*
X150391533Y-125149999D01*
X150391533Y-124949999D02*
X149691533Y-124949999D01*
X149691533Y-124949999D02*
X149791533Y-125016666D01*
X149791533Y-125016666D02*
X149858200Y-125083333D01*
X149858200Y-125083333D02*
X149891533Y-125149999D01*
X150324866Y-124449999D02*
X150358200Y-124416666D01*
X150358200Y-124416666D02*
X150391533Y-124449999D01*
X150391533Y-124449999D02*
X150358200Y-124483332D01*
X150358200Y-124483332D02*
X150324866Y-124449999D01*
X150324866Y-124449999D02*
X150391533Y-124449999D01*
X149758200Y-124149999D02*
X149724866Y-124116666D01*
X149724866Y-124116666D02*
X149691533Y-124049999D01*
X149691533Y-124049999D02*
X149691533Y-123883333D01*
X149691533Y-123883333D02*
X149724866Y-123816666D01*
X149724866Y-123816666D02*
X149758200Y-123783333D01*
X149758200Y-123783333D02*
X149824866Y-123749999D01*
X149824866Y-123749999D02*
X149891533Y-123749999D01*
X149891533Y-123749999D02*
X149991533Y-123783333D01*
X149991533Y-123783333D02*
X150391533Y-124183333D01*
X150391533Y-124183333D02*
X150391533Y-123749999D01*
X150391533Y-127289999D02*
X150391533Y-127689999D01*
X150391533Y-127489999D02*
X149691533Y-127489999D01*
X149691533Y-127489999D02*
X149791533Y-127556666D01*
X149791533Y-127556666D02*
X149858200Y-127623333D01*
X149858200Y-127623333D02*
X149891533Y-127689999D01*
X150324866Y-126989999D02*
X150358200Y-126956666D01*
X150358200Y-126956666D02*
X150391533Y-126989999D01*
X150391533Y-126989999D02*
X150358200Y-127023332D01*
X150358200Y-127023332D02*
X150324866Y-126989999D01*
X150324866Y-126989999D02*
X150391533Y-126989999D01*
X150391533Y-126289999D02*
X150391533Y-126689999D01*
X150391533Y-126489999D02*
X149691533Y-126489999D01*
X149691533Y-126489999D02*
X149791533Y-126556666D01*
X149791533Y-126556666D02*
X149858200Y-126623333D01*
X149858200Y-126623333D02*
X149891533Y-126689999D01*
X150391533Y-129829999D02*
X150391533Y-130229999D01*
X150391533Y-130029999D02*
X149691533Y-130029999D01*
X149691533Y-130029999D02*
X149791533Y-130096666D01*
X149791533Y-130096666D02*
X149858200Y-130163333D01*
X149858200Y-130163333D02*
X149891533Y-130229999D01*
X150324866Y-129529999D02*
X150358200Y-129496666D01*
X150358200Y-129496666D02*
X150391533Y-129529999D01*
X150391533Y-129529999D02*
X150358200Y-129563332D01*
X150358200Y-129563332D02*
X150324866Y-129529999D01*
X150324866Y-129529999D02*
X150391533Y-129529999D01*
X149691533Y-128863333D02*
X149691533Y-129196666D01*
X149691533Y-129196666D02*
X150024866Y-129229999D01*
X150024866Y-129229999D02*
X149991533Y-129196666D01*
X149991533Y-129196666D02*
X149958200Y-129129999D01*
X149958200Y-129129999D02*
X149958200Y-128963333D01*
X149958200Y-128963333D02*
X149991533Y-128896666D01*
X149991533Y-128896666D02*
X150024866Y-128863333D01*
X150024866Y-128863333D02*
X150091533Y-128829999D01*
X150091533Y-128829999D02*
X150258200Y-128829999D01*
X150258200Y-128829999D02*
X150324866Y-128863333D01*
X150324866Y-128863333D02*
X150358200Y-128896666D01*
X150358200Y-128896666D02*
X150391533Y-128963333D01*
X150391533Y-128963333D02*
X150391533Y-129129999D01*
X150391533Y-129129999D02*
X150358200Y-129196666D01*
X150358200Y-129196666D02*
X150324866Y-129229999D01*
X150391533Y-132369999D02*
X150391533Y-132769999D01*
X150391533Y-132569999D02*
X149691533Y-132569999D01*
X149691533Y-132569999D02*
X149791533Y-132636666D01*
X149791533Y-132636666D02*
X149858200Y-132703333D01*
X149858200Y-132703333D02*
X149891533Y-132769999D01*
X150324866Y-132069999D02*
X150358200Y-132036666D01*
X150358200Y-132036666D02*
X150391533Y-132069999D01*
X150391533Y-132069999D02*
X150358200Y-132103332D01*
X150358200Y-132103332D02*
X150324866Y-132069999D01*
X150324866Y-132069999D02*
X150391533Y-132069999D01*
X149691533Y-131803333D02*
X149691533Y-131369999D01*
X149691533Y-131369999D02*
X149958200Y-131603333D01*
X149958200Y-131603333D02*
X149958200Y-131503333D01*
X149958200Y-131503333D02*
X149991533Y-131436666D01*
X149991533Y-131436666D02*
X150024866Y-131403333D01*
X150024866Y-131403333D02*
X150091533Y-131369999D01*
X150091533Y-131369999D02*
X150258200Y-131369999D01*
X150258200Y-131369999D02*
X150324866Y-131403333D01*
X150324866Y-131403333D02*
X150358200Y-131436666D01*
X150358200Y-131436666D02*
X150391533Y-131503333D01*
X150391533Y-131503333D02*
X150391533Y-131703333D01*
X150391533Y-131703333D02*
X150358200Y-131769999D01*
X150358200Y-131769999D02*
X150324866Y-131803333D01*
X149765350Y-96826033D02*
X149765350Y-96126033D01*
X150098683Y-96826033D02*
X150098683Y-96126033D01*
X150098683Y-96126033D02*
X150498683Y-96826033D01*
X150498683Y-96826033D02*
X150498683Y-96126033D01*
X150732016Y-96126033D02*
X151132016Y-96126033D01*
X150932016Y-96826033D02*
X150932016Y-96126033D01*
X149668684Y-95931700D02*
X151128683Y-95931700D01*
X159067982Y-96826033D02*
X158834649Y-96492700D01*
X158667982Y-96826033D02*
X158667982Y-96126033D01*
X158667982Y-96126033D02*
X158934649Y-96126033D01*
X158934649Y-96126033D02*
X159001316Y-96159366D01*
X159001316Y-96159366D02*
X159034649Y-96192700D01*
X159034649Y-96192700D02*
X159067982Y-96259366D01*
X159067982Y-96259366D02*
X159067982Y-96359366D01*
X159067982Y-96359366D02*
X159034649Y-96426033D01*
X159034649Y-96426033D02*
X159001316Y-96459366D01*
X159001316Y-96459366D02*
X158934649Y-96492700D01*
X158934649Y-96492700D02*
X158667982Y-96492700D01*
X159334649Y-96792700D02*
X159434649Y-96826033D01*
X159434649Y-96826033D02*
X159601316Y-96826033D01*
X159601316Y-96826033D02*
X159667982Y-96792700D01*
X159667982Y-96792700D02*
X159701316Y-96759366D01*
X159701316Y-96759366D02*
X159734649Y-96692700D01*
X159734649Y-96692700D02*
X159734649Y-96626033D01*
X159734649Y-96626033D02*
X159701316Y-96559366D01*
X159701316Y-96559366D02*
X159667982Y-96526033D01*
X159667982Y-96526033D02*
X159601316Y-96492700D01*
X159601316Y-96492700D02*
X159467982Y-96459366D01*
X159467982Y-96459366D02*
X159401316Y-96426033D01*
X159401316Y-96426033D02*
X159367982Y-96392700D01*
X159367982Y-96392700D02*
X159334649Y-96326033D01*
X159334649Y-96326033D02*
X159334649Y-96259366D01*
X159334649Y-96259366D02*
X159367982Y-96192700D01*
X159367982Y-96192700D02*
X159401316Y-96159366D01*
X159401316Y-96159366D02*
X159467982Y-96126033D01*
X159467982Y-96126033D02*
X159634649Y-96126033D01*
X159634649Y-96126033D02*
X159734649Y-96159366D01*
X159934649Y-96126033D02*
X160334649Y-96126033D01*
X160134649Y-96826033D02*
X160134649Y-96126033D01*
X158571316Y-95931700D02*
X160331316Y-95931700D01*
X158801316Y-91046033D02*
X159034650Y-91746033D01*
X159034650Y-91746033D02*
X159267983Y-91046033D01*
X159501316Y-91746033D02*
X159501316Y-91046033D01*
X159967983Y-91046033D02*
X160101316Y-91046033D01*
X160101316Y-91046033D02*
X160167983Y-91079366D01*
X160167983Y-91079366D02*
X160234649Y-91146033D01*
X160234649Y-91146033D02*
X160267983Y-91279366D01*
X160267983Y-91279366D02*
X160267983Y-91512700D01*
X160267983Y-91512700D02*
X160234649Y-91646033D01*
X160234649Y-91646033D02*
X160167983Y-91712700D01*
X160167983Y-91712700D02*
X160101316Y-91746033D01*
X160101316Y-91746033D02*
X159967983Y-91746033D01*
X159967983Y-91746033D02*
X159901316Y-91712700D01*
X159901316Y-91712700D02*
X159834649Y-91646033D01*
X159834649Y-91646033D02*
X159801316Y-91512700D01*
X159801316Y-91512700D02*
X159801316Y-91279366D01*
X159801316Y-91279366D02*
X159834649Y-91146033D01*
X159834649Y-91146033D02*
X159901316Y-91079366D01*
X159901316Y-91079366D02*
X159967983Y-91046033D01*
X158567982Y-88506033D02*
X159001315Y-88506033D01*
X159001315Y-88506033D02*
X158767982Y-88772700D01*
X158767982Y-88772700D02*
X158867982Y-88772700D01*
X158867982Y-88772700D02*
X158934648Y-88806033D01*
X158934648Y-88806033D02*
X158967982Y-88839366D01*
X158967982Y-88839366D02*
X159001315Y-88906033D01*
X159001315Y-88906033D02*
X159001315Y-89072700D01*
X159001315Y-89072700D02*
X158967982Y-89139366D01*
X158967982Y-89139366D02*
X158934648Y-89172700D01*
X158934648Y-89172700D02*
X158867982Y-89206033D01*
X158867982Y-89206033D02*
X158667982Y-89206033D01*
X158667982Y-89206033D02*
X158601315Y-89172700D01*
X158601315Y-89172700D02*
X158567982Y-89139366D01*
X159201315Y-88506033D02*
X159434649Y-89206033D01*
X159434649Y-89206033D02*
X159667982Y-88506033D01*
X159834649Y-88506033D02*
X160267982Y-88506033D01*
X160267982Y-88506033D02*
X160034649Y-88772700D01*
X160034649Y-88772700D02*
X160134649Y-88772700D01*
X160134649Y-88772700D02*
X160201315Y-88806033D01*
X160201315Y-88806033D02*
X160234649Y-88839366D01*
X160234649Y-88839366D02*
X160267982Y-88906033D01*
X160267982Y-88906033D02*
X160267982Y-89072700D01*
X160267982Y-89072700D02*
X160234649Y-89139366D01*
X160234649Y-89139366D02*
X160201315Y-89172700D01*
X160201315Y-89172700D02*
X160134649Y-89206033D01*
X160134649Y-89206033D02*
X159934649Y-89206033D01*
X159934649Y-89206033D02*
X159867982Y-89172700D01*
X159867982Y-89172700D02*
X159834649Y-89139366D01*
X158801316Y-134259366D02*
X158734649Y-134226033D01*
X158734649Y-134226033D02*
X158634649Y-134226033D01*
X158634649Y-134226033D02*
X158534649Y-134259366D01*
X158534649Y-134259366D02*
X158467983Y-134326033D01*
X158467983Y-134326033D02*
X158434649Y-134392700D01*
X158434649Y-134392700D02*
X158401316Y-134526033D01*
X158401316Y-134526033D02*
X158401316Y-134626033D01*
X158401316Y-134626033D02*
X158434649Y-134759366D01*
X158434649Y-134759366D02*
X158467983Y-134826033D01*
X158467983Y-134826033D02*
X158534649Y-134892700D01*
X158534649Y-134892700D02*
X158634649Y-134926033D01*
X158634649Y-134926033D02*
X158701316Y-134926033D01*
X158701316Y-134926033D02*
X158801316Y-134892700D01*
X158801316Y-134892700D02*
X158834649Y-134859366D01*
X158834649Y-134859366D02*
X158834649Y-134626033D01*
X158834649Y-134626033D02*
X158701316Y-134626033D01*
X159134649Y-134926033D02*
X159134649Y-134226033D01*
X159134649Y-134226033D02*
X159534649Y-134926033D01*
X159534649Y-134926033D02*
X159534649Y-134226033D01*
X159867982Y-134926033D02*
X159867982Y-134226033D01*
X159867982Y-134226033D02*
X160034649Y-134226033D01*
X160034649Y-134226033D02*
X160134649Y-134259366D01*
X160134649Y-134259366D02*
X160201316Y-134326033D01*
X160201316Y-134326033D02*
X160234649Y-134392700D01*
X160234649Y-134392700D02*
X160267982Y-134526033D01*
X160267982Y-134526033D02*
X160267982Y-134626033D01*
X160267982Y-134626033D02*
X160234649Y-134759366D01*
X160234649Y-134759366D02*
X160201316Y-134826033D01*
X160201316Y-134826033D02*
X160134649Y-134892700D01*
X160134649Y-134892700D02*
X160034649Y-134926033D01*
X160034649Y-134926033D02*
X159867982Y-134926033D01*
X158801316Y-98699366D02*
X158734649Y-98666033D01*
X158734649Y-98666033D02*
X158634649Y-98666033D01*
X158634649Y-98666033D02*
X158534649Y-98699366D01*
X158534649Y-98699366D02*
X158467983Y-98766033D01*
X158467983Y-98766033D02*
X158434649Y-98832700D01*
X158434649Y-98832700D02*
X158401316Y-98966033D01*
X158401316Y-98966033D02*
X158401316Y-99066033D01*
X158401316Y-99066033D02*
X158434649Y-99199366D01*
X158434649Y-99199366D02*
X158467983Y-99266033D01*
X158467983Y-99266033D02*
X158534649Y-99332700D01*
X158534649Y-99332700D02*
X158634649Y-99366033D01*
X158634649Y-99366033D02*
X158701316Y-99366033D01*
X158701316Y-99366033D02*
X158801316Y-99332700D01*
X158801316Y-99332700D02*
X158834649Y-99299366D01*
X158834649Y-99299366D02*
X158834649Y-99066033D01*
X158834649Y-99066033D02*
X158701316Y-99066033D01*
X159134649Y-99366033D02*
X159134649Y-98666033D01*
X159134649Y-98666033D02*
X159534649Y-99366033D01*
X159534649Y-99366033D02*
X159534649Y-98666033D01*
X159867982Y-99366033D02*
X159867982Y-98666033D01*
X159867982Y-98666033D02*
X160034649Y-98666033D01*
X160034649Y-98666033D02*
X160134649Y-98699366D01*
X160134649Y-98699366D02*
X160201316Y-98766033D01*
X160201316Y-98766033D02*
X160234649Y-98832700D01*
X160234649Y-98832700D02*
X160267982Y-98966033D01*
X160267982Y-98966033D02*
X160267982Y-99066033D01*
X160267982Y-99066033D02*
X160234649Y-99199366D01*
X160234649Y-99199366D02*
X160201316Y-99266033D01*
X160201316Y-99266033D02*
X160134649Y-99332700D01*
X160134649Y-99332700D02*
X160034649Y-99366033D01*
X160034649Y-99366033D02*
X159867982Y-99366033D01*
X158801316Y-93619366D02*
X158734649Y-93586033D01*
X158734649Y-93586033D02*
X158634649Y-93586033D01*
X158634649Y-93586033D02*
X158534649Y-93619366D01*
X158534649Y-93619366D02*
X158467983Y-93686033D01*
X158467983Y-93686033D02*
X158434649Y-93752700D01*
X158434649Y-93752700D02*
X158401316Y-93886033D01*
X158401316Y-93886033D02*
X158401316Y-93986033D01*
X158401316Y-93986033D02*
X158434649Y-94119366D01*
X158434649Y-94119366D02*
X158467983Y-94186033D01*
X158467983Y-94186033D02*
X158534649Y-94252700D01*
X158534649Y-94252700D02*
X158634649Y-94286033D01*
X158634649Y-94286033D02*
X158701316Y-94286033D01*
X158701316Y-94286033D02*
X158801316Y-94252700D01*
X158801316Y-94252700D02*
X158834649Y-94219366D01*
X158834649Y-94219366D02*
X158834649Y-93986033D01*
X158834649Y-93986033D02*
X158701316Y-93986033D01*
X159134649Y-94286033D02*
X159134649Y-93586033D01*
X159134649Y-93586033D02*
X159534649Y-94286033D01*
X159534649Y-94286033D02*
X159534649Y-93586033D01*
X159867982Y-94286033D02*
X159867982Y-93586033D01*
X159867982Y-93586033D02*
X160034649Y-93586033D01*
X160034649Y-93586033D02*
X160134649Y-93619366D01*
X160134649Y-93619366D02*
X160201316Y-93686033D01*
X160201316Y-93686033D02*
X160234649Y-93752700D01*
X160234649Y-93752700D02*
X160267982Y-93886033D01*
X160267982Y-93886033D02*
X160267982Y-93986033D01*
X160267982Y-93986033D02*
X160234649Y-94119366D01*
X160234649Y-94119366D02*
X160201316Y-94186033D01*
X160201316Y-94186033D02*
X160134649Y-94252700D01*
X160134649Y-94252700D02*
X160034649Y-94286033D01*
X160034649Y-94286033D02*
X159867982Y-94286033D01*
X150132017Y-134259366D02*
X150065350Y-134226033D01*
X150065350Y-134226033D02*
X149965350Y-134226033D01*
X149965350Y-134226033D02*
X149865350Y-134259366D01*
X149865350Y-134259366D02*
X149798684Y-134326033D01*
X149798684Y-134326033D02*
X149765350Y-134392700D01*
X149765350Y-134392700D02*
X149732017Y-134526033D01*
X149732017Y-134526033D02*
X149732017Y-134626033D01*
X149732017Y-134626033D02*
X149765350Y-134759366D01*
X149765350Y-134759366D02*
X149798684Y-134826033D01*
X149798684Y-134826033D02*
X149865350Y-134892700D01*
X149865350Y-134892700D02*
X149965350Y-134926033D01*
X149965350Y-134926033D02*
X150032017Y-134926033D01*
X150032017Y-134926033D02*
X150132017Y-134892700D01*
X150132017Y-134892700D02*
X150165350Y-134859366D01*
X150165350Y-134859366D02*
X150165350Y-134626033D01*
X150165350Y-134626033D02*
X150032017Y-134626033D01*
X150465350Y-134926033D02*
X150465350Y-134226033D01*
X150465350Y-134226033D02*
X150865350Y-134926033D01*
X150865350Y-134926033D02*
X150865350Y-134226033D01*
X151198683Y-134926033D02*
X151198683Y-134226033D01*
X151198683Y-134226033D02*
X151365350Y-134226033D01*
X151365350Y-134226033D02*
X151465350Y-134259366D01*
X151465350Y-134259366D02*
X151532017Y-134326033D01*
X151532017Y-134326033D02*
X151565350Y-134392700D01*
X151565350Y-134392700D02*
X151598683Y-134526033D01*
X151598683Y-134526033D02*
X151598683Y-134626033D01*
X151598683Y-134626033D02*
X151565350Y-134759366D01*
X151565350Y-134759366D02*
X151532017Y-134826033D01*
X151532017Y-134826033D02*
X151465350Y-134892700D01*
X151465350Y-134892700D02*
X151365350Y-134926033D01*
X151365350Y-134926033D02*
X151198683Y-134926033D01*
X150132017Y-98699366D02*
X150065350Y-98666033D01*
X150065350Y-98666033D02*
X149965350Y-98666033D01*
X149965350Y-98666033D02*
X149865350Y-98699366D01*
X149865350Y-98699366D02*
X149798684Y-98766033D01*
X149798684Y-98766033D02*
X149765350Y-98832700D01*
X149765350Y-98832700D02*
X149732017Y-98966033D01*
X149732017Y-98966033D02*
X149732017Y-99066033D01*
X149732017Y-99066033D02*
X149765350Y-99199366D01*
X149765350Y-99199366D02*
X149798684Y-99266033D01*
X149798684Y-99266033D02*
X149865350Y-99332700D01*
X149865350Y-99332700D02*
X149965350Y-99366033D01*
X149965350Y-99366033D02*
X150032017Y-99366033D01*
X150032017Y-99366033D02*
X150132017Y-99332700D01*
X150132017Y-99332700D02*
X150165350Y-99299366D01*
X150165350Y-99299366D02*
X150165350Y-99066033D01*
X150165350Y-99066033D02*
X150032017Y-99066033D01*
X150465350Y-99366033D02*
X150465350Y-98666033D01*
X150465350Y-98666033D02*
X150865350Y-99366033D01*
X150865350Y-99366033D02*
X150865350Y-98666033D01*
X151198683Y-99366033D02*
X151198683Y-98666033D01*
X151198683Y-98666033D02*
X151365350Y-98666033D01*
X151365350Y-98666033D02*
X151465350Y-98699366D01*
X151465350Y-98699366D02*
X151532017Y-98766033D01*
X151532017Y-98766033D02*
X151565350Y-98832700D01*
X151565350Y-98832700D02*
X151598683Y-98966033D01*
X151598683Y-98966033D02*
X151598683Y-99066033D01*
X151598683Y-99066033D02*
X151565350Y-99199366D01*
X151565350Y-99199366D02*
X151532017Y-99266033D01*
X151532017Y-99266033D02*
X151465350Y-99332700D01*
X151465350Y-99332700D02*
X151365350Y-99366033D01*
X151365350Y-99366033D02*
X151198683Y-99366033D01*
X150132017Y-93619366D02*
X150065350Y-93586033D01*
X150065350Y-93586033D02*
X149965350Y-93586033D01*
X149965350Y-93586033D02*
X149865350Y-93619366D01*
X149865350Y-93619366D02*
X149798684Y-93686033D01*
X149798684Y-93686033D02*
X149765350Y-93752700D01*
X149765350Y-93752700D02*
X149732017Y-93886033D01*
X149732017Y-93886033D02*
X149732017Y-93986033D01*
X149732017Y-93986033D02*
X149765350Y-94119366D01*
X149765350Y-94119366D02*
X149798684Y-94186033D01*
X149798684Y-94186033D02*
X149865350Y-94252700D01*
X149865350Y-94252700D02*
X149965350Y-94286033D01*
X149965350Y-94286033D02*
X150032017Y-94286033D01*
X150032017Y-94286033D02*
X150132017Y-94252700D01*
X150132017Y-94252700D02*
X150165350Y-94219366D01*
X150165350Y-94219366D02*
X150165350Y-93986033D01*
X150165350Y-93986033D02*
X150032017Y-93986033D01*
X150465350Y-94286033D02*
X150465350Y-93586033D01*
X150465350Y-93586033D02*
X150865350Y-94286033D01*
X150865350Y-94286033D02*
X150865350Y-93586033D01*
X151198683Y-94286033D02*
X151198683Y-93586033D01*
X151198683Y-93586033D02*
X151365350Y-93586033D01*
X151365350Y-93586033D02*
X151465350Y-93619366D01*
X151465350Y-93619366D02*
X151532017Y-93686033D01*
X151532017Y-93686033D02*
X151565350Y-93752700D01*
X151565350Y-93752700D02*
X151598683Y-93886033D01*
X151598683Y-93886033D02*
X151598683Y-93986033D01*
X151598683Y-93986033D02*
X151565350Y-94119366D01*
X151565350Y-94119366D02*
X151532017Y-94186033D01*
X151532017Y-94186033D02*
X151465350Y-94252700D01*
X151465350Y-94252700D02*
X151365350Y-94286033D01*
X151365350Y-94286033D02*
X151198683Y-94286033D01*
X149732017Y-91712700D02*
X149832017Y-91746033D01*
X149832017Y-91746033D02*
X149998684Y-91746033D01*
X149998684Y-91746033D02*
X150065350Y-91712700D01*
X150065350Y-91712700D02*
X150098684Y-91679366D01*
X150098684Y-91679366D02*
X150132017Y-91612700D01*
X150132017Y-91612700D02*
X150132017Y-91546033D01*
X150132017Y-91546033D02*
X150098684Y-91479366D01*
X150098684Y-91479366D02*
X150065350Y-91446033D01*
X150065350Y-91446033D02*
X149998684Y-91412700D01*
X149998684Y-91412700D02*
X149865350Y-91379366D01*
X149865350Y-91379366D02*
X149798684Y-91346033D01*
X149798684Y-91346033D02*
X149765350Y-91312700D01*
X149765350Y-91312700D02*
X149732017Y-91246033D01*
X149732017Y-91246033D02*
X149732017Y-91179366D01*
X149732017Y-91179366D02*
X149765350Y-91112700D01*
X149765350Y-91112700D02*
X149798684Y-91079366D01*
X149798684Y-91079366D02*
X149865350Y-91046033D01*
X149865350Y-91046033D02*
X150032017Y-91046033D01*
X150032017Y-91046033D02*
X150132017Y-91079366D01*
X150432017Y-91746033D02*
X150432017Y-91046033D01*
X150432017Y-91046033D02*
X150598684Y-91046033D01*
X150598684Y-91046033D02*
X150698684Y-91079366D01*
X150698684Y-91079366D02*
X150765351Y-91146033D01*
X150765351Y-91146033D02*
X150798684Y-91212700D01*
X150798684Y-91212700D02*
X150832017Y-91346033D01*
X150832017Y-91346033D02*
X150832017Y-91446033D01*
X150832017Y-91446033D02*
X150798684Y-91579366D01*
X150798684Y-91579366D02*
X150765351Y-91646033D01*
X150765351Y-91646033D02*
X150698684Y-91712700D01*
X150698684Y-91712700D02*
X150598684Y-91746033D01*
X150598684Y-91746033D02*
X150432017Y-91746033D01*
X151098684Y-91546033D02*
X151432017Y-91546033D01*
X151032017Y-91746033D02*
X151265351Y-91046033D01*
X151265351Y-91046033D02*
X151498684Y-91746033D01*
X149732017Y-89172700D02*
X149832017Y-89206033D01*
X149832017Y-89206033D02*
X149998684Y-89206033D01*
X149998684Y-89206033D02*
X150065350Y-89172700D01*
X150065350Y-89172700D02*
X150098684Y-89139366D01*
X150098684Y-89139366D02*
X150132017Y-89072700D01*
X150132017Y-89072700D02*
X150132017Y-89006033D01*
X150132017Y-89006033D02*
X150098684Y-88939366D01*
X150098684Y-88939366D02*
X150065350Y-88906033D01*
X150065350Y-88906033D02*
X149998684Y-88872700D01*
X149998684Y-88872700D02*
X149865350Y-88839366D01*
X149865350Y-88839366D02*
X149798684Y-88806033D01*
X149798684Y-88806033D02*
X149765350Y-88772700D01*
X149765350Y-88772700D02*
X149732017Y-88706033D01*
X149732017Y-88706033D02*
X149732017Y-88639366D01*
X149732017Y-88639366D02*
X149765350Y-88572700D01*
X149765350Y-88572700D02*
X149798684Y-88539366D01*
X149798684Y-88539366D02*
X149865350Y-88506033D01*
X149865350Y-88506033D02*
X150032017Y-88506033D01*
X150032017Y-88506033D02*
X150132017Y-88539366D01*
X150832017Y-89139366D02*
X150798684Y-89172700D01*
X150798684Y-89172700D02*
X150698684Y-89206033D01*
X150698684Y-89206033D02*
X150632017Y-89206033D01*
X150632017Y-89206033D02*
X150532017Y-89172700D01*
X150532017Y-89172700D02*
X150465351Y-89106033D01*
X150465351Y-89106033D02*
X150432017Y-89039366D01*
X150432017Y-89039366D02*
X150398684Y-88906033D01*
X150398684Y-88906033D02*
X150398684Y-88806033D01*
X150398684Y-88806033D02*
X150432017Y-88672700D01*
X150432017Y-88672700D02*
X150465351Y-88606033D01*
X150465351Y-88606033D02*
X150532017Y-88539366D01*
X150532017Y-88539366D02*
X150632017Y-88506033D01*
X150632017Y-88506033D02*
X150698684Y-88506033D01*
X150698684Y-88506033D02*
X150798684Y-88539366D01*
X150798684Y-88539366D02*
X150832017Y-88572700D01*
X151465351Y-89206033D02*
X151132017Y-89206033D01*
X151132017Y-89206033D02*
X151132017Y-88506033D01*
X158801316Y-85999366D02*
X158734649Y-85966033D01*
X158734649Y-85966033D02*
X158634649Y-85966033D01*
X158634649Y-85966033D02*
X158534649Y-85999366D01*
X158534649Y-85999366D02*
X158467983Y-86066033D01*
X158467983Y-86066033D02*
X158434649Y-86132700D01*
X158434649Y-86132700D02*
X158401316Y-86266033D01*
X158401316Y-86266033D02*
X158401316Y-86366033D01*
X158401316Y-86366033D02*
X158434649Y-86499366D01*
X158434649Y-86499366D02*
X158467983Y-86566033D01*
X158467983Y-86566033D02*
X158534649Y-86632700D01*
X158534649Y-86632700D02*
X158634649Y-86666033D01*
X158634649Y-86666033D02*
X158701316Y-86666033D01*
X158701316Y-86666033D02*
X158801316Y-86632700D01*
X158801316Y-86632700D02*
X158834649Y-86599366D01*
X158834649Y-86599366D02*
X158834649Y-86366033D01*
X158834649Y-86366033D02*
X158701316Y-86366033D01*
X159134649Y-86666033D02*
X159134649Y-85966033D01*
X159134649Y-85966033D02*
X159534649Y-86666033D01*
X159534649Y-86666033D02*
X159534649Y-85966033D01*
X159867982Y-86666033D02*
X159867982Y-85966033D01*
X159867982Y-85966033D02*
X160034649Y-85966033D01*
X160034649Y-85966033D02*
X160134649Y-85999366D01*
X160134649Y-85999366D02*
X160201316Y-86066033D01*
X160201316Y-86066033D02*
X160234649Y-86132700D01*
X160234649Y-86132700D02*
X160267982Y-86266033D01*
X160267982Y-86266033D02*
X160267982Y-86366033D01*
X160267982Y-86366033D02*
X160234649Y-86499366D01*
X160234649Y-86499366D02*
X160201316Y-86566033D01*
X160201316Y-86566033D02*
X160134649Y-86632700D01*
X160134649Y-86632700D02*
X160034649Y-86666033D01*
X160034649Y-86666033D02*
X159867982Y-86666033D01*
X150132017Y-85999366D02*
X150065350Y-85966033D01*
X150065350Y-85966033D02*
X149965350Y-85966033D01*
X149965350Y-85966033D02*
X149865350Y-85999366D01*
X149865350Y-85999366D02*
X149798684Y-86066033D01*
X149798684Y-86066033D02*
X149765350Y-86132700D01*
X149765350Y-86132700D02*
X149732017Y-86266033D01*
X149732017Y-86266033D02*
X149732017Y-86366033D01*
X149732017Y-86366033D02*
X149765350Y-86499366D01*
X149765350Y-86499366D02*
X149798684Y-86566033D01*
X149798684Y-86566033D02*
X149865350Y-86632700D01*
X149865350Y-86632700D02*
X149965350Y-86666033D01*
X149965350Y-86666033D02*
X150032017Y-86666033D01*
X150032017Y-86666033D02*
X150132017Y-86632700D01*
X150132017Y-86632700D02*
X150165350Y-86599366D01*
X150165350Y-86599366D02*
X150165350Y-86366033D01*
X150165350Y-86366033D02*
X150032017Y-86366033D01*
X150465350Y-86666033D02*
X150465350Y-85966033D01*
X150465350Y-85966033D02*
X150865350Y-86666033D01*
X150865350Y-86666033D02*
X150865350Y-85966033D01*
X151198683Y-86666033D02*
X151198683Y-85966033D01*
X151198683Y-85966033D02*
X151365350Y-85966033D01*
X151365350Y-85966033D02*
X151465350Y-85999366D01*
X151465350Y-85999366D02*
X151532017Y-86066033D01*
X151532017Y-86066033D02*
X151565350Y-86132700D01*
X151565350Y-86132700D02*
X151598683Y-86266033D01*
X151598683Y-86266033D02*
X151598683Y-86366033D01*
X151598683Y-86366033D02*
X151565350Y-86499366D01*
X151565350Y-86499366D02*
X151532017Y-86566033D01*
X151532017Y-86566033D02*
X151465350Y-86632700D01*
X151465350Y-86632700D02*
X151365350Y-86666033D01*
X151365350Y-86666033D02*
X151198683Y-86666033D01*
X153144572Y-99072665D02*
X152444572Y-99072665D01*
X152444572Y-98605999D02*
X152444572Y-98472665D01*
X152444572Y-98472665D02*
X152477905Y-98405999D01*
X152477905Y-98405999D02*
X152544572Y-98339332D01*
X152544572Y-98339332D02*
X152677905Y-98305999D01*
X152677905Y-98305999D02*
X152911239Y-98305999D01*
X152911239Y-98305999D02*
X153044572Y-98339332D01*
X153044572Y-98339332D02*
X153111239Y-98405999D01*
X153111239Y-98405999D02*
X153144572Y-98472665D01*
X153144572Y-98472665D02*
X153144572Y-98605999D01*
X153144572Y-98605999D02*
X153111239Y-98672665D01*
X153111239Y-98672665D02*
X153044572Y-98739332D01*
X153044572Y-98739332D02*
X152911239Y-98772665D01*
X152911239Y-98772665D02*
X152677905Y-98772665D01*
X152677905Y-98772665D02*
X152544572Y-98739332D01*
X152544572Y-98739332D02*
X152477905Y-98672665D01*
X152477905Y-98672665D02*
X152444572Y-98605999D01*
X152444572Y-97572666D02*
X153144572Y-97339333D01*
X153144572Y-97339333D02*
X152444572Y-97105999D01*
X152444572Y-96739333D02*
X152444572Y-96605999D01*
X152444572Y-96605999D02*
X152477905Y-96539333D01*
X152477905Y-96539333D02*
X152544572Y-96472666D01*
X152544572Y-96472666D02*
X152677905Y-96439333D01*
X152677905Y-96439333D02*
X152911239Y-96439333D01*
X152911239Y-96439333D02*
X153044572Y-96472666D01*
X153044572Y-96472666D02*
X153111239Y-96539333D01*
X153111239Y-96539333D02*
X153144572Y-96605999D01*
X153144572Y-96605999D02*
X153144572Y-96739333D01*
X153144572Y-96739333D02*
X153111239Y-96805999D01*
X153111239Y-96805999D02*
X153044572Y-96872666D01*
X153044572Y-96872666D02*
X152911239Y-96905999D01*
X152911239Y-96905999D02*
X152677905Y-96905999D01*
X152677905Y-96905999D02*
X152544572Y-96872666D01*
X152544572Y-96872666D02*
X152477905Y-96805999D01*
X152477905Y-96805999D02*
X152444572Y-96739333D01*
X153144572Y-95806000D02*
X153144572Y-96139333D01*
X153144572Y-96139333D02*
X152444572Y-96139333D01*
X152444572Y-95672666D02*
X152444572Y-95272666D01*
X153144572Y-95472666D02*
X152444572Y-95472666D01*
X152944572Y-95072666D02*
X152944572Y-94739333D01*
X153144572Y-95139333D02*
X152444572Y-94906000D01*
X152444572Y-94906000D02*
X153144572Y-94672666D01*
X152477905Y-94072666D02*
X152444572Y-94139333D01*
X152444572Y-94139333D02*
X152444572Y-94239333D01*
X152444572Y-94239333D02*
X152477905Y-94339333D01*
X152477905Y-94339333D02*
X152544572Y-94406000D01*
X152544572Y-94406000D02*
X152611239Y-94439333D01*
X152611239Y-94439333D02*
X152744572Y-94472666D01*
X152744572Y-94472666D02*
X152844572Y-94472666D01*
X152844572Y-94472666D02*
X152977905Y-94439333D01*
X152977905Y-94439333D02*
X153044572Y-94406000D01*
X153044572Y-94406000D02*
X153111239Y-94339333D01*
X153111239Y-94339333D02*
X153144572Y-94239333D01*
X153144572Y-94239333D02*
X153144572Y-94172666D01*
X153144572Y-94172666D02*
X153111239Y-94072666D01*
X153111239Y-94072666D02*
X153077905Y-94039333D01*
X153077905Y-94039333D02*
X152844572Y-94039333D01*
X152844572Y-94039333D02*
X152844572Y-94172666D01*
X152777905Y-93739333D02*
X152777905Y-93506000D01*
X153144572Y-93406000D02*
X153144572Y-93739333D01*
X153144572Y-93739333D02*
X152444572Y-93739333D01*
X152444572Y-93739333D02*
X152444572Y-93406000D01*
X153571533Y-99822666D02*
X154271533Y-99589333D01*
X154271533Y-99589333D02*
X153571533Y-99355999D01*
X154271533Y-99122666D02*
X153571533Y-99122666D01*
X153571533Y-98656000D02*
X153571533Y-98522666D01*
X153571533Y-98522666D02*
X153604866Y-98456000D01*
X153604866Y-98456000D02*
X153671533Y-98389333D01*
X153671533Y-98389333D02*
X153804866Y-98356000D01*
X153804866Y-98356000D02*
X154038200Y-98356000D01*
X154038200Y-98356000D02*
X154171533Y-98389333D01*
X154171533Y-98389333D02*
X154238200Y-98456000D01*
X154238200Y-98456000D02*
X154271533Y-98522666D01*
X154271533Y-98522666D02*
X154271533Y-98656000D01*
X154271533Y-98656000D02*
X154238200Y-98722666D01*
X154238200Y-98722666D02*
X154171533Y-98789333D01*
X154171533Y-98789333D02*
X154038200Y-98822666D01*
X154038200Y-98822666D02*
X153804866Y-98822666D01*
X153804866Y-98822666D02*
X153671533Y-98789333D01*
X153671533Y-98789333D02*
X153604866Y-98722666D01*
X153604866Y-98722666D02*
X153571533Y-98656000D01*
X153804866Y-96989334D02*
X154004866Y-97522667D01*
X154004866Y-97522667D02*
X154204866Y-96989334D01*
X154004866Y-96656000D02*
X154004866Y-96122667D01*
X153804866Y-95789333D02*
X154004866Y-95256000D01*
X154004866Y-95256000D02*
X154204866Y-95789333D01*
X153571533Y-94456000D02*
X153571533Y-94022666D01*
X153571533Y-94022666D02*
X153838200Y-94256000D01*
X153838200Y-94256000D02*
X153838200Y-94156000D01*
X153838200Y-94156000D02*
X153871533Y-94089333D01*
X153871533Y-94089333D02*
X153904866Y-94056000D01*
X153904866Y-94056000D02*
X153971533Y-94022666D01*
X153971533Y-94022666D02*
X154138200Y-94022666D01*
X154138200Y-94022666D02*
X154204866Y-94056000D01*
X154204866Y-94056000D02*
X154238200Y-94089333D01*
X154238200Y-94089333D02*
X154271533Y-94156000D01*
X154271533Y-94156000D02*
X154271533Y-94356000D01*
X154271533Y-94356000D02*
X154238200Y-94422666D01*
X154238200Y-94422666D02*
X154204866Y-94456000D01*
X153571533Y-93822666D02*
X154271533Y-93589333D01*
X154271533Y-93589333D02*
X153571533Y-93355999D01*
X153571533Y-93189333D02*
X153571533Y-92755999D01*
X153571533Y-92755999D02*
X153838200Y-92989333D01*
X153838200Y-92989333D02*
X153838200Y-92889333D01*
X153838200Y-92889333D02*
X153871533Y-92822666D01*
X153871533Y-92822666D02*
X153904866Y-92789333D01*
X153904866Y-92789333D02*
X153971533Y-92755999D01*
X153971533Y-92755999D02*
X154138200Y-92755999D01*
X154138200Y-92755999D02*
X154204866Y-92789333D01*
X154204866Y-92789333D02*
X154238200Y-92822666D01*
X154238200Y-92822666D02*
X154271533Y-92889333D01*
X154271533Y-92889333D02*
X154271533Y-93089333D01*
X154271533Y-93089333D02*
X154238200Y-93155999D01*
X154238200Y-93155999D02*
X154204866Y-93189333D01*
D13*
X154794999Y-122345411D02*
X154794999Y-122773982D01*
X154794999Y-122773982D02*
X154766428Y-122859697D01*
X154766428Y-122859697D02*
X154709285Y-122916840D01*
X154709285Y-122916840D02*
X154623571Y-122945411D01*
X154623571Y-122945411D02*
X154566428Y-122945411D01*
X155337857Y-122545411D02*
X155337857Y-122945411D01*
X155194999Y-122316840D02*
X155052142Y-122745411D01*
X155052142Y-122745411D02*
X155423571Y-122745411D01*
X154542857Y-108049411D02*
X154542857Y-108535125D01*
X154542857Y-108535125D02*
X154571428Y-108592268D01*
X154571428Y-108592268D02*
X154600000Y-108620840D01*
X154600000Y-108620840D02*
X154657142Y-108649411D01*
X154657142Y-108649411D02*
X154771428Y-108649411D01*
X154771428Y-108649411D02*
X154828571Y-108620840D01*
X154828571Y-108620840D02*
X154857142Y-108592268D01*
X154857142Y-108592268D02*
X154885714Y-108535125D01*
X154885714Y-108535125D02*
X154885714Y-108049411D01*
X155485713Y-108649411D02*
X155142856Y-108649411D01*
X155314285Y-108649411D02*
X155314285Y-108049411D01*
X155314285Y-108049411D02*
X155257142Y-108135125D01*
X155257142Y-108135125D02*
X155199999Y-108192268D01*
X155199999Y-108192268D02*
X155142856Y-108220840D01*
X151463411Y-104864999D02*
X151177697Y-105064999D01*
X151463411Y-105207856D02*
X150863411Y-105207856D01*
X150863411Y-105207856D02*
X150863411Y-104979285D01*
X150863411Y-104979285D02*
X150891982Y-104922142D01*
X150891982Y-104922142D02*
X150920554Y-104893571D01*
X150920554Y-104893571D02*
X150977697Y-104864999D01*
X150977697Y-104864999D02*
X151063411Y-104864999D01*
X151063411Y-104864999D02*
X151120554Y-104893571D01*
X151120554Y-104893571D02*
X151149125Y-104922142D01*
X151149125Y-104922142D02*
X151177697Y-104979285D01*
X151177697Y-104979285D02*
X151177697Y-105207856D01*
X151063411Y-104350714D02*
X151463411Y-104350714D01*
X150834840Y-104493571D02*
X151263411Y-104636428D01*
X151263411Y-104636428D02*
X151263411Y-104264999D01*
X157686411Y-105497999D02*
X157400697Y-105697999D01*
X157686411Y-105840856D02*
X157086411Y-105840856D01*
X157086411Y-105840856D02*
X157086411Y-105612285D01*
X157086411Y-105612285D02*
X157114982Y-105555142D01*
X157114982Y-105555142D02*
X157143554Y-105526571D01*
X157143554Y-105526571D02*
X157200697Y-105497999D01*
X157200697Y-105497999D02*
X157286411Y-105497999D01*
X157286411Y-105497999D02*
X157343554Y-105526571D01*
X157343554Y-105526571D02*
X157372125Y-105555142D01*
X157372125Y-105555142D02*
X157400697Y-105612285D01*
X157400697Y-105612285D02*
X157400697Y-105840856D01*
X157086411Y-105297999D02*
X157086411Y-104926571D01*
X157086411Y-104926571D02*
X157314982Y-105126571D01*
X157314982Y-105126571D02*
X157314982Y-105040856D01*
X157314982Y-105040856D02*
X157343554Y-104983714D01*
X157343554Y-104983714D02*
X157372125Y-104955142D01*
X157372125Y-104955142D02*
X157429268Y-104926571D01*
X157429268Y-104926571D02*
X157572125Y-104926571D01*
X157572125Y-104926571D02*
X157629268Y-104955142D01*
X157629268Y-104955142D02*
X157657840Y-104983714D01*
X157657840Y-104983714D02*
X157686411Y-105040856D01*
X157686411Y-105040856D02*
X157686411Y-105212285D01*
X157686411Y-105212285D02*
X157657840Y-105269428D01*
X157657840Y-105269428D02*
X157629268Y-105297999D01*
X156359268Y-105499999D02*
X156387840Y-105528571D01*
X156387840Y-105528571D02*
X156416411Y-105614285D01*
X156416411Y-105614285D02*
X156416411Y-105671428D01*
X156416411Y-105671428D02*
X156387840Y-105757142D01*
X156387840Y-105757142D02*
X156330697Y-105814285D01*
X156330697Y-105814285D02*
X156273554Y-105842856D01*
X156273554Y-105842856D02*
X156159268Y-105871428D01*
X156159268Y-105871428D02*
X156073554Y-105871428D01*
X156073554Y-105871428D02*
X155959268Y-105842856D01*
X155959268Y-105842856D02*
X155902125Y-105814285D01*
X155902125Y-105814285D02*
X155844982Y-105757142D01*
X155844982Y-105757142D02*
X155816411Y-105671428D01*
X155816411Y-105671428D02*
X155816411Y-105614285D01*
X155816411Y-105614285D02*
X155844982Y-105528571D01*
X155844982Y-105528571D02*
X155873554Y-105499999D01*
X156416411Y-104928571D02*
X156416411Y-105271428D01*
X156416411Y-105099999D02*
X155816411Y-105099999D01*
X155816411Y-105099999D02*
X155902125Y-105157142D01*
X155902125Y-105157142D02*
X155959268Y-105214285D01*
X155959268Y-105214285D02*
X155987840Y-105271428D01*
X151463411Y-107404999D02*
X151177697Y-107604999D01*
X151463411Y-107747856D02*
X150863411Y-107747856D01*
X150863411Y-107747856D02*
X150863411Y-107519285D01*
X150863411Y-107519285D02*
X150891982Y-107462142D01*
X150891982Y-107462142D02*
X150920554Y-107433571D01*
X150920554Y-107433571D02*
X150977697Y-107404999D01*
X150977697Y-107404999D02*
X151063411Y-107404999D01*
X151063411Y-107404999D02*
X151120554Y-107433571D01*
X151120554Y-107433571D02*
X151149125Y-107462142D01*
X151149125Y-107462142D02*
X151177697Y-107519285D01*
X151177697Y-107519285D02*
X151177697Y-107747856D01*
X150920554Y-107176428D02*
X150891982Y-107147856D01*
X150891982Y-107147856D02*
X150863411Y-107090714D01*
X150863411Y-107090714D02*
X150863411Y-106947856D01*
X150863411Y-106947856D02*
X150891982Y-106890714D01*
X150891982Y-106890714D02*
X150920554Y-106862142D01*
X150920554Y-106862142D02*
X150977697Y-106833571D01*
X150977697Y-106833571D02*
X151034840Y-106833571D01*
X151034840Y-106833571D02*
X151120554Y-106862142D01*
X151120554Y-106862142D02*
X151463411Y-107204999D01*
X151463411Y-107204999D02*
X151463411Y-106833571D01*
X151463411Y-106134999D02*
X151177697Y-106334999D01*
X151463411Y-106477856D02*
X150863411Y-106477856D01*
X150863411Y-106477856D02*
X150863411Y-106249285D01*
X150863411Y-106249285D02*
X150891982Y-106192142D01*
X150891982Y-106192142D02*
X150920554Y-106163571D01*
X150920554Y-106163571D02*
X150977697Y-106134999D01*
X150977697Y-106134999D02*
X151063411Y-106134999D01*
X151063411Y-106134999D02*
X151120554Y-106163571D01*
X151120554Y-106163571D02*
X151149125Y-106192142D01*
X151149125Y-106192142D02*
X151177697Y-106249285D01*
X151177697Y-106249285D02*
X151177697Y-106477856D01*
X151463411Y-105563571D02*
X151463411Y-105906428D01*
X151463411Y-105734999D02*
X150863411Y-105734999D01*
X150863411Y-105734999D02*
X150949125Y-105792142D01*
X150949125Y-105792142D02*
X151006268Y-105849285D01*
X151006268Y-105849285D02*
X151034840Y-105906428D01*
X155784999Y-100628411D02*
X155784999Y-101056982D01*
X155784999Y-101056982D02*
X155756428Y-101142697D01*
X155756428Y-101142697D02*
X155699285Y-101199840D01*
X155699285Y-101199840D02*
X155613571Y-101228411D01*
X155613571Y-101228411D02*
X155556428Y-101228411D01*
X156070714Y-101228411D02*
X156070714Y-100628411D01*
X156070714Y-100628411D02*
X156299285Y-100628411D01*
X156299285Y-100628411D02*
X156356428Y-100656982D01*
X156356428Y-100656982D02*
X156384999Y-100685554D01*
X156384999Y-100685554D02*
X156413571Y-100742697D01*
X156413571Y-100742697D02*
X156413571Y-100828411D01*
X156413571Y-100828411D02*
X156384999Y-100885554D01*
X156384999Y-100885554D02*
X156356428Y-100914125D01*
X156356428Y-100914125D02*
X156299285Y-100942697D01*
X156299285Y-100942697D02*
X156070714Y-100942697D01*
X156984999Y-101228411D02*
X156642142Y-101228411D01*
X156813571Y-101228411D02*
X156813571Y-100628411D01*
X156813571Y-100628411D02*
X156756428Y-100714125D01*
X156756428Y-100714125D02*
X156699285Y-100771268D01*
X156699285Y-100771268D02*
X156642142Y-100799840D01*
X157593999Y-90087411D02*
X157593999Y-90515982D01*
X157593999Y-90515982D02*
X157565428Y-90601697D01*
X157565428Y-90601697D02*
X157508285Y-90658840D01*
X157508285Y-90658840D02*
X157422571Y-90687411D01*
X157422571Y-90687411D02*
X157365428Y-90687411D01*
X158193999Y-90687411D02*
X157851142Y-90687411D01*
X158022571Y-90687411D02*
X158022571Y-90087411D01*
X158022571Y-90087411D02*
X157965428Y-90173125D01*
X157965428Y-90173125D02*
X157908285Y-90230268D01*
X157908285Y-90230268D02*
X157851142Y-90258840D01*
D14*
%TO.C,REF\u002A\u002A*%
X157652600Y-121074752D02*
X157669948Y-121082334D01*
X157711356Y-121115128D01*
X157746765Y-121162547D01*
X157768664Y-121213151D01*
X157772229Y-121238098D01*
X157760279Y-121272927D01*
X157734067Y-121291357D01*
X157705964Y-121302516D01*
X157693095Y-121304572D01*
X157686829Y-121289649D01*
X157674456Y-121257175D01*
X157669028Y-121242502D01*
X157638590Y-121191744D01*
X157594520Y-121166427D01*
X157538010Y-121167206D01*
X157533825Y-121168203D01*
X157503655Y-121182507D01*
X157481476Y-121210393D01*
X157466327Y-121255287D01*
X157457250Y-121320615D01*
X157453286Y-121409804D01*
X157452914Y-121457261D01*
X157452730Y-121532071D01*
X157451522Y-121583069D01*
X157448309Y-121615471D01*
X157442109Y-121634495D01*
X157431940Y-121645356D01*
X157416819Y-121653272D01*
X157415946Y-121653670D01*
X157386828Y-121665981D01*
X157372403Y-121670514D01*
X157370186Y-121656809D01*
X157368289Y-121618925D01*
X157366847Y-121561715D01*
X157365998Y-121490027D01*
X157365829Y-121437565D01*
X157366692Y-121336047D01*
X157370070Y-121259032D01*
X157377142Y-121202023D01*
X157389088Y-121160526D01*
X157407090Y-121130043D01*
X157432327Y-121106080D01*
X157457247Y-121089355D01*
X157517171Y-121067097D01*
X157586911Y-121062076D01*
X157652600Y-121074752D01*
G36*
X157652600Y-121074752D02*
G01*
X157669948Y-121082334D01*
X157711356Y-121115128D01*
X157746765Y-121162547D01*
X157768664Y-121213151D01*
X157772229Y-121238098D01*
X157760279Y-121272927D01*
X157734067Y-121291357D01*
X157705964Y-121302516D01*
X157693095Y-121304572D01*
X157686829Y-121289649D01*
X157674456Y-121257175D01*
X157669028Y-121242502D01*
X157638590Y-121191744D01*
X157594520Y-121166427D01*
X157538010Y-121167206D01*
X157533825Y-121168203D01*
X157503655Y-121182507D01*
X157481476Y-121210393D01*
X157466327Y-121255287D01*
X157457250Y-121320615D01*
X157453286Y-121409804D01*
X157452914Y-121457261D01*
X157452730Y-121532071D01*
X157451522Y-121583069D01*
X157448309Y-121615471D01*
X157442109Y-121634495D01*
X157431940Y-121645356D01*
X157416819Y-121653272D01*
X157415946Y-121653670D01*
X157386828Y-121665981D01*
X157372403Y-121670514D01*
X157370186Y-121656809D01*
X157368289Y-121618925D01*
X157366847Y-121561715D01*
X157365998Y-121490027D01*
X157365829Y-121437565D01*
X157366692Y-121336047D01*
X157370070Y-121259032D01*
X157377142Y-121202023D01*
X157389088Y-121160526D01*
X157407090Y-121130043D01*
X157432327Y-121106080D01*
X157457247Y-121089355D01*
X157517171Y-121067097D01*
X157586911Y-121062076D01*
X157652600Y-121074752D01*
G37*
X153716093Y-121043780D02*
X153762672Y-121070723D01*
X153795057Y-121097466D01*
X153818742Y-121125484D01*
X153835059Y-121159748D01*
X153845339Y-121205227D01*
X153850914Y-121266892D01*
X153853116Y-121349711D01*
X153853371Y-121409246D01*
X153853371Y-121628391D01*
X153791686Y-121656044D01*
X153730000Y-121683697D01*
X153722743Y-121443670D01*
X153719744Y-121354028D01*
X153716598Y-121288962D01*
X153712701Y-121244026D01*
X153707447Y-121214770D01*
X153700231Y-121196748D01*
X153690450Y-121185511D01*
X153687312Y-121183079D01*
X153639761Y-121164083D01*
X153591697Y-121171600D01*
X153563086Y-121191543D01*
X153551447Y-121205675D01*
X153543391Y-121224220D01*
X153538271Y-121252334D01*
X153535441Y-121295173D01*
X153534256Y-121357895D01*
X153534057Y-121423261D01*
X153534018Y-121505268D01*
X153532614Y-121563316D01*
X153527914Y-121602465D01*
X153517987Y-121627780D01*
X153500903Y-121644323D01*
X153474732Y-121657156D01*
X153439775Y-121670491D01*
X153401596Y-121685007D01*
X153406141Y-121427389D01*
X153407971Y-121334519D01*
X153410112Y-121265889D01*
X153413181Y-121216711D01*
X153417794Y-121182198D01*
X153424568Y-121157562D01*
X153434119Y-121138016D01*
X153445634Y-121120770D01*
X153501190Y-121065680D01*
X153568980Y-121033822D01*
X153642713Y-121026191D01*
X153716093Y-121043780D01*
G36*
X153716093Y-121043780D02*
G01*
X153762672Y-121070723D01*
X153795057Y-121097466D01*
X153818742Y-121125484D01*
X153835059Y-121159748D01*
X153845339Y-121205227D01*
X153850914Y-121266892D01*
X153853116Y-121349711D01*
X153853371Y-121409246D01*
X153853371Y-121628391D01*
X153791686Y-121656044D01*
X153730000Y-121683697D01*
X153722743Y-121443670D01*
X153719744Y-121354028D01*
X153716598Y-121288962D01*
X153712701Y-121244026D01*
X153707447Y-121214770D01*
X153700231Y-121196748D01*
X153690450Y-121185511D01*
X153687312Y-121183079D01*
X153639761Y-121164083D01*
X153591697Y-121171600D01*
X153563086Y-121191543D01*
X153551447Y-121205675D01*
X153543391Y-121224220D01*
X153538271Y-121252334D01*
X153535441Y-121295173D01*
X153534256Y-121357895D01*
X153534057Y-121423261D01*
X153534018Y-121505268D01*
X153532614Y-121563316D01*
X153527914Y-121602465D01*
X153517987Y-121627780D01*
X153500903Y-121644323D01*
X153474732Y-121657156D01*
X153439775Y-121670491D01*
X153401596Y-121685007D01*
X153406141Y-121427389D01*
X153407971Y-121334519D01*
X153410112Y-121265889D01*
X153413181Y-121216711D01*
X153417794Y-121182198D01*
X153424568Y-121157562D01*
X153434119Y-121138016D01*
X153445634Y-121120770D01*
X153501190Y-121065680D01*
X153568980Y-121033822D01*
X153642713Y-121026191D01*
X153716093Y-121043780D01*
G37*
X155529926Y-121065755D02*
X155595858Y-121090084D01*
X155649273Y-121133117D01*
X155670164Y-121163409D01*
X155692939Y-121218994D01*
X155692466Y-121259186D01*
X155668562Y-121286217D01*
X155659717Y-121290813D01*
X155621530Y-121305144D01*
X155602028Y-121301472D01*
X155595422Y-121277407D01*
X155595086Y-121264114D01*
X155582992Y-121215210D01*
X155551471Y-121180999D01*
X155507659Y-121164476D01*
X155458695Y-121168634D01*
X155418894Y-121190227D01*
X155405450Y-121202544D01*
X155395921Y-121217487D01*
X155389485Y-121240075D01*
X155385317Y-121275328D01*
X155382597Y-121328266D01*
X155380502Y-121403907D01*
X155379960Y-121427857D01*
X155377981Y-121509790D01*
X155375731Y-121567455D01*
X155372357Y-121605608D01*
X155367006Y-121629004D01*
X155358824Y-121642398D01*
X155346959Y-121650545D01*
X155339362Y-121654144D01*
X155307102Y-121666452D01*
X155288111Y-121670514D01*
X155281836Y-121656948D01*
X155278006Y-121615934D01*
X155276600Y-121546999D01*
X155277598Y-121449669D01*
X155277908Y-121434657D01*
X155280101Y-121345859D01*
X155282693Y-121281019D01*
X155286382Y-121235067D01*
X155291864Y-121202935D01*
X155299835Y-121179553D01*
X155310993Y-121159852D01*
X155316830Y-121151410D01*
X155350296Y-121114057D01*
X155387727Y-121085003D01*
X155392309Y-121082467D01*
X155459426Y-121062443D01*
X155529926Y-121065755D01*
G36*
X155529926Y-121065755D02*
G01*
X155595858Y-121090084D01*
X155649273Y-121133117D01*
X155670164Y-121163409D01*
X155692939Y-121218994D01*
X155692466Y-121259186D01*
X155668562Y-121286217D01*
X155659717Y-121290813D01*
X155621530Y-121305144D01*
X155602028Y-121301472D01*
X155595422Y-121277407D01*
X155595086Y-121264114D01*
X155582992Y-121215210D01*
X155551471Y-121180999D01*
X155507659Y-121164476D01*
X155458695Y-121168634D01*
X155418894Y-121190227D01*
X155405450Y-121202544D01*
X155395921Y-121217487D01*
X155389485Y-121240075D01*
X155385317Y-121275328D01*
X155382597Y-121328266D01*
X155380502Y-121403907D01*
X155379960Y-121427857D01*
X155377981Y-121509790D01*
X155375731Y-121567455D01*
X155372357Y-121605608D01*
X155367006Y-121629004D01*
X155358824Y-121642398D01*
X155346959Y-121650545D01*
X155339362Y-121654144D01*
X155307102Y-121666452D01*
X155288111Y-121670514D01*
X155281836Y-121656948D01*
X155278006Y-121615934D01*
X155276600Y-121546999D01*
X155277598Y-121449669D01*
X155277908Y-121434657D01*
X155280101Y-121345859D01*
X155282693Y-121281019D01*
X155286382Y-121235067D01*
X155291864Y-121202935D01*
X155299835Y-121179553D01*
X155310993Y-121159852D01*
X155316830Y-121151410D01*
X155350296Y-121114057D01*
X155387727Y-121085003D01*
X155392309Y-121082467D01*
X155459426Y-121062443D01*
X155529926Y-121065755D01*
G37*
X154375886Y-120967289D02*
X154380139Y-121026613D01*
X154385025Y-121061572D01*
X154391795Y-121076820D01*
X154401702Y-121077015D01*
X154404914Y-121075195D01*
X154447644Y-121062015D01*
X154503227Y-121062785D01*
X154559737Y-121076333D01*
X154595082Y-121093861D01*
X154631321Y-121121861D01*
X154657813Y-121153549D01*
X154675999Y-121193813D01*
X154687322Y-121247543D01*
X154693222Y-121319626D01*
X154695143Y-121414951D01*
X154695177Y-121433237D01*
X154695200Y-121638646D01*
X154649491Y-121654580D01*
X154617027Y-121665420D01*
X154599215Y-121670468D01*
X154598691Y-121670514D01*
X154596937Y-121656828D01*
X154595444Y-121619076D01*
X154594326Y-121562224D01*
X154593697Y-121491234D01*
X154593600Y-121448073D01*
X154593398Y-121362973D01*
X154592358Y-121301981D01*
X154589831Y-121260177D01*
X154585164Y-121232642D01*
X154577707Y-121214456D01*
X154566811Y-121200698D01*
X154560007Y-121194073D01*
X154513272Y-121167375D01*
X154462272Y-121165375D01*
X154416001Y-121187955D01*
X154407444Y-121196107D01*
X154394893Y-121211436D01*
X154386188Y-121229618D01*
X154380631Y-121255909D01*
X154377526Y-121295562D01*
X154376176Y-121353832D01*
X154375886Y-121434173D01*
X154375886Y-121638646D01*
X154330177Y-121654580D01*
X154297713Y-121665420D01*
X154279901Y-121670468D01*
X154279377Y-121670514D01*
X154278037Y-121656623D01*
X154276828Y-121617439D01*
X154275801Y-121556700D01*
X154275002Y-121478141D01*
X154274481Y-121385498D01*
X154274286Y-121282509D01*
X154274286Y-120885342D01*
X154321457Y-120865444D01*
X154368629Y-120845547D01*
X154375886Y-120967289D01*
G36*
X154375886Y-120967289D02*
G01*
X154380139Y-121026613D01*
X154385025Y-121061572D01*
X154391795Y-121076820D01*
X154401702Y-121077015D01*
X154404914Y-121075195D01*
X154447644Y-121062015D01*
X154503227Y-121062785D01*
X154559737Y-121076333D01*
X154595082Y-121093861D01*
X154631321Y-121121861D01*
X154657813Y-121153549D01*
X154675999Y-121193813D01*
X154687322Y-121247543D01*
X154693222Y-121319626D01*
X154695143Y-121414951D01*
X154695177Y-121433237D01*
X154695200Y-121638646D01*
X154649491Y-121654580D01*
X154617027Y-121665420D01*
X154599215Y-121670468D01*
X154598691Y-121670514D01*
X154596937Y-121656828D01*
X154595444Y-121619076D01*
X154594326Y-121562224D01*
X154593697Y-121491234D01*
X154593600Y-121448073D01*
X154593398Y-121362973D01*
X154592358Y-121301981D01*
X154589831Y-121260177D01*
X154585164Y-121232642D01*
X154577707Y-121214456D01*
X154566811Y-121200698D01*
X154560007Y-121194073D01*
X154513272Y-121167375D01*
X154462272Y-121165375D01*
X154416001Y-121187955D01*
X154407444Y-121196107D01*
X154394893Y-121211436D01*
X154386188Y-121229618D01*
X154380631Y-121255909D01*
X154377526Y-121295562D01*
X154376176Y-121353832D01*
X154375886Y-121434173D01*
X154375886Y-121638646D01*
X154330177Y-121654580D01*
X154297713Y-121665420D01*
X154279901Y-121670468D01*
X154279377Y-121670514D01*
X154278037Y-121656623D01*
X154276828Y-121617439D01*
X154275801Y-121556700D01*
X154275002Y-121478141D01*
X154274481Y-121385498D01*
X154274286Y-121282509D01*
X154274286Y-120885342D01*
X154321457Y-120865444D01*
X154368629Y-120845547D01*
X154375886Y-120967289D01*
G37*
X156779833Y-121074663D02*
X156782048Y-121112850D01*
X156783784Y-121170886D01*
X156784899Y-121244180D01*
X156785257Y-121321055D01*
X156785257Y-121581196D01*
X156739326Y-121627127D01*
X156707675Y-121655429D01*
X156679890Y-121666893D01*
X156641915Y-121666168D01*
X156626840Y-121664321D01*
X156579726Y-121658948D01*
X156540756Y-121655869D01*
X156531257Y-121655585D01*
X156499233Y-121657445D01*
X156453432Y-121662114D01*
X156435674Y-121664321D01*
X156392057Y-121667735D01*
X156362745Y-121660320D01*
X156333680Y-121637427D01*
X156323188Y-121627127D01*
X156277257Y-121581196D01*
X156277257Y-121094602D01*
X156314226Y-121077758D01*
X156346059Y-121065282D01*
X156364683Y-121060914D01*
X156369458Y-121074718D01*
X156373921Y-121113286D01*
X156377775Y-121172356D01*
X156380722Y-121247663D01*
X156382143Y-121311286D01*
X156386114Y-121561657D01*
X156420759Y-121566556D01*
X156452268Y-121563131D01*
X156467708Y-121552041D01*
X156472023Y-121531308D01*
X156475708Y-121487145D01*
X156478469Y-121425146D01*
X156480012Y-121350909D01*
X156480235Y-121312706D01*
X156480457Y-121092783D01*
X156526166Y-121076849D01*
X156558518Y-121066015D01*
X156576115Y-121060962D01*
X156576623Y-121060914D01*
X156578388Y-121074648D01*
X156580329Y-121112730D01*
X156582282Y-121170482D01*
X156584084Y-121243227D01*
X156585343Y-121311286D01*
X156589314Y-121561657D01*
X156676400Y-121561657D01*
X156680396Y-121333240D01*
X156684392Y-121104822D01*
X156726847Y-121082868D01*
X156758192Y-121067793D01*
X156776744Y-121060951D01*
X156777279Y-121060914D01*
X156779833Y-121074663D01*
G36*
X156779833Y-121074663D02*
G01*
X156782048Y-121112850D01*
X156783784Y-121170886D01*
X156784899Y-121244180D01*
X156785257Y-121321055D01*
X156785257Y-121581196D01*
X156739326Y-121627127D01*
X156707675Y-121655429D01*
X156679890Y-121666893D01*
X156641915Y-121666168D01*
X156626840Y-121664321D01*
X156579726Y-121658948D01*
X156540756Y-121655869D01*
X156531257Y-121655585D01*
X156499233Y-121657445D01*
X156453432Y-121662114D01*
X156435674Y-121664321D01*
X156392057Y-121667735D01*
X156362745Y-121660320D01*
X156333680Y-121637427D01*
X156323188Y-121627127D01*
X156277257Y-121581196D01*
X156277257Y-121094602D01*
X156314226Y-121077758D01*
X156346059Y-121065282D01*
X156364683Y-121060914D01*
X156369458Y-121074718D01*
X156373921Y-121113286D01*
X156377775Y-121172356D01*
X156380722Y-121247663D01*
X156382143Y-121311286D01*
X156386114Y-121561657D01*
X156420759Y-121566556D01*
X156452268Y-121563131D01*
X156467708Y-121552041D01*
X156472023Y-121531308D01*
X156475708Y-121487145D01*
X156478469Y-121425146D01*
X156480012Y-121350909D01*
X156480235Y-121312706D01*
X156480457Y-121092783D01*
X156526166Y-121076849D01*
X156558518Y-121066015D01*
X156576115Y-121060962D01*
X156576623Y-121060914D01*
X156578388Y-121074648D01*
X156580329Y-121112730D01*
X156582282Y-121170482D01*
X156584084Y-121243227D01*
X156585343Y-121311286D01*
X156589314Y-121561657D01*
X156676400Y-121561657D01*
X156680396Y-121333240D01*
X156684392Y-121104822D01*
X156726847Y-121082868D01*
X156758192Y-121067793D01*
X156776744Y-121060951D01*
X156777279Y-121060914D01*
X156779833Y-121074663D01*
G37*
X152041115Y-121037962D02*
X152109145Y-121073733D01*
X152159351Y-121131301D01*
X152177185Y-121168312D01*
X152191063Y-121223882D01*
X152198167Y-121294096D01*
X152198840Y-121370727D01*
X152193427Y-121445552D01*
X152182270Y-121510342D01*
X152165714Y-121556873D01*
X152160626Y-121564887D01*
X152100355Y-121624707D01*
X152028769Y-121660535D01*
X151951092Y-121671020D01*
X151872548Y-121654810D01*
X151850689Y-121645092D01*
X151808122Y-121615143D01*
X151770763Y-121575433D01*
X151767232Y-121570397D01*
X151752881Y-121546124D01*
X151743394Y-121520178D01*
X151737790Y-121486022D01*
X151735086Y-121437119D01*
X151734299Y-121366935D01*
X151734286Y-121351200D01*
X151734322Y-121346192D01*
X151879429Y-121346192D01*
X151880273Y-121412430D01*
X151883596Y-121456386D01*
X151890583Y-121484779D01*
X151902416Y-121504325D01*
X151908457Y-121510857D01*
X151943186Y-121535680D01*
X151976903Y-121534548D01*
X152010995Y-121513016D01*
X152031329Y-121490029D01*
X152043371Y-121456478D01*
X152050134Y-121403569D01*
X152050598Y-121397399D01*
X152051752Y-121301513D01*
X152039688Y-121230299D01*
X152014570Y-121184194D01*
X151976560Y-121163635D01*
X151962992Y-121162514D01*
X151927364Y-121168152D01*
X151902994Y-121187686D01*
X151888093Y-121225042D01*
X151880875Y-121284150D01*
X151879429Y-121346192D01*
X151734322Y-121346192D01*
X151734826Y-121276413D01*
X151737096Y-121224159D01*
X151742068Y-121187949D01*
X151750713Y-121161299D01*
X151764005Y-121137722D01*
X151766943Y-121133338D01*
X151816313Y-121074249D01*
X151870109Y-121039947D01*
X151935602Y-121026331D01*
X151957842Y-121025665D01*
X152041115Y-121037962D01*
G36*
X152041115Y-121037962D02*
G01*
X152109145Y-121073733D01*
X152159351Y-121131301D01*
X152177185Y-121168312D01*
X152191063Y-121223882D01*
X152198167Y-121294096D01*
X152198840Y-121370727D01*
X152193427Y-121445552D01*
X152182270Y-121510342D01*
X152165714Y-121556873D01*
X152160626Y-121564887D01*
X152100355Y-121624707D01*
X152028769Y-121660535D01*
X151951092Y-121671020D01*
X151872548Y-121654810D01*
X151850689Y-121645092D01*
X151808122Y-121615143D01*
X151770763Y-121575433D01*
X151767232Y-121570397D01*
X151752881Y-121546124D01*
X151743394Y-121520178D01*
X151737790Y-121486022D01*
X151735086Y-121437119D01*
X151734299Y-121366935D01*
X151734286Y-121351200D01*
X151734322Y-121346192D01*
X151879429Y-121346192D01*
X151880273Y-121412430D01*
X151883596Y-121456386D01*
X151890583Y-121484779D01*
X151902416Y-121504325D01*
X151908457Y-121510857D01*
X151943186Y-121535680D01*
X151976903Y-121534548D01*
X152010995Y-121513016D01*
X152031329Y-121490029D01*
X152043371Y-121456478D01*
X152050134Y-121403569D01*
X152050598Y-121397399D01*
X152051752Y-121301513D01*
X152039688Y-121230299D01*
X152014570Y-121184194D01*
X151976560Y-121163635D01*
X151962992Y-121162514D01*
X151927364Y-121168152D01*
X151902994Y-121187686D01*
X151888093Y-121225042D01*
X151880875Y-121284150D01*
X151879429Y-121346192D01*
X151734322Y-121346192D01*
X151734826Y-121276413D01*
X151737096Y-121224159D01*
X151742068Y-121187949D01*
X151750713Y-121161299D01*
X151764005Y-121137722D01*
X151766943Y-121133338D01*
X151816313Y-121074249D01*
X151870109Y-121039947D01*
X151935602Y-121026331D01*
X151957842Y-121025665D01*
X152041115Y-121037962D01*
G37*
X158153595Y-121082966D02*
X158211021Y-121120497D01*
X158238719Y-121154096D01*
X158260662Y-121215064D01*
X158262405Y-121263308D01*
X158258457Y-121327816D01*
X158109686Y-121392934D01*
X158037349Y-121426202D01*
X157990084Y-121452964D01*
X157965507Y-121476144D01*
X157961237Y-121498667D01*
X157974889Y-121523455D01*
X157989943Y-121539886D01*
X158033746Y-121566235D01*
X158081389Y-121568081D01*
X158125145Y-121547546D01*
X158157289Y-121506752D01*
X158163038Y-121492347D01*
X158190576Y-121447356D01*
X158222258Y-121428182D01*
X158265714Y-121411779D01*
X158265714Y-121473966D01*
X158261872Y-121516283D01*
X158246823Y-121551969D01*
X158215280Y-121592943D01*
X158210592Y-121598267D01*
X158175506Y-121634720D01*
X158145347Y-121654283D01*
X158107615Y-121663283D01*
X158076335Y-121666230D01*
X158020385Y-121666965D01*
X157980555Y-121657660D01*
X157955708Y-121643846D01*
X157916656Y-121613467D01*
X157889625Y-121580613D01*
X157872517Y-121539294D01*
X157863238Y-121483521D01*
X157859693Y-121407305D01*
X157859410Y-121368622D01*
X157860372Y-121322247D01*
X157948007Y-121322247D01*
X157949023Y-121347126D01*
X157951556Y-121351200D01*
X157968274Y-121345665D01*
X158004249Y-121331017D01*
X158052331Y-121310190D01*
X158062386Y-121305714D01*
X158123152Y-121274814D01*
X158156632Y-121247657D01*
X158163990Y-121222220D01*
X158146391Y-121196481D01*
X158131856Y-121185109D01*
X158079410Y-121162364D01*
X158030322Y-121166122D01*
X157989227Y-121193884D01*
X157960758Y-121243152D01*
X157951631Y-121282257D01*
X157948007Y-121322247D01*
X157860372Y-121322247D01*
X157861285Y-121278249D01*
X157868196Y-121211384D01*
X157881884Y-121162695D01*
X157904096Y-121126849D01*
X157936574Y-121098513D01*
X157950733Y-121089355D01*
X158015053Y-121065507D01*
X158085473Y-121064006D01*
X158153595Y-121082966D01*
G36*
X158153595Y-121082966D02*
G01*
X158211021Y-121120497D01*
X158238719Y-121154096D01*
X158260662Y-121215064D01*
X158262405Y-121263308D01*
X158258457Y-121327816D01*
X158109686Y-121392934D01*
X158037349Y-121426202D01*
X157990084Y-121452964D01*
X157965507Y-121476144D01*
X157961237Y-121498667D01*
X157974889Y-121523455D01*
X157989943Y-121539886D01*
X158033746Y-121566235D01*
X158081389Y-121568081D01*
X158125145Y-121547546D01*
X158157289Y-121506752D01*
X158163038Y-121492347D01*
X158190576Y-121447356D01*
X158222258Y-121428182D01*
X158265714Y-121411779D01*
X158265714Y-121473966D01*
X158261872Y-121516283D01*
X158246823Y-121551969D01*
X158215280Y-121592943D01*
X158210592Y-121598267D01*
X158175506Y-121634720D01*
X158145347Y-121654283D01*
X158107615Y-121663283D01*
X158076335Y-121666230D01*
X158020385Y-121666965D01*
X157980555Y-121657660D01*
X157955708Y-121643846D01*
X157916656Y-121613467D01*
X157889625Y-121580613D01*
X157872517Y-121539294D01*
X157863238Y-121483521D01*
X157859693Y-121407305D01*
X157859410Y-121368622D01*
X157860372Y-121322247D01*
X157948007Y-121322247D01*
X157949023Y-121347126D01*
X157951556Y-121351200D01*
X157968274Y-121345665D01*
X158004249Y-121331017D01*
X158052331Y-121310190D01*
X158062386Y-121305714D01*
X158123152Y-121274814D01*
X158156632Y-121247657D01*
X158163990Y-121222220D01*
X158146391Y-121196481D01*
X158131856Y-121185109D01*
X158079410Y-121162364D01*
X158030322Y-121166122D01*
X157989227Y-121193884D01*
X157960758Y-121243152D01*
X157951631Y-121282257D01*
X157948007Y-121322247D01*
X157860372Y-121322247D01*
X157861285Y-121278249D01*
X157868196Y-121211384D01*
X157881884Y-121162695D01*
X157904096Y-121126849D01*
X157936574Y-121098513D01*
X157950733Y-121089355D01*
X158015053Y-121065507D01*
X158085473Y-121064006D01*
X158153595Y-121082966D01*
G37*
X156190117Y-121181358D02*
X156189933Y-121289837D01*
X156189219Y-121373287D01*
X156187675Y-121435704D01*
X156185001Y-121481085D01*
X156180894Y-121513429D01*
X156175055Y-121536733D01*
X156167182Y-121554995D01*
X156161221Y-121565418D01*
X156111855Y-121621945D01*
X156049264Y-121657377D01*
X155980013Y-121670090D01*
X155910668Y-121658463D01*
X155869375Y-121637568D01*
X155826025Y-121601422D01*
X155796481Y-121557276D01*
X155778655Y-121499462D01*
X155770463Y-121422313D01*
X155769302Y-121365714D01*
X155769458Y-121361647D01*
X155870857Y-121361647D01*
X155871476Y-121426550D01*
X155874314Y-121469514D01*
X155880840Y-121497622D01*
X155892523Y-121517953D01*
X155906483Y-121533288D01*
X155953365Y-121562890D01*
X156003701Y-121565419D01*
X156051276Y-121540705D01*
X156054979Y-121537356D01*
X156070783Y-121519935D01*
X156080693Y-121499209D01*
X156086058Y-121468362D01*
X156088228Y-121420577D01*
X156088571Y-121367748D01*
X156087827Y-121301381D01*
X156084748Y-121257106D01*
X156078061Y-121228009D01*
X156066496Y-121207173D01*
X156057013Y-121196107D01*
X156012960Y-121168198D01*
X155962224Y-121164843D01*
X155913796Y-121186159D01*
X155904450Y-121194073D01*
X155888540Y-121211647D01*
X155878610Y-121232587D01*
X155873278Y-121263782D01*
X155871163Y-121312122D01*
X155870857Y-121361647D01*
X155769458Y-121361647D01*
X155772810Y-121274568D01*
X155784726Y-121206086D01*
X155807135Y-121154600D01*
X155842124Y-121114443D01*
X155869375Y-121093861D01*
X155918907Y-121071625D01*
X155976316Y-121061304D01*
X156029682Y-121064067D01*
X156059543Y-121075212D01*
X156071261Y-121078383D01*
X156079037Y-121066557D01*
X156084465Y-121034866D01*
X156088571Y-120986593D01*
X156093067Y-120932829D01*
X156099313Y-120900482D01*
X156110676Y-120881985D01*
X156130528Y-120869770D01*
X156143000Y-120864362D01*
X156190171Y-120844601D01*
X156190117Y-121181358D01*
G36*
X156190117Y-121181358D02*
G01*
X156189933Y-121289837D01*
X156189219Y-121373287D01*
X156187675Y-121435704D01*
X156185001Y-121481085D01*
X156180894Y-121513429D01*
X156175055Y-121536733D01*
X156167182Y-121554995D01*
X156161221Y-121565418D01*
X156111855Y-121621945D01*
X156049264Y-121657377D01*
X155980013Y-121670090D01*
X155910668Y-121658463D01*
X155869375Y-121637568D01*
X155826025Y-121601422D01*
X155796481Y-121557276D01*
X155778655Y-121499462D01*
X155770463Y-121422313D01*
X155769302Y-121365714D01*
X155769458Y-121361647D01*
X155870857Y-121361647D01*
X155871476Y-121426550D01*
X155874314Y-121469514D01*
X155880840Y-121497622D01*
X155892523Y-121517953D01*
X155906483Y-121533288D01*
X155953365Y-121562890D01*
X156003701Y-121565419D01*
X156051276Y-121540705D01*
X156054979Y-121537356D01*
X156070783Y-121519935D01*
X156080693Y-121499209D01*
X156086058Y-121468362D01*
X156088228Y-121420577D01*
X156088571Y-121367748D01*
X156087827Y-121301381D01*
X156084748Y-121257106D01*
X156078061Y-121228009D01*
X156066496Y-121207173D01*
X156057013Y-121196107D01*
X156012960Y-121168198D01*
X155962224Y-121164843D01*
X155913796Y-121186159D01*
X155904450Y-121194073D01*
X155888540Y-121211647D01*
X155878610Y-121232587D01*
X155873278Y-121263782D01*
X155871163Y-121312122D01*
X155870857Y-121361647D01*
X155769458Y-121361647D01*
X155772810Y-121274568D01*
X155784726Y-121206086D01*
X155807135Y-121154600D01*
X155842124Y-121114443D01*
X155869375Y-121093861D01*
X155918907Y-121071625D01*
X155976316Y-121061304D01*
X156029682Y-121064067D01*
X156059543Y-121075212D01*
X156071261Y-121078383D01*
X156079037Y-121066557D01*
X156084465Y-121034866D01*
X156088571Y-120986593D01*
X156093067Y-120932829D01*
X156099313Y-120900482D01*
X156110676Y-120881985D01*
X156130528Y-120869770D01*
X156143000Y-120864362D01*
X156190171Y-120844601D01*
X156190117Y-121181358D01*
G37*
X153168303Y-121047239D02*
X153225527Y-121085735D01*
X153269749Y-121141335D01*
X153296167Y-121212086D01*
X153301510Y-121264162D01*
X153300903Y-121285893D01*
X153295822Y-121302531D01*
X153281855Y-121317437D01*
X153254589Y-121333973D01*
X153209612Y-121355498D01*
X153142511Y-121385374D01*
X153142171Y-121385524D01*
X153080407Y-121413813D01*
X153029759Y-121438933D01*
X152995404Y-121458179D01*
X152982518Y-121468848D01*
X152982514Y-121468934D01*
X152993872Y-121492166D01*
X153020431Y-121517774D01*
X153050923Y-121536221D01*
X153066370Y-121539886D01*
X153108515Y-121527212D01*
X153144808Y-121495471D01*
X153162517Y-121460572D01*
X153179552Y-121434845D01*
X153212922Y-121405546D01*
X153252149Y-121380235D01*
X153286756Y-121366471D01*
X153293993Y-121365714D01*
X153302139Y-121378160D01*
X153302630Y-121409972D01*
X153296643Y-121452866D01*
X153285357Y-121498558D01*
X153269950Y-121538761D01*
X153269171Y-121540322D01*
X153222804Y-121605062D01*
X153162711Y-121649097D01*
X153094465Y-121670711D01*
X153023638Y-121668185D01*
X152955804Y-121639804D01*
X152952788Y-121637808D01*
X152899427Y-121589448D01*
X152864340Y-121526352D01*
X152844922Y-121443387D01*
X152842316Y-121420078D01*
X152837701Y-121310055D01*
X152843233Y-121258748D01*
X152982514Y-121258748D01*
X152984324Y-121290753D01*
X152994222Y-121300093D01*
X153018898Y-121293105D01*
X153057795Y-121276587D01*
X153101275Y-121255881D01*
X153102356Y-121255333D01*
X153139209Y-121235949D01*
X153154000Y-121223013D01*
X153150353Y-121209451D01*
X153134995Y-121191632D01*
X153095923Y-121165845D01*
X153053846Y-121163950D01*
X153016103Y-121182717D01*
X152990034Y-121218915D01*
X152982514Y-121258748D01*
X152843233Y-121258748D01*
X152847194Y-121222027D01*
X152871550Y-121152212D01*
X152905456Y-121103302D01*
X152966653Y-121053878D01*
X153034063Y-121029359D01*
X153102880Y-121027797D01*
X153168303Y-121047239D01*
G36*
X153168303Y-121047239D02*
G01*
X153225527Y-121085735D01*
X153269749Y-121141335D01*
X153296167Y-121212086D01*
X153301510Y-121264162D01*
X153300903Y-121285893D01*
X153295822Y-121302531D01*
X153281855Y-121317437D01*
X153254589Y-121333973D01*
X153209612Y-121355498D01*
X153142511Y-121385374D01*
X153142171Y-121385524D01*
X153080407Y-121413813D01*
X153029759Y-121438933D01*
X152995404Y-121458179D01*
X152982518Y-121468848D01*
X152982514Y-121468934D01*
X152993872Y-121492166D01*
X153020431Y-121517774D01*
X153050923Y-121536221D01*
X153066370Y-121539886D01*
X153108515Y-121527212D01*
X153144808Y-121495471D01*
X153162517Y-121460572D01*
X153179552Y-121434845D01*
X153212922Y-121405546D01*
X153252149Y-121380235D01*
X153286756Y-121366471D01*
X153293993Y-121365714D01*
X153302139Y-121378160D01*
X153302630Y-121409972D01*
X153296643Y-121452866D01*
X153285357Y-121498558D01*
X153269950Y-121538761D01*
X153269171Y-121540322D01*
X153222804Y-121605062D01*
X153162711Y-121649097D01*
X153094465Y-121670711D01*
X153023638Y-121668185D01*
X152955804Y-121639804D01*
X152952788Y-121637808D01*
X152899427Y-121589448D01*
X152864340Y-121526352D01*
X152844922Y-121443387D01*
X152842316Y-121420078D01*
X152837701Y-121310055D01*
X152843233Y-121258748D01*
X152982514Y-121258748D01*
X152984324Y-121290753D01*
X152994222Y-121300093D01*
X153018898Y-121293105D01*
X153057795Y-121276587D01*
X153101275Y-121255881D01*
X153102356Y-121255333D01*
X153139209Y-121235949D01*
X153154000Y-121223013D01*
X153150353Y-121209451D01*
X153134995Y-121191632D01*
X153095923Y-121165845D01*
X153053846Y-121163950D01*
X153016103Y-121182717D01*
X152990034Y-121218915D01*
X152982514Y-121258748D01*
X152843233Y-121258748D01*
X152847194Y-121222027D01*
X152871550Y-121152212D01*
X152905456Y-121103302D01*
X152966653Y-121053878D01*
X153034063Y-121029359D01*
X153102880Y-121027797D01*
X153168303Y-121047239D01*
G37*
X155039744Y-121066968D02*
X155096616Y-121088087D01*
X155097267Y-121088493D01*
X155132440Y-121114380D01*
X155158407Y-121144633D01*
X155176670Y-121184058D01*
X155188732Y-121237462D01*
X155196096Y-121309651D01*
X155200264Y-121405432D01*
X155200629Y-121419078D01*
X155205876Y-121624842D01*
X155161716Y-121647678D01*
X155129763Y-121663110D01*
X155110470Y-121670423D01*
X155109578Y-121670514D01*
X155106239Y-121657022D01*
X155103587Y-121620626D01*
X155101956Y-121567452D01*
X155101600Y-121524393D01*
X155101592Y-121454641D01*
X155098403Y-121410837D01*
X155087288Y-121389944D01*
X155063501Y-121388925D01*
X155022296Y-121404741D01*
X154960086Y-121433815D01*
X154914341Y-121457963D01*
X154890813Y-121478913D01*
X154883896Y-121501747D01*
X154883886Y-121502877D01*
X154895299Y-121542212D01*
X154929092Y-121563462D01*
X154980809Y-121566539D01*
X155018061Y-121566006D01*
X155037703Y-121576735D01*
X155049952Y-121602505D01*
X155057002Y-121635337D01*
X155046842Y-121653966D01*
X155043017Y-121656632D01*
X155007001Y-121667340D01*
X154956566Y-121668856D01*
X154904626Y-121661759D01*
X154867822Y-121648788D01*
X154816938Y-121605585D01*
X154788014Y-121545446D01*
X154782286Y-121498462D01*
X154786657Y-121456082D01*
X154802475Y-121421488D01*
X154833797Y-121390763D01*
X154884678Y-121359990D01*
X154959176Y-121325252D01*
X154963714Y-121323288D01*
X155030821Y-121292287D01*
X155072232Y-121266862D01*
X155089981Y-121244014D01*
X155086107Y-121220745D01*
X155062643Y-121194056D01*
X155055627Y-121187914D01*
X155008630Y-121164100D01*
X154959933Y-121165103D01*
X154917522Y-121188451D01*
X154889384Y-121231675D01*
X154886769Y-121240160D01*
X154861308Y-121281308D01*
X154829001Y-121301128D01*
X154782286Y-121320770D01*
X154782286Y-121269950D01*
X154796496Y-121196082D01*
X154838675Y-121128327D01*
X154860624Y-121105661D01*
X154910517Y-121076569D01*
X154973967Y-121063400D01*
X155039744Y-121066968D01*
G36*
X155039744Y-121066968D02*
G01*
X155096616Y-121088087D01*
X155097267Y-121088493D01*
X155132440Y-121114380D01*
X155158407Y-121144633D01*
X155176670Y-121184058D01*
X155188732Y-121237462D01*
X155196096Y-121309651D01*
X155200264Y-121405432D01*
X155200629Y-121419078D01*
X155205876Y-121624842D01*
X155161716Y-121647678D01*
X155129763Y-121663110D01*
X155110470Y-121670423D01*
X155109578Y-121670514D01*
X155106239Y-121657022D01*
X155103587Y-121620626D01*
X155101956Y-121567452D01*
X155101600Y-121524393D01*
X155101592Y-121454641D01*
X155098403Y-121410837D01*
X155087288Y-121389944D01*
X155063501Y-121388925D01*
X155022296Y-121404741D01*
X154960086Y-121433815D01*
X154914341Y-121457963D01*
X154890813Y-121478913D01*
X154883896Y-121501747D01*
X154883886Y-121502877D01*
X154895299Y-121542212D01*
X154929092Y-121563462D01*
X154980809Y-121566539D01*
X155018061Y-121566006D01*
X155037703Y-121576735D01*
X155049952Y-121602505D01*
X155057002Y-121635337D01*
X155046842Y-121653966D01*
X155043017Y-121656632D01*
X155007001Y-121667340D01*
X154956566Y-121668856D01*
X154904626Y-121661759D01*
X154867822Y-121648788D01*
X154816938Y-121605585D01*
X154788014Y-121545446D01*
X154782286Y-121498462D01*
X154786657Y-121456082D01*
X154802475Y-121421488D01*
X154833797Y-121390763D01*
X154884678Y-121359990D01*
X154959176Y-121325252D01*
X154963714Y-121323288D01*
X155030821Y-121292287D01*
X155072232Y-121266862D01*
X155089981Y-121244014D01*
X155086107Y-121220745D01*
X155062643Y-121194056D01*
X155055627Y-121187914D01*
X155008630Y-121164100D01*
X154959933Y-121165103D01*
X154917522Y-121188451D01*
X154889384Y-121231675D01*
X154886769Y-121240160D01*
X154861308Y-121281308D01*
X154829001Y-121301128D01*
X154782286Y-121320770D01*
X154782286Y-121269950D01*
X154796496Y-121196082D01*
X154838675Y-121128327D01*
X154860624Y-121105661D01*
X154910517Y-121076569D01*
X154973967Y-121063400D01*
X155039744Y-121066968D01*
G37*
X152599744Y-121035918D02*
X152655201Y-121063568D01*
X152704148Y-121114480D01*
X152717629Y-121133338D01*
X152732314Y-121158015D01*
X152741842Y-121184816D01*
X152747293Y-121220587D01*
X152749747Y-121272169D01*
X152750286Y-121340267D01*
X152747852Y-121433588D01*
X152739394Y-121503657D01*
X152723174Y-121555931D01*
X152697454Y-121595869D01*
X152660497Y-121628929D01*
X152657782Y-121630886D01*
X152621360Y-121650908D01*
X152577502Y-121660815D01*
X152521724Y-121663257D01*
X152431048Y-121663257D01*
X152431010Y-121751283D01*
X152430166Y-121800308D01*
X152425024Y-121829065D01*
X152411587Y-121846311D01*
X152385858Y-121860808D01*
X152379679Y-121863769D01*
X152350764Y-121877648D01*
X152328376Y-121886414D01*
X152311729Y-121887171D01*
X152300036Y-121877023D01*
X152292510Y-121853073D01*
X152288366Y-121812426D01*
X152286815Y-121752186D01*
X152287071Y-121669455D01*
X152288349Y-121561339D01*
X152288748Y-121529000D01*
X152290185Y-121417524D01*
X152291472Y-121344603D01*
X152430971Y-121344603D01*
X152431755Y-121406499D01*
X152435240Y-121446997D01*
X152443124Y-121473708D01*
X152457105Y-121494244D01*
X152466597Y-121504260D01*
X152505404Y-121533567D01*
X152539763Y-121535952D01*
X152575216Y-121511750D01*
X152576114Y-121510857D01*
X152590539Y-121492153D01*
X152599313Y-121466732D01*
X152603739Y-121427584D01*
X152605118Y-121367697D01*
X152605143Y-121354430D01*
X152601812Y-121271901D01*
X152590969Y-121214691D01*
X152571340Y-121179766D01*
X152541650Y-121164094D01*
X152524491Y-121162514D01*
X152483766Y-121169926D01*
X152455832Y-121194330D01*
X152439017Y-121238980D01*
X152431650Y-121307130D01*
X152430971Y-121344603D01*
X152291472Y-121344603D01*
X152291708Y-121331245D01*
X152293677Y-121266333D01*
X152296450Y-121218958D01*
X152300388Y-121185290D01*
X152305849Y-121161498D01*
X152313192Y-121143753D01*
X152322777Y-121128224D01*
X152326887Y-121122381D01*
X152381405Y-121067185D01*
X152450336Y-121035890D01*
X152530072Y-121027165D01*
X152599744Y-121035918D01*
G36*
X152599744Y-121035918D02*
G01*
X152655201Y-121063568D01*
X152704148Y-121114480D01*
X152717629Y-121133338D01*
X152732314Y-121158015D01*
X152741842Y-121184816D01*
X152747293Y-121220587D01*
X152749747Y-121272169D01*
X152750286Y-121340267D01*
X152747852Y-121433588D01*
X152739394Y-121503657D01*
X152723174Y-121555931D01*
X152697454Y-121595869D01*
X152660497Y-121628929D01*
X152657782Y-121630886D01*
X152621360Y-121650908D01*
X152577502Y-121660815D01*
X152521724Y-121663257D01*
X152431048Y-121663257D01*
X152431010Y-121751283D01*
X152430166Y-121800308D01*
X152425024Y-121829065D01*
X152411587Y-121846311D01*
X152385858Y-121860808D01*
X152379679Y-121863769D01*
X152350764Y-121877648D01*
X152328376Y-121886414D01*
X152311729Y-121887171D01*
X152300036Y-121877023D01*
X152292510Y-121853073D01*
X152288366Y-121812426D01*
X152286815Y-121752186D01*
X152287071Y-121669455D01*
X152288349Y-121561339D01*
X152288748Y-121529000D01*
X152290185Y-121417524D01*
X152291472Y-121344603D01*
X152430971Y-121344603D01*
X152431755Y-121406499D01*
X152435240Y-121446997D01*
X152443124Y-121473708D01*
X152457105Y-121494244D01*
X152466597Y-121504260D01*
X152505404Y-121533567D01*
X152539763Y-121535952D01*
X152575216Y-121511750D01*
X152576114Y-121510857D01*
X152590539Y-121492153D01*
X152599313Y-121466732D01*
X152603739Y-121427584D01*
X152605118Y-121367697D01*
X152605143Y-121354430D01*
X152601812Y-121271901D01*
X152590969Y-121214691D01*
X152571340Y-121179766D01*
X152541650Y-121164094D01*
X152524491Y-121162514D01*
X152483766Y-121169926D01*
X152455832Y-121194330D01*
X152439017Y-121238980D01*
X152431650Y-121307130D01*
X152430971Y-121344603D01*
X152291472Y-121344603D01*
X152291708Y-121331245D01*
X152293677Y-121266333D01*
X152296450Y-121218958D01*
X152300388Y-121185290D01*
X152305849Y-121161498D01*
X152313192Y-121143753D01*
X152322777Y-121128224D01*
X152326887Y-121122381D01*
X152381405Y-121067185D01*
X152450336Y-121035890D01*
X152530072Y-121027165D01*
X152599744Y-121035918D01*
G37*
X157144876Y-121072335D02*
X157186667Y-121091344D01*
X157219469Y-121114378D01*
X157243503Y-121140133D01*
X157260097Y-121173358D01*
X157270577Y-121218800D01*
X157276271Y-121281207D01*
X157278507Y-121365327D01*
X157278743Y-121420721D01*
X157278743Y-121636826D01*
X157241774Y-121653670D01*
X157212656Y-121665981D01*
X157198231Y-121670514D01*
X157195472Y-121657025D01*
X157193282Y-121620653D01*
X157191942Y-121567542D01*
X157191657Y-121525372D01*
X157190434Y-121464447D01*
X157187136Y-121416115D01*
X157182321Y-121386518D01*
X157178496Y-121380229D01*
X157152783Y-121386652D01*
X157112418Y-121403125D01*
X157065679Y-121425458D01*
X157020845Y-121449457D01*
X156986193Y-121470930D01*
X156970002Y-121485685D01*
X156969938Y-121485845D01*
X156971330Y-121513152D01*
X156983818Y-121539219D01*
X157005743Y-121560392D01*
X157037743Y-121567474D01*
X157065092Y-121566649D01*
X157103826Y-121566042D01*
X157124158Y-121575116D01*
X157136369Y-121599092D01*
X157137909Y-121603613D01*
X157143203Y-121637806D01*
X157129047Y-121658568D01*
X157092148Y-121668462D01*
X157052289Y-121670292D01*
X156980562Y-121656727D01*
X156943432Y-121637355D01*
X156897576Y-121591845D01*
X156873256Y-121535983D01*
X156871073Y-121476957D01*
X156891629Y-121421953D01*
X156922549Y-121387486D01*
X156953420Y-121368189D01*
X157001942Y-121343759D01*
X157058485Y-121318985D01*
X157067910Y-121315199D01*
X157130019Y-121287791D01*
X157165822Y-121263634D01*
X157177337Y-121239619D01*
X157166580Y-121212635D01*
X157148114Y-121191543D01*
X157104469Y-121165572D01*
X157056446Y-121163624D01*
X157012406Y-121183637D01*
X156980709Y-121223551D01*
X156976549Y-121233848D01*
X156952327Y-121271724D01*
X156916965Y-121299842D01*
X156872343Y-121322917D01*
X156872343Y-121257485D01*
X156874969Y-121217506D01*
X156886230Y-121185997D01*
X156911199Y-121152378D01*
X156935169Y-121126484D01*
X156972441Y-121089817D01*
X157001401Y-121070121D01*
X157032505Y-121062220D01*
X157067713Y-121060914D01*
X157144876Y-121072335D01*
G36*
X157144876Y-121072335D02*
G01*
X157186667Y-121091344D01*
X157219469Y-121114378D01*
X157243503Y-121140133D01*
X157260097Y-121173358D01*
X157270577Y-121218800D01*
X157276271Y-121281207D01*
X157278507Y-121365327D01*
X157278743Y-121420721D01*
X157278743Y-121636826D01*
X157241774Y-121653670D01*
X157212656Y-121665981D01*
X157198231Y-121670514D01*
X157195472Y-121657025D01*
X157193282Y-121620653D01*
X157191942Y-121567542D01*
X157191657Y-121525372D01*
X157190434Y-121464447D01*
X157187136Y-121416115D01*
X157182321Y-121386518D01*
X157178496Y-121380229D01*
X157152783Y-121386652D01*
X157112418Y-121403125D01*
X157065679Y-121425458D01*
X157020845Y-121449457D01*
X156986193Y-121470930D01*
X156970002Y-121485685D01*
X156969938Y-121485845D01*
X156971330Y-121513152D01*
X156983818Y-121539219D01*
X157005743Y-121560392D01*
X157037743Y-121567474D01*
X157065092Y-121566649D01*
X157103826Y-121566042D01*
X157124158Y-121575116D01*
X157136369Y-121599092D01*
X157137909Y-121603613D01*
X157143203Y-121637806D01*
X157129047Y-121658568D01*
X157092148Y-121668462D01*
X157052289Y-121670292D01*
X156980562Y-121656727D01*
X156943432Y-121637355D01*
X156897576Y-121591845D01*
X156873256Y-121535983D01*
X156871073Y-121476957D01*
X156891629Y-121421953D01*
X156922549Y-121387486D01*
X156953420Y-121368189D01*
X157001942Y-121343759D01*
X157058485Y-121318985D01*
X157067910Y-121315199D01*
X157130019Y-121287791D01*
X157165822Y-121263634D01*
X157177337Y-121239619D01*
X157166580Y-121212635D01*
X157148114Y-121191543D01*
X157104469Y-121165572D01*
X157056446Y-121163624D01*
X157012406Y-121183637D01*
X156980709Y-121223551D01*
X156976549Y-121233848D01*
X156952327Y-121271724D01*
X156916965Y-121299842D01*
X156872343Y-121322917D01*
X156872343Y-121257485D01*
X156874969Y-121217506D01*
X156886230Y-121185997D01*
X156911199Y-121152378D01*
X156935169Y-121126484D01*
X156972441Y-121089817D01*
X157001401Y-121070121D01*
X157032505Y-121062220D01*
X157067713Y-121060914D01*
X157144876Y-121072335D01*
G37*
X155103910Y-116358348D02*
X155182454Y-116358778D01*
X155239298Y-116359942D01*
X155278105Y-116362207D01*
X155302538Y-116365940D01*
X155316262Y-116371506D01*
X155322940Y-116379273D01*
X155326236Y-116389605D01*
X155326556Y-116390943D01*
X155331562Y-116415079D01*
X155340829Y-116462701D01*
X155353392Y-116528741D01*
X155368287Y-116608128D01*
X155384551Y-116695796D01*
X155385119Y-116698875D01*
X155401410Y-116784789D01*
X155416652Y-116860696D01*
X155429861Y-116922045D01*
X155440054Y-116964282D01*
X155446248Y-116982855D01*
X155446543Y-116983184D01*
X155464788Y-116992253D01*
X155502405Y-117007367D01*
X155551271Y-117025262D01*
X155551543Y-117025358D01*
X155613093Y-117048493D01*
X155685657Y-117077965D01*
X155754057Y-117107597D01*
X155757294Y-117109062D01*
X155868702Y-117159626D01*
X156115399Y-116991160D01*
X156191077Y-116939803D01*
X156259631Y-116893889D01*
X156317088Y-116856030D01*
X156359476Y-116828837D01*
X156382825Y-116814921D01*
X156385042Y-116813889D01*
X156402010Y-116818484D01*
X156433701Y-116840655D01*
X156481352Y-116881447D01*
X156546198Y-116941905D01*
X156612397Y-117006227D01*
X156676214Y-117069612D01*
X156733329Y-117127451D01*
X156780305Y-117176175D01*
X156813703Y-117212210D01*
X156830085Y-117231984D01*
X156830694Y-117233002D01*
X156832505Y-117246572D01*
X156825683Y-117268733D01*
X156808540Y-117302478D01*
X156779393Y-117350800D01*
X156736555Y-117416692D01*
X156679448Y-117501517D01*
X156628766Y-117576177D01*
X156583461Y-117643140D01*
X156546150Y-117698516D01*
X156519452Y-117738420D01*
X156505985Y-117758962D01*
X156505137Y-117760356D01*
X156506781Y-117780038D01*
X156519245Y-117818293D01*
X156540048Y-117867889D01*
X156547462Y-117883728D01*
X156579814Y-117954290D01*
X156614328Y-118034353D01*
X156642365Y-118103629D01*
X156662568Y-118155045D01*
X156678615Y-118194119D01*
X156687888Y-118214541D01*
X156689041Y-118216114D01*
X156706096Y-118218721D01*
X156746298Y-118225863D01*
X156804302Y-118236523D01*
X156874763Y-118249685D01*
X156952335Y-118264333D01*
X157031672Y-118279449D01*
X157107431Y-118294018D01*
X157174264Y-118307022D01*
X157226828Y-118317445D01*
X157259776Y-118324270D01*
X157267857Y-118326199D01*
X157276205Y-118330962D01*
X157282506Y-118341718D01*
X157287045Y-118362098D01*
X157290104Y-118395734D01*
X157291967Y-118446255D01*
X157292918Y-118517292D01*
X157293240Y-118612476D01*
X157293257Y-118651492D01*
X157293257Y-118968799D01*
X157217057Y-118983839D01*
X157174663Y-118991995D01*
X157111400Y-119003899D01*
X157034962Y-119018116D01*
X156953043Y-119033210D01*
X156930400Y-119037355D01*
X156854806Y-119052053D01*
X156788953Y-119066505D01*
X156738366Y-119079375D01*
X156708574Y-119089322D01*
X156703612Y-119092287D01*
X156691426Y-119113283D01*
X156673953Y-119153967D01*
X156654577Y-119206322D01*
X156650734Y-119217600D01*
X156625339Y-119287523D01*
X156593817Y-119366418D01*
X156562969Y-119437266D01*
X156562817Y-119437595D01*
X156511447Y-119548733D01*
X156680399Y-119797253D01*
X156849352Y-120045772D01*
X156632429Y-120263058D01*
X156566819Y-120327726D01*
X156506979Y-120384733D01*
X156456267Y-120431033D01*
X156418046Y-120463584D01*
X156395675Y-120479343D01*
X156392466Y-120480343D01*
X156373626Y-120472469D01*
X156335180Y-120450578D01*
X156281330Y-120417267D01*
X156216276Y-120375131D01*
X156145940Y-120327943D01*
X156074555Y-120279810D01*
X156010908Y-120237928D01*
X155959041Y-120204871D01*
X155922995Y-120183218D01*
X155906867Y-120175543D01*
X155887189Y-120182037D01*
X155849875Y-120199150D01*
X155802621Y-120223326D01*
X155797612Y-120226013D01*
X155733977Y-120257927D01*
X155690341Y-120273579D01*
X155663202Y-120273745D01*
X155649057Y-120259204D01*
X155648975Y-120259000D01*
X155641905Y-120241779D01*
X155625042Y-120200899D01*
X155599695Y-120139525D01*
X155567171Y-120060819D01*
X155528778Y-119967947D01*
X155485822Y-119864072D01*
X155444222Y-119763502D01*
X155398504Y-119652516D01*
X155356526Y-119549703D01*
X155319548Y-119458215D01*
X155288827Y-119381201D01*
X155265622Y-119321815D01*
X155251190Y-119283209D01*
X155246743Y-119268800D01*
X155257896Y-119252272D01*
X155287069Y-119225930D01*
X155325971Y-119196887D01*
X155436757Y-119105039D01*
X155523351Y-118999759D01*
X155584716Y-118883266D01*
X155619815Y-118757776D01*
X155627608Y-118625507D01*
X155621943Y-118564457D01*
X155591078Y-118437795D01*
X155537920Y-118325941D01*
X155465767Y-118230001D01*
X155377917Y-118151076D01*
X155277665Y-118090270D01*
X155168310Y-118048687D01*
X155053147Y-118027428D01*
X154935475Y-118027599D01*
X154818590Y-118050301D01*
X154705789Y-118096638D01*
X154600369Y-118167713D01*
X154556368Y-118207911D01*
X154471979Y-118311129D01*
X154413222Y-118423925D01*
X154379704Y-118543010D01*
X154371035Y-118665095D01*
X154386823Y-118786893D01*
X154426678Y-118905116D01*
X154490207Y-119016475D01*
X154577021Y-119117684D01*
X154674029Y-119196887D01*
X154714437Y-119227162D01*
X154742982Y-119253219D01*
X154753257Y-119268825D01*
X154747877Y-119285843D01*
X154732575Y-119326500D01*
X154708612Y-119387642D01*
X154677244Y-119466119D01*
X154639732Y-119558780D01*
X154597333Y-119662472D01*
X154555663Y-119763526D01*
X154509690Y-119874607D01*
X154467107Y-119977541D01*
X154429221Y-120069165D01*
X154397340Y-120146316D01*
X154372771Y-120205831D01*
X154356820Y-120244544D01*
X154350910Y-120259000D01*
X154336948Y-120273685D01*
X154309940Y-120273642D01*
X154266413Y-120258099D01*
X154202890Y-120226284D01*
X154202388Y-120226013D01*
X154154560Y-120201323D01*
X154115897Y-120183338D01*
X154094095Y-120175614D01*
X154093133Y-120175543D01*
X154076721Y-120183378D01*
X154040487Y-120205165D01*
X153988474Y-120238328D01*
X153924725Y-120280291D01*
X153854060Y-120327943D01*
X153782116Y-120376191D01*
X153717274Y-120418151D01*
X153663735Y-120451227D01*
X153625697Y-120472821D01*
X153607533Y-120480343D01*
X153590808Y-120470457D01*
X153557180Y-120442826D01*
X153510010Y-120400495D01*
X153452658Y-120346505D01*
X153388484Y-120283899D01*
X153367497Y-120262983D01*
X153150499Y-120045623D01*
X153315668Y-119803220D01*
X153365864Y-119728781D01*
X153409919Y-119661972D01*
X153445362Y-119606665D01*
X153469719Y-119566729D01*
X153480522Y-119546036D01*
X153480838Y-119544563D01*
X153475143Y-119525058D01*
X153459826Y-119485822D01*
X153437537Y-119433430D01*
X153421893Y-119398355D01*
X153392641Y-119331201D01*
X153365094Y-119263358D01*
X153343737Y-119206034D01*
X153337935Y-119188572D01*
X153321452Y-119141938D01*
X153305340Y-119105905D01*
X153296490Y-119092287D01*
X153276960Y-119083952D01*
X153234334Y-119072137D01*
X153174145Y-119058181D01*
X153101922Y-119043422D01*
X153069600Y-119037355D01*
X152987522Y-119022273D01*
X152908795Y-119007669D01*
X152841109Y-118994980D01*
X152792160Y-118985642D01*
X152782943Y-118983839D01*
X152706743Y-118968799D01*
X152706743Y-118651492D01*
X152706914Y-118547154D01*
X152707616Y-118468213D01*
X152709134Y-118411038D01*
X152711749Y-118371999D01*
X152715746Y-118347465D01*
X152721409Y-118333805D01*
X152729020Y-118327389D01*
X152732143Y-118326199D01*
X152750978Y-118321980D01*
X152792588Y-118313562D01*
X152851630Y-118301961D01*
X152922757Y-118288195D01*
X153000625Y-118273280D01*
X153079887Y-118258232D01*
X153155198Y-118244069D01*
X153221213Y-118231806D01*
X153272587Y-118222461D01*
X153303975Y-118217050D01*
X153310959Y-118216114D01*
X153317285Y-118203596D01*
X153331290Y-118170246D01*
X153350355Y-118122377D01*
X153357634Y-118103629D01*
X153386996Y-118031195D01*
X153421571Y-117951170D01*
X153452537Y-117883728D01*
X153475323Y-117832159D01*
X153490482Y-117789785D01*
X153495542Y-117763834D01*
X153494736Y-117760356D01*
X153484041Y-117743936D01*
X153459620Y-117707417D01*
X153424095Y-117654687D01*
X153380087Y-117589635D01*
X153330217Y-117516151D01*
X153320356Y-117501645D01*
X153262492Y-117415704D01*
X153219956Y-117350261D01*
X153191054Y-117302304D01*
X153174090Y-117268820D01*
X153167367Y-117246795D01*
X153169190Y-117233217D01*
X153169236Y-117233131D01*
X153183586Y-117215297D01*
X153215323Y-117180817D01*
X153261010Y-117133268D01*
X153317204Y-117076222D01*
X153380468Y-117013255D01*
X153387602Y-117006227D01*
X153467330Y-116929020D01*
X153528857Y-116872330D01*
X153573421Y-116835110D01*
X153602257Y-116816315D01*
X153614958Y-116813889D01*
X153633494Y-116824471D01*
X153671961Y-116848916D01*
X153726386Y-116884612D01*
X153792798Y-116928947D01*
X153867225Y-116979311D01*
X153884601Y-116991160D01*
X154131297Y-117159626D01*
X154242706Y-117109062D01*
X154310457Y-117079595D01*
X154383183Y-117049959D01*
X154445703Y-117026330D01*
X154448457Y-117025358D01*
X154497360Y-117007457D01*
X154535057Y-116992320D01*
X154553425Y-116983210D01*
X154553456Y-116983184D01*
X154559285Y-116966717D01*
X154569192Y-116926219D01*
X154582195Y-116866242D01*
X154597309Y-116791340D01*
X154613552Y-116706064D01*
X154614881Y-116698875D01*
X154631175Y-116611014D01*
X154646133Y-116531260D01*
X154658791Y-116464681D01*
X154668186Y-116416347D01*
X154673354Y-116391325D01*
X154673444Y-116390943D01*
X154676589Y-116380299D01*
X154682704Y-116372262D01*
X154695453Y-116366467D01*
X154718500Y-116362547D01*
X154755509Y-116360135D01*
X154810144Y-116358865D01*
X154886067Y-116358371D01*
X154986944Y-116358286D01*
X155000000Y-116358286D01*
X155103910Y-116358348D01*
G36*
X155103910Y-116358348D02*
G01*
X155182454Y-116358778D01*
X155239298Y-116359942D01*
X155278105Y-116362207D01*
X155302538Y-116365940D01*
X155316262Y-116371506D01*
X155322940Y-116379273D01*
X155326236Y-116389605D01*
X155326556Y-116390943D01*
X155331562Y-116415079D01*
X155340829Y-116462701D01*
X155353392Y-116528741D01*
X155368287Y-116608128D01*
X155384551Y-116695796D01*
X155385119Y-116698875D01*
X155401410Y-116784789D01*
X155416652Y-116860696D01*
X155429861Y-116922045D01*
X155440054Y-116964282D01*
X155446248Y-116982855D01*
X155446543Y-116983184D01*
X155464788Y-116992253D01*
X155502405Y-117007367D01*
X155551271Y-117025262D01*
X155551543Y-117025358D01*
X155613093Y-117048493D01*
X155685657Y-117077965D01*
X155754057Y-117107597D01*
X155757294Y-117109062D01*
X155868702Y-117159626D01*
X156115399Y-116991160D01*
X156191077Y-116939803D01*
X156259631Y-116893889D01*
X156317088Y-116856030D01*
X156359476Y-116828837D01*
X156382825Y-116814921D01*
X156385042Y-116813889D01*
X156402010Y-116818484D01*
X156433701Y-116840655D01*
X156481352Y-116881447D01*
X156546198Y-116941905D01*
X156612397Y-117006227D01*
X156676214Y-117069612D01*
X156733329Y-117127451D01*
X156780305Y-117176175D01*
X156813703Y-117212210D01*
X156830085Y-117231984D01*
X156830694Y-117233002D01*
X156832505Y-117246572D01*
X156825683Y-117268733D01*
X156808540Y-117302478D01*
X156779393Y-117350800D01*
X156736555Y-117416692D01*
X156679448Y-117501517D01*
X156628766Y-117576177D01*
X156583461Y-117643140D01*
X156546150Y-117698516D01*
X156519452Y-117738420D01*
X156505985Y-117758962D01*
X156505137Y-117760356D01*
X156506781Y-117780038D01*
X156519245Y-117818293D01*
X156540048Y-117867889D01*
X156547462Y-117883728D01*
X156579814Y-117954290D01*
X156614328Y-118034353D01*
X156642365Y-118103629D01*
X156662568Y-118155045D01*
X156678615Y-118194119D01*
X156687888Y-118214541D01*
X156689041Y-118216114D01*
X156706096Y-118218721D01*
X156746298Y-118225863D01*
X156804302Y-118236523D01*
X156874763Y-118249685D01*
X156952335Y-118264333D01*
X157031672Y-118279449D01*
X157107431Y-118294018D01*
X157174264Y-118307022D01*
X157226828Y-118317445D01*
X157259776Y-118324270D01*
X157267857Y-118326199D01*
X157276205Y-118330962D01*
X157282506Y-118341718D01*
X157287045Y-118362098D01*
X157290104Y-118395734D01*
X157291967Y-118446255D01*
X157292918Y-118517292D01*
X157293240Y-118612476D01*
X157293257Y-118651492D01*
X157293257Y-118968799D01*
X157217057Y-118983839D01*
X157174663Y-118991995D01*
X157111400Y-119003899D01*
X157034962Y-119018116D01*
X156953043Y-119033210D01*
X156930400Y-119037355D01*
X156854806Y-119052053D01*
X156788953Y-119066505D01*
X156738366Y-119079375D01*
X156708574Y-119089322D01*
X156703612Y-119092287D01*
X156691426Y-119113283D01*
X156673953Y-119153967D01*
X156654577Y-119206322D01*
X156650734Y-119217600D01*
X156625339Y-119287523D01*
X156593817Y-119366418D01*
X156562969Y-119437266D01*
X156562817Y-119437595D01*
X156511447Y-119548733D01*
X156680399Y-119797253D01*
X156849352Y-120045772D01*
X156632429Y-120263058D01*
X156566819Y-120327726D01*
X156506979Y-120384733D01*
X156456267Y-120431033D01*
X156418046Y-120463584D01*
X156395675Y-120479343D01*
X156392466Y-120480343D01*
X156373626Y-120472469D01*
X156335180Y-120450578D01*
X156281330Y-120417267D01*
X156216276Y-120375131D01*
X156145940Y-120327943D01*
X156074555Y-120279810D01*
X156010908Y-120237928D01*
X155959041Y-120204871D01*
X155922995Y-120183218D01*
X155906867Y-120175543D01*
X155887189Y-120182037D01*
X155849875Y-120199150D01*
X155802621Y-120223326D01*
X155797612Y-120226013D01*
X155733977Y-120257927D01*
X155690341Y-120273579D01*
X155663202Y-120273745D01*
X155649057Y-120259204D01*
X155648975Y-120259000D01*
X155641905Y-120241779D01*
X155625042Y-120200899D01*
X155599695Y-120139525D01*
X155567171Y-120060819D01*
X155528778Y-119967947D01*
X155485822Y-119864072D01*
X155444222Y-119763502D01*
X155398504Y-119652516D01*
X155356526Y-119549703D01*
X155319548Y-119458215D01*
X155288827Y-119381201D01*
X155265622Y-119321815D01*
X155251190Y-119283209D01*
X155246743Y-119268800D01*
X155257896Y-119252272D01*
X155287069Y-119225930D01*
X155325971Y-119196887D01*
X155436757Y-119105039D01*
X155523351Y-118999759D01*
X155584716Y-118883266D01*
X155619815Y-118757776D01*
X155627608Y-118625507D01*
X155621943Y-118564457D01*
X155591078Y-118437795D01*
X155537920Y-118325941D01*
X155465767Y-118230001D01*
X155377917Y-118151076D01*
X155277665Y-118090270D01*
X155168310Y-118048687D01*
X155053147Y-118027428D01*
X154935475Y-118027599D01*
X154818590Y-118050301D01*
X154705789Y-118096638D01*
X154600369Y-118167713D01*
X154556368Y-118207911D01*
X154471979Y-118311129D01*
X154413222Y-118423925D01*
X154379704Y-118543010D01*
X154371035Y-118665095D01*
X154386823Y-118786893D01*
X154426678Y-118905116D01*
X154490207Y-119016475D01*
X154577021Y-119117684D01*
X154674029Y-119196887D01*
X154714437Y-119227162D01*
X154742982Y-119253219D01*
X154753257Y-119268825D01*
X154747877Y-119285843D01*
X154732575Y-119326500D01*
X154708612Y-119387642D01*
X154677244Y-119466119D01*
X154639732Y-119558780D01*
X154597333Y-119662472D01*
X154555663Y-119763526D01*
X154509690Y-119874607D01*
X154467107Y-119977541D01*
X154429221Y-120069165D01*
X154397340Y-120146316D01*
X154372771Y-120205831D01*
X154356820Y-120244544D01*
X154350910Y-120259000D01*
X154336948Y-120273685D01*
X154309940Y-120273642D01*
X154266413Y-120258099D01*
X154202890Y-120226284D01*
X154202388Y-120226013D01*
X154154560Y-120201323D01*
X154115897Y-120183338D01*
X154094095Y-120175614D01*
X154093133Y-120175543D01*
X154076721Y-120183378D01*
X154040487Y-120205165D01*
X153988474Y-120238328D01*
X153924725Y-120280291D01*
X153854060Y-120327943D01*
X153782116Y-120376191D01*
X153717274Y-120418151D01*
X153663735Y-120451227D01*
X153625697Y-120472821D01*
X153607533Y-120480343D01*
X153590808Y-120470457D01*
X153557180Y-120442826D01*
X153510010Y-120400495D01*
X153452658Y-120346505D01*
X153388484Y-120283899D01*
X153367497Y-120262983D01*
X153150499Y-120045623D01*
X153315668Y-119803220D01*
X153365864Y-119728781D01*
X153409919Y-119661972D01*
X153445362Y-119606665D01*
X153469719Y-119566729D01*
X153480522Y-119546036D01*
X153480838Y-119544563D01*
X153475143Y-119525058D01*
X153459826Y-119485822D01*
X153437537Y-119433430D01*
X153421893Y-119398355D01*
X153392641Y-119331201D01*
X153365094Y-119263358D01*
X153343737Y-119206034D01*
X153337935Y-119188572D01*
X153321452Y-119141938D01*
X153305340Y-119105905D01*
X153296490Y-119092287D01*
X153276960Y-119083952D01*
X153234334Y-119072137D01*
X153174145Y-119058181D01*
X153101922Y-119043422D01*
X153069600Y-119037355D01*
X152987522Y-119022273D01*
X152908795Y-119007669D01*
X152841109Y-118994980D01*
X152792160Y-118985642D01*
X152782943Y-118983839D01*
X152706743Y-118968799D01*
X152706743Y-118651492D01*
X152706914Y-118547154D01*
X152707616Y-118468213D01*
X152709134Y-118411038D01*
X152711749Y-118371999D01*
X152715746Y-118347465D01*
X152721409Y-118333805D01*
X152729020Y-118327389D01*
X152732143Y-118326199D01*
X152750978Y-118321980D01*
X152792588Y-118313562D01*
X152851630Y-118301961D01*
X152922757Y-118288195D01*
X153000625Y-118273280D01*
X153079887Y-118258232D01*
X153155198Y-118244069D01*
X153221213Y-118231806D01*
X153272587Y-118222461D01*
X153303975Y-118217050D01*
X153310959Y-118216114D01*
X153317285Y-118203596D01*
X153331290Y-118170246D01*
X153350355Y-118122377D01*
X153357634Y-118103629D01*
X153386996Y-118031195D01*
X153421571Y-117951170D01*
X153452537Y-117883728D01*
X153475323Y-117832159D01*
X153490482Y-117789785D01*
X153495542Y-117763834D01*
X153494736Y-117760356D01*
X153484041Y-117743936D01*
X153459620Y-117707417D01*
X153424095Y-117654687D01*
X153380087Y-117589635D01*
X153330217Y-117516151D01*
X153320356Y-117501645D01*
X153262492Y-117415704D01*
X153219956Y-117350261D01*
X153191054Y-117302304D01*
X153174090Y-117268820D01*
X153167367Y-117246795D01*
X153169190Y-117233217D01*
X153169236Y-117233131D01*
X153183586Y-117215297D01*
X153215323Y-117180817D01*
X153261010Y-117133268D01*
X153317204Y-117076222D01*
X153380468Y-117013255D01*
X153387602Y-117006227D01*
X153467330Y-116929020D01*
X153528857Y-116872330D01*
X153573421Y-116835110D01*
X153602257Y-116816315D01*
X153614958Y-116813889D01*
X153633494Y-116824471D01*
X153671961Y-116848916D01*
X153726386Y-116884612D01*
X153792798Y-116928947D01*
X153867225Y-116979311D01*
X153884601Y-116991160D01*
X154131297Y-117159626D01*
X154242706Y-117109062D01*
X154310457Y-117079595D01*
X154383183Y-117049959D01*
X154445703Y-117026330D01*
X154448457Y-117025358D01*
X154497360Y-117007457D01*
X154535057Y-116992320D01*
X154553425Y-116983210D01*
X154553456Y-116983184D01*
X154559285Y-116966717D01*
X154569192Y-116926219D01*
X154582195Y-116866242D01*
X154597309Y-116791340D01*
X154613552Y-116706064D01*
X154614881Y-116698875D01*
X154631175Y-116611014D01*
X154646133Y-116531260D01*
X154658791Y-116464681D01*
X154668186Y-116416347D01*
X154673354Y-116391325D01*
X154673444Y-116390943D01*
X154676589Y-116380299D01*
X154682704Y-116372262D01*
X154695453Y-116366467D01*
X154718500Y-116362547D01*
X154755509Y-116360135D01*
X154810144Y-116358865D01*
X154886067Y-116358371D01*
X154986944Y-116358286D01*
X155000000Y-116358286D01*
X155103910Y-116358348D01*
G37*
D15*
%TO.C,J4*%
X152395000Y-123120000D02*
X153725000Y-123120000D01*
X152395000Y-124450000D02*
X152395000Y-123120000D01*
X152395000Y-125720000D02*
X152395000Y-133400000D01*
X152395000Y-125720000D02*
X154995000Y-125720000D01*
X152395000Y-133400000D02*
X157595000Y-133400000D01*
X154995000Y-123120000D02*
X157595000Y-123120000D01*
X154995000Y-125720000D02*
X154995000Y-123120000D01*
X157595000Y-123120000D02*
X157595000Y-133400000D01*
%TO.C,U1*%
X153590000Y-112090000D02*
X153590000Y-109520000D01*
X154240000Y-108870000D02*
X156410000Y-108870000D01*
X156410000Y-108870000D02*
X156410000Y-112090000D01*
X156410000Y-112090000D02*
X153590000Y-112090000D01*
X153590000Y-108870000D02*
X153090000Y-108870000D01*
X153590000Y-108370000D01*
X153590000Y-108870000D01*
G36*
X153590000Y-108870000D02*
G01*
X153090000Y-108870000D01*
X153590000Y-108370000D01*
X153590000Y-108870000D01*
G37*
%TO.C,R4*%
X152941359Y-104385000D02*
X153248641Y-104385000D01*
X152941359Y-105145000D02*
X153248641Y-105145000D01*
%TO.C,R3*%
X157033000Y-106948641D02*
X157033000Y-106641359D01*
X157793000Y-106948641D02*
X157793000Y-106641359D01*
%TO.C,C1*%
X155783000Y-106904836D02*
X155783000Y-106689164D01*
X156503000Y-106904836D02*
X156503000Y-106689164D01*
%TO.C,R2*%
X152941359Y-107685000D02*
X153248641Y-107685000D01*
X152941359Y-106925000D02*
X153248641Y-106925000D01*
%TO.C,R1*%
X152941359Y-106415000D02*
X153248641Y-106415000D01*
X152941359Y-105655000D02*
X153248641Y-105655000D01*
%TO.C,JP1*%
X154940000Y-92655000D02*
X156270000Y-92655000D01*
X154940000Y-93985000D02*
X154940000Y-92655000D01*
X154940000Y-95255000D02*
X154940000Y-100395000D01*
X154940000Y-95255000D02*
X157600000Y-95255000D01*
X154940000Y-100395000D02*
X157600000Y-100395000D01*
X157600000Y-95255000D02*
X157600000Y-100395000D01*
%TO.C,J1*%
X158110000Y-89913000D02*
X157060000Y-89913000D01*
X158110000Y-87413000D02*
X158110000Y-89913000D01*
X157060000Y-89913000D02*
X157060000Y-90903000D01*
X156940000Y-85443000D02*
X153060000Y-85443000D01*
X151890000Y-89913000D02*
X152940000Y-89913000D01*
X151890000Y-87413000D02*
X151890000Y-89913000D01*
%TD*%
%LPC*%
D16*
%TO.C,J4*%
X153725000Y-124450000D03*
D17*
X156265000Y-124450000D03*
X153725000Y-126990000D03*
X156265000Y-126990000D03*
X153725000Y-129530000D03*
X156265000Y-129530000D03*
X153725000Y-132070000D03*
X156265000Y-132070000D03*
%TD*%
D16*
%TO.C,J3*%
X161350000Y-86350000D03*
D17*
X161350000Y-88890000D03*
X161350000Y-91430000D03*
X161350000Y-93970000D03*
X161350000Y-96510000D03*
X161350000Y-99050000D03*
X161350000Y-101590000D03*
X161350000Y-104130000D03*
X161350000Y-106670000D03*
X161350000Y-109210000D03*
X161350000Y-111750000D03*
X161350000Y-114290000D03*
X161350000Y-116830000D03*
X161350000Y-119370000D03*
X161350000Y-121910000D03*
X161350000Y-124450000D03*
X161350000Y-126990000D03*
X161350000Y-129530000D03*
X161350000Y-132070000D03*
X161350000Y-134610000D03*
%TD*%
D16*
%TO.C,J2*%
X148650000Y-86350000D03*
D17*
X148650000Y-88890000D03*
X148650000Y-91430000D03*
X148650000Y-93970000D03*
X148650000Y-96510000D03*
X148650000Y-99050000D03*
X148650000Y-101590000D03*
X148650000Y-104130000D03*
X148650000Y-106670000D03*
X148650000Y-109210000D03*
X148650000Y-111750000D03*
X148650000Y-114290000D03*
X148650000Y-116830000D03*
X148650000Y-119370000D03*
X148650000Y-121910000D03*
X148650000Y-124450000D03*
X148650000Y-126990000D03*
X148650000Y-129530000D03*
X148650000Y-132070000D03*
X148650000Y-134610000D03*
%TD*%
D18*
%TO.C,U1*%
X154000000Y-109280000D03*
D19*
X154400000Y-109280000D03*
X154800000Y-109280000D03*
X155200000Y-109280000D03*
X155600000Y-109280000D03*
D18*
X156000000Y-109280000D03*
X154000000Y-109680000D03*
X154400000Y-109680000D03*
D19*
X154800000Y-109680000D03*
X155200000Y-109680000D03*
D18*
X155600000Y-109680000D03*
X156000000Y-109680000D03*
X154000000Y-110080000D03*
X154400000Y-110080000D03*
D19*
X154800000Y-110080000D03*
X155200000Y-110080000D03*
D18*
X155600000Y-110080000D03*
X156000000Y-110080000D03*
X154000000Y-110480000D03*
D20*
X154400000Y-110480000D03*
X154800000Y-110480000D03*
X155200000Y-110480000D03*
X155600000Y-110480000D03*
D18*
X156000000Y-110480000D03*
X154000000Y-110880000D03*
D20*
X154400000Y-110880000D03*
X154800000Y-110880000D03*
X155200000Y-110880000D03*
X155600000Y-110880000D03*
D18*
X156000000Y-110880000D03*
X154000000Y-111280000D03*
D20*
X154400000Y-111280000D03*
D19*
X154800000Y-111280000D03*
X155200000Y-111280000D03*
D20*
X155600000Y-111280000D03*
D18*
X156000000Y-111280000D03*
X154000000Y-111680000D03*
D19*
X154400000Y-111680000D03*
X154800000Y-111680000D03*
X155200000Y-111680000D03*
X155600000Y-111680000D03*
D18*
X156000000Y-111680000D03*
%TD*%
D21*
%TO.C,R4*%
X152585000Y-104765000D03*
X153605000Y-104765000D03*
%TD*%
D22*
%TO.C,R3*%
X157413000Y-107305000D03*
X157413000Y-106285000D03*
%TD*%
D23*
%TO.C,C1*%
X156143000Y-107277000D03*
X156143000Y-106317000D03*
%TD*%
D21*
%TO.C,R2*%
X153605000Y-107305000D03*
X152585000Y-107305000D03*
%TD*%
%TO.C,R1*%
X153605000Y-106035000D03*
X152585000Y-106035000D03*
%TD*%
D16*
%TO.C,JP1*%
X156270000Y-93985000D03*
D17*
X156270000Y-96525000D03*
X156270000Y-99065000D03*
%TD*%
D24*
%TO.C,J1*%
X156500000Y-90128000D03*
X155500000Y-90128000D03*
X154500000Y-90128000D03*
X153500000Y-90128000D03*
D25*
X157800000Y-86253000D03*
X152200000Y-86253000D03*
%TD*%
G36*
X158162113Y-133352887D02*
G01*
X158175000Y-133384000D01*
X158175000Y-135836000D01*
X158162113Y-135867113D01*
X158131000Y-135880000D01*
X151869000Y-135880000D01*
X151837887Y-135867113D01*
X151825000Y-135836000D01*
X151825000Y-133384000D01*
X151837887Y-133352887D01*
X151869000Y-133340000D01*
X158131000Y-133340000D01*
X158162113Y-133352887D01*
G37*
%LPD*%
M02*
