%TF.GenerationSoftware,KiCad,Pcbnew,8.0.1*%
%TF.CreationDate,2024-03-17T23:14:56+11:00*%
%TF.ProjectId,PCAL6534EV-breakout,5043414c-3635-4333-9445-562d62726561,rev?*%
%TF.SameCoordinates,Original*%
%TF.FileFunction,Paste,Top*%
%TF.FilePolarity,Positive*%
%FSLAX46Y46*%
G04 Gerber Fmt 4.6, Leading zero omitted, Abs format (unit mm)*
G04 Created by KiCad (PCBNEW 8.0.1) date 2024-03-17 23:14:56*
%MOMM*%
%LPD*%
G01*
G04 APERTURE LIST*
G04 Aperture macros list*
%AMRoundRect*
0 Rectangle with rounded corners*
0 $1 Rounding radius*
0 $2 $3 $4 $5 $6 $7 $8 $9 X,Y pos of 4 corners*
0 Add a 4 corners polygon primitive as box body*
4,1,4,$2,$3,$4,$5,$6,$7,$8,$9,$2,$3,0*
0 Add four circle primitives for the rounded corners*
1,1,$1+$1,$2,$3*
1,1,$1+$1,$4,$5*
1,1,$1+$1,$6,$7*
1,1,$1+$1,$8,$9*
0 Add four rect primitives between the rounded corners*
20,1,$1+$1,$2,$3,$4,$5,0*
20,1,$1+$1,$4,$5,$6,$7,0*
20,1,$1+$1,$6,$7,$8,$9,0*
20,1,$1+$1,$8,$9,$2,$3,0*%
G04 Aperture macros list end*
%ADD10RoundRect,0.121500X-0.121500X-0.166500X0.121500X-0.166500X0.121500X0.166500X-0.121500X0.166500X0*%
%ADD11RoundRect,0.135000X0.135000X0.562500X-0.135000X0.562500X-0.135000X-0.562500X0.135000X-0.562500X0*%
%ADD12RoundRect,0.225000X0.315000X0.585000X-0.315000X0.585000X-0.315000X-0.585000X0.315000X-0.585000X0*%
%ADD13RoundRect,0.126000X0.153000X-0.126000X0.153000X0.126000X-0.153000X0.126000X-0.153000X-0.126000X0*%
%ADD14O,0.216000X0.162000*%
%ADD15O,0.162000X0.216000*%
%ADD16C,0.216000*%
%ADD17RoundRect,0.121500X0.166500X-0.121500X0.166500X0.121500X-0.166500X0.121500X-0.166500X-0.121500X0*%
G04 APERTURE END LIST*
D10*
%TO.C,R4*%
X152585000Y-104765000D03*
X153605000Y-104765000D03*
%TD*%
%TO.C,R1*%
X152585000Y-106035000D03*
X153605000Y-106035000D03*
%TD*%
D11*
%TO.C,J1*%
X156500000Y-90128000D03*
X155500000Y-90128000D03*
X154500000Y-90128000D03*
X153500000Y-90128000D03*
D12*
X157800000Y-86253000D03*
X152200000Y-86253000D03*
%TD*%
D13*
%TO.C,C1*%
X156143000Y-107277000D03*
X156143000Y-106317000D03*
%TD*%
D14*
%TO.C,U1*%
X154000000Y-109280000D03*
D15*
X154400000Y-109280000D03*
X154800000Y-109280000D03*
X155200000Y-109280000D03*
X155600000Y-109280000D03*
D14*
X156000000Y-109280000D03*
X154000000Y-109680000D03*
X154400000Y-109680000D03*
D15*
X154800000Y-109680000D03*
X155200000Y-109680000D03*
D14*
X155600000Y-109680000D03*
X156000000Y-109680000D03*
X154000000Y-110080000D03*
X154400000Y-110080000D03*
D15*
X154800000Y-110080000D03*
X155200000Y-110080000D03*
D14*
X155600000Y-110080000D03*
X156000000Y-110080000D03*
X154000000Y-110480000D03*
D16*
X154400000Y-110480000D03*
X154800000Y-110480000D03*
X155200000Y-110480000D03*
X155600000Y-110480000D03*
D14*
X156000000Y-110480000D03*
X154000000Y-110880000D03*
D16*
X154400000Y-110880000D03*
X154800000Y-110880000D03*
X155200000Y-110880000D03*
X155600000Y-110880000D03*
D14*
X156000000Y-110880000D03*
X154000000Y-111280000D03*
D16*
X154400000Y-111280000D03*
D15*
X154800000Y-111280000D03*
X155200000Y-111280000D03*
D16*
X155600000Y-111280000D03*
D14*
X156000000Y-111280000D03*
X154000000Y-111680000D03*
D15*
X154400000Y-111680000D03*
X154800000Y-111680000D03*
X155200000Y-111680000D03*
X155600000Y-111680000D03*
D14*
X156000000Y-111680000D03*
%TD*%
D10*
%TO.C,R2*%
X152585000Y-107305000D03*
X153605000Y-107305000D03*
%TD*%
D17*
%TO.C,R3*%
X157413000Y-107305000D03*
X157413000Y-106285000D03*
%TD*%
M02*
