M48
; DRILL file {KiCad 8.0.0} date 2024-03-15T22:25:57+1100
; FORMAT={-:-/ absolute / inch / decimal}
; #@! TF.CreationDate,2024-03-15T22:25:57+11:00
; #@! TF.GenerationSoftware,Kicad,Pcbnew,8.0.0
; #@! TF.FileFunction,Plated,1,6,PTH
FMAT,2
INCH
; #@! TA.AperFunction,Plated,PTH,ViaDrill
T1C0.0118
; #@! TA.AperFunction,Plated,PTH,ViaDrill
T2C0.0236
; #@! TA.AperFunction,Plated,PTH,ComponentDrill
T3C0.0394
%
G90
G05
T1
X5.9774Y-4.1246
X5.9824Y-4.1646
X5.9824Y-4.2246
X5.9824Y-4.3004
X6.0032Y-4.1246
X6.0073Y-4.1747
X6.0074Y-4.2246
X6.0074Y-4.3004
X6.0474Y-4.1746
X6.0474Y-4.2246
X6.0474Y-4.2533
X6.0475Y-4.1246
X6.063Y-4.2756
X6.0703Y-4.1647
X6.0705Y-4.2246
X6.1102Y-4.1696
X6.1105Y-4.1469
X6.1474Y-4.2246
X6.1614Y-3.5887
X6.167Y-4.1857
X6.1724Y-4.3152
X6.1724Y-4.2246
X6.1924Y-3.7646
X6.1974Y-3.6546
X6.1974Y-4.1846
X6.1974Y-4.2246
X6.2174Y-3.9784
T2
X6.0024Y-5.2746
X6.0274Y-5.2996
X6.0524Y-5.2746
X6.0774Y-5.2996
X6.1024Y-5.2696
X6.1274Y-5.2996
X6.1524Y-5.2746
X6.1774Y-5.2996
X6.2024Y-5.2746
T3
X5.8524Y-3.3996
X5.8524Y-3.4996
X5.8524Y-3.5996
X5.8524Y-3.6996
X5.8524Y-3.7996
X5.8524Y-3.8996
X5.8524Y-3.9996
X5.8524Y-4.0996
X5.8524Y-4.1996
X5.8524Y-4.2996
X5.8524Y-4.3996
X5.8524Y-4.4996
X5.8524Y-4.5996
X5.8524Y-4.6996
X5.8524Y-4.7996
X5.8524Y-4.8996
X5.8524Y-4.9996
X5.8524Y-5.0996
X5.8524Y-5.1996
X5.8524Y-5.2996
X6.0522Y-4.8996
X6.0522Y-4.9996
X6.0522Y-5.0996
X6.0522Y-5.1996
X6.1522Y-4.8996
X6.1522Y-4.9996
X6.1522Y-5.0996
X6.1522Y-5.1996
X6.1524Y-3.7002
X6.1524Y-3.8002
X6.1524Y-3.9002
X6.3524Y-3.3996
X6.3524Y-3.4996
X6.3524Y-3.5996
X6.3524Y-3.6996
X6.3524Y-3.7996
X6.3524Y-3.8996
X6.3524Y-3.9996
X6.3524Y-4.0996
X6.3524Y-4.1996
X6.3524Y-4.2996
X6.3524Y-4.3996
X6.3524Y-4.4996
X6.3524Y-4.5996
X6.3524Y-4.6996
X6.3524Y-4.7996
X6.3524Y-4.8996
X6.3524Y-4.9996
X6.3524Y-5.0996
X6.3524Y-5.1996
X6.3524Y-5.2996
M30
