%TF.GenerationSoftware,KiCad,Pcbnew,8.0.0*%
%TF.CreationDate,2024-03-15T10:52:10+11:00*%
%TF.ProjectId,PCAL6534EV-breakout,5043414c-3635-4333-9445-562d62726561,rev?*%
%TF.SameCoordinates,Original*%
%TF.FileFunction,Copper,L6,Bot*%
%TF.FilePolarity,Positive*%
%FSLAX46Y46*%
G04 Gerber Fmt 4.6, Leading zero omitted, Abs format (unit mm)*
G04 Created by KiCad (PCBNEW 8.0.0) date 2024-03-15 10:52:10*
%MOMM*%
%LPD*%
G01*
G04 APERTURE LIST*
G04 Aperture macros list*
%AMFreePoly0*
4,1,19,0.500000,-0.750000,0.000000,-0.750000,0.000000,-0.744911,-0.071157,-0.744911,-0.207708,-0.704816,-0.327430,-0.627875,-0.420627,-0.520320,-0.479746,-0.390866,-0.500000,-0.250000,-0.500000,0.250000,-0.479746,0.390866,-0.420627,0.520320,-0.327430,0.627875,-0.207708,0.704816,-0.071157,0.744911,0.000000,0.744911,0.000000,0.750000,0.500000,0.750000,0.500000,-0.750000,0.500000,-0.750000,
$1*%
%AMFreePoly1*
4,1,19,0.000000,0.744911,0.071157,0.744911,0.207708,0.704816,0.327430,0.627875,0.420627,0.520320,0.479746,0.390866,0.500000,0.250000,0.500000,-0.250000,0.479746,-0.390866,0.420627,-0.520320,0.327430,-0.627875,0.207708,-0.704816,0.071157,-0.744911,0.000000,-0.744911,0.000000,-0.750000,-0.500000,-0.750000,-0.500000,0.750000,0.000000,0.750000,0.000000,0.744911,0.000000,0.744911,
$1*%
%AMFreePoly2*
4,1,19,0.000000,0.744911,0.071157,0.744911,0.207708,0.704816,0.327430,0.627875,0.420627,0.520320,0.479746,0.390866,0.500000,0.250000,0.500000,-0.250000,0.479746,-0.390866,0.420627,-0.520320,0.327430,-0.627875,0.207708,-0.704816,0.071157,-0.744911,0.000000,-0.744911,0.000000,-0.750000,-0.550000,-0.750000,-0.550000,0.750000,0.000000,0.750000,0.000000,0.744911,0.000000,0.744911,
$1*%
%AMFreePoly3*
4,1,19,0.550000,-0.750000,0.000000,-0.750000,0.000000,-0.744911,-0.071157,-0.744911,-0.207708,-0.704816,-0.327430,-0.627875,-0.420627,-0.520320,-0.479746,-0.390866,-0.500000,-0.250000,-0.500000,0.250000,-0.479746,0.390866,-0.420627,0.520320,-0.327430,0.627875,-0.207708,0.704816,-0.071157,0.744911,0.000000,0.744911,0.000000,0.750000,0.550000,0.750000,0.550000,-0.750000,0.550000,-0.750000,
$1*%
G04 Aperture macros list end*
%TA.AperFunction,EtchedComponent*%
%ADD10C,0.000000*%
%TD*%
%TA.AperFunction,ComponentPad*%
%ADD11R,1.700000X1.700000*%
%TD*%
%TA.AperFunction,ComponentPad*%
%ADD12O,1.700000X1.700000*%
%TD*%
%TA.AperFunction,SMDPad,CuDef*%
%ADD13FreePoly0,90.000000*%
%TD*%
%TA.AperFunction,SMDPad,CuDef*%
%ADD14FreePoly1,90.000000*%
%TD*%
%TA.AperFunction,SMDPad,CuDef*%
%ADD15FreePoly2,270.000000*%
%TD*%
%TA.AperFunction,SMDPad,CuDef*%
%ADD16R,1.500000X1.000000*%
%TD*%
%TA.AperFunction,SMDPad,CuDef*%
%ADD17FreePoly3,270.000000*%
%TD*%
%TA.AperFunction,SMDPad,CuDef*%
%ADD18FreePoly2,90.000000*%
%TD*%
%TA.AperFunction,SMDPad,CuDef*%
%ADD19FreePoly3,90.000000*%
%TD*%
%TA.AperFunction,ViaPad*%
%ADD20C,0.450000*%
%TD*%
%TA.AperFunction,ViaPad*%
%ADD21C,0.800000*%
%TD*%
%TA.AperFunction,Conductor*%
%ADD22C,0.500000*%
%TD*%
%TA.AperFunction,Conductor*%
%ADD23C,0.090000*%
%TD*%
G04 APERTURE END LIST*
D10*
%TA.AperFunction,EtchedComponent*%
%TO.C,JP4*%
G36*
X152125000Y-102602000D02*
G01*
X151525000Y-102602000D01*
X151525000Y-102102000D01*
X152125000Y-102102000D01*
X152125000Y-102602000D01*
G37*
%TD.AperFunction*%
%TA.AperFunction,EtchedComponent*%
%TO.C,JP2*%
G36*
X155300000Y-103252000D02*
G01*
X154700000Y-103252000D01*
X154700000Y-102752000D01*
X155300000Y-102752000D01*
X155300000Y-103252000D01*
G37*
%TD.AperFunction*%
%TD*%
D11*
%TO.P,J4,1,Pin_1*%
%TO.N,GND*%
X153725000Y-124450000D03*
D12*
%TO.P,J4,2,Pin_2*%
%TO.N,P2_0*%
X156265000Y-124450000D03*
%TO.P,J4,3,Pin_3*%
%TO.N,P1_6*%
X153725000Y-126990000D03*
%TO.P,J4,4,Pin_4*%
%TO.N,P2_2*%
X156265000Y-126990000D03*
%TO.P,J4,5,Pin_5*%
%TO.N,P1_7*%
X153725000Y-129530000D03*
%TO.P,J4,6,Pin_6*%
%TO.N,P2_1*%
X156265000Y-129530000D03*
%TO.P,J4,7,Pin_7*%
%TO.N,P1_4*%
X153725000Y-132070000D03*
%TO.P,J4,8,Pin_8*%
%TO.N,GND*%
X156265000Y-132070000D03*
%TD*%
D11*
%TO.P,J3,1,Pin_1*%
%TO.N,GND*%
X161350000Y-86350000D03*
D12*
%TO.P,J3,2,Pin_2*%
%TO.N,+3V3*%
X161350000Y-88890000D03*
%TO.P,J3,3,Pin_3*%
%TO.N,VIO*%
X161350000Y-91430000D03*
%TO.P,J3,4,Pin_4*%
%TO.N,GND*%
X161350000Y-93970000D03*
%TO.P,J3,5,Pin_5*%
%TO.N,/~{RESET}*%
X161350000Y-96510000D03*
%TO.P,J3,6,Pin_6*%
%TO.N,GND*%
X161350000Y-99050000D03*
%TO.P,J3,7,Pin_7*%
%TO.N,P4_1*%
X161350000Y-101590000D03*
%TO.P,J3,8,Pin_8*%
%TO.N,P4_0*%
X161350000Y-104130000D03*
%TO.P,J3,9,Pin_9*%
%TO.N,P3_7*%
X161350000Y-106670000D03*
%TO.P,J3,10,Pin_10*%
%TO.N,P3_6*%
X161350000Y-109210000D03*
%TO.P,J3,11,Pin_11*%
%TO.N,P3_5*%
X161350000Y-111750000D03*
%TO.P,J3,12,Pin_12*%
%TO.N,P3_3*%
X161350000Y-114290000D03*
%TO.P,J3,13,Pin_13*%
%TO.N,P3_2*%
X161350000Y-116830000D03*
%TO.P,J3,14,Pin_14*%
%TO.N,P3_0*%
X161350000Y-119370000D03*
%TO.P,J3,15,Pin_15*%
%TO.N,P2_7*%
X161350000Y-121910000D03*
%TO.P,J3,16,Pin_16*%
%TO.N,P2_5*%
X161350000Y-124450000D03*
%TO.P,J3,17,Pin_17*%
%TO.N,P2_6*%
X161350000Y-126990000D03*
%TO.P,J3,18,Pin_18*%
%TO.N,P2_4*%
X161350000Y-129530000D03*
%TO.P,J3,19,Pin_19*%
%TO.N,P2_3*%
X161350000Y-132070000D03*
%TO.P,J3,20,Pin_20*%
%TO.N,GND*%
X161350000Y-134610000D03*
%TD*%
D11*
%TO.P,J2,1,Pin_1*%
%TO.N,GND*%
X148650000Y-86350000D03*
D12*
%TO.P,J2,2,Pin_2*%
%TO.N,/SCL*%
X148650000Y-88890000D03*
%TO.P,J2,3,Pin_3*%
%TO.N,/SDA*%
X148650000Y-91430000D03*
%TO.P,J2,4,Pin_4*%
%TO.N,GND*%
X148650000Y-93970000D03*
%TO.P,J2,5,Pin_5*%
%TO.N,/~{INT}*%
X148650000Y-96510000D03*
%TO.P,J2,6,Pin_6*%
%TO.N,GND*%
X148650000Y-99050000D03*
%TO.P,J2,7,Pin_7*%
%TO.N,P3_4*%
X148650000Y-101590000D03*
%TO.P,J2,8,Pin_8*%
%TO.N,P0_2*%
X148650000Y-104130000D03*
%TO.P,J2,9,Pin_9*%
%TO.N,P0_1*%
X148650000Y-106670000D03*
%TO.P,J2,10,Pin_10*%
%TO.N,P0_5*%
X148650000Y-109210000D03*
%TO.P,J2,11,Pin_11*%
%TO.N,P0_0*%
X148650000Y-111750000D03*
%TO.P,J2,12,Pin_12*%
%TO.N,P0_4*%
X148650000Y-114290000D03*
%TO.P,J2,13,Pin_13*%
%TO.N,P0_3*%
X148650000Y-116830000D03*
%TO.P,J2,14,Pin_14*%
%TO.N,P0_7*%
X148650000Y-119370000D03*
%TO.P,J2,15,Pin_15*%
%TO.N,P0_6*%
X148650000Y-121910000D03*
%TO.P,J2,16,Pin_16*%
%TO.N,P1_2*%
X148650000Y-124450000D03*
%TO.P,J2,17,Pin_17*%
%TO.N,P1_1*%
X148650000Y-126990000D03*
%TO.P,J2,18,Pin_18*%
%TO.N,P1_5*%
X148650000Y-129530000D03*
%TO.P,J2,19,Pin_19*%
%TO.N,P1_3*%
X148650000Y-132070000D03*
%TO.P,J2,20,Pin_20*%
%TO.N,GND*%
X148650000Y-134610000D03*
%TD*%
D13*
%TO.P,JP4,1,A*%
%TO.N,Net-(JP4-A)*%
X151825000Y-103002000D03*
D14*
%TO.P,JP4,2,B*%
%TO.N,+3V3*%
X151825000Y-101702000D03*
%TD*%
D15*
%TO.P,JP3,3,B*%
%TO.N,+3V3*%
X157921000Y-103652000D03*
D16*
%TO.P,JP3,2,C*%
%TO.N,/ADDR*%
X157921000Y-102352000D03*
D17*
%TO.P,JP3,1,A*%
%TO.N,GND*%
X157921000Y-101052000D03*
%TD*%
D18*
%TO.P,JP2,3,B*%
%TO.N,/SDA*%
X155000000Y-101052000D03*
D16*
%TO.P,JP2,2,C*%
%TO.N,/ADDR*%
X155000000Y-102352000D03*
D19*
%TO.P,JP2,1,A*%
%TO.N,/SCL*%
X155000000Y-103652000D03*
%TD*%
D11*
%TO.P,JP1,1,A*%
%TO.N,+3V3*%
X156270000Y-93985000D03*
D12*
%TO.P,JP1,2,C*%
%TO.N,/V_{DD(P)}*%
X156270000Y-96525000D03*
%TO.P,JP1,3,B*%
%TO.N,VIO*%
X156270000Y-99065000D03*
%TD*%
D20*
%TO.N,GND*%
X156777996Y-109605002D03*
D21*
X152460000Y-133975000D03*
X153095000Y-134610000D03*
X153730000Y-133975000D03*
X154365000Y-134610000D03*
D20*
%TO.N,/SDA*%
X153603000Y-107305000D03*
%TO.N,GND*%
X157921002Y-101052000D03*
X157286000Y-95621000D03*
X157413000Y-92827000D03*
X153729998Y-107940000D03*
X151952000Y-109337000D03*
X151825000Y-104765000D03*
X155206978Y-105330000D03*
%TO.N,/ADDR*%
X155200000Y-105908000D03*
%TO.N,GND*%
X156695984Y-106371016D03*
%TO.N,/~{INT}*%
X152586998Y-109337000D03*
X152481000Y-104765000D03*
%TO.N,+3V3*%
X153607000Y-104765000D03*
X157413000Y-106289000D03*
%TO.N,/~{RESET}*%
X157413000Y-107305000D03*
%TO.N,GND*%
X156778000Y-107305000D03*
%TO.N,/V_{DD(P)}*%
X156143000Y-107305000D03*
%TO.N,GND*%
X154247629Y-106035686D03*
X154238000Y-107305000D03*
X151952000Y-107305000D03*
X151952000Y-106035000D03*
%TO.N,/SCL*%
X153602998Y-106035000D03*
%TO.N,Net-(JP4-A)*%
X152587000Y-107305000D03*
X152585883Y-106036117D03*
%TO.N,+3V3*%
X154000000Y-108600000D03*
%TO.N,GND*%
X156500030Y-91152030D03*
D21*
X157540000Y-133975000D03*
X156905000Y-134610000D03*
X156270000Y-133975000D03*
X155635000Y-134610000D03*
X155000000Y-133848000D03*
%TD*%
D22*
%TO.N,+3V3*%
X151825000Y-98430000D02*
X152150000Y-98105000D01*
X151825000Y-101702000D02*
X151825000Y-98430000D01*
X156270000Y-93985000D02*
X152150000Y-98105000D01*
X152150000Y-98105000D02*
X149920000Y-100335000D01*
D23*
%TO.N,Net-(JP4-A)*%
X151465000Y-103362000D02*
X151825000Y-103002000D01*
X151465000Y-104915234D02*
X151465000Y-103362000D01*
X152585883Y-106036117D02*
X151465000Y-104915234D01*
D22*
%TO.N,/V_{DD(P)}*%
X156524000Y-107940000D02*
X156143000Y-107559000D01*
X157667000Y-107940000D02*
X156524000Y-107940000D01*
X156143000Y-107559000D02*
X156143000Y-107305000D01*
X159445000Y-106162000D02*
X157667000Y-107940000D01*
X159445000Y-99700000D02*
X159445000Y-106162000D01*
X156270000Y-96525000D02*
X159445000Y-99700000D01*
D23*
%TO.N,/SDA*%
X153752441Y-102079559D02*
X154780000Y-101052000D01*
X152841000Y-105052588D02*
X152841001Y-104383441D01*
X153752441Y-103472001D02*
X153752441Y-102079559D01*
X152989002Y-105200590D02*
X152841000Y-105052588D01*
X152841001Y-104383441D02*
X153752441Y-103472001D01*
X152989002Y-106691002D02*
X152989002Y-105200590D01*
X154780000Y-101052000D02*
X155000000Y-101052000D01*
X153603000Y-107305000D02*
X152989002Y-106691002D01*
%TO.N,/SCL*%
X153021000Y-104978030D02*
X153602998Y-105560028D01*
X153021000Y-104458000D02*
X153021000Y-104978030D01*
X153827000Y-103652000D02*
X153021000Y-104458000D01*
X153602998Y-105560028D02*
X153602998Y-106035000D01*
X155000000Y-103652000D02*
X153827000Y-103652000D01*
%TO.N,/ADDR*%
X153570528Y-105273000D02*
X154565000Y-105273000D01*
X153222000Y-104924472D02*
X153570528Y-105273000D01*
X153222000Y-104603516D02*
X153222000Y-104924472D01*
X154565000Y-105273000D02*
X155200000Y-105908000D01*
X153447528Y-104377988D02*
X153222000Y-104603516D01*
X156397000Y-103622000D02*
X155641012Y-104377988D01*
X156397000Y-102352000D02*
X156397000Y-103622000D01*
X155641012Y-104377988D02*
X153447528Y-104377988D01*
X155381000Y-102352000D02*
X157921000Y-102352000D01*
D22*
%TO.N,+3V3*%
X157002000Y-103652000D02*
X155889000Y-104765000D01*
X157921000Y-103652000D02*
X157002000Y-103652000D01*
X151850000Y-108600000D02*
X154000000Y-108600000D01*
X149920000Y-106670000D02*
X151850000Y-108600000D01*
X149920000Y-100335000D02*
X149920000Y-106670000D01*
X157413000Y-106289000D02*
X155889000Y-104765000D01*
X155889000Y-104765000D02*
X155762000Y-104765000D01*
X155762000Y-104765000D02*
X153607000Y-104765000D01*
X153607000Y-104762988D02*
X153607000Y-104765000D01*
%TD*%
%TA.AperFunction,Conductor*%
%TO.N,GND*%
G36*
X162607113Y-85092887D02*
G01*
X162620000Y-85124000D01*
X162620000Y-87576000D01*
X162607113Y-87607113D01*
X162576000Y-87620000D01*
X147424000Y-87620000D01*
X147392887Y-87607113D01*
X147380000Y-87576000D01*
X147380000Y-85124000D01*
X147392887Y-85092887D01*
X147424000Y-85080000D01*
X162576000Y-85080000D01*
X162607113Y-85092887D01*
G37*
%TD.AperFunction*%
%TD*%
%TA.AperFunction,Conductor*%
%TO.N,GND*%
G36*
X162607113Y-133352887D02*
G01*
X162620000Y-133384000D01*
X162620000Y-135836000D01*
X162607113Y-135867113D01*
X162576000Y-135880000D01*
X147424000Y-135880000D01*
X147392887Y-135867113D01*
X147380000Y-135836000D01*
X147380000Y-133384000D01*
X147392887Y-133352887D01*
X147424000Y-133340000D01*
X162576000Y-133340000D01*
X162607113Y-133352887D01*
G37*
%TD.AperFunction*%
%TD*%
M02*
